%TF.GenerationSoftware,KiCad,Pcbnew,8.0.3*%
%TF.CreationDate,2024-12-10T11:07:40+00:00*%
%TF.ProjectId,PCB V2.4,50434220-5632-42e3-942e-6b696361645f,rev?*%
%TF.SameCoordinates,Original*%
%TF.FileFunction,Profile,NP*%
%FSLAX46Y46*%
G04 Gerber Fmt 4.6, Leading zero omitted, Abs format (unit mm)*
G04 Created by KiCad (PCBNEW 8.0.3) date 2024-12-10 11:07:40*
%MOMM*%
%LPD*%
G01*
G04 APERTURE LIST*
%TA.AperFunction,Profile*%
%ADD10C,0.050000*%
%TD*%
G04 APERTURE END LIST*
D10*
X141142947Y-124205776D02*
X141142947Y-117205776D01*
X142642947Y-124705776D02*
G75*
G02*
X143142924Y-125205776I-47J-500024D01*
G01*
X99123500Y-184487223D02*
X89269947Y-184487223D01*
X65123500Y-142493776D02*
G75*
G02*
X64623500Y-142993800I-499900J-124D01*
G01*
X89269947Y-184487223D02*
G75*
G02*
X88769877Y-183987223I-147J499923D01*
G01*
X143155500Y-148077223D02*
G75*
G02*
X142655500Y-148577200I-500000J23D01*
G01*
X143142947Y-116205776D02*
G75*
G02*
X142642947Y-116705747I-499847J-124D01*
G01*
X141155500Y-156077223D02*
X141155500Y-149077223D01*
X63623500Y-134993776D02*
X64623500Y-134993776D01*
X116977053Y-184487223D02*
X107123500Y-184487223D01*
X140123500Y-23487223D02*
X66123500Y-23487223D01*
X64623500Y-148487223D02*
G75*
G02*
X65123477Y-148987223I0J-499977D01*
G01*
X99623500Y-183987223D02*
G75*
G02*
X100123500Y-183487200I500000J23D01*
G01*
X63123500Y-156987223D02*
G75*
G02*
X63623500Y-156487200I500000J23D01*
G01*
X63623500Y-134993776D02*
G75*
G02*
X63123424Y-134493776I-100J499976D01*
G01*
X65123500Y-135493776D02*
X65123500Y-142493776D01*
X139123500Y-184487223D02*
X123623500Y-184487223D01*
X143155500Y-157077223D02*
X143123500Y-180487223D01*
X143123500Y-180487223D02*
G75*
G02*
X140123500Y-183487200I-3000000J23D01*
G01*
X63623500Y-148487223D02*
G75*
G02*
X63123477Y-147987223I0J500023D01*
G01*
X141655500Y-148577223D02*
X142655500Y-148577223D01*
X63123500Y-143493776D02*
G75*
G02*
X63623500Y-142993800I500100J-124D01*
G01*
X141142947Y-117205776D02*
G75*
G02*
X141642947Y-116705747I500153J-124D01*
G01*
X65123500Y-155987223D02*
G75*
G02*
X64623500Y-156487200I-500000J23D01*
G01*
X117477053Y-183987223D02*
G75*
G02*
X117977053Y-183487153I500147J-77D01*
G01*
X117477053Y-183987223D02*
G75*
G02*
X116977053Y-184487153I-499853J-77D01*
G01*
X143142947Y-116205776D02*
X143123500Y-26487223D01*
X66123500Y-183487223D02*
G75*
G02*
X63123477Y-180487223I0J3000023D01*
G01*
X142655500Y-156577223D02*
X141655500Y-156577223D01*
X88269947Y-183487223D02*
G75*
G02*
X88769977Y-183987223I-47J-500077D01*
G01*
X64623500Y-134993776D02*
G75*
G02*
X65123424Y-135493776I-100J-500024D01*
G01*
X141155500Y-149077223D02*
G75*
G02*
X141655500Y-148577200I500000J23D01*
G01*
X141642947Y-116705776D02*
X142642947Y-116705776D01*
X122623500Y-183487223D02*
G75*
G02*
X123123477Y-183987223I0J-499977D01*
G01*
X107123500Y-184487223D02*
G75*
G02*
X106623477Y-183987223I0J500023D01*
G01*
X99623500Y-183987223D02*
G75*
G02*
X99123500Y-184487200I-500000J23D01*
G01*
X143142947Y-125205776D02*
X143155500Y-148077223D01*
X106123500Y-183487223D02*
X100123500Y-183487223D01*
X141655500Y-156577223D02*
G75*
G02*
X141155477Y-156077223I0J500023D01*
G01*
X66123500Y-183487223D02*
X88269947Y-183487223D01*
X64623500Y-142993776D02*
X63623500Y-142993776D01*
X139623500Y-183987223D02*
G75*
G02*
X140123500Y-183487200I500000J23D01*
G01*
X140123500Y-23487223D02*
G75*
G02*
X143123477Y-26487223I0J-2999977D01*
G01*
X65123500Y-148987223D02*
X65123500Y-155987223D01*
X63123500Y-26487223D02*
G75*
G02*
X66123500Y-23487200I3000000J23D01*
G01*
X142642947Y-124705776D02*
X141642947Y-124705776D01*
X63123500Y-134493776D02*
X63123500Y-26487223D01*
X106123500Y-183487223D02*
G75*
G02*
X106623477Y-183987223I0J-499977D01*
G01*
X63123500Y-147987223D02*
X63123500Y-143493776D01*
X117977053Y-183487223D02*
X122623500Y-183487223D01*
X64623500Y-156487223D02*
X63623500Y-156487223D01*
X123623500Y-184487223D02*
G75*
G02*
X123123477Y-183987223I0J500023D01*
G01*
X63123500Y-156987223D02*
X63123500Y-180487223D01*
X139623500Y-183987223D02*
G75*
G02*
X139123500Y-184487200I-500000J23D01*
G01*
X141642947Y-124705776D02*
G75*
G02*
X141142924Y-124205776I-47J499976D01*
G01*
X142655500Y-156577223D02*
G75*
G02*
X143155477Y-157077223I0J-499977D01*
G01*
X63623500Y-148487223D02*
X64623500Y-148487223D01*
M02*
