M48
; DRILL file {KiCad 8.0.3} date 2024-12-10T11:07:43+0000
; FORMAT={-:-/ absolute / inch / decimal}
; #@! TF.CreationDate,2024-12-10T11:07:43+00:00
; #@! TF.GenerationSoftware,Kicad,Pcbnew,8.0.3
; #@! TF.FileFunction,Plated,1,4,PTH
FMAT,2
INCH
; #@! TA.AperFunction,Plated,PTH,ComponentDrill
T1C0.0098
; #@! TA.AperFunction,Plated,PTH,ViaDrill
T2C0.0118
; #@! TA.AperFunction,Plated,PTH,ComponentDrill
T3C0.0157
; #@! TA.AperFunction,Plated,PTH,ComponentDrill
T4C0.0181
; #@! TA.AperFunction,Plated,PTH,ComponentDrill
T5C0.0197
; #@! TA.AperFunction,Plated,PTH,ComponentDrill
T6C0.0236
; #@! TA.AperFunction,Plated,PTH,ComponentDrill
T7C0.0276
; #@! TA.AperFunction,Plated,PTH,ComponentDrill
T8C0.0295
; #@! TA.AperFunction,Plated,PTH,ComponentDrill
T9C0.0354
; #@! TA.AperFunction,Plated,PTH,ComponentDrill
T10C0.0394
; #@! TA.AperFunction,Plated,PTH,ComponentDrill
T11C0.0398
; #@! TA.AperFunction,Plated,PTH,ComponentDrill
T12C0.0520
; #@! TA.AperFunction,Plated,PTH,ComponentDrill
T13C0.0728
; #@! TA.AperFunction,Plated,PTH,ComponentDrill
T14C0.0866
; #@! TA.AperFunction,Plated,PTH,ComponentDrill
T15C0.1260
%
G90
G05
T1
X3.1303Y-4.6224
X3.1303Y-4.6624
X3.1503Y-4.6424
X3.1703Y-4.6224
X3.1703Y-4.6624
X3.311Y-5.1717
X3.311Y-5.2017
X3.311Y-5.2317
X3.341Y-5.1717
X3.341Y-5.2017
X3.341Y-5.2317
X3.371Y-5.1717
X3.371Y-5.2017
X3.371Y-5.2317
X3.4548Y-3.3354
X3.4548Y-3.3654
X3.4548Y-3.3954
X3.4848Y-3.3354
X3.4848Y-3.3654
X3.4848Y-3.3954
X3.5148Y-3.3354
X3.5148Y-3.3654
X3.5148Y-3.3954
X3.7623Y-6.5042
X3.7623Y-6.5392
X3.7623Y-6.5742
X3.7973Y-6.5042
X3.7973Y-6.5392
X3.7973Y-6.5742
X3.8323Y-6.5042
X3.8323Y-6.5392
X3.8323Y-6.5742
X3.9225Y-5.9537
X3.9225Y-6.001
X3.9225Y-6.0482
X3.9225Y-6.0954
X3.9634Y-5.9946
X3.9634Y-6.0546
X3.9698Y-5.9537
X3.9698Y-6.0954
X3.9934Y-6.0246
X4.0058Y-3.962
X4.0058Y-4.0171
X4.0058Y-4.0723
X4.017Y-5.9537
X4.017Y-6.0954
X4.0234Y-5.9946
X4.0234Y-6.0546
X4.0609Y-3.962
X4.0609Y-4.0171
X4.0609Y-4.0723
X4.0643Y-5.9537
X4.0643Y-6.001
X4.0643Y-6.0482
X4.0643Y-6.0954
X4.116Y-3.962
X4.116Y-4.0171
X4.116Y-4.0723
X4.4348Y-3.3554
X4.4348Y-3.3854
X4.4348Y-3.4154
X4.4648Y-3.3554
X4.4648Y-3.3854
X4.4648Y-3.4154
X4.4948Y-3.3554
X4.4948Y-3.3854
X4.4948Y-3.4154
X4.5998Y-4.8154
X4.5998Y-4.8454
X4.5998Y-4.8754
X4.6298Y-4.8154
X4.6298Y-4.8454
X4.6298Y-4.8754
X4.6598Y-4.8154
X4.6598Y-4.8454
X4.6598Y-4.8754
T2
X2.6498Y-5.6855
X2.6498Y-5.7755
X2.7288Y-5.3161
X2.7404Y-5.6855
X2.7865Y-6.8992
X2.7998Y-6.1955
X2.8762Y-5.4293
X2.8782Y-5.5155
X2.8834Y-5.575
X2.9392Y-4.2405
X2.9473Y-7.0166
X2.9898Y-4.6046
X2.9898Y-4.6838
X2.9898Y-4.7671
X2.9898Y-4.8463
X3.0145Y-4.2703
X3.0665Y-5.9292
X3.0665Y-6.0092
X3.0673Y-6.0983
X3.0793Y-5.0355
X3.0793Y-5.1155
X3.0793Y-5.2755
X3.0808Y-5.1955
X3.1273Y-7.06
X3.1457Y-5.9292
X3.1457Y-6.0092
X3.1473Y-6.0983
X3.1586Y-5.0355
X3.1586Y-5.1155
X3.1589Y-4.1355
X3.1589Y-4.2155
X3.1768Y-6.3092
X3.2152Y-5.1739
X3.2173Y-7.06
X3.2352Y-5.2939
X3.2404Y-4.8863
X3.2406Y-3.9755
X3.2406Y-4.3755
X3.2406Y-4.4555
X3.2417Y-5.4455
X3.2418Y-3.3939
X3.2418Y-3.4689
X3.2418Y-3.5439
X3.2473Y-5.8192
X3.2633Y-5.9986
X3.2633Y-6.0892
X3.2633Y-6.1797
X3.2702Y-6.7589
X3.2752Y-6.8789
X3.2852Y-5.3339
X3.2952Y-5.0639
X3.3186Y-3.3939
X3.3186Y-3.5439
X3.3202Y-5.3363
X3.3273Y-6.5183
X3.3273Y-6.6683
X3.3273Y-7.0586
X3.3306Y-1.9754
X3.3325Y-5.8692
X3.3528Y-5.3313
X3.3556Y-2.7704
X3.4021Y-5.306
X3.4073Y-1.9754
X3.4202Y-1.9089
X3.4248Y-3.5989
X3.4298Y-2.5555
X3.4298Y-2.6323
X3.4298Y-3.0121
X3.4465Y-6.3692
X3.4465Y-6.4492
X3.4465Y-6.5292
X3.4465Y-6.6092
X3.4465Y-6.6892
X3.4472Y-5.3142
X3.4492Y-4.5655
X3.4549Y-5.2787
X3.4552Y-3.1205
X3.4552Y-3.1973
X3.4651Y-5.641
X3.4652Y-2.7254
X3.4848Y-2.2554
X3.4852Y-1.8039
X3.4904Y-6.8905
X3.5002Y-3.7361
X3.5002Y-3.963
X3.5073Y-5.7892
X3.5113Y-6.0892
X3.5198Y-3.5255
X3.5198Y-3.6023
X3.5257Y-6.3692
X3.5257Y-6.4492
X3.5402Y-4.7789
X3.5484Y-3.4705
X3.5598Y-3.1205
X3.5598Y-3.1973
X3.5602Y-4.1089
X3.5782Y-3.4553
X3.5802Y-3.8589
X3.5848Y-2.5296
X3.5848Y-6.982
X3.5902Y-1.4439
X3.5979Y-6.3692
X3.6002Y-3.2639
X3.6003Y-3.3899
X3.6039Y-2.3354
X3.6044Y-2.2554
X3.6152Y-1.4739
X3.6182Y-4.7404
X3.621Y-5.1155
X3.621Y-5.1955
X3.6402Y-6.4539
X3.6577Y-4.9754
X3.6648Y-2.8421
X3.6652Y-6.7589
X3.6767Y-6.3692
X3.6856Y-2.0204
X3.6898Y-6.0046
X3.6898Y-6.0863
X3.6898Y-6.1955
X3.698Y-4.5374
X3.7102Y-2.4789
X3.7152Y-6.6889
X3.7202Y-1.4389
X3.7202Y-6.8539
X3.7236Y-3.3204
X3.7398Y-1.5321
X3.7398Y-1.6088
X3.7448Y-2.8421
X3.7644Y-6.2559
X3.7668Y-2.4089
X3.7698Y-6.0046
X3.7698Y-6.0863
X3.7719Y-3.1857
X3.7755Y-3.7132
X3.7802Y-6.6939
X3.8248Y-2.6113
X3.8266Y-3.4834
X3.8266Y-5.2043
X3.8399Y-6.1638
X3.8407Y-6.982
X3.8436Y-2.4089
X3.8552Y-3.5355
X3.8552Y-3.6123
X3.8748Y-3.1804
X3.8798Y-3.2804
X3.881Y-5.2855
X3.881Y-5.3755
X3.9252Y-5.8359
X3.9352Y-3.5355
X3.9352Y-3.6123
X3.9392Y-6.8905
X3.9566Y-3.4067
X3.9852Y-5.8439
X3.9987Y-6.2639
X3.9992Y-1.6392
X4.0395Y-6.4789
X4.0399Y-6.5624
X4.049Y-5.8255
X4.0804Y-6.2589
X4.0804Y-6.3439
X4.1154Y-1.6392
X4.1306Y-5.8255
X4.1352Y-5.0039
X4.1594Y-6.3439
X4.1652Y-6.2639
X4.181Y-6.8905
X4.2164Y-5.9065
X4.2224Y-3.3654
X4.2234Y-3.2704
X4.2279Y-6.5239
X4.2284Y-3.4604
X4.2295Y-6.2639
X4.241Y-6.3439
X4.2793Y-6.982
X4.3002Y-3.2704
X4.3052Y-3.4604
X4.3422Y-4.0352
X4.3675Y-4.1527
X4.3798Y-2.3513
X4.3798Y-4.8571
X4.3798Y-4.9363
X4.3852Y-2.9089
X4.3902Y-6.8589
X4.3922Y-3.9506
X4.3948Y-3.1455
X4.3948Y-3.2223
X4.3981Y-5.7774
X4.4066Y-3.702
X4.4107Y-6.72
X4.4144Y-4.0642
X4.423Y-6.5339
X4.4304Y-6.2689
X4.4304Y-6.3539
X4.4398Y-2.0063
X4.4442Y-6.72
X4.4502Y-2.5371
X4.4502Y-2.6138
X4.4528Y-4.7653
X4.4602Y-6.0789
X4.461Y-5.9889
X4.4645Y-3.7132
X4.4698Y-4.9363
X4.4871Y-5.093
X4.5177Y-1.3464
X4.5241Y-6.4732
X4.5314Y-3.6189
X4.5348Y-2.4363
X4.5352Y-6.982
X4.5578Y-6.4173
X4.5752Y-3.2354
X4.5798Y-4.5288
X4.6041Y-5.8027
X4.6066Y-3.5439
X4.6082Y-3.6189
X4.6098Y-1.9246
X4.6099Y-3.4392
X4.6148Y-2.7313
X4.6148Y-2.8863
X4.6152Y-2.1339
X4.6204Y-5.0055
X4.6204Y-5.0855
X4.6324Y-5.3537
X4.6342Y-6.8905
X4.6352Y-1.3139
X4.6368Y-1.381
X4.6402Y-3.3654
X4.6481Y-4.7194
X4.6519Y-3.2354
X4.6591Y-5.8049
X4.682Y-4.703
X4.6948Y-2.0854
X4.7136Y-1.381
X4.7169Y-3.3654
X4.7198Y-5.7856
X4.7198Y-5.9756
X4.7198Y-6.1363
X4.7198Y-7.0721
X4.7198Y-7.1488
X4.7352Y-1.6739
X4.7626Y-6.7384
X4.7656Y-3.6354
X4.7701Y-2.0054
X4.7702Y-4.9289
X4.7706Y-1.8054
X4.7716Y-2.0854
X4.7948Y-2.3463
X4.7948Y-2.5013
X4.7985Y-7.0721
X4.8052Y-1.7289
X4.814Y-3.546
X4.8868Y-1.6804
X4.8998Y-5.8956
X4.8998Y-6.0546
X4.9064Y-7.1688
X4.9148Y-3.5263
X4.9271Y-5.3055
X4.9297Y-4.8749
X4.9298Y-4.992
X4.9636Y-1.6804
X4.9898Y-5.8956
X4.9898Y-6.0546
X5.016Y-4.8729
X5.0242Y-7.0743
X5.0482Y-4.0655
X5.0498Y-6.5603
X5.0506Y-3.9555
X5.0786Y-5.0614
X5.0906Y-4.9855
X5.1167Y-4.6473
X5.1185Y-4.4076
X5.1192Y-4.4955
X5.1192Y-4.5855
X5.1358Y-5.446
X5.1498Y-6.3655
X5.1698Y-5.9736
X5.1698Y-6.1342
X5.1746Y-4.1859
X5.1986Y-4.6655
X5.1986Y-4.7029
X5.1986Y-4.8155
X5.1986Y-4.8529
X5.2065Y-3.7104
X5.2398Y-3.9555
X5.249Y-6.4877
X5.2498Y-4.3939
X5.2498Y-5.0969
X5.2998Y-6.3655
X5.301Y-4.7029
X5.3334Y-6.4908
X5.3575Y-4.1755
X5.3583Y-3.7154
X5.3588Y-3.8955
X5.3598Y-3.8155
X5.3598Y-4.2655
X5.3998Y-6.5603
X5.4242Y-7.2082
X5.4395Y-3.9755
X5.44Y-4.5155
T3
X2.5777Y-1.0822
X2.5967Y-1.0362
X2.5967Y-1.1281
X2.6171Y-7.0271
X2.6361Y-6.9811
X2.6361Y-7.073
X2.6427Y-1.0172
X2.6427Y-1.1471
X2.682Y-6.9621
X2.682Y-7.092
X2.6886Y-1.0362
X2.6886Y-1.1281
X2.7076Y-1.0822
X2.728Y-6.9811
X2.728Y-7.073
X2.747Y-7.0271
X3.995Y-1.279
X4.014Y-1.2331
X4.014Y-1.325
X4.06Y-1.2141
X4.06Y-1.344
X4.1059Y-1.2331
X4.1059Y-1.325
X4.1249Y-1.279
X5.4123Y-1.0822
X5.4314Y-1.0362
X5.4314Y-1.1281
X5.4548Y-6.2654
X5.4738Y-6.2195
X5.4738Y-6.3114
X5.4773Y-1.0172
X5.4773Y-1.1471
X5.5198Y-6.2005
X5.5198Y-6.3304
X5.5232Y-1.0362
X5.5232Y-1.1281
X5.5423Y-1.0822
X5.5657Y-6.2195
X5.5657Y-6.3114
X5.5847Y-6.2654
T4
X2.8245Y-1.181
X3.1694Y-1.181
X3.5332Y-1.181
X3.8781Y-1.181
X4.2419Y-1.181
X4.5868Y-1.181
X4.9505Y-1.181
X5.2954Y-1.181
T5
X2.8997Y-1.637
X2.9097Y-5.6643
X2.9297Y-1.5702
X2.9297Y-1.7038
X2.9397Y-5.5975
X2.9397Y-5.7311
X2.9843Y-1.5551
X2.9843Y-1.7251
X2.9943Y-5.5824
X2.9943Y-5.7524
X3.0397Y-1.5702
X3.0397Y-1.7038
X3.0497Y-5.5975
X3.0497Y-5.7311
X3.0697Y-1.637
X3.0797Y-5.6643
X5.0611Y-1.637
X5.0611Y-5.6543
X5.0911Y-1.5702
X5.0911Y-1.7038
X5.0911Y-5.5875
X5.0911Y-5.7211
X5.1458Y-1.5551
X5.1458Y-1.7251
X5.1458Y-5.5724
X5.1458Y-5.7424
X5.2011Y-1.5702
X5.2011Y-1.7038
X5.2011Y-5.5875
X5.2011Y-5.7211
X5.2311Y-1.637
X5.2311Y-5.6543
T7
X3.6598Y-3.7154
X3.6598Y-3.7654
X3.6598Y-3.8154
X3.6598Y-3.8654
X3.6598Y-3.9154
X3.6598Y-3.9654
X3.6598Y-4.0154
X3.6598Y-4.0654
X3.6598Y-4.1154
X3.6598Y-4.1654
X3.6598Y-4.2154
X3.6598Y-4.2654
X3.6598Y-4.3154
X3.6598Y-4.3654
X3.8498Y-4.5154
X3.8998Y-4.5154
X3.9498Y-4.5154
X3.9998Y-4.5154
X4.0498Y-4.5154
X4.0998Y-4.5154
X4.1498Y-4.5154
X4.1998Y-4.5154
X4.2498Y-4.5154
X4.2998Y-4.5154
X4.3498Y-4.5154
X4.3998Y-4.5154
X4.5798Y-3.7154
X4.5798Y-3.7654
X4.5798Y-3.8154
X4.5798Y-3.8654
X4.5798Y-3.9154
X4.5798Y-3.9654
X4.5798Y-4.0154
X4.5798Y-4.0654
X4.5798Y-4.1154
X4.5798Y-4.1654
X4.5798Y-4.2154
X4.5798Y-4.2654
X4.5798Y-4.3154
X4.5798Y-4.3654
T8
X2.8375Y-5.9641
X2.8375Y-6.0428
T9
X5.4862Y-5.0599
X5.5747Y-5.2354
X5.5747Y-5.3354
X5.5747Y-5.4354
X5.5862Y-5.0599
T10
X2.6198Y-5.4262
X2.6198Y-5.5262
X3.4151Y-5.6937
X3.5151Y-5.6937
X3.6151Y-5.6937
X3.7151Y-5.6937
X3.8151Y-5.6937
X3.9151Y-5.6937
X4.0151Y-5.6937
X4.1151Y-5.6937
X4.2151Y-5.6937
X4.3151Y-5.6937
X4.4151Y-5.6937
X4.5151Y-5.6937
X4.6151Y-5.6937
X4.7151Y-5.6937
X5.4898Y-4.7056
X5.4898Y-4.8056
T11
X2.7198Y-4.4089
X2.7198Y-4.5861
X2.7198Y-4.8717
X2.7198Y-5.0489
T12
X2.8178Y-4.3595
X2.8178Y-4.6355
X2.8178Y-4.8223
X2.8178Y-5.0983
T13
X2.5627Y-6.2473
X2.5627Y-6.7674
X2.5639Y-3.6255
X2.5639Y-4.1456
X2.9379Y-6.3223
X2.9379Y-6.5074
X2.9379Y-6.6924
X2.9391Y-3.7005
X2.9391Y-3.8855
X2.9391Y-4.0706
T14
X2.6427Y-1.0822
X2.682Y-7.0271
X4.06Y-1.279
X5.4773Y-1.0822
X5.5198Y-6.2654
T15
X2.9843Y-1.637
X2.9943Y-5.6643
X5.1458Y-1.637
X5.1458Y-5.6543
T6
G00X3.5427Y-6.9963
M15
G01X3.5427Y-7.0397
M16
G05
G00X3.5427Y-7.1708
M15
G01X3.5427Y-7.1944
M16
G05
G00X3.8828Y-6.9963
M15
G01X3.8828Y-7.0397
M16
G05
G00X3.8828Y-7.1708
M15
G01X3.8828Y-7.1944
M16
G05
G00X4.2371Y-6.9963
M15
G01X4.2371Y-7.0397
M16
G05
G00X4.2371Y-7.1708
M15
G01X4.2371Y-7.1944
M16
G05
G00X4.5773Y-6.9963
M15
G01X4.5773Y-7.0397
M16
G05
G00X4.5773Y-7.1708
M15
G01X4.5773Y-7.1944
M16
G05
M30
