%TF.GenerationSoftware,KiCad,Pcbnew,8.0.3*%
%TF.CreationDate,2024-06-13T15:47:36+01:00*%
%TF.ProjectId,PCB,5043422e-6b69-4636-9164-5f7063625858,rev?*%
%TF.SameCoordinates,Original*%
%TF.FileFunction,Soldermask,Bot*%
%TF.FilePolarity,Negative*%
%FSLAX46Y46*%
G04 Gerber Fmt 4.6, Leading zero omitted, Abs format (unit mm)*
G04 Created by KiCad (PCBNEW 8.0.3) date 2024-06-13 15:47:36*
%MOMM*%
%LPD*%
G01*
G04 APERTURE LIST*
G04 Aperture macros list*
%AMRoundRect*
0 Rectangle with rounded corners*
0 $1 Rounding radius*
0 $2 $3 $4 $5 $6 $7 $8 $9 X,Y pos of 4 corners*
0 Add a 4 corners polygon primitive as box body*
4,1,4,$2,$3,$4,$5,$6,$7,$8,$9,$2,$3,0*
0 Add four circle primitives for the rounded corners*
1,1,$1+$1,$2,$3*
1,1,$1+$1,$4,$5*
1,1,$1+$1,$6,$7*
1,1,$1+$1,$8,$9*
0 Add four rect primitives between the rounded corners*
20,1,$1+$1,$2,$3,$4,$5,0*
20,1,$1+$1,$4,$5,$6,$7,0*
20,1,$1+$1,$6,$7,$8,$9,0*
20,1,$1+$1,$8,$9,$2,$3,0*%
G04 Aperture macros list end*
%ADD10C,0.700000*%
%ADD11C,4.400000*%
%ADD12R,1.600000X1.600000*%
%ADD13O,1.600000X1.600000*%
%ADD14C,0.650000*%
%ADD15O,1.000000X2.100000*%
%ADD16O,1.000000X1.600000*%
%ADD17RoundRect,0.250000X-0.625000X0.350000X-0.625000X-0.350000X0.625000X-0.350000X0.625000X0.350000X0*%
%ADD18O,1.750000X1.200000*%
G04 APERTURE END LIST*
D10*
%TO.C,H4*%
X121350000Y-149500000D03*
X121833274Y-148333274D03*
X121833274Y-150666726D03*
X123000000Y-147850000D03*
D11*
X123000000Y-149500000D03*
D10*
X123000000Y-151150000D03*
X124166726Y-148333274D03*
X124166726Y-150666726D03*
X124650000Y-149500000D03*
%TD*%
%TO.C,H3*%
X76350000Y-49500000D03*
X76833274Y-48333274D03*
X76833274Y-50666726D03*
X78000000Y-47850000D03*
D11*
X78000000Y-49500000D03*
D10*
X78000000Y-51150000D03*
X79166726Y-48333274D03*
X79166726Y-50666726D03*
X79650000Y-49500000D03*
%TD*%
%TO.C,H2*%
X121350000Y-49500000D03*
X121833274Y-48333274D03*
X121833274Y-50666726D03*
X123000000Y-47850000D03*
D11*
X123000000Y-49500000D03*
D10*
X123000000Y-51150000D03*
X124166726Y-48333274D03*
X124166726Y-50666726D03*
X124650000Y-49500000D03*
%TD*%
%TO.C,H1*%
X76350000Y-149500000D03*
X76833274Y-148333274D03*
X76833274Y-150666726D03*
X78000000Y-147850000D03*
D11*
X78000000Y-149500000D03*
D10*
X78000000Y-151150000D03*
X79166726Y-148333274D03*
X79166726Y-150666726D03*
X79650000Y-149500000D03*
%TD*%
D12*
%TO.C,SW1*%
X80800000Y-166500000D03*
D13*
X73180000Y-166500000D03*
%TD*%
D14*
%TO.C,J1*%
X97610000Y-162400000D03*
X103390000Y-162400000D03*
D15*
X96180000Y-161870000D03*
D16*
X96180000Y-166050000D03*
D15*
X104820000Y-161870000D03*
D16*
X104820000Y-166050000D03*
%TD*%
D17*
%TO.C,JSTPH1*%
X72950000Y-156000000D03*
D18*
X72950000Y-158000000D03*
%TD*%
M02*
