M48
; DRILL file {KiCad 8.0.3} date 2024-06-13T15:47:33+0100
; FORMAT={-:-/ absolute / inch / decimal}
; #@! TF.CreationDate,2024-06-13T15:47:33+01:00
; #@! TF.GenerationSoftware,Kicad,Pcbnew,8.0.3
; #@! TF.FileFunction,Plated,1,2,PTH
FMAT,2
INCH
; #@! TA.AperFunction,Plated,PTH,ComponentDrill
T1C0.0079
; #@! TA.AperFunction,Plated,PTH,ViaDrill
T2C0.0118
; #@! TA.AperFunction,Plated,PTH,ComponentDrill
T3C0.0157
; #@! TA.AperFunction,Plated,PTH,ComponentDrill
T4C0.0236
; #@! TA.AperFunction,Plated,PTH,ComponentDrill
T5C0.0295
; #@! TA.AperFunction,Plated,PTH,ComponentDrill
T6C0.0315
; #@! TA.AperFunction,Plated,PTH,ComponentDrill
T7C0.0866
%
G90
G05
T1
X4.6579Y-4.9626
X4.6579Y-5.0177
X4.6854Y-4.935
X4.6854Y-4.9892
X4.6854Y-5.0453
X4.713Y-4.9626
X4.713Y-5.0177
X4.7406Y-4.935
X4.7406Y-4.9892
X4.7406Y-5.0453
X4.7681Y-4.9626
X4.7681Y-5.0177
T2
X2.7559Y-5.9843
X2.7559Y-6.2402
X2.7953Y-6.6142
X2.815Y-6.3386
X2.815Y-6.4173
X2.8543Y-5.9449
X2.9331Y-6.0827
X3.0315Y-6.2402
X3.0906Y-6.1811
X3.0906Y-6.2598
X3.248Y-5.6457
X3.248Y-5.6929
X3.248Y-6.0433
X3.2677Y-6.3189
X3.3071Y-6.2402
X3.4646Y-5.6693
X3.5433Y-5.7283
X3.622Y-5.7087
X3.6417Y-5.5118
X3.6811Y-5.7087
X3.6811Y-6.1811
X3.8695Y-6.4679
X3.8976Y-6.2402
X3.9173Y-5.9843
X3.9173Y-6.1811
X3.9862Y-6.25
X4.0354Y-6.4173
X4.1142Y-5.8661
X4.1929Y-5.4921
X4.2126Y-5.6654
X4.2328Y-5.6896
X4.7047Y-4.8031
X4.9409Y-4.8228
X4.9803Y-4.8228
T3
X3.0059Y-1.9488
X3.0059Y-5.8858
X3.0249Y-1.9029
X3.0249Y-1.9948
X3.0249Y-5.8399
X3.0249Y-5.9318
X3.0709Y-1.8839
X3.0709Y-2.0138
X3.0709Y-5.8209
X3.0709Y-5.9508
X3.1168Y-1.9029
X3.1168Y-1.9948
X3.1168Y-5.8399
X3.1168Y-5.9318
X3.1358Y-1.9488
X3.1358Y-5.8858
X4.7776Y-1.9488
X4.7776Y-5.8858
X4.7966Y-1.9029
X4.7966Y-1.9948
X4.7966Y-5.8399
X4.7966Y-5.9318
X4.8425Y-1.8839
X4.8425Y-2.0138
X4.8425Y-5.8209
X4.8425Y-5.9508
X4.8885Y-1.9029
X4.8885Y-1.9948
X4.8885Y-5.8399
X4.8885Y-5.9318
X4.9075Y-1.9488
X4.9075Y-5.8858
T5
X2.872Y-6.1417
X2.872Y-6.2205
T6
X2.8811Y-6.5551
X3.1811Y-6.5551
T7
X3.0709Y-1.9488
X3.0709Y-5.8858
X4.8425Y-1.9488
X4.8425Y-5.8858
T4
G00X3.7866Y-6.3512
M15
G01X3.7866Y-6.3945
M16
G05
G00X3.7866Y-6.5256
M15
G01X3.7866Y-6.5492
M16
G05
G00X4.1268Y-6.3512
M15
G01X4.1268Y-6.3945
M16
G05
G00X4.1268Y-6.5256
M15
G01X4.1268Y-6.5492
M16
G05
M30
