%TF.GenerationSoftware,KiCad,Pcbnew,8.0.3*%
%TF.CreationDate,2024-06-13T15:47:36+01:00*%
%TF.ProjectId,PCB,5043422e-6b69-4636-9164-5f7063625858,rev?*%
%TF.SameCoordinates,Original*%
%TF.FileFunction,Legend,Top*%
%TF.FilePolarity,Positive*%
%FSLAX46Y46*%
G04 Gerber Fmt 4.6, Leading zero omitted, Abs format (unit mm)*
G04 Created by KiCad (PCBNEW 8.0.3) date 2024-06-13 15:47:36*
%MOMM*%
%LPD*%
G01*
G04 APERTURE LIST*
%ADD10C,0.100000*%
%ADD11C,0.150000*%
%ADD12C,0.120000*%
%ADD13C,0.152400*%
G04 APERTURE END LIST*
D10*
X91875312Y-156372419D02*
X91541979Y-155896228D01*
X91303884Y-156372419D02*
X91303884Y-155372419D01*
X91303884Y-155372419D02*
X91684836Y-155372419D01*
X91684836Y-155372419D02*
X91780074Y-155420038D01*
X91780074Y-155420038D02*
X91827693Y-155467657D01*
X91827693Y-155467657D02*
X91875312Y-155562895D01*
X91875312Y-155562895D02*
X91875312Y-155705752D01*
X91875312Y-155705752D02*
X91827693Y-155800990D01*
X91827693Y-155800990D02*
X91780074Y-155848609D01*
X91780074Y-155848609D02*
X91684836Y-155896228D01*
X91684836Y-155896228D02*
X91303884Y-155896228D01*
X92256265Y-156324800D02*
X92399122Y-156372419D01*
X92399122Y-156372419D02*
X92637217Y-156372419D01*
X92637217Y-156372419D02*
X92732455Y-156324800D01*
X92732455Y-156324800D02*
X92780074Y-156277180D01*
X92780074Y-156277180D02*
X92827693Y-156181942D01*
X92827693Y-156181942D02*
X92827693Y-156086704D01*
X92827693Y-156086704D02*
X92780074Y-155991466D01*
X92780074Y-155991466D02*
X92732455Y-155943847D01*
X92732455Y-155943847D02*
X92637217Y-155896228D01*
X92637217Y-155896228D02*
X92446741Y-155848609D01*
X92446741Y-155848609D02*
X92351503Y-155800990D01*
X92351503Y-155800990D02*
X92303884Y-155753371D01*
X92303884Y-155753371D02*
X92256265Y-155658133D01*
X92256265Y-155658133D02*
X92256265Y-155562895D01*
X92256265Y-155562895D02*
X92303884Y-155467657D01*
X92303884Y-155467657D02*
X92351503Y-155420038D01*
X92351503Y-155420038D02*
X92446741Y-155372419D01*
X92446741Y-155372419D02*
X92684836Y-155372419D01*
X92684836Y-155372419D02*
X92827693Y-155420038D01*
X93113408Y-155372419D02*
X93684836Y-155372419D01*
X93399122Y-156372419D02*
X93399122Y-155372419D01*
D11*
X82510800Y-161954819D02*
X82510800Y-162192914D01*
X82272705Y-162097676D02*
X82510800Y-162192914D01*
X82510800Y-162192914D02*
X82748895Y-162097676D01*
X82367943Y-162383390D02*
X82510800Y-162192914D01*
X82510800Y-162192914D02*
X82653657Y-162383390D01*
D12*
%TO.C,SW1*%
X82180000Y-169160000D02*
X82180000Y-167777000D01*
X82180000Y-169160000D02*
X80796000Y-169160000D01*
X81940000Y-168920000D02*
X81940000Y-164080000D01*
X81940000Y-168920000D02*
X72040000Y-168920000D01*
X81940000Y-164080000D02*
X72040000Y-164080000D01*
X79020000Y-167135000D02*
X79020000Y-165865000D01*
X79020000Y-167015000D02*
X77666667Y-167015000D01*
X79020000Y-166895000D02*
X77666667Y-166895000D01*
X79020000Y-166775000D02*
X77666667Y-166775000D01*
X79020000Y-166655000D02*
X77666667Y-166655000D01*
X79020000Y-166535000D02*
X77666667Y-166535000D01*
X79020000Y-166415000D02*
X77666667Y-166415000D01*
X79020000Y-166295000D02*
X77666667Y-166295000D01*
X79020000Y-166175000D02*
X77666667Y-166175000D01*
X79020000Y-166055000D02*
X77666667Y-166055000D01*
X79020000Y-165935000D02*
X77666667Y-165935000D01*
X79020000Y-165865000D02*
X74960000Y-165865000D01*
X77666667Y-167135000D02*
X77666667Y-165865000D01*
X74960000Y-167135000D02*
X79020000Y-167135000D01*
X74960000Y-165865000D02*
X74960000Y-167135000D01*
X72040000Y-168920000D02*
X72040000Y-164080000D01*
%TO.C,SW2*%
X90930000Y-154070000D02*
X90930000Y-149930000D01*
X91230000Y-154070000D02*
X90930000Y-154070000D01*
X94070000Y-154070000D02*
X93770000Y-154070000D01*
X90930000Y-149930000D02*
X91230000Y-149930000D01*
X93770000Y-149930000D02*
X94070000Y-149930000D01*
X94070000Y-149930000D02*
X94070000Y-154070000D01*
%TO.C,R13*%
X87667621Y-151880000D02*
X87332379Y-151880000D01*
X87667621Y-151120000D02*
X87332379Y-151120000D01*
%TO.C,R12*%
X87332379Y-149620000D02*
X87667621Y-149620000D01*
X87332379Y-150380000D02*
X87667621Y-150380000D01*
%TO.C,R9*%
X83332379Y-142120000D02*
X83667621Y-142120000D01*
X83332379Y-142880000D02*
X83667621Y-142880000D01*
%TO.C,C10*%
X104384165Y-138640000D02*
X104615835Y-138640000D01*
X104384165Y-139360000D02*
X104615835Y-139360000D01*
%TO.C,R5*%
X102832379Y-156120000D02*
X103167621Y-156120000D01*
X102832379Y-156880000D02*
X103167621Y-156880000D01*
%TO.C,C1*%
X85738748Y-155765000D02*
X86261252Y-155765000D01*
X85738748Y-157235000D02*
X86261252Y-157235000D01*
%TO.C,J1*%
X95800000Y-163100000D02*
X95800000Y-165100000D01*
X95800000Y-167000000D02*
X95800000Y-168900000D01*
X95800000Y-168900000D02*
X105200000Y-168900000D01*
X105200000Y-163100000D02*
X105200000Y-165100000D01*
X105200000Y-167000000D02*
X105200000Y-168900000D01*
%TO.C,R3*%
X86167621Y-154880000D02*
X85832379Y-154880000D01*
X86167621Y-154120000D02*
X85832379Y-154120000D01*
%TO.C,R8*%
X104667621Y-145880000D02*
X104332379Y-145880000D01*
X104667621Y-145120000D02*
X104332379Y-145120000D01*
%TO.C,C12*%
X83384165Y-140640000D02*
X83615835Y-140640000D01*
X83384165Y-141360000D02*
X83615835Y-141360000D01*
%TO.C,U5*%
X135040000Y-119130000D02*
X128880000Y-119130000D01*
X135040000Y-119130000D02*
X135040000Y-137370000D01*
X110080000Y-119130000D02*
X109300000Y-119130000D01*
X109300000Y-119130000D02*
X109300000Y-120130000D01*
X135040000Y-137370000D02*
X128625000Y-137370000D01*
X110080000Y-137370000D02*
X109300000Y-137370000D01*
X109300000Y-137370000D02*
X109300000Y-136370000D01*
X128655000Y-119125000D02*
X128155000Y-119125000D01*
X128155000Y-118625000D01*
X128655000Y-119125000D01*
G36*
X128655000Y-119125000D02*
G01*
X128155000Y-119125000D01*
X128155000Y-118625000D01*
X128655000Y-119125000D01*
G37*
%TO.C,C8*%
X83238748Y-145765000D02*
X83761252Y-145765000D01*
X83238748Y-147235000D02*
X83761252Y-147235000D01*
%TO.C,C13*%
X104238748Y-140265000D02*
X104761252Y-140265000D01*
X104238748Y-141735000D02*
X104761252Y-141735000D01*
%TO.C,R6*%
X67667621Y-161880000D02*
X67332379Y-161880000D01*
X67667621Y-161120000D02*
X67332379Y-161120000D01*
%TO.C,R4*%
X102832379Y-157620000D02*
X103167621Y-157620000D01*
X102832379Y-158380000D02*
X103167621Y-158380000D01*
%TO.C,Q2*%
X91840000Y-143210000D02*
X91840000Y-141800000D01*
X94160000Y-143200000D02*
X94160000Y-141800000D01*
X91890000Y-143580000D02*
X91560000Y-143820000D01*
X91560000Y-143340000D01*
X91890000Y-143580000D01*
G36*
X91890000Y-143580000D02*
G01*
X91560000Y-143820000D01*
X91560000Y-143340000D01*
X91890000Y-143580000D01*
G37*
%TO.C,R1*%
X86167621Y-159880000D02*
X85832379Y-159880000D01*
X86167621Y-159120000D02*
X85832379Y-159120000D01*
%TO.C,D1*%
X66340000Y-162876250D02*
X66340000Y-164346250D01*
X66340000Y-164346250D02*
X68800000Y-164346250D01*
X68800000Y-162876250D02*
X66340000Y-162876250D01*
%TO.C,C4*%
X73884165Y-149640000D02*
X74115835Y-149640000D01*
X73884165Y-150360000D02*
X74115835Y-150360000D01*
%TO.C,FB1*%
X91490000Y-160171267D02*
X91490000Y-159828733D01*
X92510000Y-160171267D02*
X92510000Y-159828733D01*
%TO.C,R2*%
X73832379Y-147620000D02*
X74167621Y-147620000D01*
X73832379Y-148380000D02*
X74167621Y-148380000D01*
%TO.C,U1*%
X67440000Y-149000000D02*
X67440000Y-149800000D01*
X67440000Y-149000000D02*
X67440000Y-148200000D01*
X70560000Y-149000000D02*
X70560000Y-149800000D01*
X70560000Y-149000000D02*
X70560000Y-148200000D01*
X67490000Y-150300000D02*
X67160000Y-150540000D01*
X67160000Y-150060000D01*
X67490000Y-150300000D01*
G36*
X67490000Y-150300000D02*
G01*
X67160000Y-150540000D01*
X67160000Y-150060000D01*
X67490000Y-150300000D01*
G37*
%TO.C,C6*%
X104238748Y-149765000D02*
X104761252Y-149765000D01*
X104238748Y-151235000D02*
X104761252Y-151235000D01*
%TO.C,R11*%
X93120000Y-146667621D02*
X93120000Y-146332379D01*
X93880000Y-146667621D02*
X93880000Y-146332379D01*
%TO.C,U3*%
X98687500Y-153547500D02*
X97637500Y-153547500D01*
X98687500Y-155527500D02*
X97387500Y-155527500D01*
X97267500Y-153547500D02*
X96987500Y-153547500D01*
X97267500Y-153267500D01*
X97267500Y-153547500D01*
G36*
X97267500Y-153547500D02*
G01*
X96987500Y-153547500D01*
X97267500Y-153267500D01*
X97267500Y-153547500D01*
G37*
%TO.C,C2*%
X83238748Y-151265000D02*
X83761252Y-151265000D01*
X83238748Y-152735000D02*
X83761252Y-152735000D01*
D13*
%TO.C,Q1*%
X83788800Y-167109600D02*
X83788800Y-167998600D01*
X84652400Y-165001400D02*
X83788800Y-165001400D01*
X83788800Y-165001400D02*
X83788800Y-165890400D01*
X83788800Y-167998600D02*
X84195200Y-167998600D01*
X84195200Y-167998600D02*
X84652400Y-167998600D01*
X84195200Y-167998600D02*
G75*
G02*
X84525400Y-167693800I304749J1114D01*
G01*
D12*
%TO.C,JSTPH1*%
X74410000Y-153940000D02*
X66590000Y-153940000D01*
X72810000Y-153940000D02*
X72810000Y-154860000D01*
X66590000Y-153940000D02*
X66590000Y-160060000D01*
X70450000Y-154700000D02*
X68850000Y-154700000D01*
X68850000Y-154700000D02*
X68850000Y-155700000D01*
X74410000Y-154860000D02*
X74410000Y-153940000D01*
X72810000Y-154860000D02*
X74410000Y-154860000D01*
X72810000Y-155140000D02*
X72810000Y-154860000D01*
X72810000Y-155140000D02*
X74025000Y-155140000D01*
X68850000Y-155200000D02*
X66590000Y-155200000D01*
X70450000Y-155700000D02*
X70450000Y-154700000D01*
X68850000Y-155700000D02*
X70450000Y-155700000D01*
X68850000Y-155700000D02*
X66590000Y-155700000D01*
X70950000Y-156500000D02*
X70950000Y-157500000D01*
X66590000Y-156500000D02*
X70950000Y-156500000D01*
X70950000Y-157500000D02*
X66590000Y-157500000D01*
X70450000Y-158300000D02*
X70450000Y-159300000D01*
X68850000Y-158300000D02*
X70450000Y-158300000D01*
X74410000Y-159140000D02*
X72810000Y-159140000D01*
X72810000Y-159140000D02*
X72810000Y-158860000D01*
X70450000Y-159300000D02*
X68850000Y-159300000D01*
X68850000Y-159300000D02*
X68850000Y-158300000D01*
X74410000Y-160060000D02*
X74410000Y-159140000D01*
X72810000Y-160060000D02*
X72810000Y-159140000D01*
X66590000Y-160060000D02*
X74410000Y-160060000D01*
%TO.C,C11*%
X104238748Y-142765000D02*
X104761252Y-142765000D01*
X104238748Y-144235000D02*
X104761252Y-144235000D01*
%TO.C,D2*%
X69660000Y-166346250D02*
X69660000Y-164876250D01*
X69660000Y-164876250D02*
X67200000Y-164876250D01*
X67200000Y-166346250D02*
X69660000Y-166346250D01*
%TO.C,C7*%
X104238748Y-146765000D02*
X104761252Y-146765000D01*
X104238748Y-148235000D02*
X104761252Y-148235000D01*
%TO.C,F1*%
X88590000Y-160602064D02*
X88590000Y-159397936D01*
X90410000Y-160602064D02*
X90410000Y-159397936D01*
%TO.C,R7*%
X67667621Y-167991250D02*
X67332379Y-167991250D01*
X67667621Y-167231250D02*
X67332379Y-167231250D01*
%TO.C,C9*%
X83238748Y-138265000D02*
X83761252Y-138265000D01*
X83238748Y-139735000D02*
X83761252Y-139735000D01*
%TO.C,C5*%
X83238748Y-148765000D02*
X83761252Y-148765000D01*
X83238748Y-150235000D02*
X83761252Y-150235000D01*
%TO.C,R10*%
X91620000Y-146667621D02*
X91620000Y-146332379D01*
X92380000Y-146667621D02*
X92380000Y-146332379D01*
%TO.C,U2*%
X81500000Y-156940000D02*
X80700000Y-156940000D01*
X81500000Y-156940000D02*
X82300000Y-156940000D01*
X81500000Y-160060000D02*
X80700000Y-160060000D01*
X81500000Y-160060000D02*
X82300000Y-160060000D01*
X80200000Y-156990000D02*
X79960000Y-156660000D01*
X80440000Y-156660000D01*
X80200000Y-156990000D01*
G36*
X80200000Y-156990000D02*
G01*
X79960000Y-156660000D01*
X80440000Y-156660000D01*
X80200000Y-156990000D01*
G37*
%TO.C,C3*%
X104238748Y-152265000D02*
X104761252Y-152265000D01*
X104238748Y-153735000D02*
X104761252Y-153735000D01*
%TO.C,U4*%
X96615000Y-150172500D02*
X96380000Y-150172500D01*
X100360000Y-150172500D02*
X99885000Y-150172500D01*
X96140000Y-149697500D02*
X96140000Y-149872500D01*
X100360000Y-149697500D02*
X100360000Y-150172500D01*
X96140000Y-146427500D02*
X96140000Y-145952500D01*
X100360000Y-146427500D02*
X100360000Y-145952500D01*
X96140000Y-145952500D02*
X96615000Y-145952500D01*
X100360000Y-145952500D02*
X99885000Y-145952500D01*
X96140000Y-150172500D02*
X95810000Y-150412500D01*
X95810000Y-149932500D01*
X96140000Y-150172500D01*
G36*
X96140000Y-150172500D02*
G01*
X95810000Y-150412500D01*
X95810000Y-149932500D01*
X96140000Y-150172500D01*
G37*
D13*
%TO.C,CR1*%
X83425200Y-163528700D02*
X86574800Y-163528700D01*
X86574800Y-161471300D02*
X83425200Y-161471300D01*
%TD*%
M02*
