%TF.GenerationSoftware,KiCad,Pcbnew,8.0.3*%
%TF.CreationDate,2024-06-13T15:47:36+01:00*%
%TF.ProjectId,PCB,5043422e-6b69-4636-9164-5f7063625858,rev?*%
%TF.SameCoordinates,Original*%
%TF.FileFunction,Paste,Top*%
%TF.FilePolarity,Positive*%
%FSLAX46Y46*%
G04 Gerber Fmt 4.6, Leading zero omitted, Abs format (unit mm)*
G04 Created by KiCad (PCBNEW 8.0.3) date 2024-06-13 15:47:36*
%MOMM*%
%LPD*%
G01*
G04 APERTURE LIST*
G04 Aperture macros list*
%AMRoundRect*
0 Rectangle with rounded corners*
0 $1 Rounding radius*
0 $2 $3 $4 $5 $6 $7 $8 $9 X,Y pos of 4 corners*
0 Add a 4 corners polygon primitive as box body*
4,1,4,$2,$3,$4,$5,$6,$7,$8,$9,$2,$3,0*
0 Add four circle primitives for the rounded corners*
1,1,$1+$1,$2,$3*
1,1,$1+$1,$4,$5*
1,1,$1+$1,$6,$7*
1,1,$1+$1,$8,$9*
0 Add four rect primitives between the rounded corners*
20,1,$1+$1,$2,$3,$4,$5,0*
20,1,$1+$1,$4,$5,$6,$7,0*
20,1,$1+$1,$6,$7,$8,$9,0*
20,1,$1+$1,$8,$9,$2,$3,0*%
G04 Aperture macros list end*
%ADD10RoundRect,0.200000X0.800000X-0.200000X0.800000X0.200000X-0.800000X0.200000X-0.800000X-0.200000X0*%
%ADD11RoundRect,0.160000X0.197500X0.160000X-0.197500X0.160000X-0.197500X-0.160000X0.197500X-0.160000X0*%
%ADD12RoundRect,0.160000X-0.197500X-0.160000X0.197500X-0.160000X0.197500X0.160000X-0.197500X0.160000X0*%
%ADD13RoundRect,0.155000X-0.212500X-0.155000X0.212500X-0.155000X0.212500X0.155000X-0.212500X0.155000X0*%
%ADD14RoundRect,0.250000X-0.337500X-0.475000X0.337500X-0.475000X0.337500X0.475000X-0.337500X0.475000X0*%
%ADD15R,0.600000X1.450000*%
%ADD16R,0.300000X1.450000*%
%ADD17R,0.900000X1.500000*%
%ADD18R,1.500000X0.900000*%
%ADD19R,0.900000X0.900000*%
%ADD20RoundRect,0.100000X0.100000X-0.225000X0.100000X0.225000X-0.100000X0.225000X-0.100000X-0.225000X0*%
%ADD21RoundRect,0.237500X-0.287500X-0.237500X0.287500X-0.237500X0.287500X0.237500X-0.287500X0.237500X0*%
%ADD22RoundRect,0.237500X0.237500X-0.287500X0.237500X0.287500X-0.237500X0.287500X-0.237500X-0.287500X0*%
%ADD23RoundRect,0.150000X0.150000X-0.512500X0.150000X0.512500X-0.150000X0.512500X-0.150000X-0.512500X0*%
%ADD24RoundRect,0.160000X0.160000X-0.197500X0.160000X0.197500X-0.160000X0.197500X-0.160000X-0.197500X0*%
%ADD25RoundRect,0.093750X-0.156250X-0.093750X0.156250X-0.093750X0.156250X0.093750X-0.156250X0.093750X0*%
%ADD26RoundRect,0.075000X-0.250000X-0.075000X0.250000X-0.075000X0.250000X0.075000X-0.250000X0.075000X0*%
%ADD27R,1.320800X0.558800*%
%ADD28RoundRect,0.237500X0.287500X0.237500X-0.287500X0.237500X-0.287500X-0.237500X0.287500X-0.237500X0*%
%ADD29RoundRect,0.250001X0.624999X-0.462499X0.624999X0.462499X-0.624999X0.462499X-0.624999X-0.462499X0*%
%ADD30RoundRect,0.150000X-0.512500X-0.150000X0.512500X-0.150000X0.512500X0.150000X-0.512500X0.150000X0*%
%ADD31RoundRect,0.250000X0.275000X-0.275000X0.275000X0.275000X-0.275000X0.275000X-0.275000X-0.275000X0*%
%ADD32RoundRect,0.062500X0.062500X-0.350000X0.062500X0.350000X-0.062500X0.350000X-0.062500X-0.350000X0*%
%ADD33RoundRect,0.062500X0.350000X-0.062500X0.350000X0.062500X-0.350000X0.062500X-0.350000X-0.062500X0*%
%ADD34R,1.143000X1.092200*%
G04 APERTURE END LIST*
D10*
%TO.C,SW2*%
X92500000Y-154100000D03*
X92500000Y-149900000D03*
%TD*%
D11*
%TO.C,R13*%
X88097500Y-151500000D03*
X86902500Y-151500000D03*
%TD*%
D12*
%TO.C,R12*%
X86902500Y-150000000D03*
X88097500Y-150000000D03*
%TD*%
%TO.C,R9*%
X82902500Y-142500000D03*
X84097500Y-142500000D03*
%TD*%
D13*
%TO.C,C10*%
X103932500Y-139000000D03*
X105067500Y-139000000D03*
%TD*%
D12*
%TO.C,R5*%
X102402500Y-156500000D03*
X103597500Y-156500000D03*
%TD*%
D14*
%TO.C,C1*%
X84962500Y-156500000D03*
X87037500Y-156500000D03*
%TD*%
D15*
%TO.C,J1*%
X97250000Y-160955000D03*
X98050000Y-160955000D03*
D16*
X99250000Y-160955000D03*
X100250000Y-160955000D03*
X100750000Y-160955000D03*
X101750000Y-160955000D03*
D15*
X102950000Y-160955000D03*
X103750000Y-160955000D03*
X103750000Y-160955000D03*
X102950000Y-160955000D03*
D16*
X102250000Y-160955000D03*
X101250000Y-160955000D03*
X99750000Y-160955000D03*
X98750000Y-160955000D03*
D15*
X98050000Y-160955000D03*
X97250000Y-160955000D03*
%TD*%
D11*
%TO.C,R3*%
X86597500Y-154500000D03*
X85402500Y-154500000D03*
%TD*%
%TO.C,R8*%
X105097500Y-145500000D03*
X103902500Y-145500000D03*
%TD*%
D13*
%TO.C,C12*%
X82932500Y-141000000D03*
X84067500Y-141000000D03*
%TD*%
D17*
%TO.C,U5*%
X127430000Y-119500000D03*
X126160000Y-119500000D03*
X124890000Y-119500000D03*
X123620000Y-119500000D03*
X122350000Y-119500000D03*
X121080000Y-119500000D03*
X119810000Y-119500000D03*
X118540000Y-119500000D03*
X117270000Y-119500000D03*
X116000000Y-119500000D03*
X114730000Y-119500000D03*
X113460000Y-119500000D03*
X112190000Y-119500000D03*
X110920000Y-119500000D03*
D18*
X109670000Y-122540000D03*
X109670000Y-123810000D03*
X109670000Y-125080000D03*
X109670000Y-126350000D03*
X109670000Y-127620000D03*
X109670000Y-128890000D03*
X109670000Y-130160000D03*
X109670000Y-131430000D03*
X109670000Y-132700000D03*
X109670000Y-133970000D03*
D17*
X110920000Y-137000000D03*
X112190000Y-137000000D03*
X113460000Y-137000000D03*
X114730000Y-137000000D03*
X116000000Y-137000000D03*
X117270000Y-137000000D03*
X118540000Y-137000000D03*
X119810000Y-137000000D03*
X121080000Y-137000000D03*
X122350000Y-137000000D03*
X123620000Y-137000000D03*
X124890000Y-137000000D03*
X126160000Y-137000000D03*
X127430000Y-137000000D03*
D19*
X121110000Y-125350000D03*
X119710000Y-125350000D03*
X118310000Y-125350000D03*
X121110000Y-126750000D03*
X119710000Y-126750000D03*
X118310000Y-126750000D03*
X121110000Y-128150000D03*
X119710000Y-128150000D03*
X118310000Y-128150000D03*
%TD*%
D14*
%TO.C,C8*%
X82462500Y-146500000D03*
X84537500Y-146500000D03*
%TD*%
%TO.C,C13*%
X103462500Y-141000000D03*
X105537500Y-141000000D03*
%TD*%
D11*
%TO.C,R6*%
X68097500Y-161500000D03*
X66902500Y-161500000D03*
%TD*%
D12*
%TO.C,R4*%
X102402500Y-158000000D03*
X103597500Y-158000000D03*
%TD*%
D20*
%TO.C,Q2*%
X92350000Y-143450000D03*
X93000000Y-143450000D03*
X93650000Y-143450000D03*
X93650000Y-141550000D03*
X93000000Y-141550000D03*
X92350000Y-141550000D03*
%TD*%
D11*
%TO.C,R1*%
X86597500Y-159500000D03*
X85402500Y-159500000D03*
%TD*%
D21*
%TO.C,D1*%
X67125000Y-163611250D03*
X68875000Y-163611250D03*
%TD*%
D13*
%TO.C,C4*%
X73432500Y-150000000D03*
X74567500Y-150000000D03*
%TD*%
D22*
%TO.C,FB1*%
X92000000Y-160875000D03*
X92000000Y-159125000D03*
%TD*%
D12*
%TO.C,R2*%
X73402500Y-148000000D03*
X74597500Y-148000000D03*
%TD*%
D23*
%TO.C,U1*%
X68050000Y-150137500D03*
X69000000Y-150137500D03*
X69950000Y-150137500D03*
X69950000Y-147862500D03*
X68050000Y-147862500D03*
%TD*%
D14*
%TO.C,C6*%
X103462500Y-150500000D03*
X105537500Y-150500000D03*
%TD*%
D24*
%TO.C,R11*%
X93500000Y-147097500D03*
X93500000Y-145902500D03*
%TD*%
D25*
%TO.C,U3*%
X97187500Y-154000000D03*
D26*
X97112500Y-154537500D03*
D25*
X97187500Y-155075000D03*
X98887500Y-155075000D03*
D26*
X98962500Y-154537500D03*
D25*
X98887500Y-154000000D03*
%TD*%
D14*
%TO.C,C2*%
X82462500Y-152000000D03*
X84537500Y-152000000D03*
%TD*%
D27*
%TO.C,Q1*%
X85516000Y-167465200D03*
X85516000Y-165534800D03*
X83484000Y-166500000D03*
%TD*%
D14*
%TO.C,C11*%
X103462500Y-143500000D03*
X105537500Y-143500000D03*
%TD*%
D28*
%TO.C,D2*%
X68875000Y-165611250D03*
X67125000Y-165611250D03*
%TD*%
D14*
%TO.C,C7*%
X103462500Y-147500000D03*
X105537500Y-147500000D03*
%TD*%
D29*
%TO.C,F1*%
X89500000Y-161487500D03*
X89500000Y-158512500D03*
%TD*%
D11*
%TO.C,R7*%
X68097500Y-167611250D03*
X66902500Y-167611250D03*
%TD*%
D14*
%TO.C,C9*%
X82462500Y-139000000D03*
X84537500Y-139000000D03*
%TD*%
%TO.C,C5*%
X82462500Y-149500000D03*
X84537500Y-149500000D03*
%TD*%
D24*
%TO.C,R10*%
X92000000Y-147097500D03*
X92000000Y-145902500D03*
%TD*%
D30*
%TO.C,U2*%
X80362500Y-157550000D03*
X80362500Y-158500000D03*
X80362500Y-159450000D03*
X82637500Y-159450000D03*
X82637500Y-157550000D03*
%TD*%
D14*
%TO.C,C3*%
X103462500Y-153000000D03*
X105537500Y-153000000D03*
%TD*%
D31*
%TO.C,U4*%
X97600000Y-148712500D03*
X98900000Y-148712500D03*
X97600000Y-147412500D03*
X98900000Y-147412500D03*
D32*
X97000000Y-150000000D03*
X97500000Y-150000000D03*
X98000000Y-150000000D03*
X98500000Y-150000000D03*
X99000000Y-150000000D03*
X99500000Y-150000000D03*
D33*
X100187500Y-149312500D03*
X100187500Y-148812500D03*
X100187500Y-148312500D03*
X100187500Y-147812500D03*
X100187500Y-147312500D03*
X100187500Y-146812500D03*
D32*
X99500000Y-146125000D03*
X99000000Y-146125000D03*
X98500000Y-146125000D03*
X98000000Y-146125000D03*
X97500000Y-146125000D03*
X97000000Y-146125000D03*
D33*
X96312500Y-146812500D03*
X96312500Y-147312500D03*
X96312500Y-147812500D03*
X96312500Y-148312500D03*
X96312500Y-148812500D03*
X96312500Y-149312500D03*
%TD*%
D34*
%TO.C,CR1*%
X83463300Y-162500000D03*
X86536700Y-162500000D03*
%TD*%
M02*
