%TF.GenerationSoftware,KiCad,Pcbnew,8.0.7*%
%TF.CreationDate,2025-02-17T14:25:55+00:00*%
%TF.ProjectId,PCB V3.1,50434220-5633-42e3-912e-6b696361645f,rev?*%
%TF.SameCoordinates,Original*%
%TF.FileFunction,Soldermask,Bot*%
%TF.FilePolarity,Negative*%
%FSLAX46Y46*%
G04 Gerber Fmt 4.6, Leading zero omitted, Abs format (unit mm)*
G04 Created by KiCad (PCBNEW 8.0.7) date 2025-02-17 14:25:55*
%MOMM*%
%LPD*%
G01*
G04 APERTURE LIST*
G04 Aperture macros list*
%AMRoundRect*
0 Rectangle with rounded corners*
0 $1 Rounding radius*
0 $2 $3 $4 $5 $6 $7 $8 $9 X,Y pos of 4 corners*
0 Add a 4 corners polygon primitive as box body*
4,1,4,$2,$3,$4,$5,$6,$7,$8,$9,$2,$3,0*
0 Add four circle primitives for the rounded corners*
1,1,$1+$1,$2,$3*
1,1,$1+$1,$4,$5*
1,1,$1+$1,$6,$7*
1,1,$1+$1,$8,$9*
0 Add four rect primitives between the rounded corners*
20,1,$1+$1,$2,$3,$4,$5,0*
20,1,$1+$1,$4,$5,$6,$7,0*
20,1,$1+$1,$6,$7,$8,$9,0*
20,1,$1+$1,$8,$9,$2,$3,0*%
G04 Aperture macros list end*
%ADD10C,0.700000*%
%ADD11C,4.400000*%
%ADD12C,0.500000*%
%ADD13C,1.515000*%
%ADD14C,1.980000*%
%ADD15R,1.000000X1.000000*%
%ADD16O,1.000000X1.000000*%
%ADD17RoundRect,0.250200X0.649800X-0.649800X0.649800X0.649800X-0.649800X0.649800X-0.649800X-0.649800X0*%
%ADD18C,1.800000*%
%ADD19C,0.650000*%
%ADD20O,1.000000X2.100000*%
%ADD21O,1.000000X1.600000*%
%ADD22R,1.700000X1.700000*%
%ADD23O,1.700000X1.700000*%
%ADD24C,0.800000*%
%ADD25C,5.250000*%
%ADD26R,2.420000X5.080000*%
%ADD27R,1.800000X1.800000*%
%ADD28RoundRect,0.250000X0.625000X-0.350000X0.625000X0.350000X-0.625000X0.350000X-0.625000X-0.350000X0*%
%ADD29O,1.750000X1.200000*%
%ADD30R,2.775000X2.775000*%
%ADD31C,2.775000*%
G04 APERTURE END LIST*
D10*
%TO.C,H1*%
X66473500Y-178487200D03*
X66956774Y-177320474D03*
X66956774Y-179653926D03*
X68123500Y-176837200D03*
D11*
X68123500Y-178487200D03*
D10*
X68123500Y-180137200D03*
X69290226Y-177320474D03*
X69290226Y-179653926D03*
X69773500Y-178487200D03*
%TD*%
D12*
%TO.C,IC4*%
X116834500Y-122312200D03*
X116834500Y-123074200D03*
X116834500Y-123836200D03*
X117596500Y-122312200D03*
X117596500Y-123074200D03*
X117596500Y-123836200D03*
X118358500Y-122312200D03*
X118358500Y-123074200D03*
X118358500Y-123836200D03*
%TD*%
%TO.C,IC6*%
X112643500Y-86752200D03*
X113405500Y-86752200D03*
X114167500Y-86752200D03*
X112643500Y-85990200D03*
X113405500Y-85990200D03*
X114167500Y-85990200D03*
X112643500Y-85228200D03*
X113405500Y-85228200D03*
X114167500Y-85228200D03*
%TD*%
D13*
%TO.C,RESET1*%
X69082500Y-111986200D03*
X69082500Y-116486200D03*
D14*
X71572500Y-110731200D03*
X71572500Y-117741200D03*
%TD*%
D15*
%TO.C,J10*%
X116326500Y-110882200D03*
D16*
X116326500Y-109612200D03*
X116326500Y-108342200D03*
X116326500Y-107072200D03*
X116326500Y-105802200D03*
X116326500Y-104532200D03*
X116326500Y-103262200D03*
X116326500Y-101992200D03*
X116326500Y-100722200D03*
X116326500Y-99452200D03*
X116326500Y-98182200D03*
X116326500Y-96912200D03*
X116326500Y-95642200D03*
X116326500Y-94372200D03*
%TD*%
D17*
%TO.C,U5*%
X141598500Y-138060200D03*
D18*
X141598500Y-135520200D03*
X141598500Y-132980200D03*
%TD*%
D12*
%TO.C,U6*%
X95562500Y-165206200D03*
X95562500Y-166095200D03*
X95562500Y-166984200D03*
X96451500Y-165206200D03*
X96451500Y-166095200D03*
X96451500Y-166984200D03*
X97340500Y-165206200D03*
X97340500Y-166095200D03*
X97340500Y-166984200D03*
%TD*%
D19*
%TO.C,USB_OTG1*%
X109053500Y-178787200D03*
X114833500Y-178787200D03*
D20*
X107623500Y-178257200D03*
D21*
X107623500Y-182437200D03*
D20*
X116263500Y-178257200D03*
D21*
X116263500Y-182437200D03*
%TD*%
D19*
%TO.C,USB_UART1*%
X91413500Y-178787200D03*
X97193500Y-178787200D03*
D20*
X89983500Y-178257200D03*
D21*
X89983500Y-182437200D03*
D20*
X98623500Y-178257200D03*
D21*
X98623500Y-182437200D03*
%TD*%
D22*
%TO.C,SCREEN1*%
X86742400Y-144619700D03*
D23*
X89282400Y-144619700D03*
X91822400Y-144619700D03*
X94362400Y-144619700D03*
X96902400Y-144619700D03*
X99442400Y-144619700D03*
X101982400Y-144619700D03*
X104522400Y-144619700D03*
X107062400Y-144619700D03*
X109602400Y-144619700D03*
X112142400Y-144619700D03*
X114682400Y-144619700D03*
X117222400Y-144619700D03*
X119762400Y-144619700D03*
D24*
X73652400Y-41579700D03*
X73906400Y-143873700D03*
X74414400Y-39882644D03*
X74414400Y-43276756D03*
X74668400Y-142176644D03*
X74668400Y-145570756D03*
X75802400Y-39499700D03*
D25*
X75802400Y-41579700D03*
D24*
X75802400Y-43817700D03*
X76056400Y-141793700D03*
D25*
X76056400Y-143873700D03*
D24*
X76056400Y-146111700D03*
X77208400Y-39882644D03*
X77208400Y-43276756D03*
X77462400Y-142176644D03*
X77462400Y-145570756D03*
X77970400Y-41579700D03*
X78224400Y-143873700D03*
X128552400Y-41579700D03*
X128552400Y-143619700D03*
X129314400Y-39882644D03*
X129314400Y-43276756D03*
X129314400Y-141922644D03*
X129314400Y-145316756D03*
X130702400Y-39499700D03*
D25*
X130702400Y-41579700D03*
D24*
X130702400Y-43817700D03*
X130702400Y-141539700D03*
D25*
X130702400Y-143619700D03*
D24*
X130702400Y-145857700D03*
X132108400Y-39882644D03*
X132108400Y-43276756D03*
X132108400Y-141922644D03*
X132108400Y-145316756D03*
X132870400Y-41579700D03*
X132870400Y-143619700D03*
%TD*%
D10*
%TO.C,H3*%
X65473500Y-27487200D03*
X65956774Y-26320474D03*
X65956774Y-28653926D03*
X67123500Y-25837200D03*
D11*
X67123500Y-27487200D03*
D10*
X67123500Y-29137200D03*
X68290226Y-26320474D03*
X68290226Y-28653926D03*
X68773500Y-27487200D03*
%TD*%
D26*
%TO.C,AE7*%
X98503500Y-26557200D03*
X89743500Y-26557200D03*
%TD*%
D27*
%TO.C,D4*%
X139348500Y-128520200D03*
D18*
X141888500Y-128520200D03*
%TD*%
D10*
%TO.C,H2*%
X138552500Y-159142200D03*
X139035774Y-157975474D03*
X139035774Y-160308926D03*
X140202500Y-157492200D03*
D11*
X140202500Y-159142200D03*
D10*
X140202500Y-160792200D03*
X141369226Y-157975474D03*
X141369226Y-160308926D03*
X141852500Y-159142200D03*
%TD*%
D28*
%TO.C,JSTPH1*%
X64987000Y-153273000D03*
D29*
X64987000Y-151273000D03*
%TD*%
D22*
%TO.C,J1*%
X66542500Y-137826200D03*
D23*
X66542500Y-140366200D03*
%TD*%
D12*
%TO.C,U10*%
X84100500Y-132885700D03*
X84862500Y-132885700D03*
X85624500Y-132885700D03*
X84100500Y-132123700D03*
X84862500Y-132123700D03*
X85624500Y-132123700D03*
X84100500Y-131361700D03*
X84862500Y-131361700D03*
X85624500Y-131361700D03*
%TD*%
D26*
%TO.C,AE1*%
X80503500Y-26557200D03*
X71743500Y-26557200D03*
%TD*%
D13*
%TO.C,BOOT1*%
X69082500Y-123741200D03*
X69082500Y-128241200D03*
D14*
X71572500Y-122486200D03*
X71572500Y-129496200D03*
%TD*%
D26*
%TO.C,AE3*%
X134503500Y-26557200D03*
X125743500Y-26557200D03*
%TD*%
D10*
%TO.C,H5*%
X101473500Y-32487200D03*
X101956774Y-31320474D03*
X101956774Y-33653926D03*
X103123500Y-30837200D03*
D11*
X103123500Y-32487200D03*
D10*
X103123500Y-34137200D03*
X104290226Y-31320474D03*
X104290226Y-33653926D03*
X104773500Y-32487200D03*
%TD*%
D30*
%TO.C,ANT_SW1*%
X74653500Y-103392200D03*
D31*
X74653500Y-98692200D03*
X74653500Y-93992200D03*
X65123500Y-105297200D03*
X65123500Y-92087200D03*
%TD*%
D10*
%TO.C,H4*%
X137473500Y-27487200D03*
X137956774Y-26320474D03*
X137956774Y-28653926D03*
X139123500Y-25837200D03*
D11*
X139123500Y-27487200D03*
D10*
X139123500Y-29137200D03*
X140290226Y-26320474D03*
X140290226Y-28653926D03*
X140773500Y-27487200D03*
%TD*%
D22*
%TO.C,J2*%
X108077000Y-122804000D03*
D23*
X108077000Y-125344000D03*
%TD*%
D22*
%TO.C,J6*%
X139440500Y-122063200D03*
D23*
X139440500Y-119523200D03*
%TD*%
D15*
%TO.C,J8*%
X92958500Y-94372200D03*
D16*
X92958500Y-95642200D03*
X92958500Y-96912200D03*
X92958500Y-98182200D03*
X92958500Y-99452200D03*
X92958500Y-100722200D03*
X92958500Y-101992200D03*
X92958500Y-103262200D03*
X92958500Y-104532200D03*
X92958500Y-105802200D03*
X92958500Y-107072200D03*
X92958500Y-108342200D03*
X92958500Y-109612200D03*
X92958500Y-110882200D03*
%TD*%
D12*
%TO.C,IC2*%
X89275500Y-86244200D03*
X89275500Y-85482200D03*
X89275500Y-84720200D03*
X88513500Y-86244200D03*
X88513500Y-85482200D03*
X88513500Y-84720200D03*
X87751500Y-86244200D03*
X87751500Y-85482200D03*
X87751500Y-84720200D03*
%TD*%
%TO.C,U12*%
X79508500Y-118426000D03*
X80524500Y-118426000D03*
X80016500Y-117918000D03*
X79508500Y-117410000D03*
X80524500Y-117410000D03*
%TD*%
D30*
%TO.C,PWR_SW1*%
X74623500Y-169987200D03*
D31*
X74623500Y-165287200D03*
X74623500Y-160587200D03*
X65093500Y-171892200D03*
X65093500Y-158682200D03*
%TD*%
D15*
%TO.C,J9*%
X97784500Y-114692200D03*
D16*
X99054500Y-114692200D03*
X100324500Y-114692200D03*
X101594500Y-114692200D03*
X102864500Y-114692200D03*
X104134500Y-114692200D03*
X105404500Y-114692200D03*
X106674500Y-114692200D03*
X107944500Y-114692200D03*
X109214500Y-114692200D03*
X110484500Y-114692200D03*
X111754500Y-114692200D03*
%TD*%
D26*
%TO.C,AE5*%
X116503500Y-26557200D03*
X107743500Y-26557200D03*
%TD*%
M02*
