%TF.GenerationSoftware,KiCad,Pcbnew,8.0.7*%
%TF.CreationDate,2025-02-17T14:25:55+00:00*%
%TF.ProjectId,PCB V3.1,50434220-5633-42e3-912e-6b696361645f,rev?*%
%TF.SameCoordinates,Original*%
%TF.FileFunction,Soldermask,Top*%
%TF.FilePolarity,Negative*%
%FSLAX46Y46*%
G04 Gerber Fmt 4.6, Leading zero omitted, Abs format (unit mm)*
G04 Created by KiCad (PCBNEW 8.0.7) date 2025-02-17 14:25:55*
%MOMM*%
%LPD*%
G01*
G04 APERTURE LIST*
G04 Aperture macros list*
%AMRoundRect*
0 Rectangle with rounded corners*
0 $1 Rounding radius*
0 $2 $3 $4 $5 $6 $7 $8 $9 X,Y pos of 4 corners*
0 Add a 4 corners polygon primitive as box body*
4,1,4,$2,$3,$4,$5,$6,$7,$8,$9,$2,$3,0*
0 Add four circle primitives for the rounded corners*
1,1,$1+$1,$2,$3*
1,1,$1+$1,$4,$5*
1,1,$1+$1,$6,$7*
1,1,$1+$1,$8,$9*
0 Add four rect primitives between the rounded corners*
20,1,$1+$1,$2,$3,$4,$5,0*
20,1,$1+$1,$4,$5,$6,$7,0*
20,1,$1+$1,$6,$7,$8,$9,0*
20,1,$1+$1,$8,$9,$2,$3,0*%
G04 Aperture macros list end*
%ADD10RoundRect,0.250000X-0.400000X-0.275000X0.400000X-0.275000X0.400000X0.275000X-0.400000X0.275000X0*%
%ADD11C,1.000000*%
%ADD12C,0.700000*%
%ADD13C,4.400000*%
%ADD14RoundRect,0.250000X-0.450000X0.350000X-0.450000X-0.350000X0.450000X-0.350000X0.450000X0.350000X0*%
%ADD15RoundRect,0.250000X-0.325000X-0.450000X0.325000X-0.450000X0.325000X0.450000X-0.325000X0.450000X0*%
%ADD16R,0.450000X1.400000*%
%ADD17R,1.750000X1.750000*%
%ADD18RoundRect,0.250000X0.450000X-0.325000X0.450000X0.325000X-0.450000X0.325000X-0.450000X-0.325000X0*%
%ADD19RoundRect,0.250000X-0.350000X-0.450000X0.350000X-0.450000X0.350000X0.450000X-0.350000X0.450000X0*%
%ADD20R,1.528000X0.650000*%
%ADD21RoundRect,0.250000X-0.337500X-0.475000X0.337500X-0.475000X0.337500X0.475000X-0.337500X0.475000X0*%
%ADD22RoundRect,0.250000X0.275000X-0.400000X0.275000X0.400000X-0.275000X0.400000X-0.275000X-0.400000X0*%
%ADD23RoundRect,0.250000X0.400000X0.275000X-0.400000X0.275000X-0.400000X-0.275000X0.400000X-0.275000X0*%
%ADD24RoundRect,0.237500X0.237500X-0.287500X0.237500X0.287500X-0.237500X0.287500X-0.237500X-0.287500X0*%
%ADD25R,1.000000X1.000000*%
%ADD26R,2.200000X1.050000*%
%ADD27R,2.100000X1.800000*%
%ADD28RoundRect,0.250000X0.350000X0.450000X-0.350000X0.450000X-0.350000X-0.450000X0.350000X-0.450000X0*%
%ADD29RoundRect,0.250000X-0.450000X0.325000X-0.450000X-0.325000X0.450000X-0.325000X0.450000X0.325000X0*%
%ADD30RoundRect,0.250000X0.475000X-0.337500X0.475000X0.337500X-0.475000X0.337500X-0.475000X-0.337500X0*%
%ADD31RoundRect,0.100000X0.100000X-0.225000X0.100000X0.225000X-0.100000X0.225000X-0.100000X-0.225000X0*%
%ADD32RoundRect,0.250000X0.337500X0.475000X-0.337500X0.475000X-0.337500X-0.475000X0.337500X-0.475000X0*%
%ADD33RoundRect,0.250000X-0.475000X0.337500X-0.475000X-0.337500X0.475000X-0.337500X0.475000X0.337500X0*%
%ADD34R,1.400000X0.450000*%
%ADD35RoundRect,0.250000X0.325000X0.450000X-0.325000X0.450000X-0.325000X-0.450000X0.325000X-0.450000X0*%
%ADD36R,0.950000X0.300000*%
%ADD37R,0.300000X0.950000*%
%ADD38C,0.500000*%
%ADD39R,2.500000X2.500000*%
%ADD40RoundRect,0.250000X-0.275000X0.400000X-0.275000X-0.400000X0.275000X-0.400000X0.275000X0.400000X0*%
%ADD41C,1.515000*%
%ADD42C,1.980000*%
%ADD43O,1.000000X1.000000*%
%ADD44RoundRect,0.250200X0.649800X-0.649800X0.649800X0.649800X-0.649800X0.649800X-0.649800X-0.649800X0*%
%ADD45C,1.800000*%
%ADD46RoundRect,0.162500X-0.837500X-0.162500X0.837500X-0.162500X0.837500X0.162500X-0.837500X0.162500X0*%
%ADD47RoundRect,0.062500X-0.350000X-0.062500X0.350000X-0.062500X0.350000X0.062500X-0.350000X0.062500X0*%
%ADD48RoundRect,0.062500X-0.062500X-0.350000X0.062500X-0.350000X0.062500X0.350000X-0.062500X0.350000X0*%
%ADD49R,2.600000X2.600000*%
%ADD50C,0.650000*%
%ADD51R,0.600000X1.450000*%
%ADD52R,0.300000X1.450000*%
%ADD53O,1.000000X2.100000*%
%ADD54O,1.000000X1.600000*%
%ADD55R,0.475000X0.300000*%
%ADD56RoundRect,0.250000X0.450000X-0.350000X0.450000X0.350000X-0.450000X0.350000X-0.450000X-0.350000X0*%
%ADD57RoundRect,0.102000X-3.810000X1.905000X-3.810000X-1.905000X3.810000X-1.905000X3.810000X1.905000X0*%
%ADD58RoundRect,0.102000X3.810000X-1.905000X3.810000X1.905000X-3.810000X1.905000X-3.810000X-1.905000X0*%
%ADD59R,1.700000X1.700000*%
%ADD60O,1.700000X1.700000*%
%ADD61C,0.800000*%
%ADD62C,5.250000*%
%ADD63R,1.100000X0.550000*%
%ADD64RoundRect,0.150000X-0.587500X-0.150000X0.587500X-0.150000X0.587500X0.150000X-0.587500X0.150000X0*%
%ADD65RoundRect,0.102000X0.600000X0.700000X-0.600000X0.700000X-0.600000X-0.700000X0.600000X-0.700000X0*%
%ADD66RoundRect,0.250000X0.650000X-0.412500X0.650000X0.412500X-0.650000X0.412500X-0.650000X-0.412500X0*%
%ADD67RoundRect,0.150000X0.200000X-0.150000X0.200000X0.150000X-0.200000X0.150000X-0.200000X-0.150000X0*%
%ADD68R,0.330000X0.410000*%
%ADD69RoundRect,0.250001X0.624999X-0.462499X0.624999X0.462499X-0.624999X0.462499X-0.624999X-0.462499X0*%
%ADD70RoundRect,0.093750X0.093750X-0.156250X0.093750X0.156250X-0.093750X0.156250X-0.093750X-0.156250X0*%
%ADD71RoundRect,0.075000X0.075000X-0.250000X0.075000X0.250000X-0.075000X0.250000X-0.075000X-0.250000X0*%
%ADD72R,1.050000X2.200000*%
%ADD73RoundRect,0.062500X0.062500X-0.375000X0.062500X0.375000X-0.062500X0.375000X-0.062500X-0.375000X0*%
%ADD74RoundRect,0.062500X0.375000X-0.062500X0.375000X0.062500X-0.375000X0.062500X-0.375000X-0.062500X0*%
%ADD75R,4.100000X4.100000*%
%ADD76R,1.200000X1.450000*%
%ADD77RoundRect,0.102000X-0.279400X0.660400X-0.279400X-0.660400X0.279400X-0.660400X0.279400X0.660400X0*%
%ADD78R,2.290000X5.080000*%
%ADD79R,2.420000X5.080000*%
%ADD80R,1.800000X1.800000*%
%ADD81RoundRect,0.250000X0.625000X-0.350000X0.625000X0.350000X-0.625000X0.350000X-0.625000X-0.350000X0*%
%ADD82O,1.750000X1.200000*%
%ADD83R,1.400000X4.200000*%
%ADD84RoundRect,0.062500X0.062500X-0.350000X0.062500X0.350000X-0.062500X0.350000X-0.062500X-0.350000X0*%
%ADD85RoundRect,0.062500X0.350000X-0.062500X0.350000X0.062500X-0.350000X0.062500X-0.350000X-0.062500X0*%
%ADD86RoundRect,0.102000X-0.400000X-1.000000X0.400000X-1.000000X0.400000X1.000000X-0.400000X1.000000X0*%
%ADD87RoundRect,0.102000X-0.900000X-0.700000X0.900000X-0.700000X0.900000X0.700000X-0.900000X0.700000X0*%
%ADD88RoundRect,0.102000X-0.700000X-0.950000X0.700000X-0.950000X0.700000X0.950000X-0.700000X0.950000X0*%
%ADD89RoundRect,0.150000X-0.512500X-0.150000X0.512500X-0.150000X0.512500X0.150000X-0.512500X0.150000X0*%
%ADD90RoundRect,0.375000X-0.625000X-0.375000X0.625000X-0.375000X0.625000X0.375000X-0.625000X0.375000X0*%
%ADD91RoundRect,0.500000X-0.500000X-1.400000X0.500000X-1.400000X0.500000X1.400000X-0.500000X1.400000X0*%
%ADD92R,2.775000X2.775000*%
%ADD93C,2.775000*%
%ADD94R,0.250000X0.625000*%
%ADD95R,0.450000X0.700000*%
%ADD96R,0.450000X0.575000*%
%ADD97RoundRect,0.150000X0.150000X-0.825000X0.150000X0.825000X-0.150000X0.825000X-0.150000X-0.825000X0*%
%ADD98RoundRect,0.250000X-0.650000X0.412500X-0.650000X-0.412500X0.650000X-0.412500X0.650000X0.412500X0*%
%ADD99R,1.450000X1.200000*%
%ADD100R,0.254000X0.762000*%
%ADD101R,0.762000X0.254000*%
%ADD102R,1.752600X1.752600*%
%ADD103RoundRect,0.150000X0.150000X-0.587500X0.150000X0.587500X-0.150000X0.587500X-0.150000X-0.587500X0*%
%ADD104R,1.498600X0.889000*%
%ADD105R,0.889000X1.498600*%
%ADD106R,0.889000X0.889000*%
%ADD107R,1.143000X1.092200*%
G04 APERTURE END LIST*
D10*
%TO.C,C24*%
X92628500Y-84339200D03*
X94578500Y-84339200D03*
%TD*%
D11*
%TO.C,TP7*%
X119882500Y-158639700D03*
%TD*%
D12*
%TO.C,H1*%
X66473500Y-178487200D03*
X66956774Y-177320474D03*
X66956774Y-179653926D03*
X68123500Y-176837200D03*
D13*
X68123500Y-178487200D03*
D12*
X68123500Y-180137200D03*
X69290226Y-177320474D03*
X69290226Y-179653926D03*
X69773500Y-178487200D03*
%TD*%
D14*
%TO.C,R31*%
X94492500Y-134266200D03*
X94492500Y-136266200D03*
%TD*%
D15*
%TO.C,D3*%
X65254500Y-146696200D03*
X67304500Y-146696200D03*
%TD*%
D16*
%TO.C,U13*%
X92034000Y-61554000D03*
X91384000Y-61554000D03*
X90734000Y-61554000D03*
X90084000Y-61554000D03*
X90084000Y-65954000D03*
X90734000Y-65954000D03*
X91384000Y-65954000D03*
X92034000Y-65954000D03*
D17*
X91059000Y-63754000D03*
%TD*%
D18*
%TO.C,L26*%
X115062000Y-49022000D03*
X115062000Y-46972000D03*
%TD*%
D19*
%TO.C,R35*%
X85608500Y-117994200D03*
X87608500Y-117994200D03*
%TD*%
%TO.C,R51*%
X115199500Y-65416200D03*
X117199500Y-65416200D03*
%TD*%
D20*
%TO.C,U19*%
X132245500Y-98055200D03*
X132245500Y-96785200D03*
X132245500Y-95515200D03*
X132245500Y-94245200D03*
X126823500Y-94245200D03*
X126823500Y-95515200D03*
X126823500Y-96785200D03*
X126823500Y-98055200D03*
%TD*%
D21*
%TO.C,C43*%
X96503000Y-136536200D03*
X98578000Y-136536200D03*
%TD*%
D22*
%TO.C,C22*%
X97921500Y-91752500D03*
X97921500Y-89802500D03*
%TD*%
D15*
%TO.C,L18*%
X115815000Y-59309000D03*
X117865000Y-59309000D03*
%TD*%
D23*
%TO.C,C2*%
X89552500Y-165841200D03*
X87602500Y-165841200D03*
%TD*%
D24*
%TO.C,FB1*%
X91879500Y-172558200D03*
X91879500Y-170808200D03*
%TD*%
D19*
%TO.C,R50*%
X131090500Y-100468200D03*
X133090500Y-100468200D03*
%TD*%
D25*
%TO.C,AE6*%
X110623500Y-35487200D03*
D26*
X109123500Y-36962200D03*
D25*
X107623500Y-35487200D03*
D26*
X109123500Y-34012200D03*
%TD*%
D15*
%TO.C,D8*%
X136113500Y-98944200D03*
X138163500Y-98944200D03*
%TD*%
%TO.C,L16*%
X91552500Y-57288200D03*
X93602500Y-57288200D03*
%TD*%
D27*
%TO.C,Y1*%
X92905500Y-80917200D03*
X95805500Y-80917200D03*
X95805500Y-78617200D03*
X92905500Y-78617200D03*
%TD*%
D21*
%TO.C,C26*%
X96471500Y-83323200D03*
X98546500Y-83323200D03*
%TD*%
D28*
%TO.C,R45*%
X119358500Y-129170200D03*
X117358500Y-129170200D03*
%TD*%
D10*
%TO.C,C56*%
X110519500Y-159230500D03*
X112469500Y-159230500D03*
%TD*%
D29*
%TO.C,L6*%
X85354500Y-125859200D03*
X85354500Y-127909200D03*
%TD*%
D30*
%TO.C,C108*%
X116580500Y-77629700D03*
X116580500Y-75554700D03*
%TD*%
D18*
%TO.C,L24*%
X115183500Y-69362200D03*
X115183500Y-67312200D03*
%TD*%
D31*
%TO.C,Q3*%
X95722500Y-161936200D03*
X96372500Y-161936200D03*
X97022500Y-161936200D03*
X97022500Y-160036200D03*
X96372500Y-160036200D03*
X95722500Y-160036200D03*
%TD*%
D32*
%TO.C,C48*%
X91974000Y-131964200D03*
X89899000Y-131964200D03*
%TD*%
D14*
%TO.C,R26*%
X131312500Y-149728200D03*
X131312500Y-151728200D03*
%TD*%
D33*
%TO.C,C53*%
X100164000Y-70183000D03*
X100164000Y-72258000D03*
%TD*%
D19*
%TO.C,R4*%
X71105500Y-140092200D03*
X73105500Y-140092200D03*
%TD*%
D34*
%TO.C,U17*%
X121879000Y-39284000D03*
X121879000Y-39934000D03*
X121879000Y-40584000D03*
X121879000Y-41234000D03*
X126279000Y-41234000D03*
X126279000Y-40584000D03*
X126279000Y-39934000D03*
X126279000Y-39284000D03*
D17*
X124079000Y-40259000D03*
%TD*%
D15*
%TO.C,L21*%
X111116000Y-55499000D03*
X113166000Y-55499000D03*
%TD*%
D35*
%TO.C,L25*%
X121421000Y-49013000D03*
X119371000Y-49013000D03*
%TD*%
D32*
%TO.C,C47*%
X91974000Y-129932200D03*
X89899000Y-129932200D03*
%TD*%
D19*
%TO.C,R44*%
X117358500Y-127138200D03*
X119358500Y-127138200D03*
%TD*%
D23*
%TO.C,C68*%
X84291500Y-90015500D03*
X82341500Y-90015500D03*
%TD*%
D22*
%TO.C,C32*%
X87761500Y-81211500D03*
X87761500Y-79261500D03*
%TD*%
D36*
%TO.C,IC4*%
X115696500Y-122074200D03*
X115696500Y-122574200D03*
X115696500Y-123074200D03*
X115696500Y-123574200D03*
X115696500Y-124074200D03*
D37*
X116596500Y-124974200D03*
X117096500Y-124974200D03*
X117596500Y-124974200D03*
X118096500Y-124974200D03*
X118596500Y-124974200D03*
D36*
X119496500Y-124074200D03*
X119496500Y-123574200D03*
X119496500Y-123074200D03*
X119496500Y-122574200D03*
X119496500Y-122074200D03*
D37*
X118596500Y-121174200D03*
X118096500Y-121174200D03*
X117596500Y-121174200D03*
X117096500Y-121174200D03*
X116596500Y-121174200D03*
D38*
X116834500Y-122312200D03*
X116834500Y-123074200D03*
X116834500Y-123836200D03*
X117596500Y-122312200D03*
X117596500Y-123074200D03*
D39*
X117596500Y-123074200D03*
D38*
X117596500Y-123836200D03*
X118358500Y-122312200D03*
X118358500Y-123074200D03*
X118358500Y-123836200D03*
%TD*%
D35*
%TO.C,L15*%
X82299500Y-103008200D03*
X80249500Y-103008200D03*
%TD*%
D21*
%TO.C,C104*%
X112622000Y-77481200D03*
X114697000Y-77481200D03*
%TD*%
D40*
%TO.C,C94*%
X86233000Y-52746000D03*
X86233000Y-54696000D03*
%TD*%
D21*
%TO.C,C42*%
X96503000Y-134250200D03*
X98578000Y-134250200D03*
%TD*%
D11*
%TO.C,TP3*%
X133344500Y-155808200D03*
%TD*%
D37*
%TO.C,IC6*%
X112405500Y-87890200D03*
X112905500Y-87890200D03*
X113405500Y-87890200D03*
X113905500Y-87890200D03*
X114405500Y-87890200D03*
D36*
X115305500Y-86990200D03*
X115305500Y-86490200D03*
X115305500Y-85990200D03*
X115305500Y-85490200D03*
X115305500Y-84990200D03*
D37*
X114405500Y-84090200D03*
X113905500Y-84090200D03*
X113405500Y-84090200D03*
X112905500Y-84090200D03*
X112405500Y-84090200D03*
D36*
X111505500Y-84990200D03*
X111505500Y-85490200D03*
X111505500Y-85990200D03*
X111505500Y-86490200D03*
X111505500Y-86990200D03*
D38*
X112643500Y-86752200D03*
X113405500Y-86752200D03*
X114167500Y-86752200D03*
X112643500Y-85990200D03*
X113405500Y-85990200D03*
D39*
X113405500Y-85990200D03*
D38*
X114167500Y-85990200D03*
X112643500Y-85228200D03*
X113405500Y-85228200D03*
X114167500Y-85228200D03*
%TD*%
D41*
%TO.C,RESET1*%
X69082500Y-111986200D03*
X69082500Y-116486200D03*
D42*
X71572500Y-110731200D03*
X71572500Y-117741200D03*
%TD*%
D23*
%TO.C,C7*%
X89552500Y-169905200D03*
X87602500Y-169905200D03*
%TD*%
D25*
%TO.C,J10*%
X116326500Y-110882200D03*
D43*
X116326500Y-109612200D03*
X116326500Y-108342200D03*
X116326500Y-107072200D03*
X116326500Y-105802200D03*
X116326500Y-104532200D03*
X116326500Y-103262200D03*
X116326500Y-101992200D03*
X116326500Y-100722200D03*
X116326500Y-99452200D03*
X116326500Y-98182200D03*
X116326500Y-96912200D03*
X116326500Y-95642200D03*
X116326500Y-94372200D03*
%TD*%
D33*
%TO.C,C97*%
X109220000Y-55477500D03*
X109220000Y-57552500D03*
%TD*%
D23*
%TO.C,C4*%
X89552500Y-167873200D03*
X87602500Y-167873200D03*
%TD*%
D44*
%TO.C,U5*%
X141598500Y-138060200D03*
D45*
X141598500Y-135520200D03*
X141598500Y-132980200D03*
%TD*%
D33*
%TO.C,C121*%
X113030000Y-46959500D03*
X113030000Y-49034500D03*
%TD*%
D14*
%TO.C,R20*%
X84513500Y-177287200D03*
X84513500Y-179287200D03*
%TD*%
D30*
%TO.C,C49*%
X85354500Y-124111700D03*
X85354500Y-122036700D03*
%TD*%
D33*
%TO.C,C29*%
X126740500Y-153786700D03*
X126740500Y-155861700D03*
%TD*%
D21*
%TO.C,C99*%
X136101000Y-114692200D03*
X138176000Y-114692200D03*
%TD*%
D46*
%TO.C,Q5*%
X121728500Y-130252200D03*
X121728500Y-132152200D03*
X125148500Y-131202200D03*
%TD*%
D47*
%TO.C,U6*%
X94514000Y-164845200D03*
X94514000Y-165345200D03*
X94514000Y-165845200D03*
X94514000Y-166345200D03*
X94514000Y-166845200D03*
X94514000Y-167345200D03*
D48*
X95201500Y-168032700D03*
X95701500Y-168032700D03*
X96201500Y-168032700D03*
X96701500Y-168032700D03*
X97201500Y-168032700D03*
X97701500Y-168032700D03*
D47*
X98389000Y-167345200D03*
X98389000Y-166845200D03*
X98389000Y-166345200D03*
X98389000Y-165845200D03*
X98389000Y-165345200D03*
X98389000Y-164845200D03*
D48*
X97701500Y-164157700D03*
X97201500Y-164157700D03*
X96701500Y-164157700D03*
X96201500Y-164157700D03*
X95701500Y-164157700D03*
X95201500Y-164157700D03*
D38*
X95562500Y-165206200D03*
X95562500Y-166095200D03*
X95562500Y-166984200D03*
X96451500Y-165206200D03*
X96451500Y-166095200D03*
D49*
X96451500Y-166095200D03*
D38*
X96451500Y-166984200D03*
X97340500Y-165206200D03*
X97340500Y-166095200D03*
X97340500Y-166984200D03*
%TD*%
D50*
%TO.C,USB_OTG1*%
X109053500Y-178787200D03*
X114833500Y-178787200D03*
D51*
X108693500Y-177342200D03*
X109493500Y-177342200D03*
D52*
X110693500Y-177342200D03*
X111693500Y-177342200D03*
X112193500Y-177342200D03*
X113193500Y-177342200D03*
D51*
X114393500Y-177342200D03*
X115193500Y-177342200D03*
X115193500Y-177342200D03*
X114393500Y-177342200D03*
D52*
X113693500Y-177342200D03*
X112693500Y-177342200D03*
X111193500Y-177342200D03*
X110193500Y-177342200D03*
D51*
X109493500Y-177342200D03*
X108693500Y-177342200D03*
D53*
X107623500Y-178257200D03*
D54*
X107623500Y-182437200D03*
D53*
X116263500Y-178257200D03*
D54*
X116263500Y-182437200D03*
%TD*%
D19*
%TO.C,R59*%
X72654500Y-107707200D03*
X74654500Y-107707200D03*
%TD*%
D22*
%TO.C,C25*%
X87116500Y-66860500D03*
X87116500Y-64910500D03*
%TD*%
D50*
%TO.C,USB_UART1*%
X91413500Y-178787200D03*
X97193500Y-178787200D03*
D51*
X91053500Y-177342200D03*
X91853500Y-177342200D03*
D52*
X93053500Y-177342200D03*
X94053500Y-177342200D03*
X94553500Y-177342200D03*
X95553500Y-177342200D03*
D51*
X96753500Y-177342200D03*
X97553500Y-177342200D03*
X97553500Y-177342200D03*
X96753500Y-177342200D03*
D52*
X96053500Y-177342200D03*
X95053500Y-177342200D03*
X93553500Y-177342200D03*
X92553500Y-177342200D03*
D51*
X91853500Y-177342200D03*
X91053500Y-177342200D03*
D53*
X89983500Y-178257200D03*
D54*
X89983500Y-182437200D03*
D53*
X98623500Y-178257200D03*
D54*
X98623500Y-182437200D03*
%TD*%
D55*
%TO.C,IC1*%
X81135500Y-173215200D03*
X81135500Y-173715200D03*
X81135500Y-174215200D03*
X82811500Y-174215200D03*
X82811500Y-173715200D03*
X82811500Y-173215200D03*
%TD*%
D29*
%TO.C,L9*%
X115310500Y-149719200D03*
X115310500Y-151769200D03*
%TD*%
D35*
%TO.C,L22*%
X117103000Y-53467000D03*
X115053000Y-53467000D03*
%TD*%
D21*
%TO.C,C84*%
X91540000Y-51319200D03*
X93615000Y-51319200D03*
%TD*%
D33*
%TO.C,C38*%
X117596500Y-153770700D03*
X117596500Y-155845700D03*
%TD*%
D28*
%TO.C,R16*%
X71606500Y-144410200D03*
X69606500Y-144410200D03*
%TD*%
D56*
%TO.C,R21*%
X130296500Y-130797200D03*
X130296500Y-128797200D03*
%TD*%
D21*
%TO.C,C69*%
X80237000Y-113168200D03*
X82312000Y-113168200D03*
%TD*%
D32*
%TO.C,C44*%
X107722000Y-161135500D03*
X105647000Y-161135500D03*
%TD*%
D18*
%TO.C,L11*%
X98132000Y-66382000D03*
X98132000Y-64332000D03*
%TD*%
D19*
%TO.C,R18*%
X100604500Y-164564500D03*
X102604500Y-164564500D03*
%TD*%
D57*
%TO.C,AE4*%
X130623500Y-48887200D03*
X130623500Y-86987200D03*
%TD*%
D23*
%TO.C,C14*%
X89552500Y-161777200D03*
X87602500Y-161777200D03*
%TD*%
D28*
%TO.C,R53*%
X117078000Y-43933000D03*
X115078000Y-43933000D03*
%TD*%
D22*
%TO.C,C17*%
X119882500Y-181580200D03*
X119882500Y-179630200D03*
%TD*%
D21*
%TO.C,C81*%
X80237000Y-100976200D03*
X82312000Y-100976200D03*
%TD*%
D58*
%TO.C,AE2*%
X75623500Y-48417200D03*
X75623500Y-86517200D03*
%TD*%
D33*
%TO.C,C90*%
X124835500Y-87492700D03*
X124835500Y-89567700D03*
%TD*%
D34*
%TO.C,U14*%
X115275000Y-61509000D03*
X115275000Y-62159000D03*
X115275000Y-62809000D03*
X115275000Y-63459000D03*
X119675000Y-63459000D03*
X119675000Y-62809000D03*
X119675000Y-62159000D03*
X119675000Y-61509000D03*
D17*
X117475000Y-62484000D03*
%TD*%
D59*
%TO.C,SCREEN1*%
X86742400Y-144619700D03*
D60*
X89282400Y-144619700D03*
X91822400Y-144619700D03*
X94362400Y-144619700D03*
X96902400Y-144619700D03*
X99442400Y-144619700D03*
X101982400Y-144619700D03*
X104522400Y-144619700D03*
X107062400Y-144619700D03*
X109602400Y-144619700D03*
X112142400Y-144619700D03*
X114682400Y-144619700D03*
X117222400Y-144619700D03*
X119762400Y-144619700D03*
D61*
X73652400Y-41579700D03*
X73906400Y-143873700D03*
X74414400Y-39882644D03*
X74414400Y-43276756D03*
X74668400Y-142176644D03*
X74668400Y-145570756D03*
X75802400Y-39499700D03*
D62*
X75802400Y-41579700D03*
D61*
X75802400Y-43817700D03*
X76056400Y-141793700D03*
D62*
X76056400Y-143873700D03*
D61*
X76056400Y-146111700D03*
X77208400Y-39882644D03*
X77208400Y-43276756D03*
X77462400Y-142176644D03*
X77462400Y-145570756D03*
X77970400Y-41579700D03*
X78224400Y-143873700D03*
X128552400Y-41579700D03*
X128552400Y-143619700D03*
X129314400Y-39882644D03*
X129314400Y-43276756D03*
X129314400Y-141922644D03*
X129314400Y-145316756D03*
X130702400Y-39499700D03*
D62*
X130702400Y-41579700D03*
D61*
X130702400Y-43817700D03*
X130702400Y-141539700D03*
D62*
X130702400Y-143619700D03*
D61*
X130702400Y-145857700D03*
X132108400Y-39882644D03*
X132108400Y-43276756D03*
X132108400Y-141922644D03*
X132108400Y-145316756D03*
X132870400Y-41579700D03*
X132870400Y-143619700D03*
%TD*%
D23*
%TO.C,C13*%
X89552500Y-163809200D03*
X87602500Y-163809200D03*
%TD*%
D35*
%TO.C,L13*%
X85220500Y-72401200D03*
X83170500Y-72401200D03*
%TD*%
D63*
%TO.C,IC7*%
X132044500Y-117552200D03*
X132044500Y-118502200D03*
X132044500Y-119452200D03*
X134644500Y-119452200D03*
X134644500Y-118502200D03*
X134644500Y-117552200D03*
%TD*%
D32*
%TO.C,C115*%
X138176000Y-94372200D03*
X136101000Y-94372200D03*
%TD*%
D19*
%TO.C,R54*%
X131074500Y-107580200D03*
X133074500Y-107580200D03*
%TD*%
D21*
%TO.C,C23*%
X78215000Y-133996200D03*
X80290000Y-133996200D03*
%TD*%
D64*
%TO.C,Q7*%
X127405500Y-121870200D03*
X127405500Y-123770200D03*
X129280500Y-122820200D03*
%TD*%
D65*
%TO.C,Y2*%
X91786500Y-136366200D03*
X91786500Y-134166200D03*
X90086500Y-134166200D03*
X90086500Y-136366200D03*
%TD*%
D28*
%TO.C,R49*%
X138138500Y-96912200D03*
X136138500Y-96912200D03*
%TD*%
D66*
%TO.C,C98*%
X133344500Y-114730700D03*
X133344500Y-111605700D03*
%TD*%
D46*
%TO.C,Q6*%
X121728500Y-133808200D03*
X121728500Y-135708200D03*
X125148500Y-134758200D03*
%TD*%
D19*
%TO.C,R40*%
X117358500Y-131202200D03*
X119358500Y-131202200D03*
%TD*%
D22*
%TO.C,C39*%
X90418500Y-81211500D03*
X90418500Y-79261500D03*
%TD*%
D33*
%TO.C,C36*%
X119882500Y-149706700D03*
X119882500Y-151781700D03*
%TD*%
D56*
%TO.C,R27*%
X131312500Y-155808200D03*
X131312500Y-153808200D03*
%TD*%
D23*
%TO.C,C66*%
X84291500Y-88110500D03*
X82341500Y-88110500D03*
%TD*%
D10*
%TO.C,C72*%
X94488000Y-61468000D03*
X96438000Y-61468000D03*
%TD*%
%TO.C,C91*%
X117860500Y-85482200D03*
X119810500Y-85482200D03*
%TD*%
D22*
%TO.C,C16*%
X84513500Y-167578200D03*
X84513500Y-165628200D03*
%TD*%
D19*
%TO.C,R43*%
X123454500Y-122058200D03*
X125454500Y-122058200D03*
%TD*%
D40*
%TO.C,C5*%
X79433500Y-177312200D03*
X79433500Y-179262200D03*
%TD*%
D67*
%TO.C,D1*%
X69311500Y-138630200D03*
X69311500Y-140030200D03*
%TD*%
D12*
%TO.C,H3*%
X65473500Y-27487200D03*
X65956774Y-26320474D03*
X65956774Y-28653926D03*
X67123500Y-25837200D03*
D13*
X67123500Y-27487200D03*
D12*
X67123500Y-29137200D03*
X68290226Y-26320474D03*
X68290226Y-28653926D03*
X68773500Y-27487200D03*
%TD*%
D68*
%TO.C,FL2*%
X113151500Y-73240200D03*
X113151500Y-73900200D03*
X113151500Y-74560200D03*
X114141500Y-74560200D03*
X114141500Y-73900200D03*
X114141500Y-73240200D03*
%TD*%
D33*
%TO.C,C82*%
X88513500Y-55213200D03*
X88513500Y-57288200D03*
%TD*%
D21*
%TO.C,C117*%
X126211000Y-100468200D03*
X128286000Y-100468200D03*
%TD*%
D69*
%TO.C,F1*%
X91879500Y-168852700D03*
X91879500Y-165877700D03*
%TD*%
D21*
%TO.C,C89*%
X118972000Y-92340200D03*
X121047000Y-92340200D03*
%TD*%
D19*
%TO.C,R34*%
X85608500Y-120026200D03*
X87608500Y-120026200D03*
%TD*%
D70*
%TO.C,U2*%
X94360500Y-172699200D03*
D71*
X94898000Y-172774200D03*
D70*
X95435500Y-172699200D03*
X95435500Y-170999200D03*
D71*
X94898000Y-170924200D03*
D70*
X94360500Y-170999200D03*
%TD*%
D14*
%TO.C,R39*%
X88513500Y-51335200D03*
X88513500Y-53335200D03*
%TD*%
D21*
%TO.C,C120*%
X131058500Y-105040200D03*
X133133500Y-105040200D03*
%TD*%
D18*
%TO.C,L19*%
X111252000Y-59445000D03*
X111252000Y-57395000D03*
%TD*%
D32*
%TO.C,C102*%
X138154500Y-106056200D03*
X136079500Y-106056200D03*
%TD*%
D27*
%TO.C,Y4*%
X119374500Y-90068200D03*
X122274500Y-90068200D03*
X122274500Y-87768200D03*
X119374500Y-87768200D03*
%TD*%
D22*
%TO.C,C15*%
X84513500Y-171388200D03*
X84513500Y-169438200D03*
%TD*%
D15*
%TO.C,L4*%
X94059000Y-70310000D03*
X96109000Y-70310000D03*
%TD*%
D19*
%TO.C,R17*%
X100614500Y-166684800D03*
X102614500Y-166684800D03*
%TD*%
D23*
%TO.C,C11*%
X79900500Y-150601200D03*
X77950500Y-150601200D03*
%TD*%
D40*
%TO.C,C67*%
X75940500Y-121083200D03*
X75940500Y-123033200D03*
%TD*%
D33*
%TO.C,C45*%
X98132000Y-70183000D03*
X98132000Y-72258000D03*
%TD*%
D25*
%TO.C,J7*%
X103055500Y-43135200D03*
D72*
X101580500Y-41635200D03*
D25*
X103055500Y-40135200D03*
D72*
X104530500Y-41635200D03*
%TD*%
D32*
%TO.C,C78*%
X82312000Y-107072200D03*
X80237000Y-107072200D03*
%TD*%
D73*
%TO.C,IC3*%
X99182500Y-155961700D03*
X99682500Y-155961700D03*
X100182500Y-155961700D03*
X100682500Y-155961700D03*
X101182500Y-155961700D03*
X101682500Y-155961700D03*
X102182500Y-155961700D03*
X102682500Y-155961700D03*
X103182500Y-155961700D03*
X103682500Y-155961700D03*
D74*
X104370000Y-155274200D03*
X104370000Y-154774200D03*
X104370000Y-154274200D03*
X104370000Y-153774200D03*
X104370000Y-153274200D03*
X104370000Y-152774200D03*
X104370000Y-152274200D03*
X104370000Y-151774200D03*
X104370000Y-151274200D03*
X104370000Y-150774200D03*
D73*
X103682500Y-150086700D03*
X103182500Y-150086700D03*
X102682500Y-150086700D03*
X102182500Y-150086700D03*
X101682500Y-150086700D03*
X101182500Y-150086700D03*
X100682500Y-150086700D03*
X100182500Y-150086700D03*
X99682500Y-150086700D03*
X99182500Y-150086700D03*
D74*
X98495000Y-150774200D03*
X98495000Y-151274200D03*
X98495000Y-151774200D03*
X98495000Y-152274200D03*
X98495000Y-152774200D03*
X98495000Y-153274200D03*
X98495000Y-153774200D03*
X98495000Y-154274200D03*
X98495000Y-154774200D03*
X98495000Y-155274200D03*
D75*
X101432500Y-153024200D03*
%TD*%
D22*
%TO.C,C6*%
X79941500Y-156910200D03*
X79941500Y-154960200D03*
%TD*%
D10*
%TO.C,C92*%
X115097500Y-91920500D03*
X117047500Y-91920500D03*
%TD*%
D23*
%TO.C,C70*%
X84291500Y-86205500D03*
X82341500Y-86205500D03*
%TD*%
D33*
%TO.C,C54*%
X102196000Y-64319500D03*
X102196000Y-66394500D03*
%TD*%
D14*
%TO.C,R19*%
X84513500Y-173477200D03*
X84513500Y-175477200D03*
%TD*%
D30*
%TO.C,C28*%
X126740500Y-151781700D03*
X126740500Y-149706700D03*
%TD*%
D28*
%TO.C,R47*%
X109249500Y-85482200D03*
X107249500Y-85482200D03*
%TD*%
D33*
%TO.C,C100*%
X119761000Y-55350500D03*
X119761000Y-57425500D03*
%TD*%
D11*
%TO.C,TP6*%
X122168500Y-158639700D03*
%TD*%
D35*
%TO.C,D5*%
X141989500Y-169048200D03*
X139939500Y-169048200D03*
%TD*%
D11*
%TO.C,TP5*%
X119882500Y-146955700D03*
%TD*%
D40*
%TO.C,C60*%
X89402500Y-89548500D03*
X89402500Y-91498500D03*
%TD*%
D76*
%TO.C,FB2*%
X107430500Y-159103500D03*
X105730500Y-159103500D03*
%TD*%
D21*
%TO.C,C80*%
X91540000Y-59320200D03*
X93615000Y-59320200D03*
%TD*%
D10*
%TO.C,C93*%
X127289500Y-126630200D03*
X129239500Y-126630200D03*
%TD*%
D77*
%TO.C,Q1*%
X83446700Y-162539200D03*
X81516300Y-162539200D03*
X82481500Y-164571200D03*
%TD*%
D78*
%TO.C,AE7*%
X94123500Y-26557200D03*
D79*
X98503500Y-26557200D03*
X89743500Y-26557200D03*
%TD*%
D22*
%TO.C,C110*%
X111627500Y-81846500D03*
X111627500Y-79896500D03*
%TD*%
D10*
%TO.C,C87*%
X115056500Y-90015500D03*
X117006500Y-90015500D03*
%TD*%
D14*
%TO.C,R12*%
X79433500Y-173477200D03*
X79433500Y-175477200D03*
%TD*%
D10*
%TO.C,C58*%
X105439500Y-165707500D03*
X107389500Y-165707500D03*
%TD*%
D80*
%TO.C,D4*%
X139348500Y-128520200D03*
D45*
X141888500Y-128520200D03*
%TD*%
D25*
%TO.C,J5*%
X136656500Y-152538200D03*
D26*
X138156500Y-151063200D03*
D25*
X139656500Y-152538200D03*
D26*
X138156500Y-154013200D03*
%TD*%
D14*
%TO.C,R23*%
X88904500Y-94896200D03*
X88904500Y-96896200D03*
%TD*%
D19*
%TO.C,R15*%
X69606500Y-146696200D03*
X71606500Y-146696200D03*
%TD*%
D28*
%TO.C,R52*%
X133074500Y-102500200D03*
X131074500Y-102500200D03*
%TD*%
D30*
%TO.C,C46*%
X96100000Y-66394500D03*
X96100000Y-64319500D03*
%TD*%
D35*
%TO.C,D6*%
X138163500Y-110374200D03*
X136113500Y-110374200D03*
%TD*%
D11*
%TO.C,TP2*%
X136646500Y-158126200D03*
%TD*%
D63*
%TO.C,IC5*%
X132044500Y-121362200D03*
X132044500Y-122312200D03*
X132044500Y-123262200D03*
X134644500Y-123262200D03*
X134644500Y-122312200D03*
X134644500Y-121362200D03*
%TD*%
D19*
%TO.C,R36*%
X105414500Y-163675500D03*
X107414500Y-163675500D03*
%TD*%
D32*
%TO.C,C57*%
X112532000Y-163675500D03*
X110457000Y-163675500D03*
%TD*%
D21*
%TO.C,C123*%
X119358500Y-43933000D03*
X121433500Y-43933000D03*
%TD*%
D12*
%TO.C,H2*%
X138552500Y-159142200D03*
X139035774Y-157975474D03*
X139035774Y-160308926D03*
X140202500Y-157492200D03*
D13*
X140202500Y-159142200D03*
D12*
X140202500Y-160792200D03*
X141369226Y-157975474D03*
X141369226Y-160308926D03*
X141852500Y-159142200D03*
%TD*%
D81*
%TO.C,JSTPH1*%
X64987000Y-153273000D03*
D82*
X64987000Y-151273000D03*
%TD*%
D33*
%TO.C,C116*%
X117215500Y-67299700D03*
X117215500Y-69374700D03*
%TD*%
D23*
%TO.C,C1*%
X72788500Y-175239200D03*
X70838500Y-175239200D03*
%TD*%
D83*
%TO.C,L1*%
X77583500Y-168889200D03*
X81283500Y-168889200D03*
%TD*%
D28*
%TO.C,R55*%
X130026500Y-114184200D03*
X128026500Y-114184200D03*
%TD*%
D33*
%TO.C,C118*%
X117348000Y-46959500D03*
X117348000Y-49034500D03*
%TD*%
D15*
%TO.C,L7*%
X97996000Y-68278000D03*
X100046000Y-68278000D03*
%TD*%
D22*
%TO.C,C3*%
X77909500Y-156910200D03*
X77909500Y-154960200D03*
%TD*%
D59*
%TO.C,J1*%
X66542500Y-137826200D03*
D60*
X66542500Y-140366200D03*
%TD*%
D56*
%TO.C,R1*%
X89085500Y-149045200D03*
X89085500Y-147045200D03*
%TD*%
D10*
%TO.C,C119*%
X126273500Y-103262200D03*
X128223500Y-103262200D03*
%TD*%
D40*
%TO.C,C86*%
X113157000Y-123369200D03*
X113157000Y-125319200D03*
%TD*%
D30*
%TO.C,C62*%
X82290500Y-81693700D03*
X82290500Y-79618700D03*
%TD*%
D34*
%TO.C,U16*%
X113030000Y-52832000D03*
X113030000Y-52182000D03*
X113030000Y-51532000D03*
X113030000Y-50882000D03*
X108630000Y-50882000D03*
X108630000Y-51532000D03*
X108630000Y-52182000D03*
X108630000Y-52832000D03*
D17*
X110830000Y-51857000D03*
%TD*%
D84*
%TO.C,U10*%
X83862500Y-134061200D03*
X84362500Y-134061200D03*
X84862500Y-134061200D03*
X85362500Y-134061200D03*
X85862500Y-134061200D03*
D85*
X86800000Y-133123700D03*
X86800000Y-132623700D03*
X86800000Y-132123700D03*
X86800000Y-131623700D03*
X86800000Y-131123700D03*
D84*
X85862500Y-130186200D03*
X85362500Y-130186200D03*
X84862500Y-130186200D03*
X84362500Y-130186200D03*
X83862500Y-130186200D03*
D85*
X82925000Y-131123700D03*
X82925000Y-131623700D03*
X82925000Y-132123700D03*
X82925000Y-132623700D03*
X82925000Y-133123700D03*
D38*
X84100500Y-132885700D03*
X84862500Y-132885700D03*
X85624500Y-132885700D03*
X84100500Y-132123700D03*
X84862500Y-132123700D03*
D39*
X84862500Y-132123700D03*
D38*
X85624500Y-132123700D03*
X84100500Y-131361700D03*
X84862500Y-131361700D03*
X85624500Y-131361700D03*
%TD*%
D18*
%TO.C,L20*%
X117729000Y-57413000D03*
X117729000Y-55363000D03*
%TD*%
D23*
%TO.C,C88*%
X112989000Y-61849000D03*
X111039000Y-61849000D03*
%TD*%
D30*
%TO.C,C33*%
X122168500Y-151781700D03*
X122168500Y-149706700D03*
%TD*%
D78*
%TO.C,AE1*%
X76123500Y-26557200D03*
D79*
X80503500Y-26557200D03*
X71743500Y-26557200D03*
%TD*%
D21*
%TO.C,C77*%
X83158000Y-70369200D03*
X85233000Y-70369200D03*
%TD*%
D19*
%TO.C,R2*%
X69035500Y-157459200D03*
X71035500Y-157459200D03*
%TD*%
%TO.C,R14*%
X65304500Y-144410200D03*
X67304500Y-144410200D03*
%TD*%
%TO.C,R57*%
X128010500Y-109866200D03*
X130010500Y-109866200D03*
%TD*%
D76*
%TO.C,FB3*%
X112344500Y-165961500D03*
X110644500Y-165961500D03*
%TD*%
D15*
%TO.C,L5*%
X94059000Y-68278000D03*
X96109000Y-68278000D03*
%TD*%
D86*
%TO.C,J3*%
X133113500Y-178866000D03*
X132013500Y-178466000D03*
X130913500Y-178866000D03*
X129813500Y-179066000D03*
X128713500Y-178866000D03*
X127613500Y-179066000D03*
X126513500Y-178866000D03*
X125413500Y-178866000D03*
D87*
X126223500Y-168316000D03*
X131923500Y-168316000D03*
D88*
X124623500Y-181466000D03*
X137773500Y-182466000D03*
%TD*%
D40*
%TO.C,C8*%
X81719500Y-177312200D03*
X81719500Y-179262200D03*
%TD*%
D23*
%TO.C,C12*%
X79900500Y-152633200D03*
X77950500Y-152633200D03*
%TD*%
D41*
%TO.C,BOOT1*%
X69082500Y-123741200D03*
X69082500Y-128241200D03*
D42*
X71572500Y-122486200D03*
X71572500Y-129496200D03*
%TD*%
D35*
%TO.C,L17*%
X93602500Y-55256200D03*
X91552500Y-55256200D03*
%TD*%
D18*
%TO.C,L10*%
X115310500Y-155833200D03*
X115310500Y-153783200D03*
%TD*%
D89*
%TO.C,U1*%
X84646000Y-148127200D03*
X84646000Y-149077200D03*
X84646000Y-150027200D03*
X86921000Y-150027200D03*
X86921000Y-148127200D03*
%TD*%
D40*
%TO.C,C85*%
X111246500Y-123369200D03*
X111246500Y-125319200D03*
%TD*%
D18*
%TO.C,L8*%
X100164000Y-66382000D03*
X100164000Y-64332000D03*
%TD*%
D11*
%TO.C,TP1*%
X133344500Y-149712200D03*
%TD*%
D21*
%TO.C,C75*%
X93720500Y-157364200D03*
X95795500Y-157364200D03*
%TD*%
D30*
%TO.C,C35*%
X117596500Y-151781700D03*
X117596500Y-149706700D03*
%TD*%
D65*
%TO.C,Y3*%
X109037000Y-154488500D03*
X109037000Y-152288500D03*
X107337000Y-152288500D03*
X107337000Y-154488500D03*
%TD*%
D23*
%TO.C,C111*%
X110744000Y-39243000D03*
X108794000Y-39243000D03*
%TD*%
D78*
%TO.C,AE3*%
X130123500Y-26557200D03*
D79*
X134503500Y-26557200D03*
X125743500Y-26557200D03*
%TD*%
D12*
%TO.C,H5*%
X101473500Y-32487200D03*
X101956774Y-31320474D03*
X101956774Y-33653926D03*
X103123500Y-30837200D03*
D13*
X103123500Y-32487200D03*
D12*
X103123500Y-34137200D03*
X104290226Y-31320474D03*
X104290226Y-33653926D03*
X104773500Y-32487200D03*
%TD*%
D90*
%TO.C,U4*%
X82887500Y-152365200D03*
X82887500Y-154665200D03*
D91*
X89187500Y-154665200D03*
D90*
X82887500Y-156965200D03*
%TD*%
D15*
%TO.C,D2*%
X73074500Y-157459200D03*
X75124500Y-157459200D03*
%TD*%
D19*
%TO.C,R13*%
X91387500Y-161777200D03*
X93387500Y-161777200D03*
%TD*%
D56*
%TO.C,R29*%
X129026500Y-155824200D03*
X129026500Y-153824200D03*
%TD*%
D33*
%TO.C,C51*%
X82306500Y-122036700D03*
X82306500Y-124111700D03*
%TD*%
D23*
%TO.C,C40*%
X80227500Y-129932200D03*
X78277500Y-129932200D03*
%TD*%
D33*
%TO.C,C101*%
X113157000Y-57636500D03*
X113157000Y-59711500D03*
%TD*%
D30*
%TO.C,C65*%
X95752500Y-154591700D03*
X95752500Y-152516700D03*
%TD*%
D18*
%TO.C,L3*%
X87640500Y-124099200D03*
X87640500Y-122049200D03*
%TD*%
D19*
%TO.C,R9*%
X115707500Y-175017200D03*
X117707500Y-175017200D03*
%TD*%
D21*
%TO.C,C76*%
X111235000Y-152118500D03*
X113310000Y-152118500D03*
%TD*%
%TO.C,C74*%
X80237000Y-111136200D03*
X82312000Y-111136200D03*
%TD*%
D28*
%TO.C,R38*%
X85195500Y-68337200D03*
X83195500Y-68337200D03*
%TD*%
D22*
%TO.C,C21*%
X99953500Y-91752500D03*
X99953500Y-89802500D03*
%TD*%
D25*
%TO.C,AE8*%
X96123500Y-35012200D03*
D26*
X97623500Y-33537200D03*
D25*
X99123500Y-35012200D03*
D26*
X97623500Y-36487200D03*
%TD*%
D92*
%TO.C,ANT_SW1*%
X74653500Y-103392200D03*
D93*
X74653500Y-98692200D03*
X74653500Y-93992200D03*
X65123500Y-105297200D03*
X65123500Y-92087200D03*
%TD*%
D12*
%TO.C,H4*%
X137473500Y-27487200D03*
X137956774Y-26320474D03*
X137956774Y-28653926D03*
X139123500Y-25837200D03*
D13*
X139123500Y-27487200D03*
D12*
X139123500Y-29137200D03*
X140290226Y-26320474D03*
X140290226Y-28653926D03*
X140773500Y-27487200D03*
%TD*%
D21*
%TO.C,C50*%
X101567000Y-161135500D03*
X103642000Y-161135500D03*
%TD*%
D14*
%TO.C,R6*%
X69311500Y-135028200D03*
X69311500Y-137028200D03*
%TD*%
%TO.C,R28*%
X129026500Y-149744200D03*
X129026500Y-151744200D03*
%TD*%
D40*
%TO.C,C20*%
X116326500Y-113082200D03*
X116326500Y-115032200D03*
%TD*%
D19*
%TO.C,R41*%
X117358500Y-133234200D03*
X119358500Y-133234200D03*
%TD*%
%TO.C,R3*%
X71121500Y-133996200D03*
X73121500Y-133996200D03*
%TD*%
D34*
%TO.C,U11*%
X87335000Y-68875000D03*
X87335000Y-69525000D03*
X87335000Y-70175000D03*
X87335000Y-70825000D03*
X91735000Y-70825000D03*
X91735000Y-70175000D03*
X91735000Y-69525000D03*
X91735000Y-68875000D03*
D17*
X89535000Y-69850000D03*
%TD*%
D10*
%TO.C,C52*%
X110519500Y-161389500D03*
X112469500Y-161389500D03*
%TD*%
D23*
%TO.C,C103*%
X109351500Y-87895200D03*
X107401500Y-87895200D03*
%TD*%
D32*
%TO.C,C106*%
X138176000Y-103262200D03*
X136101000Y-103262200D03*
%TD*%
D14*
%TO.C,R33*%
X86989500Y-89412500D03*
X86989500Y-91412500D03*
%TD*%
D19*
%TO.C,R24*%
X139964500Y-171334200D03*
X141964500Y-171334200D03*
%TD*%
D14*
%TO.C,R42*%
X112135500Y-89816200D03*
X112135500Y-91816200D03*
%TD*%
D94*
%TO.C,U7*%
X112707500Y-171924200D03*
X112207500Y-171924200D03*
D95*
X111707500Y-171961700D03*
D94*
X111207500Y-171924200D03*
X110707500Y-171924200D03*
X110707500Y-172699200D03*
X111207500Y-172699200D03*
D96*
X111707500Y-172724200D03*
D94*
X112207500Y-172699200D03*
X112707500Y-172699200D03*
%TD*%
D33*
%TO.C,C34*%
X122168500Y-153786700D03*
X122168500Y-155861700D03*
%TD*%
D59*
%TO.C,J2*%
X108077000Y-122804000D03*
D60*
X108077000Y-125344000D03*
%TD*%
D16*
%TO.C,U18*%
X112776000Y-39157000D03*
X113426000Y-39157000D03*
X114076000Y-39157000D03*
X114726000Y-39157000D03*
X114726000Y-34757000D03*
X114076000Y-34757000D03*
X113426000Y-34757000D03*
X112776000Y-34757000D03*
D17*
X113751000Y-36957000D03*
%TD*%
D15*
%TO.C,L14*%
X80249500Y-109104200D03*
X82299500Y-109104200D03*
%TD*%
D22*
%TO.C,C64*%
X75940500Y-118969200D03*
X75940500Y-117019200D03*
%TD*%
D30*
%TO.C,C30*%
X124454500Y-151781700D03*
X124454500Y-149706700D03*
%TD*%
D97*
%TO.C,U8*%
X127381000Y-165989000D03*
X128651000Y-165989000D03*
X129921000Y-165989000D03*
X131191000Y-165989000D03*
X132461000Y-165989000D03*
X133731000Y-165989000D03*
X135001000Y-165989000D03*
X136271000Y-165989000D03*
X136271000Y-161039000D03*
X135001000Y-161039000D03*
X133731000Y-161039000D03*
X132461000Y-161039000D03*
X131191000Y-161039000D03*
X129921000Y-161039000D03*
X128651000Y-161039000D03*
X127381000Y-161039000D03*
%TD*%
D23*
%TO.C,C109*%
X109224500Y-83069200D03*
X107274500Y-83069200D03*
%TD*%
D32*
%TO.C,C79*%
X82312000Y-105040200D03*
X80237000Y-105040200D03*
%TD*%
D30*
%TO.C,C107*%
X110611500Y-77629700D03*
X110611500Y-75554700D03*
%TD*%
D33*
%TO.C,C27*%
X98419500Y-78708200D03*
X98419500Y-80783200D03*
%TD*%
D19*
%TO.C,R37*%
X85608500Y-115962200D03*
X87608500Y-115962200D03*
%TD*%
D33*
%TO.C,C96*%
X122301000Y-59287500D03*
X122301000Y-61362500D03*
%TD*%
D89*
%TO.C,U3*%
X74861500Y-177271200D03*
X74861500Y-178221200D03*
X74861500Y-179171200D03*
X77136500Y-179171200D03*
X77136500Y-177271200D03*
%TD*%
D30*
%TO.C,C59*%
X93720500Y-154591700D03*
X93720500Y-152516700D03*
%TD*%
D11*
%TO.C,TP4*%
X122168500Y-146955700D03*
%TD*%
D40*
%TO.C,C122*%
X91059000Y-42078000D03*
X91059000Y-44028000D03*
%TD*%
D22*
%TO.C,C18*%
X121882500Y-181580200D03*
X121882500Y-179630200D03*
%TD*%
D98*
%TO.C,C95*%
X133344500Y-126337700D03*
X133344500Y-129462700D03*
%TD*%
D28*
%TO.C,R11*%
X108198500Y-175017200D03*
X106198500Y-175017200D03*
%TD*%
D30*
%TO.C,C63*%
X84576500Y-81715200D03*
X84576500Y-79640200D03*
%TD*%
D19*
%TO.C,R56*%
X128026500Y-116470200D03*
X130026500Y-116470200D03*
%TD*%
D28*
%TO.C,R48*%
X138138500Y-108342200D03*
X136138500Y-108342200D03*
%TD*%
D59*
%TO.C,J6*%
X139440500Y-122063200D03*
D60*
X139440500Y-119523200D03*
%TD*%
D33*
%TO.C,C31*%
X124454500Y-153786700D03*
X124454500Y-155861700D03*
%TD*%
D25*
%TO.C,J8*%
X92958500Y-94372200D03*
D43*
X92958500Y-95642200D03*
X92958500Y-96912200D03*
X92958500Y-98182200D03*
X92958500Y-99452200D03*
X92958500Y-100722200D03*
X92958500Y-101992200D03*
X92958500Y-103262200D03*
X92958500Y-104532200D03*
X92958500Y-105802200D03*
X92958500Y-107072200D03*
X92958500Y-108342200D03*
X92958500Y-109612200D03*
X92958500Y-110882200D03*
%TD*%
D99*
%TO.C,FB4*%
X125216500Y-128496200D03*
X125216500Y-126796200D03*
%TD*%
D36*
%TO.C,IC2*%
X90413500Y-86482200D03*
X90413500Y-85982200D03*
X90413500Y-85482200D03*
X90413500Y-84982200D03*
X90413500Y-84482200D03*
D37*
X89513500Y-83582200D03*
X89013500Y-83582200D03*
X88513500Y-83582200D03*
X88013500Y-83582200D03*
X87513500Y-83582200D03*
D36*
X86613500Y-84482200D03*
X86613500Y-84982200D03*
X86613500Y-85482200D03*
X86613500Y-85982200D03*
X86613500Y-86482200D03*
D37*
X87513500Y-87382200D03*
X88013500Y-87382200D03*
X88513500Y-87382200D03*
X89013500Y-87382200D03*
X89513500Y-87382200D03*
D38*
X89275500Y-86244200D03*
X89275500Y-85482200D03*
X89275500Y-84720200D03*
X88513500Y-86244200D03*
X88513500Y-85482200D03*
D39*
X88513500Y-85482200D03*
D38*
X88513500Y-84720200D03*
X87751500Y-86244200D03*
X87751500Y-85482200D03*
X87751500Y-84720200D03*
%TD*%
D21*
%TO.C,C55*%
X101567000Y-158976500D03*
X103642000Y-158976500D03*
%TD*%
D34*
%TO.C,U15*%
X86147000Y-50886000D03*
X86147000Y-50236000D03*
X86147000Y-49586000D03*
X86147000Y-48936000D03*
X81747000Y-48936000D03*
X81747000Y-49586000D03*
X81747000Y-50236000D03*
X81747000Y-50886000D03*
D17*
X83947000Y-49911000D03*
%TD*%
D40*
%TO.C,C19*%
X88904500Y-98709700D03*
X88904500Y-100659700D03*
%TD*%
D100*
%TO.C,U12*%
X79266499Y-119365800D03*
X79766500Y-119365800D03*
X80266500Y-119365800D03*
X80766501Y-119365800D03*
D101*
X81464300Y-118668001D03*
X81464300Y-118168000D03*
X81464300Y-117668000D03*
X81464300Y-117167999D03*
D100*
X80766501Y-116470200D03*
X80266500Y-116470200D03*
X79766500Y-116470200D03*
X79266499Y-116470200D03*
D101*
X78568700Y-117167999D03*
X78568700Y-117668000D03*
X78568700Y-118168000D03*
X78568700Y-118668001D03*
D38*
X79508500Y-118426000D03*
X80524500Y-118426000D03*
X80016500Y-117918000D03*
D102*
X80016500Y-117918000D03*
D38*
X79508500Y-117410000D03*
X80524500Y-117410000D03*
%TD*%
D33*
%TO.C,C113*%
X117215500Y-71236700D03*
X117215500Y-73311700D03*
%TD*%
D14*
%TO.C,R32*%
X115310500Y-158650200D03*
X115310500Y-160650200D03*
%TD*%
%TO.C,R22*%
X136900500Y-128543200D03*
X136900500Y-130543200D03*
%TD*%
D19*
%TO.C,R46*%
X136138500Y-112406200D03*
X138138500Y-112406200D03*
%TD*%
D10*
%TO.C,C114*%
X115103000Y-51435000D03*
X117053000Y-51435000D03*
%TD*%
D19*
%TO.C,R30*%
X92990500Y-86498200D03*
X94990500Y-86498200D03*
%TD*%
D28*
%TO.C,R25*%
X80252500Y-131964200D03*
X78252500Y-131964200D03*
%TD*%
D23*
%TO.C,C41*%
X80227500Y-127900200D03*
X78277500Y-127900200D03*
%TD*%
D19*
%TO.C,R5*%
X98054500Y-175017200D03*
X100054500Y-175017200D03*
%TD*%
D16*
%TO.C,U20*%
X91100000Y-39919000D03*
X91750000Y-39919000D03*
X92400000Y-39919000D03*
X93050000Y-39919000D03*
X93050000Y-35519000D03*
X92400000Y-35519000D03*
X91750000Y-35519000D03*
X91100000Y-35519000D03*
D17*
X92075000Y-37719000D03*
%TD*%
D15*
%TO.C,L23*%
X113142500Y-71258200D03*
X115192500Y-71258200D03*
%TD*%
D14*
%TO.C,R10*%
X75178500Y-152316200D03*
X75178500Y-154316200D03*
%TD*%
D35*
%TO.C,D9*%
X70488500Y-107707200D03*
X68438500Y-107707200D03*
%TD*%
D10*
%TO.C,C105*%
X123485000Y-37338000D03*
X125435000Y-37338000D03*
%TD*%
D103*
%TO.C,Q2*%
X71155500Y-137903200D03*
X73055500Y-137903200D03*
X72105500Y-136028200D03*
%TD*%
D15*
%TO.C,L12*%
X83179500Y-74433200D03*
X85229500Y-74433200D03*
%TD*%
D21*
%TO.C,C83*%
X102843000Y-147966200D03*
X104918000Y-147966200D03*
%TD*%
D104*
%TO.C,U9*%
X95897500Y-94315200D03*
X95897500Y-95585200D03*
X95897500Y-96855200D03*
X95897500Y-98125200D03*
X95897500Y-99395200D03*
X95897500Y-100665200D03*
X95897500Y-101935200D03*
X95897500Y-103205200D03*
X95897500Y-104475200D03*
X95897500Y-105745200D03*
X95897500Y-107015200D03*
X95897500Y-108285200D03*
X95897500Y-109555200D03*
X95897500Y-110825200D03*
D105*
X97662500Y-112075202D03*
X98932500Y-112075202D03*
X100202500Y-112075202D03*
X101472500Y-112075202D03*
X102742500Y-112075202D03*
X104012500Y-112075202D03*
X105282500Y-112075202D03*
X106552500Y-112075202D03*
X107822500Y-112075202D03*
X109092500Y-112075202D03*
X110362500Y-112075202D03*
X111632500Y-112075202D03*
D104*
X113397500Y-110825200D03*
X113397500Y-109555200D03*
X113397500Y-108285200D03*
X113397500Y-107015200D03*
X113397500Y-105745200D03*
X113397500Y-104475200D03*
X113397500Y-103205200D03*
X113397500Y-101935200D03*
X113397500Y-100665200D03*
X113397500Y-99395200D03*
X113397500Y-98125200D03*
X113397500Y-96855200D03*
X113397500Y-95585200D03*
X113397500Y-94315200D03*
D106*
X103147500Y-102035200D03*
X101747500Y-100635200D03*
X101747500Y-102035200D03*
X101747500Y-103435200D03*
X103147500Y-103435200D03*
X104547500Y-103435200D03*
X104547500Y-102035200D03*
X104547500Y-100635200D03*
X103147500Y-100635200D03*
%TD*%
D30*
%TO.C,C37*%
X119882500Y-155861700D03*
X119882500Y-153786700D03*
%TD*%
D10*
%TO.C,C112*%
X116209500Y-82180200D03*
X118159500Y-82180200D03*
%TD*%
D15*
%TO.C,D7*%
X136113500Y-100976200D03*
X138163500Y-100976200D03*
%TD*%
D92*
%TO.C,PWR_SW1*%
X74623500Y-169987200D03*
D93*
X74623500Y-165287200D03*
X74623500Y-160587200D03*
X65093500Y-171892200D03*
X65093500Y-158682200D03*
%TD*%
D32*
%TO.C,C73*%
X113288500Y-154404500D03*
X111213500Y-154404500D03*
%TD*%
D28*
%TO.C,R8*%
X90656500Y-175017200D03*
X88656500Y-175017200D03*
%TD*%
D25*
%TO.C,J9*%
X97784500Y-114692200D03*
D43*
X99054500Y-114692200D03*
X100324500Y-114692200D03*
X101594500Y-114692200D03*
X102864500Y-114692200D03*
X104134500Y-114692200D03*
X105404500Y-114692200D03*
X106674500Y-114692200D03*
X107944500Y-114692200D03*
X109214500Y-114692200D03*
X110484500Y-114692200D03*
X111754500Y-114692200D03*
%TD*%
D22*
%TO.C,C10*%
X82481500Y-149819700D03*
X82481500Y-147869700D03*
%TD*%
D56*
%TO.C,R7*%
X72697000Y-179221200D03*
X72697000Y-177221200D03*
%TD*%
D33*
%TO.C,C71*%
X87116500Y-74433200D03*
X87116500Y-76508200D03*
%TD*%
D90*
%TO.C,Q4*%
X130448500Y-133728200D03*
X130448500Y-136028200D03*
D91*
X136748500Y-136028200D03*
D90*
X130448500Y-138328200D03*
%TD*%
D19*
%TO.C,R58*%
X128010500Y-111952200D03*
X130010500Y-111952200D03*
%TD*%
D107*
%TO.C,CR1*%
X80690800Y-160253200D03*
X83764200Y-160253200D03*
%TD*%
D68*
%TO.C,FL1*%
X83179500Y-76313200D03*
X83179500Y-76973200D03*
X83179500Y-77633200D03*
X84169500Y-77633200D03*
X84169500Y-76973200D03*
X84169500Y-76313200D03*
%TD*%
D21*
%TO.C,C61*%
X82396000Y-83704200D03*
X84471000Y-83704200D03*
%TD*%
D29*
%TO.C,L2*%
X87640500Y-125859200D03*
X87640500Y-127909200D03*
%TD*%
D78*
%TO.C,AE5*%
X112123500Y-26557200D03*
D79*
X116503500Y-26557200D03*
X107743500Y-26557200D03*
%TD*%
M02*
