%TF.GenerationSoftware,KiCad,Pcbnew,8.0.7*%
%TF.CreationDate,2025-02-17T14:25:55+00:00*%
%TF.ProjectId,PCB V3.1,50434220-5633-42e3-912e-6b696361645f,rev?*%
%TF.SameCoordinates,Original*%
%TF.FileFunction,Copper,L4,Bot*%
%TF.FilePolarity,Positive*%
%FSLAX46Y46*%
G04 Gerber Fmt 4.6, Leading zero omitted, Abs format (unit mm)*
G04 Created by KiCad (PCBNEW 8.0.7) date 2025-02-17 14:25:55*
%MOMM*%
%LPD*%
G01*
G04 APERTURE LIST*
G04 Aperture macros list*
%AMRoundRect*
0 Rectangle with rounded corners*
0 $1 Rounding radius*
0 $2 $3 $4 $5 $6 $7 $8 $9 X,Y pos of 4 corners*
0 Add a 4 corners polygon primitive as box body*
4,1,4,$2,$3,$4,$5,$6,$7,$8,$9,$2,$3,0*
0 Add four circle primitives for the rounded corners*
1,1,$1+$1,$2,$3*
1,1,$1+$1,$4,$5*
1,1,$1+$1,$6,$7*
1,1,$1+$1,$8,$9*
0 Add four rect primitives between the rounded corners*
20,1,$1+$1,$2,$3,$4,$5,0*
20,1,$1+$1,$4,$5,$6,$7,0*
20,1,$1+$1,$6,$7,$8,$9,0*
20,1,$1+$1,$8,$9,$2,$3,0*%
G04 Aperture macros list end*
%TA.AperFunction,ComponentPad*%
%ADD10C,0.700000*%
%TD*%
%TA.AperFunction,ComponentPad*%
%ADD11C,4.400000*%
%TD*%
%TA.AperFunction,ComponentPad*%
%ADD12C,0.500000*%
%TD*%
%TA.AperFunction,ComponentPad*%
%ADD13C,1.515000*%
%TD*%
%TA.AperFunction,ComponentPad*%
%ADD14C,1.980000*%
%TD*%
%TA.AperFunction,ComponentPad*%
%ADD15R,1.000000X1.000000*%
%TD*%
%TA.AperFunction,ComponentPad*%
%ADD16O,1.000000X1.000000*%
%TD*%
%TA.AperFunction,ComponentPad*%
%ADD17RoundRect,0.250200X0.649800X-0.649800X0.649800X0.649800X-0.649800X0.649800X-0.649800X-0.649800X0*%
%TD*%
%TA.AperFunction,ComponentPad*%
%ADD18C,1.800000*%
%TD*%
%TA.AperFunction,ComponentPad*%
%ADD19O,1.000000X2.100000*%
%TD*%
%TA.AperFunction,ComponentPad*%
%ADD20O,1.000000X1.600000*%
%TD*%
%TA.AperFunction,ComponentPad*%
%ADD21R,1.700000X1.700000*%
%TD*%
%TA.AperFunction,ComponentPad*%
%ADD22O,1.700000X1.700000*%
%TD*%
%TA.AperFunction,ComponentPad*%
%ADD23C,0.800000*%
%TD*%
%TA.AperFunction,ComponentPad*%
%ADD24C,5.250000*%
%TD*%
%TA.AperFunction,HeatsinkPad*%
%ADD25R,4.100000X4.100000*%
%TD*%
%TA.AperFunction,SMDPad,CuDef*%
%ADD26R,2.420000X5.080000*%
%TD*%
%TA.AperFunction,SMDPad,CuDef*%
%ADD27R,0.460000X0.950000*%
%TD*%
%TA.AperFunction,ComponentPad*%
%ADD28C,0.970000*%
%TD*%
%TA.AperFunction,ComponentPad*%
%ADD29R,1.800000X1.800000*%
%TD*%
%TA.AperFunction,ComponentPad*%
%ADD30RoundRect,0.250000X0.625000X-0.350000X0.625000X0.350000X-0.625000X0.350000X-0.625000X-0.350000X0*%
%TD*%
%TA.AperFunction,ComponentPad*%
%ADD31O,1.750000X1.200000*%
%TD*%
%TA.AperFunction,ComponentPad*%
%ADD32R,2.775000X2.775000*%
%TD*%
%TA.AperFunction,ComponentPad*%
%ADD33C,2.775000*%
%TD*%
%TA.AperFunction,ViaPad*%
%ADD34C,0.600000*%
%TD*%
%TA.AperFunction,Conductor*%
%ADD35C,0.150000*%
%TD*%
%TA.AperFunction,Conductor*%
%ADD36C,0.101600*%
%TD*%
G04 APERTURE END LIST*
D10*
%TO.P,H1,1,1*%
%TO.N,GND*%
X66473500Y-178487200D03*
X66956774Y-177320474D03*
X66956774Y-179653926D03*
X68123500Y-176837200D03*
D11*
X68123500Y-178487200D03*
D10*
X68123500Y-180137200D03*
X69290226Y-177320474D03*
X69290226Y-179653926D03*
X69773500Y-178487200D03*
%TD*%
D12*
%TO.P,IC4,21,THERMAL_PAD*%
%TO.N,GND*%
X116834500Y-122312200D03*
X116834500Y-123074200D03*
X116834500Y-123836200D03*
X117596500Y-122312200D03*
X117596500Y-123074200D03*
X117596500Y-123836200D03*
X118358500Y-122312200D03*
X118358500Y-123074200D03*
X118358500Y-123836200D03*
%TD*%
%TO.P,IC6,21,GND_3(EPAD)*%
%TO.N,GND*%
X112643500Y-86752200D03*
X113405500Y-86752200D03*
X114167500Y-86752200D03*
X112643500Y-85990200D03*
X113405500Y-85990200D03*
X114167500Y-85990200D03*
X112643500Y-85228200D03*
X113405500Y-85228200D03*
X114167500Y-85228200D03*
%TD*%
D13*
%TO.P,RESET1,1,COM*%
%TO.N,/EN{slash}RESET*%
X69082500Y-111986200D03*
%TO.P,RESET1,2,NO*%
%TO.N,GND*%
X69082500Y-116486200D03*
D14*
%TO.P,RESET1,MH1,MH1*%
X71572500Y-110731200D03*
%TO.P,RESET1,MH2,MH2*%
X71572500Y-117741200D03*
%TD*%
D15*
%TO.P,J10,1,Pin_1*%
%TO.N,/IO0*%
X116326500Y-110882200D03*
D16*
%TO.P,J10,2,Pin_2*%
%TO.N,/GPIO35_SCREEN_T_IRQ*%
X116326500Y-109612200D03*
%TO.P,J10,3,Pin_3*%
%TO.N,/GPIO36_SCREEN_T_CS*%
X116326500Y-108342200D03*
%TO.P,J10,4,Pin_4*%
%TO.N,/GPIO37_IR_RECEIVER*%
X116326500Y-107072200D03*
%TO.P,J10,5,Pin_5*%
%TO.N,/GPIO38_IR_LED*%
X116326500Y-105802200D03*
%TO.P,J10,6,Pin_6*%
%TO.N,/GPIO39_HSPI_SCK*%
X116326500Y-104532200D03*
%TO.P,J10,7,Pin_7*%
%TO.N,/GPIO40_HSPI_MOSI*%
X116326500Y-103262200D03*
%TO.P,J10,8,Pin_8*%
%TO.N,/GPIO41_HSPI_MISO*%
X116326500Y-101992200D03*
%TO.P,J10,9,Pin_9*%
%TO.N,/GPIO42_SD_CARD_CS*%
X116326500Y-100722200D03*
%TO.P,J10,10,Pin_10*%
%TO.N,/RX*%
X116326500Y-99452200D03*
%TO.P,J10,11,Pin_11*%
%TO.N,/TX*%
X116326500Y-98182200D03*
%TO.P,J10,12,Pin_12*%
%TO.N,/GPIO2_SCREEN_D{slash}C*%
X116326500Y-96912200D03*
%TO.P,J10,13,Pin_13*%
%TO.N,/GPIO1_SCREEN_CS*%
X116326500Y-95642200D03*
%TO.P,J10,14,Pin_14*%
%TO.N,GND*%
X116326500Y-94372200D03*
%TD*%
D17*
%TO.P,U5,1,OUT*%
%TO.N,/GPIO37_IR_RECEIVER*%
X141598500Y-138060200D03*
D18*
%TO.P,U5,2,GND*%
%TO.N,GND*%
X141598500Y-135520200D03*
%TO.P,U5,3,Vs*%
%TO.N,+3V3*%
X141598500Y-132980200D03*
%TD*%
D12*
%TO.P,U6,25,GND*%
%TO.N,GND*%
X95562500Y-165206200D03*
X95562500Y-166095200D03*
X95562500Y-166984200D03*
X96451500Y-165206200D03*
X96451500Y-166095200D03*
X96451500Y-166984200D03*
X97340500Y-165206200D03*
X97340500Y-166095200D03*
X97340500Y-166984200D03*
%TD*%
D19*
%TO.P,USB_OTG1,S1,SHIELD*%
%TO.N,GND*%
X107623500Y-178257200D03*
D20*
X107623500Y-182437200D03*
D19*
X116263500Y-178257200D03*
D20*
X116263500Y-182437200D03*
%TD*%
D19*
%TO.P,USB_UART1,S1,SHIELD*%
%TO.N,GND*%
X89983500Y-178257200D03*
D20*
X89983500Y-182437200D03*
D19*
X98623500Y-178257200D03*
D20*
X98623500Y-182437200D03*
%TD*%
D21*
%TO.P,SCREEN1,1,VCC*%
%TO.N,+3V3*%
X86742400Y-144619700D03*
D22*
%TO.P,SCREEN1,2,GND*%
%TO.N,GND*%
X89282400Y-144619700D03*
%TO.P,SCREEN1,3,CS*%
%TO.N,/GPIO1_SCREEN_CS*%
X91822400Y-144619700D03*
%TO.P,SCREEN1,4,RESET*%
%TO.N,/EN{slash}RESET*%
X94362400Y-144619700D03*
%TO.P,SCREEN1,5,DC/RS*%
%TO.N,/GPIO2_SCREEN_D{slash}C*%
X96902400Y-144619700D03*
%TO.P,SCREEN1,6,SDI(MOSI)*%
%TO.N,/GPIO40_HSPI_MOSI*%
X99442400Y-144619700D03*
%TO.P,SCREEN1,7,SCK*%
%TO.N,/GPIO39_HSPI_SCK*%
X101982400Y-144619700D03*
%TO.P,SCREEN1,8,LED*%
%TO.N,+3V3*%
X104522400Y-144619700D03*
%TO.P,SCREEN1,9,SDO(MISO)*%
%TO.N,unconnected-(SCREEN1-SDO(MISO)-Pad9)*%
X107062400Y-144619700D03*
%TO.P,SCREEN1,10,T_CLK*%
%TO.N,/GPIO39_HSPI_SCK*%
X109602400Y-144619700D03*
%TO.P,SCREEN1,11,T_CS*%
%TO.N,/GPIO36_SCREEN_T_CS*%
X112142400Y-144619700D03*
%TO.P,SCREEN1,12,T_DIN*%
%TO.N,/GPIO40_HSPI_MOSI*%
X114682400Y-144619700D03*
%TO.P,SCREEN1,13,T_DO*%
%TO.N,/GPIO41_HSPI_MISO*%
X117222400Y-144619700D03*
%TO.P,SCREEN1,14,T_IRQ*%
%TO.N,/GPIO35_SCREEN_T_IRQ*%
X119762400Y-144619700D03*
D23*
%TO.P,SCREEN1,15,MH*%
%TO.N,GND*%
X73652400Y-41579700D03*
X73906400Y-143873700D03*
X74414400Y-39882644D03*
X74414400Y-43276756D03*
X74668400Y-142176644D03*
X74668400Y-145570756D03*
X75802400Y-39499700D03*
D24*
X75802400Y-41579700D03*
D23*
X75802400Y-43817700D03*
X76056400Y-141793700D03*
D24*
X76056400Y-143873700D03*
D23*
X76056400Y-146111700D03*
X77208400Y-39882644D03*
X77208400Y-43276756D03*
X77462400Y-142176644D03*
X77462400Y-145570756D03*
X77970400Y-41579700D03*
X78224400Y-143873700D03*
X128552400Y-41579700D03*
X128552400Y-143619700D03*
X129314400Y-39882644D03*
X129314400Y-43276756D03*
X129314400Y-141922644D03*
X129314400Y-145316756D03*
X130702400Y-39499700D03*
D24*
X130702400Y-41579700D03*
D23*
X130702400Y-43817700D03*
X130702400Y-141539700D03*
D24*
X130702400Y-143619700D03*
D23*
X130702400Y-145857700D03*
X132108400Y-39882644D03*
X132108400Y-43276756D03*
X132108400Y-141922644D03*
X132108400Y-145316756D03*
X132870400Y-41579700D03*
X132870400Y-143619700D03*
%TD*%
D10*
%TO.P,H3,1,1*%
%TO.N,GND*%
X65473500Y-27487200D03*
X65956774Y-26320474D03*
X65956774Y-28653926D03*
X67123500Y-25837200D03*
D11*
X67123500Y-27487200D03*
D10*
X67123500Y-29137200D03*
X68290226Y-26320474D03*
X68290226Y-28653926D03*
X68773500Y-27487200D03*
%TD*%
D12*
%TO.P,IC3,41,EPAD*%
%TO.N,GND*%
X99632500Y-154824200D03*
X100832500Y-154824200D03*
X102032500Y-154824200D03*
X103232500Y-154824200D03*
X100670500Y-153786200D03*
X102194500Y-153786200D03*
X99632500Y-153624200D03*
X103232500Y-153624200D03*
X101432500Y-153024200D03*
D25*
X101432500Y-153024200D03*
D12*
X99632500Y-152424200D03*
X103232500Y-152424200D03*
X100670500Y-152262200D03*
X102194500Y-152262200D03*
X99632500Y-151224200D03*
X100832500Y-151224200D03*
X102032500Y-151224200D03*
X103232500Y-151224200D03*
%TD*%
D26*
%TO.P,AE7,2*%
%TO.N,N/C*%
X98503500Y-26557200D03*
X89743500Y-26557200D03*
D27*
X98503500Y-29547200D03*
X89743500Y-29547200D03*
D28*
X98503500Y-29997200D03*
X89743500Y-29997200D03*
%TD*%
D29*
%TO.P,D4,1,K*%
%TO.N,Net-(D4-K)*%
X139348500Y-128520200D03*
D18*
%TO.P,D4,2,A*%
%TO.N,+3V3*%
X141888500Y-128520200D03*
%TD*%
D10*
%TO.P,H2,1,1*%
%TO.N,GND*%
X138552500Y-159142200D03*
X139035774Y-157975474D03*
X139035774Y-160308926D03*
X140202500Y-157492200D03*
D11*
X140202500Y-159142200D03*
D10*
X140202500Y-160792200D03*
X141369226Y-157975474D03*
X141369226Y-160308926D03*
X141852500Y-159142200D03*
%TD*%
D30*
%TO.P,JSTPH1,1,Pin_1*%
%TO.N,GND*%
X64987000Y-153273000D03*
D31*
%TO.P,JSTPH1,2,Pin_2*%
%TO.N,+V_BAT*%
X64987000Y-151273000D03*
%TD*%
D21*
%TO.P,J1,1,Pin_1*%
%TO.N,Net-(D1-K)*%
X66542500Y-137826200D03*
D22*
%TO.P,J1,2,Pin_2*%
%TO.N,Net-(D1-A)*%
X66542500Y-140366200D03*
%TD*%
D12*
%TO.P,U10,21,GND*%
%TO.N,GND*%
X84100500Y-132885700D03*
X84862500Y-132885700D03*
X85624500Y-132885700D03*
X84100500Y-132123700D03*
X84862500Y-132123700D03*
X85624500Y-132123700D03*
X84100500Y-131361700D03*
X84862500Y-131361700D03*
X85624500Y-131361700D03*
%TD*%
D26*
%TO.P,AE1,2*%
%TO.N,N/C*%
X80503500Y-26557200D03*
X71743500Y-26557200D03*
D27*
X80503500Y-29547200D03*
X71743500Y-29547200D03*
D28*
X80503500Y-29997200D03*
X71743500Y-29997200D03*
%TD*%
D13*
%TO.P,BOOT1,1,COM*%
%TO.N,/IO0*%
X69082500Y-123741200D03*
%TO.P,BOOT1,2,NO*%
%TO.N,GND*%
X69082500Y-128241200D03*
D14*
%TO.P,BOOT1,MH1,MH1*%
X71572500Y-122486200D03*
%TO.P,BOOT1,MH2,MH2*%
X71572500Y-129496200D03*
%TD*%
D26*
%TO.P,AE3,2*%
%TO.N,N/C*%
X134503500Y-26557200D03*
X125743500Y-26557200D03*
D27*
X134503500Y-29547200D03*
X125743500Y-29547200D03*
D28*
X134503500Y-29997200D03*
X125743500Y-29997200D03*
%TD*%
D10*
%TO.P,H5,1,1*%
%TO.N,GND*%
X101473500Y-32487200D03*
X101956774Y-31320474D03*
X101956774Y-33653926D03*
X103123500Y-30837200D03*
D11*
X103123500Y-32487200D03*
D10*
X103123500Y-34137200D03*
X104290226Y-31320474D03*
X104290226Y-33653926D03*
X104773500Y-32487200D03*
%TD*%
D32*
%TO.P,ANT_SW1,1,NC*%
%TO.N,unconnected-(ANT_SW1-NC-Pad1)*%
X74653500Y-103392200D03*
D33*
%TO.P,ANT_SW1,2,IN*%
%TO.N,+3V3*%
X74653500Y-98692200D03*
%TO.P,ANT_SW1,3,OUT*%
%TO.N,/ANT_SWITCH_OUT*%
X74653500Y-93992200D03*
%TO.P,ANT_SW1,MH1,MH1*%
%TO.N,GND*%
X65123500Y-105297200D03*
%TO.P,ANT_SW1,MH2,MH2*%
X65123500Y-92087200D03*
%TD*%
D10*
%TO.P,H4,1,1*%
%TO.N,GND*%
X137473500Y-27487200D03*
X137956774Y-26320474D03*
X137956774Y-28653926D03*
X139123500Y-25837200D03*
D11*
X139123500Y-27487200D03*
D10*
X139123500Y-29137200D03*
X140290226Y-26320474D03*
X140290226Y-28653926D03*
X140773500Y-27487200D03*
%TD*%
D21*
%TO.P,J2,1,Pin_1*%
%TO.N,/C2+*%
X108077000Y-122804000D03*
D22*
%TO.P,J2,2,Pin_2*%
%TO.N,/C2-*%
X108077000Y-125344000D03*
%TD*%
D21*
%TO.P,J6,1,Pin_1*%
%TO.N,Net-(IC5-COM)*%
X139440500Y-122063200D03*
D22*
%TO.P,J6,2,Pin_2*%
%TO.N,Net-(IC7-COM)*%
X139440500Y-119523200D03*
%TD*%
D15*
%TO.P,J8,1,Pin_1*%
%TO.N,GND*%
X92958500Y-94372200D03*
D16*
%TO.P,J8,2,Pin_2*%
%TO.N,+3V3*%
X92958500Y-95642200D03*
%TO.P,J8,3,Pin_3*%
%TO.N,/EN{slash}RESET*%
X92958500Y-96912200D03*
%TO.P,J8,4,Pin_4*%
%TO.N,/GPIO4_ADC1_3_BAT\u0025*%
X92958500Y-98182200D03*
%TO.P,J8,5,Pin_5*%
%TO.N,/GPIO5_NRF24_CE*%
X92958500Y-99452200D03*
%TO.P,J8,6,Pin_6*%
%TO.N,/GPIO6_NRF24_CSN*%
X92958500Y-100722200D03*
%TO.P,J8,7,Pin_7*%
%TO.N,/GPIO7_NRF24_IRQ*%
X92958500Y-101992200D03*
%TO.P,J8,8,Pin_8*%
%TO.N,/GPIO15_VSPI_MISO*%
X92958500Y-103262200D03*
%TO.P,J8,9,Pin_9*%
%TO.N,/GPIO16_VSPI_MOSI*%
X92958500Y-104532200D03*
%TO.P,J8,10,Pin_10*%
%TO.N,/GPIO17_VSPI_SCK*%
X92958500Y-105802200D03*
%TO.P,J8,11,Pin_11*%
%TO.N,/GPIO18_VIBRO*%
X92958500Y-107072200D03*
%TO.P,J8,12,Pin_12*%
%TO.N,/GPIO8_CC1101A_CS*%
X92958500Y-108342200D03*
%TO.P,J8,13,Pin_13*%
%TO.N,/D-*%
X92958500Y-109612200D03*
%TO.P,J8,14,Pin_14*%
%TO.N,/D+*%
X92958500Y-110882200D03*
%TD*%
D12*
%TO.P,IC2,21,GND_3(EPAD)*%
%TO.N,GND*%
X89275500Y-86244200D03*
X89275500Y-85482200D03*
X89275500Y-84720200D03*
X88513500Y-86244200D03*
X88513500Y-85482200D03*
X88513500Y-84720200D03*
X87751500Y-86244200D03*
X87751500Y-85482200D03*
X87751500Y-84720200D03*
%TD*%
%TO.P,U12,17,GND*%
%TO.N,GND*%
X79508500Y-118426000D03*
X80524500Y-118426000D03*
X80016500Y-117918000D03*
X79508500Y-117410000D03*
X80524500Y-117410000D03*
%TD*%
%TO.P,U9,41,GND*%
%TO.N,GND*%
X103147500Y-102035200D03*
%TO.P,U9,42,GND*%
X101747500Y-100635200D03*
%TO.P,U9,43,GND*%
X101747500Y-102035200D03*
%TO.P,U9,44,GND*%
X101747500Y-103435200D03*
%TO.P,U9,45,GND*%
X103147500Y-103435200D03*
%TO.P,U9,46,GND*%
X104547500Y-103435200D03*
%TO.P,U9,47,GND*%
X104547500Y-102035200D03*
%TO.P,U9,48,GND*%
X104547500Y-100635200D03*
%TO.P,U9,49,GND*%
X103147500Y-100635200D03*
%TD*%
D32*
%TO.P,PWR_SW1,1,NC*%
%TO.N,unconnected-(PWR_SW1-NC-Pad1)*%
X74623500Y-169987200D03*
D33*
%TO.P,PWR_SW1,2,IN*%
%TO.N,+V_BAT*%
X74623500Y-165287200D03*
%TO.P,PWR_SW1,3,OUT*%
%TO.N,Net-(PWR_SW1-OUT)*%
X74623500Y-160587200D03*
%TO.P,PWR_SW1,MH1,MH1*%
%TO.N,GND*%
X65093500Y-171892200D03*
%TO.P,PWR_SW1,MH2,MH2*%
X65093500Y-158682200D03*
%TD*%
D15*
%TO.P,J9,1,Pin_1*%
%TO.N,/GPIO3_CC1101B_CS*%
X97784500Y-114692200D03*
D16*
%TO.P,J9,2,Pin_2*%
%TO.N,/ESP32_PIN16_DNC*%
X99054500Y-114692200D03*
%TO.P,J9,3,Pin_3*%
%TO.N,/GPIO9_CC1101A_GD0*%
X100324500Y-114692200D03*
%TO.P,J9,4,Pin_4*%
%TO.N,/GPIO10_CC1101A_CTRL*%
X101594500Y-114692200D03*
%TO.P,J9,5,Pin_5*%
%TO.N,/GPIO11_CC1101B_GD0*%
X102864500Y-114692200D03*
%TO.P,J9,6,Pin_6*%
%TO.N,/GPIO12_CC1101B_CTRL*%
X104134500Y-114692200D03*
%TO.P,J9,7,Pin_7*%
%TO.N,/GPIO13_RDM630_CTRL*%
X105404500Y-114692200D03*
%TO.P,J9,8,Pin_8*%
%TO.N,/GPIO14_RDM630_TX*%
X106674500Y-114692200D03*
%TO.P,J9,9,Pin_9*%
%TO.N,/GPIO21_RDM630_RX*%
X107944500Y-114692200D03*
%TO.P,J9,10,Pin_10*%
%TO.N,/GPIO47_RDM630_EMULATION*%
X109214500Y-114692200D03*
%TO.P,J9,11,Pin_11*%
%TO.N,/GPIO48_PN532_CS*%
X110484500Y-114692200D03*
%TO.P,J9,12,Pin_12*%
%TO.N,/ESP32_PIN26_DNC*%
X111754500Y-114692200D03*
%TD*%
D26*
%TO.P,AE5,2*%
%TO.N,N/C*%
X116503500Y-26557200D03*
X107743500Y-26557200D03*
D27*
X116503500Y-29547200D03*
X107743500Y-29547200D03*
D28*
X116503500Y-29997200D03*
X107743500Y-29997200D03*
%TD*%
D34*
%TO.N,GND*%
X79941500Y-154897500D03*
X121047500Y-92340200D03*
X91974000Y-129932500D03*
X87761500Y-79261500D03*
X78215000Y-133996500D03*
X69606500Y-144410500D03*
X117707500Y-175017500D03*
X108794000Y-39243000D03*
X112531500Y-161389500D03*
X105647500Y-161135500D03*
X87116500Y-76508200D03*
X83697500Y-128623500D03*
X107401500Y-87895200D03*
X74654500Y-107707500D03*
X136138500Y-96912500D03*
X137773500Y-182466000D03*
X128223500Y-103262500D03*
X80237000Y-107072500D03*
X113665000Y-32766000D03*
X82173500Y-134465500D03*
X113030000Y-49034500D03*
X100054500Y-175017500D03*
X113751000Y-36957000D03*
X81719500Y-179324500D03*
X90805000Y-67437000D03*
X87540000Y-169905500D03*
X87540000Y-161777500D03*
X133344500Y-111605500D03*
X73105500Y-140092500D03*
X86233000Y-54696000D03*
X86989500Y-91412500D03*
X131312500Y-151728500D03*
X87540000Y-163809500D03*
X78215000Y-129932500D03*
X104917500Y-147966500D03*
X82341500Y-90015500D03*
X124835500Y-89567700D03*
X119882500Y-151781500D03*
X107389500Y-165707500D03*
X124454500Y-153786500D03*
X82312000Y-100976500D03*
X84513500Y-165565500D03*
X122301000Y-61362500D03*
X124454500Y-149749500D03*
X85233000Y-70369200D03*
X83947000Y-49911000D03*
X75940500Y-123095500D03*
X77909500Y-154897500D03*
X84513500Y-179287500D03*
X113157000Y-59711500D03*
X97921500Y-89802500D03*
X116326500Y-115032500D03*
X83189500Y-174724500D03*
X124079000Y-40259000D03*
X133731000Y-161039000D03*
X119761000Y-57425500D03*
X136101500Y-94372200D03*
X129921000Y-161039000D03*
X94492500Y-174089500D03*
X111246500Y-125319200D03*
X125435000Y-37338000D03*
X89402500Y-91498500D03*
X126740500Y-149749500D03*
X90418500Y-79261500D03*
X84513500Y-169375500D03*
X129301500Y-126630500D03*
X98419500Y-80783200D03*
X95805500Y-80917200D03*
X117053000Y-51435000D03*
X87116500Y-64910500D03*
X98578000Y-134250500D03*
X113397500Y-94315200D03*
X82887500Y-152365500D03*
X91053500Y-177342500D03*
X113157000Y-125319200D03*
X89085500Y-147045500D03*
X73055500Y-137903500D03*
X103641500Y-161135500D03*
X138175500Y-114692500D03*
X111039000Y-61849000D03*
X97553500Y-177342500D03*
X119882500Y-146955500D03*
X82312000Y-113168500D03*
X93615000Y-51319200D03*
X118159500Y-82180200D03*
X81665500Y-131417500D03*
X119882500Y-179630500D03*
X124623500Y-181466000D03*
X127613500Y-179066000D03*
X87608500Y-115962500D03*
X128285500Y-100468500D03*
X107274500Y-83069200D03*
X115193500Y-177342500D03*
X111627500Y-79896500D03*
X92075000Y-37719000D03*
X82306500Y-124111500D03*
X117006500Y-90015500D03*
X122274500Y-90068200D03*
X132044500Y-123262500D03*
X91552500Y-57288200D03*
X88513500Y-57288200D03*
X88904500Y-100659500D03*
X131312500Y-155808500D03*
X87540000Y-165841500D03*
X117475000Y-62484000D03*
X108693500Y-177342500D03*
X84646000Y-149077500D03*
X138163500Y-100976500D03*
X130026500Y-116470500D03*
X67304500Y-144410500D03*
X102196000Y-66394500D03*
X136113500Y-98944500D03*
X106198500Y-175017500D03*
X87376000Y-71755000D03*
X82481500Y-147807500D03*
X70776000Y-175239500D03*
X82341500Y-86205500D03*
X130448500Y-138328500D03*
X78252500Y-131964500D03*
X111510500Y-174216500D03*
X71114500Y-157364500D03*
X75940500Y-116956500D03*
X133090500Y-100468500D03*
X109220000Y-57552500D03*
X121421000Y-49013000D03*
X91974000Y-131964500D03*
X87540000Y-167873500D03*
X107249500Y-85482200D03*
X74861500Y-178221500D03*
X95752500Y-152516500D03*
X115316000Y-64135000D03*
X93720500Y-157364500D03*
X98546500Y-83323200D03*
X117047500Y-91920500D03*
X80237000Y-105040500D03*
X82341500Y-88110500D03*
X133344500Y-129462500D03*
X132044500Y-119452500D03*
X103641500Y-158976500D03*
X91059000Y-63754000D03*
X136079500Y-106056500D03*
X117215500Y-73311700D03*
X94578500Y-84339200D03*
X132245500Y-94245200D03*
X110766500Y-51793500D03*
X96100000Y-64319500D03*
X121882500Y-179630500D03*
X82312000Y-111136500D03*
X121433000Y-43933000D03*
X117215500Y-69374700D03*
X127405500Y-123770500D03*
X117358500Y-129170500D03*
X136138500Y-108342500D03*
X88656500Y-175017500D03*
X136271000Y-165989000D03*
X98578000Y-136536500D03*
X119810500Y-85482200D03*
X126740500Y-153786500D03*
X113288500Y-154404500D03*
X93720500Y-152516500D03*
X91540000Y-59320200D03*
X113309500Y-152118500D03*
X98132000Y-72258000D03*
X117348000Y-46959500D03*
X96438000Y-61468000D03*
X125148500Y-134758500D03*
X91059000Y-44028000D03*
X111383500Y-73886500D03*
X100164000Y-72258000D03*
X99953500Y-89802500D03*
X77888000Y-152633500D03*
X119882500Y-155861500D03*
X89535000Y-69850000D03*
X130010500Y-111952500D03*
X77888000Y-150601500D03*
X134644500Y-119452500D03*
X95897500Y-94315200D03*
X80264000Y-50165000D03*
X112531500Y-159230500D03*
X79433500Y-179324500D03*
X78215000Y-127900500D03*
%TO.N,+3V3*%
X87761500Y-81211500D03*
X84291500Y-86205500D03*
X90418500Y-81211500D03*
X94488000Y-61468000D03*
X115097500Y-91920500D03*
X132044500Y-122312500D03*
X115103000Y-51435000D03*
X102843500Y-147966500D03*
X121162500Y-125194500D03*
X110744000Y-39243000D03*
X79900500Y-150601500D03*
X93720500Y-154591500D03*
X86233000Y-52746000D03*
X80227500Y-127900500D03*
X117358500Y-127138500D03*
X119882500Y-181580500D03*
X88904500Y-94896200D03*
X67304500Y-146696500D03*
X107721500Y-161135500D03*
X111627500Y-81846500D03*
X80227500Y-129932500D03*
X84291500Y-90015500D03*
X111246500Y-123369200D03*
X82887500Y-154665500D03*
X87116500Y-66860500D03*
X75940500Y-121083500D03*
X95752500Y-154591500D03*
X109351500Y-87895200D03*
X109224500Y-83069200D03*
X79900500Y-152633500D03*
X89187500Y-154665500D03*
X91059000Y-42078000D03*
X107430500Y-159103500D03*
X69311500Y-135028500D03*
X97921500Y-91752500D03*
X117860500Y-85482200D03*
X116209500Y-82180200D03*
X123485000Y-37338000D03*
X112344500Y-165961500D03*
X99953500Y-91752500D03*
X112989000Y-61849000D03*
X75940500Y-118969500D03*
X132044500Y-118502500D03*
X89402500Y-89548500D03*
%TO.N,+5V*%
X130026500Y-114184500D03*
X80690800Y-160253500D03*
X82887500Y-156965500D03*
X83062500Y-171676500D03*
X125216500Y-126796500D03*
X93095500Y-171676500D03*
%TO.N,+3.3VA*%
X89552500Y-161777500D03*
X91387500Y-161777500D03*
X89552500Y-163809500D03*
%TO.N,/IO0*%
X91902200Y-120405700D03*
X95616600Y-158900500D03*
%TO.N,/EN{slash}RESET*%
X93928000Y-115249100D03*
X97533400Y-156560000D03*
%TO.N,/GPIO48_PN532_CS*%
X101223500Y-148435500D03*
X105033500Y-127099500D03*
%TO.N,/GPIO40_HSPI_MOSI*%
X87559200Y-134981900D03*
X112125400Y-103231600D03*
X114913200Y-164419500D03*
X90128200Y-88151700D03*
X88012400Y-143282200D03*
X132461000Y-166116000D03*
%TO.N,/GPIO41_HSPI_MISO*%
X125656800Y-175841200D03*
X91446500Y-86104000D03*
X99699500Y-148232700D03*
X116944300Y-147389800D03*
X86414500Y-134773500D03*
%TO.N,/GPIO39_HSPI_SCK*%
X85161200Y-135416000D03*
X90886200Y-87764900D03*
X117663700Y-135983000D03*
%TO.N,/GPIO8_CC1101A_CS*%
X90428500Y-104366500D03*
X90936500Y-98016500D03*
X91444500Y-82903500D03*
%TO.N,/GPIO17_VSPI_SCK*%
X110933800Y-105479700D03*
%TO.N,/GPIO15_VSPI_MISO*%
X111562700Y-100345300D03*
%TO.N,/GPIO16_VSPI_MOSI*%
X110292000Y-102494500D03*
%TO.N,/GPIO3_CC1101B_CS*%
X100498100Y-86529100D03*
X117091800Y-87355700D03*
%TO.N,/GPIO21_RDM630_RX*%
X118922500Y-119455700D03*
%TO.N,/GPIO14_RDM630_TX*%
X118061000Y-119874000D03*
%TO.N,/GPIO13_RDM630_CTRL*%
X129965300Y-118042100D03*
%TO.N,/GPIO18_VIBRO*%
X76568500Y-108464900D03*
%TO.N,/GPIO4_ADC1_3_BAT\u0025*%
X73239300Y-141605000D03*
X82338900Y-138316900D03*
%TO.N,/GPIO5_NRF24_CE*%
X89920500Y-121384500D03*
X83443500Y-135481500D03*
%TO.N,/GPIO11_CC1101B_GD0*%
X111927500Y-94030800D03*
%TO.N,/GPIO6_NRF24_CSN*%
X84332500Y-135541500D03*
%TO.N,/GPIO9_CC1101A_GD0*%
X97196900Y-88478000D03*
%TO.N,/GPIO7_NRF24_IRQ*%
X87754600Y-134078300D03*
%TO.N,/GPIO1_SCREEN_CS*%
X113538000Y-120399000D03*
X92904900Y-126376100D03*
%TO.N,/GPIO47_RDM630_EMULATION*%
X125213900Y-123821300D03*
%TO.N,/GPIO42_SD_CARD_CS*%
X135467400Y-159512000D03*
X131435100Y-106322700D03*
%TO.N,/GPIO36_SCREEN_T_CS*%
X111713000Y-146745000D03*
X118340000Y-147443300D03*
%TO.N,/GPIO2_SCREEN_D{slash}C*%
X113973300Y-129363400D03*
X97196900Y-132189000D03*
%TO.N,/GPIO38_IR_LED*%
X128997100Y-128559800D03*
%TO.N,Net-(U6-~{RST})*%
X93387500Y-161777500D03*
X96016500Y-170025500D03*
%TO.N,/RX*%
X102614500Y-166684500D03*
X115767300Y-163000100D03*
%TO.N,/TX*%
X102604500Y-164564500D03*
X107097500Y-150025900D03*
%TO.N,Net-(U6-D-)*%
X94365500Y-169898500D03*
X92460500Y-163929500D03*
%TO.N,/D+*%
X112882500Y-170688500D03*
%TO.N,/D-*%
X112032500Y-170688500D03*
%TO.N,Net-(IC1-VIN)*%
X77583500Y-168889200D03*
%TO.N,Net-(IC3-TVDD)*%
X101567000Y-159103500D03*
X105795500Y-159103500D03*
%TO.N,Net-(IC1-SW)*%
X81283500Y-168889200D03*
%TO.N,/ANT_SWITCH_OUT*%
X82935500Y-52649900D03*
X87693500Y-38290500D03*
X85090000Y-42037000D03*
X118110000Y-41275000D03*
X111887000Y-41275000D03*
%TD*%
D35*
%TO.N,/IO0*%
X95616600Y-158900500D02*
X94763300Y-158047200D01*
X94763300Y-152340700D02*
X93229400Y-150806800D01*
X93481600Y-121985100D02*
X91902200Y-120405700D01*
X93229400Y-131723600D02*
X93481600Y-131471400D01*
X93229400Y-150806800D02*
X93229400Y-131723600D01*
X94763300Y-158047200D02*
X94763300Y-152340700D01*
X93481600Y-131471400D02*
X93481600Y-121985100D01*
%TO.N,/EN{slash}RESET*%
X94362400Y-145746400D02*
X97533400Y-148917400D01*
X94362400Y-145183000D02*
X94362400Y-145746400D01*
X97533400Y-148917400D02*
X97533400Y-156560000D01*
X93928000Y-143058600D02*
X93928000Y-115249100D01*
X94362400Y-144619700D02*
X94362400Y-143493000D01*
X94362400Y-143493000D02*
X93928000Y-143058600D01*
%TO.N,/GPIO48_PN532_CS*%
X101223500Y-148435500D02*
X103397400Y-146261600D01*
X103397400Y-128735600D02*
X105033500Y-127099500D01*
X103397400Y-146261600D02*
X103397400Y-128735600D01*
%TO.N,/GPIO40_HSPI_MOSI*%
X114913200Y-164419500D02*
X114682400Y-164188700D01*
X112125400Y-103231600D02*
X112585900Y-103692100D01*
X88012400Y-143282200D02*
X88012400Y-135435100D01*
X112585900Y-103692100D02*
X112585900Y-120736900D01*
X112585900Y-120736900D02*
X112524100Y-120798700D01*
X114682400Y-164188700D02*
X114682400Y-145183000D01*
X112524100Y-126981300D02*
X113045500Y-127502700D01*
X113045500Y-141856100D02*
X114682400Y-143493000D01*
X112524100Y-120798700D02*
X112524100Y-126981300D01*
X113045500Y-127502700D02*
X113045500Y-141856100D01*
X88012400Y-135435100D02*
X87559200Y-134981900D01*
X114682400Y-144619700D02*
X114682400Y-143493000D01*
%TO.N,/GPIO41_HSPI_MISO*%
X117222400Y-143493000D02*
X117087000Y-143357600D01*
X114835500Y-103483200D02*
X116326500Y-101992200D01*
X114832500Y-128909600D02*
X114832500Y-126249600D01*
X116944300Y-167119000D02*
X116944300Y-147389800D01*
X117222400Y-147111700D02*
X116944300Y-147389800D01*
X117087000Y-143357600D02*
X117087000Y-131164100D01*
X114832500Y-126249600D02*
X114835500Y-126246600D01*
X117087000Y-131164100D02*
X114832500Y-128909600D01*
X117222400Y-144619700D02*
X117222400Y-147111700D01*
X117222400Y-144619700D02*
X117222400Y-143493000D01*
X125656800Y-175841200D02*
X125656800Y-175831500D01*
X114835500Y-126246600D02*
X114835500Y-103483200D01*
X125656800Y-175831500D02*
X116944300Y-167119000D01*
%TO.N,/GPIO39_HSPI_SCK*%
X115187200Y-105671500D02*
X116326500Y-104532200D01*
X117663700Y-130291300D02*
X115187200Y-127814800D01*
X117663700Y-135983000D02*
X117663700Y-130291300D01*
X115187200Y-127814800D02*
X115187200Y-105671500D01*
%TO.N,/GPIO8_CC1101A_CS*%
X92079500Y-83538500D02*
X91444500Y-82903500D01*
X92079500Y-96873500D02*
X92079500Y-83538500D01*
X90936500Y-98016500D02*
X92079500Y-96873500D01*
%TO.N,/GPIO4_ADC1_3_BAT\u0025*%
X82554500Y-138101300D02*
X82338900Y-138316900D01*
X82887000Y-134565173D02*
X82554500Y-134897673D01*
X82554500Y-108586200D02*
X82554500Y-110565827D01*
X82554500Y-110565827D02*
X82887000Y-110898327D01*
X82554500Y-134897673D02*
X82554500Y-138101300D01*
X82887000Y-110898327D02*
X82887000Y-134565173D01*
X92958500Y-98182200D02*
X82554500Y-108586200D01*
%TO.N,/GPIO11_CC1101B_GD0*%
X107998400Y-108781600D02*
X107998400Y-97959900D01*
X107998400Y-97959900D02*
X111927500Y-94030800D01*
X102864500Y-113915500D02*
X107998400Y-108781600D01*
X102864500Y-114692200D02*
X102864500Y-113915500D01*
%TO.N,/GPIO6_NRF24_CSN*%
X84332500Y-135541500D02*
X83573800Y-134782800D01*
X84397800Y-109282900D02*
X92958500Y-100722200D01*
X83573800Y-131143500D02*
X84397700Y-130319600D01*
X84397700Y-130319600D02*
X84397800Y-130319600D01*
X84397800Y-130319600D02*
X84397800Y-109282900D01*
X83573800Y-134782800D02*
X83573800Y-131143500D01*
%TO.N,/GPIO9_CC1101A_GD0*%
X100324500Y-114692200D02*
X100324500Y-113915500D01*
X100324500Y-113915500D02*
X97196900Y-110787900D01*
X97196900Y-110787900D02*
X97196900Y-88478000D01*
%TO.N,/GPIO7_NRF24_IRQ*%
X91114000Y-130718900D02*
X91114000Y-103836700D01*
X87754600Y-134078300D02*
X91114000Y-130718900D01*
X91114000Y-103836700D02*
X92958500Y-101992200D01*
%TO.N,/GPIO1_SCREEN_CS*%
X91822400Y-144619700D02*
X91822400Y-143493000D01*
X92650100Y-142665300D02*
X91822400Y-143493000D01*
X92904900Y-126376100D02*
X92650100Y-126630900D01*
X113538000Y-98430700D02*
X116326500Y-95642200D01*
X113538000Y-120399000D02*
X113538000Y-98430700D01*
X92650100Y-126630900D02*
X92650100Y-142665300D01*
%TO.N,/GPIO35_SCREEN_T_IRQ*%
X117103200Y-109612200D02*
X119762400Y-112271400D01*
X116326500Y-109612200D02*
X117103200Y-109612200D01*
X119762400Y-112271400D02*
X119762400Y-144619700D01*
%TO.N,/GPIO42_SD_CARD_CS*%
X135467400Y-110355000D02*
X131435100Y-106322700D01*
X135467400Y-159512000D02*
X135467400Y-110355000D01*
%TO.N,/GPIO36_SCREEN_T_CS*%
X118340000Y-147443300D02*
X118349100Y-147434200D01*
X115538900Y-123285500D02*
X115538900Y-109129800D01*
X115538900Y-109129800D02*
X116326500Y-108342200D01*
X118349100Y-147434200D02*
X118349100Y-126095700D01*
X118349100Y-126095700D02*
X115538900Y-123285500D01*
%TO.N,/GPIO2_SCREEN_D{slash}C*%
X113973300Y-129363400D02*
X113973300Y-126114000D01*
X114130600Y-125956700D02*
X114130600Y-99108100D01*
X114130600Y-99108100D02*
X116326500Y-96912200D01*
X113973300Y-126114000D02*
X114130600Y-125956700D01*
%TO.N,/GPIO38_IR_LED*%
X116326500Y-105802200D02*
X126691000Y-116166700D01*
X126691000Y-116166700D02*
X126691000Y-126253700D01*
X126691000Y-126253700D02*
X128997100Y-128559800D01*
%TO.N,/RX*%
X114550000Y-135302700D02*
X114550000Y-129124500D01*
X114480800Y-129055300D02*
X114480800Y-126103900D01*
X115835600Y-162931800D02*
X115835600Y-136588300D01*
X116326500Y-99452200D02*
X115549800Y-99452200D01*
X115767300Y-163000100D02*
X115835600Y-162931800D01*
X114482300Y-126102400D02*
X114482300Y-100519700D01*
X115835600Y-136588300D02*
X114550000Y-135302700D01*
X114480800Y-126103900D02*
X114482300Y-126102400D01*
X114550000Y-129124500D02*
X114480800Y-129055300D01*
X114482300Y-100519700D02*
X115549800Y-99452200D01*
%TO.N,/TX*%
X102604500Y-164564500D02*
X102604500Y-158719500D01*
X107097500Y-154226500D02*
X107097500Y-150025900D01*
X102604500Y-158719500D02*
X107097500Y-154226500D01*
D36*
%TO.N,/D+*%
X112633500Y-145685500D02*
X113243500Y-145075500D01*
X113082500Y-159002500D02*
X112633500Y-158552500D01*
X112633500Y-132672500D02*
X91874300Y-111913500D01*
X112882500Y-170688500D02*
X112633500Y-170439500D01*
X112633500Y-143553500D02*
X112633500Y-132672500D01*
X113082500Y-166002500D02*
X113082500Y-159002500D01*
X91874300Y-111193500D02*
X92185700Y-110882500D01*
X112633500Y-170439500D02*
X112633500Y-166451500D01*
X112633500Y-158552500D02*
X112633500Y-145685500D01*
X113243500Y-144163500D02*
X112633500Y-143553500D01*
X112633500Y-166451500D02*
X113082500Y-166002500D01*
X113243500Y-145075500D02*
X113243500Y-144163500D01*
X91874300Y-111913500D02*
X91874300Y-111193500D01*
X92185700Y-110882500D02*
X92958200Y-110882500D01*
%TO.N,/D-*%
X111041500Y-144163500D02*
X112281500Y-142923500D01*
X112281500Y-166677500D02*
X111793500Y-166189500D01*
X112281500Y-158701500D02*
X112281500Y-146315500D01*
X112281500Y-142923500D02*
X112281500Y-132818500D01*
X111041500Y-145075500D02*
X111041500Y-144163500D01*
X112281500Y-146315500D02*
X111041500Y-145075500D01*
X111793500Y-159189500D02*
X112281500Y-158701500D01*
X112281500Y-170439500D02*
X112281500Y-166677500D01*
X91522700Y-112059500D02*
X91522700Y-111048500D01*
X112281500Y-132818500D02*
X91522700Y-112059500D01*
X111793500Y-166189500D02*
X111793500Y-159189500D01*
X91522700Y-111048500D02*
X92958500Y-109612500D01*
X112032500Y-170688500D02*
X112281500Y-170439500D01*
D35*
%TO.N,/ANT_SWITCH_OUT*%
X80395500Y-88250200D02*
X74653500Y-93992200D01*
D36*
X105283000Y-36548500D02*
X106680000Y-37945500D01*
X106680000Y-37945500D02*
X106680000Y-39878000D01*
D35*
X82935500Y-52649900D02*
X80395500Y-55189900D01*
D36*
X106680000Y-39878000D02*
X108077000Y-41275000D01*
D35*
X87693500Y-38290500D02*
X89435500Y-36548500D01*
X80395500Y-55189900D02*
X80395500Y-88250200D01*
D36*
X111887000Y-41275000D02*
X118110000Y-41275000D01*
D35*
X83557000Y-44840000D02*
X82935500Y-45461500D01*
X89435500Y-36548500D02*
X105283000Y-36548500D01*
X83557000Y-43570000D02*
X83557000Y-44840000D01*
X85090000Y-42037000D02*
X83557000Y-43570000D01*
X82935500Y-45461500D02*
X82935500Y-52649900D01*
D36*
X108077000Y-41275000D02*
X111887000Y-41275000D01*
%TD*%
M02*
