%TF.GenerationSoftware,KiCad,Pcbnew,8.0.7*%
%TF.CreationDate,2025-02-17T14:25:55+00:00*%
%TF.ProjectId,PCB V3.1,50434220-5633-42e3-912e-6b696361645f,rev?*%
%TF.SameCoordinates,Original*%
%TF.FileFunction,Copper,L1,Top*%
%TF.FilePolarity,Positive*%
%FSLAX46Y46*%
G04 Gerber Fmt 4.6, Leading zero omitted, Abs format (unit mm)*
G04 Created by KiCad (PCBNEW 8.0.7) date 2025-02-17 14:25:55*
%MOMM*%
%LPD*%
G01*
G04 APERTURE LIST*
G04 Aperture macros list*
%AMRoundRect*
0 Rectangle with rounded corners*
0 $1 Rounding radius*
0 $2 $3 $4 $5 $6 $7 $8 $9 X,Y pos of 4 corners*
0 Add a 4 corners polygon primitive as box body*
4,1,4,$2,$3,$4,$5,$6,$7,$8,$9,$2,$3,0*
0 Add four circle primitives for the rounded corners*
1,1,$1+$1,$2,$3*
1,1,$1+$1,$4,$5*
1,1,$1+$1,$6,$7*
1,1,$1+$1,$8,$9*
0 Add four rect primitives between the rounded corners*
20,1,$1+$1,$2,$3,$4,$5,0*
20,1,$1+$1,$4,$5,$6,$7,0*
20,1,$1+$1,$6,$7,$8,$9,0*
20,1,$1+$1,$8,$9,$2,$3,0*%
G04 Aperture macros list end*
%TA.AperFunction,SMDPad,CuDef*%
%ADD10RoundRect,0.250000X-0.400000X-0.275000X0.400000X-0.275000X0.400000X0.275000X-0.400000X0.275000X0*%
%TD*%
%TA.AperFunction,SMDPad,CuDef*%
%ADD11C,1.000000*%
%TD*%
%TA.AperFunction,ComponentPad*%
%ADD12C,0.700000*%
%TD*%
%TA.AperFunction,ComponentPad*%
%ADD13C,4.400000*%
%TD*%
%TA.AperFunction,SMDPad,CuDef*%
%ADD14RoundRect,0.250000X-0.450000X0.350000X-0.450000X-0.350000X0.450000X-0.350000X0.450000X0.350000X0*%
%TD*%
%TA.AperFunction,SMDPad,CuDef*%
%ADD15RoundRect,0.250000X-0.325000X-0.450000X0.325000X-0.450000X0.325000X0.450000X-0.325000X0.450000X0*%
%TD*%
%TA.AperFunction,SMDPad,CuDef*%
%ADD16R,0.450000X1.400000*%
%TD*%
%TA.AperFunction,SMDPad,CuDef*%
%ADD17R,1.750000X1.750000*%
%TD*%
%TA.AperFunction,SMDPad,CuDef*%
%ADD18RoundRect,0.250000X0.450000X-0.325000X0.450000X0.325000X-0.450000X0.325000X-0.450000X-0.325000X0*%
%TD*%
%TA.AperFunction,SMDPad,CuDef*%
%ADD19RoundRect,0.250000X-0.350000X-0.450000X0.350000X-0.450000X0.350000X0.450000X-0.350000X0.450000X0*%
%TD*%
%TA.AperFunction,SMDPad,CuDef*%
%ADD20R,1.528000X0.650000*%
%TD*%
%TA.AperFunction,SMDPad,CuDef*%
%ADD21RoundRect,0.250000X-0.337500X-0.475000X0.337500X-0.475000X0.337500X0.475000X-0.337500X0.475000X0*%
%TD*%
%TA.AperFunction,SMDPad,CuDef*%
%ADD22RoundRect,0.250000X0.275000X-0.400000X0.275000X0.400000X-0.275000X0.400000X-0.275000X-0.400000X0*%
%TD*%
%TA.AperFunction,SMDPad,CuDef*%
%ADD23RoundRect,0.250000X0.400000X0.275000X-0.400000X0.275000X-0.400000X-0.275000X0.400000X-0.275000X0*%
%TD*%
%TA.AperFunction,SMDPad,CuDef*%
%ADD24RoundRect,0.237500X0.237500X-0.287500X0.237500X0.287500X-0.237500X0.287500X-0.237500X-0.287500X0*%
%TD*%
%TA.AperFunction,SMDPad,CuDef*%
%ADD25R,1.000000X1.000000*%
%TD*%
%TA.AperFunction,SMDPad,CuDef*%
%ADD26R,2.200000X1.050000*%
%TD*%
%TA.AperFunction,SMDPad,CuDef*%
%ADD27R,2.100000X1.800000*%
%TD*%
%TA.AperFunction,SMDPad,CuDef*%
%ADD28RoundRect,0.250000X0.350000X0.450000X-0.350000X0.450000X-0.350000X-0.450000X0.350000X-0.450000X0*%
%TD*%
%TA.AperFunction,SMDPad,CuDef*%
%ADD29RoundRect,0.250000X-0.450000X0.325000X-0.450000X-0.325000X0.450000X-0.325000X0.450000X0.325000X0*%
%TD*%
%TA.AperFunction,SMDPad,CuDef*%
%ADD30RoundRect,0.250000X0.475000X-0.337500X0.475000X0.337500X-0.475000X0.337500X-0.475000X-0.337500X0*%
%TD*%
%TA.AperFunction,SMDPad,CuDef*%
%ADD31RoundRect,0.100000X0.100000X-0.225000X0.100000X0.225000X-0.100000X0.225000X-0.100000X-0.225000X0*%
%TD*%
%TA.AperFunction,SMDPad,CuDef*%
%ADD32RoundRect,0.250000X0.337500X0.475000X-0.337500X0.475000X-0.337500X-0.475000X0.337500X-0.475000X0*%
%TD*%
%TA.AperFunction,SMDPad,CuDef*%
%ADD33RoundRect,0.250000X-0.475000X0.337500X-0.475000X-0.337500X0.475000X-0.337500X0.475000X0.337500X0*%
%TD*%
%TA.AperFunction,SMDPad,CuDef*%
%ADD34R,1.400000X0.450000*%
%TD*%
%TA.AperFunction,SMDPad,CuDef*%
%ADD35RoundRect,0.250000X0.325000X0.450000X-0.325000X0.450000X-0.325000X-0.450000X0.325000X-0.450000X0*%
%TD*%
%TA.AperFunction,SMDPad,CuDef*%
%ADD36R,0.950000X0.300000*%
%TD*%
%TA.AperFunction,SMDPad,CuDef*%
%ADD37R,0.300000X0.950000*%
%TD*%
%TA.AperFunction,ComponentPad*%
%ADD38C,0.500000*%
%TD*%
%TA.AperFunction,SMDPad,CuDef*%
%ADD39R,2.500000X2.500000*%
%TD*%
%TA.AperFunction,SMDPad,CuDef*%
%ADD40RoundRect,0.250000X-0.275000X0.400000X-0.275000X-0.400000X0.275000X-0.400000X0.275000X0.400000X0*%
%TD*%
%TA.AperFunction,ComponentPad*%
%ADD41C,1.515000*%
%TD*%
%TA.AperFunction,ComponentPad*%
%ADD42C,1.980000*%
%TD*%
%TA.AperFunction,ComponentPad*%
%ADD43R,1.000000X1.000000*%
%TD*%
%TA.AperFunction,ComponentPad*%
%ADD44O,1.000000X1.000000*%
%TD*%
%TA.AperFunction,ComponentPad*%
%ADD45RoundRect,0.250200X0.649800X-0.649800X0.649800X0.649800X-0.649800X0.649800X-0.649800X-0.649800X0*%
%TD*%
%TA.AperFunction,ComponentPad*%
%ADD46C,1.800000*%
%TD*%
%TA.AperFunction,SMDPad,CuDef*%
%ADD47RoundRect,0.162500X-0.837500X-0.162500X0.837500X-0.162500X0.837500X0.162500X-0.837500X0.162500X0*%
%TD*%
%TA.AperFunction,SMDPad,CuDef*%
%ADD48RoundRect,0.062500X-0.350000X-0.062500X0.350000X-0.062500X0.350000X0.062500X-0.350000X0.062500X0*%
%TD*%
%TA.AperFunction,SMDPad,CuDef*%
%ADD49RoundRect,0.062500X-0.062500X-0.350000X0.062500X-0.350000X0.062500X0.350000X-0.062500X0.350000X0*%
%TD*%
%TA.AperFunction,HeatsinkPad*%
%ADD50R,2.600000X2.600000*%
%TD*%
%TA.AperFunction,SMDPad,CuDef*%
%ADD51R,0.600000X1.450000*%
%TD*%
%TA.AperFunction,SMDPad,CuDef*%
%ADD52R,0.300000X1.450000*%
%TD*%
%TA.AperFunction,ComponentPad*%
%ADD53O,1.000000X2.100000*%
%TD*%
%TA.AperFunction,ComponentPad*%
%ADD54O,1.000000X1.600000*%
%TD*%
%TA.AperFunction,SMDPad,CuDef*%
%ADD55R,0.475000X0.300000*%
%TD*%
%TA.AperFunction,SMDPad,CuDef*%
%ADD56RoundRect,0.250000X0.450000X-0.350000X0.450000X0.350000X-0.450000X0.350000X-0.450000X-0.350000X0*%
%TD*%
%TA.AperFunction,SMDPad,CuDef*%
%ADD57R,7.620000X3.810000*%
%TD*%
%TA.AperFunction,ComponentPad*%
%ADD58R,1.700000X1.700000*%
%TD*%
%TA.AperFunction,ComponentPad*%
%ADD59O,1.700000X1.700000*%
%TD*%
%TA.AperFunction,ComponentPad*%
%ADD60C,0.800000*%
%TD*%
%TA.AperFunction,ComponentPad*%
%ADD61C,5.250000*%
%TD*%
%TA.AperFunction,SMDPad,CuDef*%
%ADD62R,1.100000X0.550000*%
%TD*%
%TA.AperFunction,SMDPad,CuDef*%
%ADD63RoundRect,0.150000X-0.587500X-0.150000X0.587500X-0.150000X0.587500X0.150000X-0.587500X0.150000X0*%
%TD*%
%TA.AperFunction,SMDPad,CuDef*%
%ADD64R,1.200000X1.400000*%
%TD*%
%TA.AperFunction,SMDPad,CuDef*%
%ADD65RoundRect,0.250000X0.650000X-0.412500X0.650000X0.412500X-0.650000X0.412500X-0.650000X-0.412500X0*%
%TD*%
%TA.AperFunction,SMDPad,CuDef*%
%ADD66RoundRect,0.150000X0.200000X-0.150000X0.200000X0.150000X-0.200000X0.150000X-0.200000X-0.150000X0*%
%TD*%
%TA.AperFunction,SMDPad,CuDef*%
%ADD67R,0.330000X0.410000*%
%TD*%
%TA.AperFunction,SMDPad,CuDef*%
%ADD68RoundRect,0.250001X0.624999X-0.462499X0.624999X0.462499X-0.624999X0.462499X-0.624999X-0.462499X0*%
%TD*%
%TA.AperFunction,SMDPad,CuDef*%
%ADD69RoundRect,0.093750X0.093750X-0.156250X0.093750X0.156250X-0.093750X0.156250X-0.093750X-0.156250X0*%
%TD*%
%TA.AperFunction,SMDPad,CuDef*%
%ADD70RoundRect,0.075000X0.075000X-0.250000X0.075000X0.250000X-0.075000X0.250000X-0.075000X-0.250000X0*%
%TD*%
%TA.AperFunction,SMDPad,CuDef*%
%ADD71R,1.050000X2.200000*%
%TD*%
%TA.AperFunction,SMDPad,CuDef*%
%ADD72RoundRect,0.062500X0.062500X-0.375000X0.062500X0.375000X-0.062500X0.375000X-0.062500X-0.375000X0*%
%TD*%
%TA.AperFunction,SMDPad,CuDef*%
%ADD73RoundRect,0.062500X0.375000X-0.062500X0.375000X0.062500X-0.375000X0.062500X-0.375000X-0.062500X0*%
%TD*%
%TA.AperFunction,HeatsinkPad*%
%ADD74R,4.100000X4.100000*%
%TD*%
%TA.AperFunction,SMDPad,CuDef*%
%ADD75R,1.200000X1.450000*%
%TD*%
%TA.AperFunction,SMDPad,CuDef*%
%ADD76R,0.558800X1.320800*%
%TD*%
%TA.AperFunction,SMDPad,CuDef*%
%ADD77R,2.290000X5.080000*%
%TD*%
%TA.AperFunction,SMDPad,CuDef*%
%ADD78R,2.420000X5.080000*%
%TD*%
%TA.AperFunction,SMDPad,CuDef*%
%ADD79R,0.460000X0.950000*%
%TD*%
%TA.AperFunction,ComponentPad*%
%ADD80C,0.970000*%
%TD*%
%TA.AperFunction,ComponentPad*%
%ADD81R,1.800000X1.800000*%
%TD*%
%TA.AperFunction,ComponentPad*%
%ADD82RoundRect,0.250000X0.625000X-0.350000X0.625000X0.350000X-0.625000X0.350000X-0.625000X-0.350000X0*%
%TD*%
%TA.AperFunction,ComponentPad*%
%ADD83O,1.750000X1.200000*%
%TD*%
%TA.AperFunction,SMDPad,CuDef*%
%ADD84R,1.400000X4.200000*%
%TD*%
%TA.AperFunction,SMDPad,CuDef*%
%ADD85RoundRect,0.062500X0.062500X-0.350000X0.062500X0.350000X-0.062500X0.350000X-0.062500X-0.350000X0*%
%TD*%
%TA.AperFunction,SMDPad,CuDef*%
%ADD86RoundRect,0.062500X0.350000X-0.062500X0.350000X0.062500X-0.350000X0.062500X-0.350000X-0.062500X0*%
%TD*%
%TA.AperFunction,HeatsinkPad*%
%ADD87R,2.500000X2.500000*%
%TD*%
%TA.AperFunction,SMDPad,CuDef*%
%ADD88R,0.800000X2.000000*%
%TD*%
%TA.AperFunction,SMDPad,CuDef*%
%ADD89R,1.800000X1.400000*%
%TD*%
%TA.AperFunction,SMDPad,CuDef*%
%ADD90R,1.400000X1.900000*%
%TD*%
%TA.AperFunction,SMDPad,CuDef*%
%ADD91RoundRect,0.150000X-0.512500X-0.150000X0.512500X-0.150000X0.512500X0.150000X-0.512500X0.150000X0*%
%TD*%
%TA.AperFunction,SMDPad,CuDef*%
%ADD92RoundRect,0.375000X-0.625000X-0.375000X0.625000X-0.375000X0.625000X0.375000X-0.625000X0.375000X0*%
%TD*%
%TA.AperFunction,SMDPad,CuDef*%
%ADD93RoundRect,0.500000X-0.500000X-1.400000X0.500000X-1.400000X0.500000X1.400000X-0.500000X1.400000X0*%
%TD*%
%TA.AperFunction,ComponentPad*%
%ADD94R,2.775000X2.775000*%
%TD*%
%TA.AperFunction,ComponentPad*%
%ADD95C,2.775000*%
%TD*%
%TA.AperFunction,SMDPad,CuDef*%
%ADD96R,0.250000X0.625000*%
%TD*%
%TA.AperFunction,SMDPad,CuDef*%
%ADD97R,0.450000X0.700000*%
%TD*%
%TA.AperFunction,SMDPad,CuDef*%
%ADD98R,0.450000X0.575000*%
%TD*%
%TA.AperFunction,SMDPad,CuDef*%
%ADD99RoundRect,0.150000X0.150000X-0.825000X0.150000X0.825000X-0.150000X0.825000X-0.150000X-0.825000X0*%
%TD*%
%TA.AperFunction,SMDPad,CuDef*%
%ADD100RoundRect,0.250000X-0.650000X0.412500X-0.650000X-0.412500X0.650000X-0.412500X0.650000X0.412500X0*%
%TD*%
%TA.AperFunction,SMDPad,CuDef*%
%ADD101R,1.450000X1.200000*%
%TD*%
%TA.AperFunction,SMDPad,CuDef*%
%ADD102R,0.254000X0.762000*%
%TD*%
%TA.AperFunction,SMDPad,CuDef*%
%ADD103R,0.762000X0.254000*%
%TD*%
%TA.AperFunction,SMDPad,CuDef*%
%ADD104R,1.752600X1.752600*%
%TD*%
%TA.AperFunction,SMDPad,CuDef*%
%ADD105RoundRect,0.150000X0.150000X-0.587500X0.150000X0.587500X-0.150000X0.587500X-0.150000X-0.587500X0*%
%TD*%
%TA.AperFunction,SMDPad,CuDef*%
%ADD106R,1.498600X0.889000*%
%TD*%
%TA.AperFunction,SMDPad,CuDef*%
%ADD107R,0.889000X1.498600*%
%TD*%
%TA.AperFunction,SMDPad,CuDef*%
%ADD108R,0.889000X0.889000*%
%TD*%
%TA.AperFunction,SMDPad,CuDef*%
%ADD109R,1.143000X1.092200*%
%TD*%
%TA.AperFunction,ViaPad*%
%ADD110C,0.600000*%
%TD*%
%TA.AperFunction,Conductor*%
%ADD111C,0.150000*%
%TD*%
%TA.AperFunction,Conductor*%
%ADD112C,0.237200*%
%TD*%
%TA.AperFunction,Conductor*%
%ADD113C,0.101600*%
%TD*%
%TA.AperFunction,Conductor*%
%ADD114C,0.200000*%
%TD*%
%TA.AperFunction,Conductor*%
%ADD115C,0.355600*%
%TD*%
G04 APERTURE END LIST*
D10*
%TO.P,C24,1*%
%TO.N,Net-(IC2-DCOUPL)*%
X92628500Y-84339200D03*
%TO.P,C24,2*%
%TO.N,GND*%
X94578500Y-84339200D03*
%TD*%
D11*
%TO.P,TP7,1,1*%
%TO.N,Net-(C34-Pad1)*%
X119882500Y-158639700D03*
%TD*%
D12*
%TO.P,H1,1,1*%
%TO.N,GND*%
X66473500Y-178487200D03*
X66956774Y-177320474D03*
X66956774Y-179653926D03*
X68123500Y-176837200D03*
D13*
X68123500Y-178487200D03*
D12*
X68123500Y-180137200D03*
X69290226Y-177320474D03*
X69290226Y-179653926D03*
X69773500Y-178487200D03*
%TD*%
D14*
%TO.P,R31,1*%
%TO.N,Net-(U10-XC1)*%
X94492500Y-134266200D03*
%TO.P,R31,2*%
%TO.N,Net-(U10-XC2)*%
X94492500Y-136266200D03*
%TD*%
D15*
%TO.P,D3,1,K*%
%TO.N,Net-(D3-K)*%
X65254500Y-146696200D03*
%TO.P,D3,2,A*%
%TO.N,+3V3*%
X67304500Y-146696200D03*
%TD*%
D16*
%TO.P,U13,1,V2*%
%TO.N,+3V3*%
X92034000Y-61554000D03*
%TO.P,U13,2,V1*%
%TO.N,/GPIO10_CC1101A_CTRL*%
X91384000Y-61554000D03*
%TO.P,U13,3,RFC*%
%TO.N,Net-(U13-RFC)*%
X90734000Y-61554000D03*
%TO.P,U13,4,GND*%
%TO.N,GND*%
X90084000Y-61554000D03*
%TO.P,U13,5,RF1*%
%TO.N,Net-(U13-RF1)*%
X90084000Y-65954000D03*
%TO.P,U13,6,GND*%
%TO.N,GND*%
X90734000Y-65954000D03*
%TO.P,U13,7,GND*%
X91384000Y-65954000D03*
%TO.P,U13,8,RF2*%
%TO.N,Net-(U13-RF2)*%
X92034000Y-65954000D03*
D17*
%TO.P,U13,9,EP*%
%TO.N,GND*%
X91059000Y-63754000D03*
%TD*%
D18*
%TO.P,L26,1,1*%
%TO.N,Net-(U16-RFC)*%
X115062000Y-49022000D03*
%TO.P,L26,2,2*%
%TO.N,Net-(C121-Pad1)*%
X115062000Y-46972000D03*
%TD*%
D19*
%TO.P,R35,1*%
%TO.N,Net-(U12-RXEN)*%
X85608500Y-117994200D03*
%TO.P,R35,2*%
%TO.N,/GPIO5_NRF24_CE*%
X87608500Y-117994200D03*
%TD*%
%TO.P,R51,1*%
%TO.N,Net-(U14-RFC)*%
X115199500Y-65416200D03*
%TO.P,R51,2*%
%TO.N,Net-(C116-Pad1)*%
X117199500Y-65416200D03*
%TD*%
D20*
%TO.P,U19,1*%
%TO.N,Net-(C120-Pad1)*%
X132245500Y-98055200D03*
%TO.P,U19,2,-*%
%TO.N,Net-(U19A--)*%
X132245500Y-96785200D03*
%TO.P,U19,3,+*%
%TO.N,Net-(D7-K)*%
X132245500Y-95515200D03*
%TO.P,U19,4,V-*%
%TO.N,GND*%
X132245500Y-94245200D03*
%TO.P,U19,5,+*%
%TO.N,Net-(U19B-+)*%
X126823500Y-94245200D03*
%TO.P,U19,6,-*%
%TO.N,Net-(U19B--)*%
X126823500Y-95515200D03*
%TO.P,U19,7*%
%TO.N,/RDM630_SIN*%
X126823500Y-96785200D03*
%TO.P,U19,8,V+*%
%TO.N,+5V*%
X126823500Y-98055200D03*
%TD*%
D21*
%TO.P,C43,1*%
%TO.N,Net-(U10-XC2)*%
X96503000Y-136536200D03*
%TO.P,C43,2*%
%TO.N,GND*%
X98578000Y-136536200D03*
%TD*%
D22*
%TO.P,C22,1*%
%TO.N,+3V3*%
X97921500Y-91752500D03*
%TO.P,C22,2*%
%TO.N,GND*%
X97921500Y-89802500D03*
%TD*%
D15*
%TO.P,L18,1,1*%
%TO.N,Net-(U14-RF2)*%
X115815000Y-59309000D03*
%TO.P,L18,2,2*%
%TO.N,Net-(C96-Pad1)*%
X117865000Y-59309000D03*
%TD*%
D23*
%TO.P,C2,1*%
%TO.N,Net-(U6-REGIN)*%
X89552500Y-165841200D03*
%TO.P,C2,2*%
%TO.N,GND*%
X87602500Y-165841200D03*
%TD*%
D24*
%TO.P,FB1,1*%
%TO.N,+V_USB*%
X91879500Y-172558200D03*
%TO.P,FB1,2*%
%TO.N,Net-(F1-Pad1)*%
X91879500Y-170808200D03*
%TD*%
D19*
%TO.P,R50,1*%
%TO.N,Net-(U19A--)*%
X131090500Y-100468200D03*
%TO.P,R50,2*%
%TO.N,GND*%
X133090500Y-100468200D03*
%TD*%
D25*
%TO.P,AE6,1,A*%
%TO.N,Net-(AE6-A)*%
X110623500Y-35487200D03*
D26*
%TO.P,AE6,2*%
%TO.N,N/C*%
X109123500Y-36962200D03*
D25*
X107623500Y-35487200D03*
D26*
X109123500Y-34012200D03*
%TD*%
D15*
%TO.P,D8,1,K*%
%TO.N,GND*%
X136113500Y-98944200D03*
%TO.P,D8,2,A*%
%TO.N,Net-(D7-K)*%
X138163500Y-98944200D03*
%TD*%
%TO.P,L16,1,1*%
%TO.N,GND*%
X91552500Y-57288200D03*
%TO.P,L16,2,2*%
%TO.N,Net-(U13-RFC)*%
X93602500Y-57288200D03*
%TD*%
D27*
%TO.P,Y1,1,1*%
%TO.N,Net-(IC2-XOSC_Q1)*%
X92905500Y-80917200D03*
%TO.P,Y1,2,2*%
%TO.N,GND*%
X95805500Y-80917200D03*
%TO.P,Y1,3,3*%
%TO.N,Net-(IC2-XOSC_Q2)*%
X95805500Y-78617200D03*
%TO.P,Y1,4*%
%TO.N,N/C*%
X92905500Y-78617200D03*
%TD*%
D21*
%TO.P,C26,1*%
%TO.N,Net-(IC2-XOSC_Q1)*%
X96471500Y-83323200D03*
%TO.P,C26,2*%
%TO.N,GND*%
X98546500Y-83323200D03*
%TD*%
D28*
%TO.P,R45,1*%
%TO.N,Net-(IC4-P1.2)*%
X119358500Y-129170200D03*
%TO.P,R45,2*%
%TO.N,GND*%
X117358500Y-129170200D03*
%TD*%
D10*
%TO.P,C56,1*%
%TO.N,Net-(IC3-AVDD)*%
X110519500Y-159230500D03*
%TO.P,C56,2*%
%TO.N,GND*%
X112469500Y-159230500D03*
%TD*%
D29*
%TO.P,L6,1,1*%
%TO.N,Net-(C49-Pad1)*%
X85354500Y-125859200D03*
%TO.P,L6,2,2*%
%TO.N,Net-(U10-ANT1)*%
X85354500Y-127909200D03*
%TD*%
D30*
%TO.P,C108,1*%
%TO.N,Net-(IC6-RF_P)*%
X116580500Y-77629700D03*
%TO.P,C108,2*%
%TO.N,Net-(FL2-BAL_2)*%
X116580500Y-75554700D03*
%TD*%
D18*
%TO.P,L24,1,1*%
%TO.N,Net-(C113-Pad1)*%
X115183500Y-69362200D03*
%TO.P,L24,2,2*%
%TO.N,Net-(C116-Pad1)*%
X115183500Y-67312200D03*
%TD*%
D31*
%TO.P,Q3,1,E1*%
%TO.N,/DTR*%
X95722500Y-161936200D03*
%TO.P,Q3,2,B1*%
%TO.N,/RTS*%
X96372500Y-161936200D03*
%TO.P,Q3,3,C2*%
X97022500Y-161936200D03*
%TO.P,Q3,4,E2*%
%TO.N,/EN{slash}RESET*%
X97022500Y-160036200D03*
%TO.P,Q3,5,B2*%
%TO.N,/DTR*%
X96372500Y-160036200D03*
%TO.P,Q3,6,C1*%
%TO.N,/IO0*%
X95722500Y-160036200D03*
%TD*%
D32*
%TO.P,C48,1*%
%TO.N,GND*%
X91974000Y-131964200D03*
%TO.P,C48,2*%
%TO.N,/NRF24_VDD_PA*%
X89899000Y-131964200D03*
%TD*%
D14*
%TO.P,R26,1*%
%TO.N,Net-(J5-In)*%
X131312500Y-149728200D03*
%TO.P,R26,2*%
%TO.N,GND*%
X131312500Y-151728200D03*
%TD*%
D33*
%TO.P,C53,1*%
%TO.N,Net-(C53-Pad1)*%
X100164000Y-70183000D03*
%TO.P,C53,2*%
%TO.N,GND*%
X100164000Y-72258000D03*
%TD*%
D19*
%TO.P,R4,1*%
%TO.N,Net-(Q2-G)*%
X71105500Y-140092200D03*
%TO.P,R4,2*%
%TO.N,GND*%
X73105500Y-140092200D03*
%TD*%
D34*
%TO.P,U17,1,V2*%
%TO.N,+3V3*%
X121879000Y-39284000D03*
%TO.P,U17,2,V1*%
%TO.N,/ANT_SWITCH_OUT*%
X121879000Y-39934000D03*
%TO.P,U17,3,RFC*%
%TO.N,/CC1101B_ANT_OUT*%
X121879000Y-40584000D03*
%TO.P,U17,4,GND*%
%TO.N,GND*%
X121879000Y-41234000D03*
%TO.P,U17,5,RF1*%
%TO.N,Net-(AE4-A)*%
X126279000Y-41234000D03*
%TO.P,U17,6,GND*%
%TO.N,GND*%
X126279000Y-40584000D03*
%TO.P,U17,7,GND*%
X126279000Y-39934000D03*
%TO.P,U17,8,RF2*%
%TO.N,Net-(AE3-A)*%
X126279000Y-39284000D03*
D17*
%TO.P,U17,9,EP*%
%TO.N,GND*%
X124079000Y-40259000D03*
%TD*%
D15*
%TO.P,L21,1,1*%
%TO.N,Net-(C97-Pad1)*%
X111116000Y-55499000D03*
%TO.P,L21,2,2*%
%TO.N,Net-(U16-RF1)*%
X113166000Y-55499000D03*
%TD*%
D35*
%TO.P,L25,1,1*%
%TO.N,GND*%
X121421000Y-49013000D03*
%TO.P,L25,2,2*%
%TO.N,Net-(U16-RFC)*%
X119371000Y-49013000D03*
%TD*%
D32*
%TO.P,C47,1*%
%TO.N,GND*%
X91974000Y-129932200D03*
%TO.P,C47,2*%
%TO.N,/NRF24_VDD_PA*%
X89899000Y-129932200D03*
%TD*%
D19*
%TO.P,R44,1*%
%TO.N,+3V3*%
X117358500Y-127138200D03*
%TO.P,R44,2*%
%TO.N,Net-(IC4-P1.2)*%
X119358500Y-127138200D03*
%TD*%
D23*
%TO.P,C68,1*%
%TO.N,+3V3*%
X84291500Y-90015500D03*
%TO.P,C68,2*%
%TO.N,GND*%
X82341500Y-90015500D03*
%TD*%
D22*
%TO.P,C32,1*%
%TO.N,+3V3*%
X87761500Y-81211500D03*
%TO.P,C32,2*%
%TO.N,GND*%
X87761500Y-79261500D03*
%TD*%
D36*
%TO.P,IC4,1,P0.0*%
%TO.N,Net-(IC4-P0.0)*%
X115696500Y-122074200D03*
%TO.P,IC4,2,GND*%
%TO.N,GND*%
X115696500Y-122574200D03*
%TO.P,IC4,3,VDD*%
%TO.N,+3V3*%
X115696500Y-123074200D03*
%TO.P,IC4,4,/RST/C2CK*%
%TO.N,/C2+*%
X115696500Y-123574200D03*
%TO.P,IC4,5,P2.0/C2D*%
%TO.N,/C2-*%
X115696500Y-124074200D03*
D37*
%TO.P,IC4,6,P1.7*%
%TO.N,unconnected-(IC4-P1.7-Pad6)*%
X116596500Y-124974200D03*
%TO.P,IC4,7,P1.6*%
%TO.N,unconnected-(IC4-P1.6-Pad7)*%
X117096500Y-124974200D03*
%TO.P,IC4,8,P1.5*%
%TO.N,unconnected-(IC4-P1.5-Pad8)*%
X117596500Y-124974200D03*
%TO.P,IC4,9,P1.4*%
%TO.N,unconnected-(IC4-P1.4-Pad9)*%
X118096500Y-124974200D03*
%TO.P,IC4,10,P1.3*%
%TO.N,unconnected-(IC4-P1.3-Pad10)*%
X118596500Y-124974200D03*
D36*
%TO.P,IC4,11,P1.2*%
%TO.N,Net-(IC4-P1.2)*%
X119496500Y-124074200D03*
%TO.P,IC4,12,P1.1*%
%TO.N,unconnected-(IC4-P1.1-Pad12)*%
X119496500Y-123574200D03*
%TO.P,IC4,13,P1.0*%
%TO.N,unconnected-(IC4-P1.0-Pad13)*%
X119496500Y-123074200D03*
%TO.P,IC4,14,P0.7*%
%TO.N,unconnected-(IC4-P0.7-Pad14)*%
X119496500Y-122574200D03*
%TO.P,IC4,15,P0.6*%
%TO.N,unconnected-(IC4-P0.6-Pad15)*%
X119496500Y-122074200D03*
D37*
%TO.P,IC4,16,P0.5*%
%TO.N,/GPIO21_RDM630_RX*%
X118596500Y-121174200D03*
%TO.P,IC4,17,P0.4*%
%TO.N,/GPIO14_RDM630_TX*%
X118096500Y-121174200D03*
%TO.P,IC4,18,P0.3*%
%TO.N,unconnected-(IC4-P0.3-Pad18)*%
X117596500Y-121174200D03*
%TO.P,IC4,19,P0.2*%
%TO.N,unconnected-(IC4-P0.2-Pad19)*%
X117096500Y-121174200D03*
%TO.P,IC4,20,P0.1*%
%TO.N,/RDM630_SIN*%
X116596500Y-121174200D03*
D38*
%TO.P,IC4,21,THERMAL_PAD*%
%TO.N,GND*%
X116834500Y-122312200D03*
X116834500Y-123074200D03*
X116834500Y-123836200D03*
X117596500Y-122312200D03*
X117596500Y-123074200D03*
D39*
X117596500Y-123074200D03*
D38*
X117596500Y-123836200D03*
X118358500Y-122312200D03*
X118358500Y-123074200D03*
X118358500Y-123836200D03*
%TD*%
D35*
%TO.P,L15,1,1*%
%TO.N,Net-(C78-Pad1)*%
X82299500Y-103008200D03*
%TO.P,L15,2,2*%
%TO.N,/NRF24_ANT_OUT*%
X80249500Y-103008200D03*
%TD*%
D21*
%TO.P,C104,1*%
%TO.N,Net-(IC6-RF_N)*%
X112622000Y-77481200D03*
%TO.P,C104,2*%
%TO.N,Net-(IC6-RF_P)*%
X114697000Y-77481200D03*
%TD*%
D40*
%TO.P,C94,1*%
%TO.N,+3V3*%
X86233000Y-52746000D03*
%TO.P,C94,2*%
%TO.N,GND*%
X86233000Y-54696000D03*
%TD*%
D21*
%TO.P,C42,1*%
%TO.N,Net-(U10-XC1)*%
X96503000Y-134250200D03*
%TO.P,C42,2*%
%TO.N,GND*%
X98578000Y-134250200D03*
%TD*%
D11*
%TO.P,TP3,1,1*%
%TO.N,Net-(J5-Ext)*%
X133344500Y-155808200D03*
%TD*%
D37*
%TO.P,IC6,1,SCLK*%
%TO.N,/GPIO17_VSPI_SCK*%
X112405500Y-87890200D03*
%TO.P,IC6,2,SO_(GDO1)*%
%TO.N,/GPIO15_VSPI_MISO*%
X112905500Y-87890200D03*
%TO.P,IC6,3,GDO2*%
%TO.N,unconnected-(IC6-GDO2-Pad3)*%
X113405500Y-87890200D03*
%TO.P,IC6,4,DVDD*%
%TO.N,+3V3*%
X113905500Y-87890200D03*
%TO.P,IC6,5,DCOUPL*%
%TO.N,Net-(IC6-DCOUPL)*%
X114405500Y-87890200D03*
D36*
%TO.P,IC6,6,GDO0_(ATEST)*%
%TO.N,Net-(IC6-GDO0_(ATEST))*%
X115305500Y-86990200D03*
%TO.P,IC6,7,CSN*%
%TO.N,/GPIO3_CC1101B_CS*%
X115305500Y-86490200D03*
%TO.P,IC6,8,XOSC_Q1*%
%TO.N,Net-(IC6-XOSC_Q1)*%
X115305500Y-85990200D03*
%TO.P,IC6,9,AVDD_1*%
%TO.N,+3V3*%
X115305500Y-85490200D03*
%TO.P,IC6,10,XOSC_Q2*%
%TO.N,Net-(IC6-XOSC_Q2)*%
X115305500Y-84990200D03*
D37*
%TO.P,IC6,11,AVDD_2*%
%TO.N,+3V3*%
X114405500Y-84090200D03*
%TO.P,IC6,12,RF_P*%
%TO.N,Net-(IC6-RF_P)*%
X113905500Y-84090200D03*
%TO.P,IC6,13,RF_N*%
%TO.N,Net-(IC6-RF_N)*%
X113405500Y-84090200D03*
%TO.P,IC6,14,AVDD_3*%
%TO.N,+3V3*%
X112905500Y-84090200D03*
%TO.P,IC6,15,AVDD_4*%
X112405500Y-84090200D03*
D36*
%TO.P,IC6,16,GND_1*%
%TO.N,GND*%
X111505500Y-84990200D03*
%TO.P,IC6,17,RBIAS*%
%TO.N,Net-(IC6-RBIAS)*%
X111505500Y-85490200D03*
%TO.P,IC6,18,DGUARD*%
%TO.N,+3V3*%
X111505500Y-85990200D03*
%TO.P,IC6,19,GND_2*%
%TO.N,GND*%
X111505500Y-86490200D03*
%TO.P,IC6,20,SI*%
%TO.N,/GPIO16_VSPI_MOSI*%
X111505500Y-86990200D03*
D38*
%TO.P,IC6,21,GND_3(EPAD)*%
%TO.N,GND*%
X112643500Y-86752200D03*
X113405500Y-86752200D03*
X114167500Y-86752200D03*
X112643500Y-85990200D03*
X113405500Y-85990200D03*
D39*
X113405500Y-85990200D03*
D38*
X114167500Y-85990200D03*
X112643500Y-85228200D03*
X113405500Y-85228200D03*
X114167500Y-85228200D03*
%TD*%
D41*
%TO.P,RESET1,1,COM*%
%TO.N,/EN{slash}RESET*%
X69082500Y-111986200D03*
%TO.P,RESET1,2,NO*%
%TO.N,GND*%
X69082500Y-116486200D03*
D42*
%TO.P,RESET1,MH1,MH1*%
X71572500Y-110731200D03*
%TO.P,RESET1,MH2,MH2*%
X71572500Y-117741200D03*
%TD*%
D23*
%TO.P,C7,1*%
%TO.N,Net-(U6-REGIN)*%
X89552500Y-169905200D03*
%TO.P,C7,2*%
%TO.N,GND*%
X87602500Y-169905200D03*
%TD*%
D43*
%TO.P,J10,1,Pin_1*%
%TO.N,/IO0*%
X116326500Y-110882200D03*
D44*
%TO.P,J10,2,Pin_2*%
%TO.N,/GPIO35_SCREEN_T_IRQ*%
X116326500Y-109612200D03*
%TO.P,J10,3,Pin_3*%
%TO.N,/GPIO36_SCREEN_T_CS*%
X116326500Y-108342200D03*
%TO.P,J10,4,Pin_4*%
%TO.N,/GPIO37_IR_RECEIVER*%
X116326500Y-107072200D03*
%TO.P,J10,5,Pin_5*%
%TO.N,/GPIO38_IR_LED*%
X116326500Y-105802200D03*
%TO.P,J10,6,Pin_6*%
%TO.N,/GPIO39_HSPI_SCK*%
X116326500Y-104532200D03*
%TO.P,J10,7,Pin_7*%
%TO.N,/GPIO40_HSPI_MOSI*%
X116326500Y-103262200D03*
%TO.P,J10,8,Pin_8*%
%TO.N,/GPIO41_HSPI_MISO*%
X116326500Y-101992200D03*
%TO.P,J10,9,Pin_9*%
%TO.N,/GPIO42_SD_CARD_CS*%
X116326500Y-100722200D03*
%TO.P,J10,10,Pin_10*%
%TO.N,/RX*%
X116326500Y-99452200D03*
%TO.P,J10,11,Pin_11*%
%TO.N,/TX*%
X116326500Y-98182200D03*
%TO.P,J10,12,Pin_12*%
%TO.N,/GPIO2_SCREEN_D{slash}C*%
X116326500Y-96912200D03*
%TO.P,J10,13,Pin_13*%
%TO.N,/GPIO1_SCREEN_CS*%
X116326500Y-95642200D03*
%TO.P,J10,14,Pin_14*%
%TO.N,GND*%
X116326500Y-94372200D03*
%TD*%
D33*
%TO.P,C97,1*%
%TO.N,Net-(C97-Pad1)*%
X109220000Y-55477500D03*
%TO.P,C97,2*%
%TO.N,GND*%
X109220000Y-57552500D03*
%TD*%
D23*
%TO.P,C4,1*%
%TO.N,Net-(U6-REGIN)*%
X89552500Y-167873200D03*
%TO.P,C4,2*%
%TO.N,GND*%
X87602500Y-167873200D03*
%TD*%
D45*
%TO.P,U5,1,OUT*%
%TO.N,/GPIO37_IR_RECEIVER*%
X141598500Y-138060200D03*
D46*
%TO.P,U5,2,GND*%
%TO.N,GND*%
X141598500Y-135520200D03*
%TO.P,U5,3,Vs*%
%TO.N,+3V3*%
X141598500Y-132980200D03*
%TD*%
D33*
%TO.P,C121,1*%
%TO.N,Net-(C121-Pad1)*%
X113030000Y-46959500D03*
%TO.P,C121,2*%
%TO.N,GND*%
X113030000Y-49034500D03*
%TD*%
D14*
%TO.P,R20,1*%
%TO.N,Net-(IC1-FB)*%
X84513500Y-177287200D03*
%TO.P,R20,2*%
%TO.N,GND*%
X84513500Y-179287200D03*
%TD*%
D30*
%TO.P,C49,1*%
%TO.N,Net-(C49-Pad1)*%
X85354500Y-124111700D03*
%TO.P,C49,2*%
%TO.N,Net-(U12-TXRX)*%
X85354500Y-122036700D03*
%TD*%
D33*
%TO.P,C29,1*%
%TO.N,GND*%
X126740500Y-153786700D03*
%TO.P,C29,2*%
%TO.N,Net-(C29-Pad2)*%
X126740500Y-155861700D03*
%TD*%
D21*
%TO.P,C99,1*%
%TO.N,Net-(IC7-NO_(SOURCE1))*%
X136101000Y-114692200D03*
%TO.P,C99,2*%
%TO.N,GND*%
X138176000Y-114692200D03*
%TD*%
D47*
%TO.P,Q5,1,B*%
%TO.N,Net-(Q5-B)*%
X121728500Y-130252200D03*
%TO.P,Q5,2,E*%
%TO.N,Net-(IC5-NO_(SOURCE1))*%
X121728500Y-132152200D03*
%TO.P,Q5,3,C*%
%TO.N,Net-(Q5-C)*%
X125148500Y-131202200D03*
%TD*%
D48*
%TO.P,U6,1,~{RI}*%
%TO.N,unconnected-(U6-~{RI}-Pad1)*%
X94514000Y-164845200D03*
%TO.P,U6,2,GND*%
%TO.N,GND*%
X94514000Y-165345200D03*
%TO.P,U6,3,D+*%
%TO.N,Net-(U6-D+)*%
X94514000Y-165845200D03*
%TO.P,U6,4,D-*%
%TO.N,Net-(U6-D-)*%
X94514000Y-166345200D03*
%TO.P,U6,5,VIO*%
%TO.N,+3.3VA*%
X94514000Y-166845200D03*
%TO.P,U6,6,VDD*%
X94514000Y-167345200D03*
D49*
%TO.P,U6,7,REGIN*%
%TO.N,Net-(U6-REGIN)*%
X95201500Y-168032700D03*
%TO.P,U6,8,VBUS*%
X95701500Y-168032700D03*
%TO.P,U6,9,~{RST}*%
%TO.N,Net-(U6-~{RST})*%
X96201500Y-168032700D03*
%TO.P,U6,10,NC*%
%TO.N,unconnected-(U6-NC-Pad10)*%
X96701500Y-168032700D03*
%TO.P,U6,11,GPIO.3*%
%TO.N,unconnected-(U6-GPIO.3-Pad11)*%
X97201500Y-168032700D03*
%TO.P,U6,12,RS485/GPIO.2*%
%TO.N,unconnected-(U6-RS485{slash}GPIO.2-Pad12)*%
X97701500Y-168032700D03*
D48*
%TO.P,U6,13,RXT/GPIO.1*%
%TO.N,unconnected-(U6-RXT{slash}GPIO.1-Pad13)*%
X98389000Y-167345200D03*
%TO.P,U6,14,TXT/GPIO.0*%
%TO.N,unconnected-(U6-TXT{slash}GPIO.0-Pad14)*%
X98389000Y-166845200D03*
%TO.P,U6,15,~{SUSPEND}*%
%TO.N,unconnected-(U6-~{SUSPEND}-Pad15)*%
X98389000Y-166345200D03*
%TO.P,U6,16,VPP*%
%TO.N,Net-(U6-VPP)*%
X98389000Y-165845200D03*
%TO.P,U6,17,SUSPEND*%
%TO.N,unconnected-(U6-SUSPEND-Pad17)*%
X98389000Y-165345200D03*
%TO.P,U6,18,~{CTS}*%
%TO.N,unconnected-(U6-~{CTS}-Pad18)*%
X98389000Y-164845200D03*
D49*
%TO.P,U6,19,~{RTS}*%
%TO.N,/RTS*%
X97701500Y-164157700D03*
%TO.P,U6,20,RXD*%
%TO.N,Net-(U6-RXD)*%
X97201500Y-164157700D03*
%TO.P,U6,21,TXD*%
%TO.N,Net-(U6-TXD)*%
X96701500Y-164157700D03*
%TO.P,U6,22,~{DSR}*%
%TO.N,unconnected-(U6-~{DSR}-Pad22)*%
X96201500Y-164157700D03*
%TO.P,U6,23,~{DTR}*%
%TO.N,/DTR*%
X95701500Y-164157700D03*
%TO.P,U6,24,~{DCD}*%
%TO.N,unconnected-(U6-~{DCD}-Pad24)*%
X95201500Y-164157700D03*
D38*
%TO.P,U6,25,GND*%
%TO.N,GND*%
X95562500Y-165206200D03*
X95562500Y-166095200D03*
X95562500Y-166984200D03*
X96451500Y-165206200D03*
X96451500Y-166095200D03*
D50*
X96451500Y-166095200D03*
D38*
X96451500Y-166984200D03*
X97340500Y-165206200D03*
X97340500Y-166095200D03*
X97340500Y-166984200D03*
%TD*%
D51*
%TO.P,USB_OTG1,A1,GND*%
%TO.N,GND*%
X108693500Y-177342200D03*
%TO.P,USB_OTG1,A4,VBUS*%
%TO.N,+V_USB*%
X109493500Y-177342200D03*
D52*
%TO.P,USB_OTG1,A5,CC1*%
%TO.N,Net-(USB_OTG1-CC1)*%
X110693500Y-177342200D03*
%TO.P,USB_OTG1,A6,D+*%
%TO.N,/D+*%
X111693500Y-177342200D03*
%TO.P,USB_OTG1,A7,D-*%
%TO.N,/D-*%
X112193500Y-177342200D03*
%TO.P,USB_OTG1,A8,SBU1*%
%TO.N,unconnected-(USB_OTG1-SBU1-PadA8)*%
X113193500Y-177342200D03*
D51*
%TO.P,USB_OTG1,A9,VBUS*%
%TO.N,+V_USB*%
X114393500Y-177342200D03*
%TO.P,USB_OTG1,A12,GND*%
%TO.N,GND*%
X115193500Y-177342200D03*
%TO.P,USB_OTG1,B1,GND*%
X115193500Y-177342200D03*
%TO.P,USB_OTG1,B4,VBUS*%
%TO.N,+V_USB*%
X114393500Y-177342200D03*
D52*
%TO.P,USB_OTG1,B5,CC2*%
%TO.N,Net-(USB_OTG1-CC2)*%
X113693500Y-177342200D03*
%TO.P,USB_OTG1,B6,D+*%
%TO.N,/D+*%
X112693500Y-177342200D03*
%TO.P,USB_OTG1,B7,D-*%
%TO.N,/D-*%
X111193500Y-177342200D03*
%TO.P,USB_OTG1,B8,SBU2*%
%TO.N,unconnected-(USB_OTG1-SBU2-PadB8)*%
X110193500Y-177342200D03*
D51*
%TO.P,USB_OTG1,B9,VBUS*%
%TO.N,+V_USB*%
X109493500Y-177342200D03*
%TO.P,USB_OTG1,B12,GND*%
%TO.N,GND*%
X108693500Y-177342200D03*
D53*
%TO.P,USB_OTG1,S1,SHIELD*%
X107623500Y-178257200D03*
D54*
X107623500Y-182437200D03*
D53*
X116263500Y-178257200D03*
D54*
X116263500Y-182437200D03*
%TD*%
D19*
%TO.P,R59,1*%
%TO.N,Net-(D9-K)*%
X72654500Y-107707200D03*
%TO.P,R59,2*%
%TO.N,GND*%
X74654500Y-107707200D03*
%TD*%
D22*
%TO.P,C25,1*%
%TO.N,+3V3*%
X87116500Y-66860500D03*
%TO.P,C25,2*%
%TO.N,GND*%
X87116500Y-64910500D03*
%TD*%
D51*
%TO.P,USB_UART1,A1,GND*%
%TO.N,GND*%
X91053500Y-177342200D03*
%TO.P,USB_UART1,A4,VBUS*%
%TO.N,+V_USB*%
X91853500Y-177342200D03*
D52*
%TO.P,USB_UART1,A5,CC1*%
%TO.N,Net-(USB_UART1-CC1)*%
X93053500Y-177342200D03*
%TO.P,USB_UART1,A6,D+*%
%TO.N,Net-(U2-I{slash}O2-Pad3)*%
X94053500Y-177342200D03*
%TO.P,USB_UART1,A7,D-*%
%TO.N,Net-(U2-I{slash}O1-Pad1)*%
X94553500Y-177342200D03*
%TO.P,USB_UART1,A8,SBU1*%
%TO.N,unconnected-(USB_UART1-SBU1-PadA8)*%
X95553500Y-177342200D03*
D51*
%TO.P,USB_UART1,A9,VBUS*%
%TO.N,+V_USB*%
X96753500Y-177342200D03*
%TO.P,USB_UART1,A12,GND*%
%TO.N,GND*%
X97553500Y-177342200D03*
%TO.P,USB_UART1,B1,GND*%
X97553500Y-177342200D03*
%TO.P,USB_UART1,B4,VBUS*%
%TO.N,+V_USB*%
X96753500Y-177342200D03*
D52*
%TO.P,USB_UART1,B5,CC2*%
%TO.N,Net-(USB_UART1-CC2)*%
X96053500Y-177342200D03*
%TO.P,USB_UART1,B6,D+*%
%TO.N,Net-(U2-I{slash}O2-Pad3)*%
X95053500Y-177342200D03*
%TO.P,USB_UART1,B7,D-*%
%TO.N,Net-(U2-I{slash}O1-Pad1)*%
X93553500Y-177342200D03*
%TO.P,USB_UART1,B8,SBU2*%
%TO.N,unconnected-(USB_UART1-SBU2-PadB8)*%
X92553500Y-177342200D03*
D51*
%TO.P,USB_UART1,B9,VBUS*%
%TO.N,+V_USB*%
X91853500Y-177342200D03*
%TO.P,USB_UART1,B12,GND*%
%TO.N,GND*%
X91053500Y-177342200D03*
D53*
%TO.P,USB_UART1,S1,SHIELD*%
X89983500Y-178257200D03*
D54*
X89983500Y-182437200D03*
D53*
X98623500Y-178257200D03*
D54*
X98623500Y-182437200D03*
%TD*%
D55*
%TO.P,IC1,1,FB*%
%TO.N,Net-(IC1-FB)*%
X81135500Y-173215200D03*
%TO.P,IC1,2,EN*%
%TO.N,Net-(IC1-EN)*%
X81135500Y-173715200D03*
%TO.P,IC1,3,VIN*%
%TO.N,Net-(IC1-VIN)*%
X81135500Y-174215200D03*
%TO.P,IC1,4,GND*%
%TO.N,GND*%
X82811500Y-174215200D03*
%TO.P,IC1,5,SW*%
%TO.N,Net-(IC1-SW)*%
X82811500Y-173715200D03*
%TO.P,IC1,6,VOUT*%
%TO.N,+V_BAT_5V*%
X82811500Y-173215200D03*
%TD*%
D29*
%TO.P,L9,1,1*%
%TO.N,Net-(C33-Pad2)*%
X115310500Y-149719200D03*
%TO.P,L9,2,2*%
%TO.N,Net-(IC3-TX1)*%
X115310500Y-151769200D03*
%TD*%
D35*
%TO.P,L22,1,1*%
%TO.N,Net-(C100-Pad1)*%
X117103000Y-53467000D03*
%TO.P,L22,2,2*%
%TO.N,Net-(U16-RF2)*%
X115053000Y-53467000D03*
%TD*%
D21*
%TO.P,C84,1*%
%TO.N,/CC1101A_ANT_OUT*%
X91540000Y-51319200D03*
%TO.P,C84,2*%
%TO.N,GND*%
X93615000Y-51319200D03*
%TD*%
D33*
%TO.P,C38,1*%
%TO.N,Net-(C34-Pad1)*%
X117596500Y-153770700D03*
%TO.P,C38,2*%
%TO.N,Net-(C29-Pad2)*%
X117596500Y-155845700D03*
%TD*%
D28*
%TO.P,R16,1*%
%TO.N,/GPIO4_ADC1_3_BAT\u0025*%
X71606500Y-144410200D03*
%TO.P,R16,2*%
%TO.N,GND*%
X69606500Y-144410200D03*
%TD*%
D56*
%TO.P,R21,1*%
%TO.N,Net-(Q4-B)*%
X130296500Y-130797200D03*
%TO.P,R21,2*%
%TO.N,/GPIO38_IR_LED*%
X130296500Y-128797200D03*
%TD*%
D21*
%TO.P,C69,1*%
%TO.N,Net-(U12-ANT)*%
X80237000Y-113168200D03*
%TO.P,C69,2*%
%TO.N,GND*%
X82312000Y-113168200D03*
%TD*%
D32*
%TO.P,C44,1*%
%TO.N,+3V3*%
X107722000Y-161135500D03*
%TO.P,C44,2*%
%TO.N,GND*%
X105647000Y-161135500D03*
%TD*%
D18*
%TO.P,L11,1,1*%
%TO.N,Net-(C53-Pad1)*%
X98132000Y-66382000D03*
%TO.P,L11,2,2*%
%TO.N,Net-(U13-RF2)*%
X98132000Y-64332000D03*
%TD*%
D19*
%TO.P,R18,1*%
%TO.N,Net-(U6-RXD)*%
X100604500Y-164564500D03*
%TO.P,R18,2*%
%TO.N,/TX*%
X102604500Y-164564500D03*
%TD*%
D57*
%TO.P,AE4,1,A*%
%TO.N,Net-(AE4-A)*%
X130623500Y-48887200D03*
%TO.P,AE4,2*%
%TO.N,N/C*%
X130623500Y-86987200D03*
%TD*%
D23*
%TO.P,C14,1*%
%TO.N,+3.3VA*%
X89552500Y-161777200D03*
%TO.P,C14,2*%
%TO.N,GND*%
X87602500Y-161777200D03*
%TD*%
D28*
%TO.P,R53,1*%
%TO.N,/CC1101B_ANT_OUT*%
X117078000Y-43933000D03*
%TO.P,R53,2*%
%TO.N,Net-(C121-Pad1)*%
X115078000Y-43933000D03*
%TD*%
D22*
%TO.P,C17,1*%
%TO.N,+3V3*%
X119882500Y-181580200D03*
%TO.P,C17,2*%
%TO.N,GND*%
X119882500Y-179630200D03*
%TD*%
D21*
%TO.P,C81,1*%
%TO.N,/NRF24_ANT_OUT*%
X80237000Y-100976200D03*
%TO.P,C81,2*%
%TO.N,GND*%
X82312000Y-100976200D03*
%TD*%
D57*
%TO.P,AE2,1,A*%
%TO.N,Net-(AE2-A)*%
X75623500Y-48417200D03*
%TO.P,AE2,2*%
%TO.N,N/C*%
X75623500Y-86517200D03*
%TD*%
D33*
%TO.P,C90,1*%
%TO.N,Net-(IC6-XOSC_Q2)*%
X124835500Y-87492700D03*
%TO.P,C90,2*%
%TO.N,GND*%
X124835500Y-89567700D03*
%TD*%
D34*
%TO.P,U14,1,V2*%
%TO.N,+3V3*%
X115275000Y-61509000D03*
%TO.P,U14,2,V1*%
%TO.N,/GPIO12_CC1101B_CTRL*%
X115275000Y-62159000D03*
%TO.P,U14,3,RFC*%
%TO.N,Net-(U14-RFC)*%
X115275000Y-62809000D03*
%TO.P,U14,4,GND*%
%TO.N,GND*%
X115275000Y-63459000D03*
%TO.P,U14,5,RF1*%
%TO.N,Net-(U14-RF1)*%
X119675000Y-63459000D03*
%TO.P,U14,6,GND*%
%TO.N,GND*%
X119675000Y-62809000D03*
%TO.P,U14,7,GND*%
X119675000Y-62159000D03*
%TO.P,U14,8,RF2*%
%TO.N,Net-(U14-RF2)*%
X119675000Y-61509000D03*
D17*
%TO.P,U14,9,EP*%
%TO.N,GND*%
X117475000Y-62484000D03*
%TD*%
D58*
%TO.P,SCREEN1,1,VCC*%
%TO.N,+3V3*%
X86742400Y-144619700D03*
D59*
%TO.P,SCREEN1,2,GND*%
%TO.N,GND*%
X89282400Y-144619700D03*
%TO.P,SCREEN1,3,CS*%
%TO.N,/GPIO1_SCREEN_CS*%
X91822400Y-144619700D03*
%TO.P,SCREEN1,4,RESET*%
%TO.N,/EN{slash}RESET*%
X94362400Y-144619700D03*
%TO.P,SCREEN1,5,DC/RS*%
%TO.N,/GPIO2_SCREEN_D{slash}C*%
X96902400Y-144619700D03*
%TO.P,SCREEN1,6,SDI(MOSI)*%
%TO.N,/GPIO40_HSPI_MOSI*%
X99442400Y-144619700D03*
%TO.P,SCREEN1,7,SCK*%
%TO.N,/GPIO39_HSPI_SCK*%
X101982400Y-144619700D03*
%TO.P,SCREEN1,8,LED*%
%TO.N,+3V3*%
X104522400Y-144619700D03*
%TO.P,SCREEN1,9,SDO(MISO)*%
%TO.N,unconnected-(SCREEN1-SDO(MISO)-Pad9)*%
X107062400Y-144619700D03*
%TO.P,SCREEN1,10,T_CLK*%
%TO.N,/GPIO39_HSPI_SCK*%
X109602400Y-144619700D03*
%TO.P,SCREEN1,11,T_CS*%
%TO.N,/GPIO36_SCREEN_T_CS*%
X112142400Y-144619700D03*
%TO.P,SCREEN1,12,T_DIN*%
%TO.N,/GPIO40_HSPI_MOSI*%
X114682400Y-144619700D03*
%TO.P,SCREEN1,13,T_DO*%
%TO.N,/GPIO41_HSPI_MISO*%
X117222400Y-144619700D03*
%TO.P,SCREEN1,14,T_IRQ*%
%TO.N,/GPIO35_SCREEN_T_IRQ*%
X119762400Y-144619700D03*
D60*
%TO.P,SCREEN1,15,MH*%
%TO.N,GND*%
X73652400Y-41579700D03*
X73906400Y-143873700D03*
X74414400Y-39882644D03*
X74414400Y-43276756D03*
X74668400Y-142176644D03*
X74668400Y-145570756D03*
X75802400Y-39499700D03*
D61*
X75802400Y-41579700D03*
D60*
X75802400Y-43817700D03*
X76056400Y-141793700D03*
D61*
X76056400Y-143873700D03*
D60*
X76056400Y-146111700D03*
X77208400Y-39882644D03*
X77208400Y-43276756D03*
X77462400Y-142176644D03*
X77462400Y-145570756D03*
X77970400Y-41579700D03*
X78224400Y-143873700D03*
X128552400Y-41579700D03*
X128552400Y-143619700D03*
X129314400Y-39882644D03*
X129314400Y-43276756D03*
X129314400Y-141922644D03*
X129314400Y-145316756D03*
X130702400Y-39499700D03*
D61*
X130702400Y-41579700D03*
D60*
X130702400Y-43817700D03*
X130702400Y-141539700D03*
D61*
X130702400Y-143619700D03*
D60*
X130702400Y-145857700D03*
X132108400Y-39882644D03*
X132108400Y-43276756D03*
X132108400Y-141922644D03*
X132108400Y-145316756D03*
X132870400Y-41579700D03*
X132870400Y-143619700D03*
%TD*%
D23*
%TO.P,C13,1*%
%TO.N,+3.3VA*%
X89552500Y-163809200D03*
%TO.P,C13,2*%
%TO.N,GND*%
X87602500Y-163809200D03*
%TD*%
D35*
%TO.P,L13,1,1*%
%TO.N,Net-(C71-Pad1)*%
X85220500Y-72401200D03*
%TO.P,L13,2,2*%
%TO.N,Net-(C77-Pad1)*%
X83170500Y-72401200D03*
%TD*%
D62*
%TO.P,IC7,1,IN*%
%TO.N,/GPIO13_RDM630_CTRL*%
X132044500Y-117552200D03*
%TO.P,IC7,2,V+*%
%TO.N,+3V3*%
X132044500Y-118502200D03*
%TO.P,IC7,3,GND*%
%TO.N,GND*%
X132044500Y-119452200D03*
%TO.P,IC7,4,NC_(SOURCE2)*%
X134644500Y-119452200D03*
%TO.P,IC7,5,COM*%
%TO.N,Net-(IC7-COM)*%
X134644500Y-118502200D03*
%TO.P,IC7,6,NO_(SOURCE1)*%
%TO.N,Net-(IC7-NO_(SOURCE1))*%
X134644500Y-117552200D03*
%TD*%
D32*
%TO.P,C115,1*%
%TO.N,Net-(D7-K)*%
X138176000Y-94372200D03*
%TO.P,C115,2*%
%TO.N,GND*%
X136101000Y-94372200D03*
%TD*%
D19*
%TO.P,R54,1*%
%TO.N,Net-(U19B-+)*%
X131074500Y-107580200D03*
%TO.P,R54,2*%
%TO.N,Net-(C120-Pad2)*%
X133074500Y-107580200D03*
%TD*%
D21*
%TO.P,C23,1*%
%TO.N,GND*%
X78215000Y-133996200D03*
%TO.P,C23,2*%
%TO.N,Net-(U10-DVDD)*%
X80290000Y-133996200D03*
%TD*%
D63*
%TO.P,Q7,1,B*%
%TO.N,Net-(Q7-B)*%
X127405500Y-121870200D03*
%TO.P,Q7,2,E*%
%TO.N,GND*%
X127405500Y-123770200D03*
%TO.P,Q7,3,C*%
%TO.N,Net-(IC5-NC_(SOURCE2))*%
X129280500Y-122820200D03*
%TD*%
D64*
%TO.P,Y2,1,1*%
%TO.N,Net-(U10-XC2)*%
X91786500Y-136366200D03*
%TO.P,Y2,2,2*%
%TO.N,Net-(U10-XC1)*%
X91786500Y-134166200D03*
%TO.P,Y2,3*%
%TO.N,N/C*%
X90086500Y-134166200D03*
%TO.P,Y2,4*%
X90086500Y-136366200D03*
%TD*%
D28*
%TO.P,R49,1*%
%TO.N,Net-(D7-K)*%
X138138500Y-96912200D03*
%TO.P,R49,2*%
%TO.N,GND*%
X136138500Y-96912200D03*
%TD*%
D65*
%TO.P,C98,1*%
%TO.N,Net-(IC7-NO_(SOURCE1))*%
X133344500Y-114730700D03*
%TO.P,C98,2*%
%TO.N,GND*%
X133344500Y-111605700D03*
%TD*%
D47*
%TO.P,Q6,1,B*%
%TO.N,Net-(Q5-B)*%
X121728500Y-133808200D03*
%TO.P,Q6,2,E*%
%TO.N,Net-(IC5-NO_(SOURCE1))*%
X121728500Y-135708200D03*
%TO.P,Q6,3,C*%
%TO.N,GND*%
X125148500Y-134758200D03*
%TD*%
D19*
%TO.P,R40,1*%
%TO.N,Net-(Q5-C)*%
X117358500Y-131202200D03*
%TO.P,R40,2*%
%TO.N,Net-(IC4-P0.0)*%
X119358500Y-131202200D03*
%TD*%
D22*
%TO.P,C39,1*%
%TO.N,+3V3*%
X90418500Y-81211500D03*
%TO.P,C39,2*%
%TO.N,GND*%
X90418500Y-79261500D03*
%TD*%
D33*
%TO.P,C36,1*%
%TO.N,Net-(C33-Pad2)*%
X119882500Y-149706700D03*
%TO.P,C36,2*%
%TO.N,GND*%
X119882500Y-151781700D03*
%TD*%
D56*
%TO.P,R27,1*%
%TO.N,GND*%
X131312500Y-155808200D03*
%TO.P,R27,2*%
%TO.N,Net-(J5-Ext)*%
X131312500Y-153808200D03*
%TD*%
D23*
%TO.P,C66,1*%
%TO.N,+3V3*%
X84291500Y-88110500D03*
%TO.P,C66,2*%
%TO.N,GND*%
X82341500Y-88110500D03*
%TD*%
D10*
%TO.P,C72,1*%
%TO.N,+3V3*%
X94488000Y-61468000D03*
%TO.P,C72,2*%
%TO.N,GND*%
X96438000Y-61468000D03*
%TD*%
%TO.P,C91,1*%
%TO.N,+3V3*%
X117860500Y-85482200D03*
%TO.P,C91,2*%
%TO.N,GND*%
X119810500Y-85482200D03*
%TD*%
D22*
%TO.P,C16,1*%
%TO.N,+V_BAT_5V*%
X84513500Y-167578200D03*
%TO.P,C16,2*%
%TO.N,GND*%
X84513500Y-165628200D03*
%TD*%
D19*
%TO.P,R43,1*%
%TO.N,Net-(Q7-B)*%
X123454500Y-122058200D03*
%TO.P,R43,2*%
%TO.N,/GPIO47_RDM630_EMULATION*%
X125454500Y-122058200D03*
%TD*%
D40*
%TO.P,C5,1*%
%TO.N,Net-(IC1-VIN)*%
X79433500Y-177312200D03*
%TO.P,C5,2*%
%TO.N,GND*%
X79433500Y-179262200D03*
%TD*%
D66*
%TO.P,D1,1,K*%
%TO.N,Net-(D1-K)*%
X69311500Y-138630200D03*
%TO.P,D1,2,A*%
%TO.N,Net-(D1-A)*%
X69311500Y-140030200D03*
%TD*%
D12*
%TO.P,H3,1,1*%
%TO.N,GND*%
X65473500Y-27487200D03*
X65956774Y-26320474D03*
X65956774Y-28653926D03*
X67123500Y-25837200D03*
D13*
X67123500Y-27487200D03*
D12*
X67123500Y-29137200D03*
X68290226Y-26320474D03*
X68290226Y-28653926D03*
X68773500Y-27487200D03*
%TD*%
D67*
%TO.P,FL2,1,UNBAL*%
%TO.N,Net-(FL2-UNBAL)*%
X113151500Y-73240200D03*
%TO.P,FL2,2,GND*%
%TO.N,GND*%
X113151500Y-73900200D03*
%TO.P,FL2,3,BAL_1*%
%TO.N,Net-(FL2-BAL_1)*%
X113151500Y-74560200D03*
%TO.P,FL2,4,BAL_2*%
%TO.N,Net-(FL2-BAL_2)*%
X114141500Y-74560200D03*
%TO.P,FL2,5,DNC*%
%TO.N,unconnected-(FL2-DNC-Pad5)*%
X114141500Y-73900200D03*
%TO.P,FL2,6,NC*%
%TO.N,unconnected-(FL2-NC-Pad6)*%
X114141500Y-73240200D03*
%TD*%
D33*
%TO.P,C82,1*%
%TO.N,Net-(C82-Pad1)*%
X88513500Y-55213200D03*
%TO.P,C82,2*%
%TO.N,GND*%
X88513500Y-57288200D03*
%TD*%
D21*
%TO.P,C117,1*%
%TO.N,+5V*%
X126211000Y-100468200D03*
%TO.P,C117,2*%
%TO.N,GND*%
X128286000Y-100468200D03*
%TD*%
D68*
%TO.P,F1,1*%
%TO.N,Net-(F1-Pad1)*%
X91879500Y-168852700D03*
%TO.P,F1,2*%
%TO.N,Net-(U6-REGIN)*%
X91879500Y-165877700D03*
%TD*%
D21*
%TO.P,C89,1*%
%TO.N,Net-(IC6-XOSC_Q1)*%
X118972000Y-92340200D03*
%TO.P,C89,2*%
%TO.N,GND*%
X121047000Y-92340200D03*
%TD*%
D19*
%TO.P,R34,1*%
%TO.N,Net-(U12-TXEN)*%
X85608500Y-120026200D03*
%TO.P,R34,2*%
%TO.N,/NRF24_VDD_PA*%
X87608500Y-120026200D03*
%TD*%
D69*
%TO.P,U2,1,I/O1*%
%TO.N,Net-(U2-I{slash}O1-Pad1)*%
X94360500Y-172699200D03*
D70*
%TO.P,U2,2,GND*%
%TO.N,GND*%
X94898000Y-172774200D03*
D69*
%TO.P,U2,3,I/O2*%
%TO.N,Net-(U2-I{slash}O2-Pad3)*%
X95435500Y-172699200D03*
%TO.P,U2,4,I/O2*%
%TO.N,Net-(U6-D+)*%
X95435500Y-170999200D03*
D70*
%TO.P,U2,5,VBUS*%
%TO.N,+5V*%
X94898000Y-170924200D03*
D69*
%TO.P,U2,6,I/O1*%
%TO.N,Net-(U6-D-)*%
X94360500Y-170999200D03*
%TD*%
D14*
%TO.P,R39,1*%
%TO.N,/CC1101A_ANT_OUT*%
X88513500Y-51335200D03*
%TO.P,R39,2*%
%TO.N,Net-(C82-Pad1)*%
X88513500Y-53335200D03*
%TD*%
D21*
%TO.P,C120,1*%
%TO.N,Net-(C120-Pad1)*%
X131058500Y-105040200D03*
%TO.P,C120,2*%
%TO.N,Net-(C120-Pad2)*%
X133133500Y-105040200D03*
%TD*%
D18*
%TO.P,L19,1,1*%
%TO.N,Net-(U14-RF1)*%
X111252000Y-59445000D03*
%TO.P,L19,2,2*%
%TO.N,Net-(C97-Pad1)*%
X111252000Y-57395000D03*
%TD*%
D32*
%TO.P,C102,1*%
%TO.N,Net-(D6-K)*%
X138154500Y-106056200D03*
%TO.P,C102,2*%
%TO.N,GND*%
X136079500Y-106056200D03*
%TD*%
D27*
%TO.P,Y4,1,1*%
%TO.N,Net-(IC6-XOSC_Q1)*%
X119374500Y-90068200D03*
%TO.P,Y4,2,2*%
%TO.N,GND*%
X122274500Y-90068200D03*
%TO.P,Y4,3,3*%
%TO.N,Net-(IC6-XOSC_Q2)*%
X122274500Y-87768200D03*
%TO.P,Y4,4*%
%TO.N,N/C*%
X119374500Y-87768200D03*
%TD*%
D22*
%TO.P,C15,1*%
%TO.N,+V_BAT_5V*%
X84513500Y-171388200D03*
%TO.P,C15,2*%
%TO.N,GND*%
X84513500Y-169438200D03*
%TD*%
D15*
%TO.P,L4,1,1*%
%TO.N,Net-(U11-RF2)*%
X94059000Y-70310000D03*
%TO.P,L4,2,2*%
%TO.N,Net-(C45-Pad1)*%
X96109000Y-70310000D03*
%TD*%
D19*
%TO.P,R17,1*%
%TO.N,Net-(U6-TXD)*%
X100614500Y-166684800D03*
%TO.P,R17,2*%
%TO.N,/RX*%
X102614500Y-166684800D03*
%TD*%
D23*
%TO.P,C11,1*%
%TO.N,+3V3*%
X79900500Y-150601200D03*
%TO.P,C11,2*%
%TO.N,GND*%
X77950500Y-150601200D03*
%TD*%
D40*
%TO.P,C67,1*%
%TO.N,+3V3*%
X75940500Y-121083200D03*
%TO.P,C67,2*%
%TO.N,GND*%
X75940500Y-123033200D03*
%TD*%
D33*
%TO.P,C45,1*%
%TO.N,Net-(C45-Pad1)*%
X98132000Y-70183000D03*
%TO.P,C45,2*%
%TO.N,GND*%
X98132000Y-72258000D03*
%TD*%
D25*
%TO.P,J7,1,In*%
%TO.N,Net-(J7-In)*%
X103055500Y-43135200D03*
D71*
%TO.P,J7,2,Ext*%
%TO.N,unconnected-(J7-Ext-Pad2)_1*%
X101580500Y-41635200D03*
D25*
%TO.N,unconnected-(J7-Ext-Pad2)*%
X103055500Y-40135200D03*
D71*
%TO.N,unconnected-(J7-Ext-Pad2)_2*%
X104530500Y-41635200D03*
%TD*%
D32*
%TO.P,C78,1*%
%TO.N,Net-(C78-Pad1)*%
X82312000Y-107072200D03*
%TO.P,C78,2*%
%TO.N,GND*%
X80237000Y-107072200D03*
%TD*%
D72*
%TO.P,IC3,1,DVSS*%
%TO.N,GND*%
X99182500Y-155961700D03*
%TO.P,IC3,2,LOADMOD*%
%TO.N,unconnected-(IC3-LOADMOD-Pad2)*%
X99682500Y-155961700D03*
%TO.P,IC3,3,TVSS1*%
%TO.N,GND*%
X100182500Y-155961700D03*
%TO.P,IC3,4,TX1*%
%TO.N,Net-(IC3-TX1)*%
X100682500Y-155961700D03*
%TO.P,IC3,5,TVDD*%
%TO.N,Net-(IC3-TVDD)*%
X101182500Y-155961700D03*
%TO.P,IC3,6,TX2*%
%TO.N,Net-(IC3-TX2)*%
X101682500Y-155961700D03*
%TO.P,IC3,7,TVSS2*%
%TO.N,GND*%
X102182500Y-155961700D03*
%TO.P,IC3,8,AVDD*%
%TO.N,Net-(IC3-AVDD)*%
X102682500Y-155961700D03*
%TO.P,IC3,9,VMID*%
%TO.N,Net-(IC3-VMID)*%
X103182500Y-155961700D03*
%TO.P,IC3,10,RX*%
%TO.N,Net-(IC3-RX)*%
X103682500Y-155961700D03*
D73*
%TO.P,IC3,11,AVSS*%
%TO.N,GND*%
X104370000Y-155274200D03*
%TO.P,IC3,12,AUX1*%
%TO.N,/PN532_AUX1*%
X104370000Y-154774200D03*
%TO.P,IC3,13,AUX2*%
%TO.N,/PN532_AUX2*%
X104370000Y-154274200D03*
%TO.P,IC3,14,OSCIN*%
%TO.N,Net-(IC3-OSCIN)*%
X104370000Y-153774200D03*
%TO.P,IC3,15,OSCOUT*%
%TO.N,Net-(IC3-OSCOUT)*%
X104370000Y-153274200D03*
%TO.P,IC3,16,I0*%
%TO.N,GND*%
X104370000Y-152774200D03*
%TO.P,IC3,17,I1*%
%TO.N,+3V3*%
X104370000Y-152274200D03*
%TO.P,IC3,18,TESTEN*%
%TO.N,GND*%
X104370000Y-151774200D03*
%TO.P,IC3,19,P35*%
%TO.N,/PN532_P35*%
X104370000Y-151274200D03*
%TO.P,IC3,20,N.C._1*%
%TO.N,unconnected-(IC3-N.C._1-Pad20)*%
X104370000Y-150774200D03*
D72*
%TO.P,IC3,21,N.C._2*%
%TO.N,unconnected-(IC3-N.C._2-Pad21)*%
X103682500Y-150086700D03*
%TO.P,IC3,22,N.C._3*%
%TO.N,unconnected-(IC3-N.C._3-Pad22)*%
X103182500Y-150086700D03*
%TO.P,IC3,23,PVDD*%
%TO.N,+3V3*%
X102682500Y-150086700D03*
%TO.P,IC3,24,P30_/UART_RX*%
%TO.N,/PN532_P30_UART_RX*%
X102182500Y-150086700D03*
%TO.P,IC3,25,P70_IRQ*%
%TO.N,/PN532_IRQ*%
X101682500Y-150086700D03*
%TO.P,IC3,26,RSTOUT_N*%
%TO.N,/PN532_RSTOUT_N*%
X101182500Y-150086700D03*
%TO.P,IC3,27,NSS_/_P50_SCL_/_HSU_RX*%
%TO.N,/GPIO48_PN532_CS*%
X100682500Y-150086700D03*
%TO.P,IC3,28,MOSI_/_SDA_/_HSU_TX*%
%TO.N,/GPIO40_HSPI_MOSI*%
X100182500Y-150086700D03*
%TO.P,IC3,29,MISO_/_P71*%
%TO.N,/GPIO41_HSPI_MISO*%
X99682500Y-150086700D03*
%TO.P,IC3,30,SCK_/_P72*%
%TO.N,/GPIO39_HSPI_SCK*%
X99182500Y-150086700D03*
D73*
%TO.P,IC3,31,P31_/_UART_TX*%
%TO.N,/PN532_P31_UART_TX*%
X98495000Y-150774200D03*
%TO.P,IC3,32,P32_INT0*%
%TO.N,/PN532_P32*%
X98495000Y-151274200D03*
%TO.P,IC3,33,P33_INT1*%
%TO.N,/PN532_P33*%
X98495000Y-151774200D03*
%TO.P,IC3,34,P34_/_SIC_CLK*%
%TO.N,/PN532_P34_SIC_CLK*%
X98495000Y-152274200D03*
%TO.P,IC3,35,SIGOUT*%
%TO.N,/PN532_SIGOUT*%
X98495000Y-152774200D03*
%TO.P,IC3,36,SIGIN*%
%TO.N,/PN532_SIGIN*%
X98495000Y-153274200D03*
%TO.P,IC3,37,SVDD*%
%TO.N,Net-(IC3-SVDD)*%
X98495000Y-153774200D03*
%TO.P,IC3,38,RSTPD_N*%
%TO.N,/PN532_RSTPD_N*%
X98495000Y-154274200D03*
%TO.P,IC3,39,DVDD*%
%TO.N,+3V3*%
X98495000Y-154774200D03*
%TO.P,IC3,40,VBAT*%
X98495000Y-155274200D03*
D38*
%TO.P,IC3,41,EPAD*%
%TO.N,GND*%
X99632500Y-154824200D03*
X100832500Y-154824200D03*
X102032500Y-154824200D03*
X103232500Y-154824200D03*
X100670500Y-153786200D03*
X102194500Y-153786200D03*
X99632500Y-153624200D03*
X103232500Y-153624200D03*
X101432500Y-153024200D03*
D74*
X101432500Y-153024200D03*
D38*
X99632500Y-152424200D03*
X103232500Y-152424200D03*
X100670500Y-152262200D03*
X102194500Y-152262200D03*
X99632500Y-151224200D03*
X100832500Y-151224200D03*
X102032500Y-151224200D03*
X103232500Y-151224200D03*
%TD*%
D22*
%TO.P,C6,1*%
%TO.N,+5V*%
X79941500Y-156910200D03*
%TO.P,C6,2*%
%TO.N,GND*%
X79941500Y-154960200D03*
%TD*%
D10*
%TO.P,C92,1*%
%TO.N,+3V3*%
X115097500Y-91920500D03*
%TO.P,C92,2*%
%TO.N,GND*%
X117047500Y-91920500D03*
%TD*%
D23*
%TO.P,C70,1*%
%TO.N,+3V3*%
X84291500Y-86205500D03*
%TO.P,C70,2*%
%TO.N,GND*%
X82341500Y-86205500D03*
%TD*%
D33*
%TO.P,C54,1*%
%TO.N,Net-(U13-RF1)*%
X102196000Y-64319500D03*
%TO.P,C54,2*%
%TO.N,GND*%
X102196000Y-66394500D03*
%TD*%
D14*
%TO.P,R19,1*%
%TO.N,+V_BAT_5V*%
X84513500Y-173477200D03*
%TO.P,R19,2*%
%TO.N,Net-(IC1-FB)*%
X84513500Y-175477200D03*
%TD*%
D30*
%TO.P,C28,1*%
%TO.N,Net-(C28-Pad1)*%
X126740500Y-151781700D03*
%TO.P,C28,2*%
%TO.N,GND*%
X126740500Y-149706700D03*
%TD*%
D28*
%TO.P,R47,1*%
%TO.N,Net-(IC6-RBIAS)*%
X109249500Y-85482200D03*
%TO.P,R47,2*%
%TO.N,GND*%
X107249500Y-85482200D03*
%TD*%
D33*
%TO.P,C100,1*%
%TO.N,Net-(C100-Pad1)*%
X119761000Y-55350500D03*
%TO.P,C100,2*%
%TO.N,GND*%
X119761000Y-57425500D03*
%TD*%
D11*
%TO.P,TP6,1,1*%
%TO.N,Net-(C34-Pad1)*%
X122168500Y-158639700D03*
%TD*%
D35*
%TO.P,D5,1,K*%
%TO.N,Net-(D5-K)*%
X141989500Y-169048200D03*
%TO.P,D5,2,A*%
%TO.N,Net-(D5-A)*%
X139939500Y-169048200D03*
%TD*%
D11*
%TO.P,TP5,1,1*%
%TO.N,GND*%
X119882500Y-146955700D03*
%TD*%
D40*
%TO.P,C60,1*%
%TO.N,+3V3*%
X89402500Y-89548500D03*
%TO.P,C60,2*%
%TO.N,GND*%
X89402500Y-91498500D03*
%TD*%
D75*
%TO.P,FB2,1*%
%TO.N,+3V3*%
X107430500Y-159103500D03*
%TO.P,FB2,2*%
%TO.N,Net-(IC3-TVDD)*%
X105730500Y-159103500D03*
%TD*%
D21*
%TO.P,C80,1*%
%TO.N,GND*%
X91540000Y-59320200D03*
%TO.P,C80,2*%
%TO.N,Net-(U13-RFC)*%
X93615000Y-59320200D03*
%TD*%
D10*
%TO.P,C93,1*%
%TO.N,Net-(Q5-C)*%
X127289500Y-126630200D03*
%TO.P,C93,2*%
%TO.N,GND*%
X129239500Y-126630200D03*
%TD*%
D76*
%TO.P,Q1,1,G*%
%TO.N,+V_USB*%
X83446700Y-162539200D03*
%TO.P,Q1,2,S*%
%TO.N,+5V*%
X81516300Y-162539200D03*
%TO.P,Q1,3,D*%
%TO.N,+V_BAT_5V*%
X82481500Y-164571200D03*
%TD*%
D77*
%TO.P,AE7,1,A*%
%TO.N,Net-(AE7-A)*%
X94123500Y-26557200D03*
D78*
%TO.P,AE7,2*%
%TO.N,N/C*%
X98503500Y-26557200D03*
X89743500Y-26557200D03*
D79*
X98503500Y-29547200D03*
X89743500Y-29547200D03*
D80*
X98503500Y-29997200D03*
X89743500Y-29997200D03*
%TD*%
D22*
%TO.P,C110,1*%
%TO.N,+3V3*%
X111627500Y-81846500D03*
%TO.P,C110,2*%
%TO.N,GND*%
X111627500Y-79896500D03*
%TD*%
D10*
%TO.P,C87,1*%
%TO.N,Net-(IC6-DCOUPL)*%
X115056500Y-90015500D03*
%TO.P,C87,2*%
%TO.N,GND*%
X117006500Y-90015500D03*
%TD*%
D14*
%TO.P,R12,1*%
%TO.N,Net-(IC1-EN)*%
X79433500Y-173477200D03*
%TO.P,R12,2*%
%TO.N,Net-(IC1-VIN)*%
X79433500Y-175477200D03*
%TD*%
D10*
%TO.P,C58,1*%
%TO.N,Net-(IC3-VMID)*%
X105439500Y-165707500D03*
%TO.P,C58,2*%
%TO.N,GND*%
X107389500Y-165707500D03*
%TD*%
D81*
%TO.P,D4,1,K*%
%TO.N,Net-(D4-K)*%
X139348500Y-128520200D03*
D46*
%TO.P,D4,2,A*%
%TO.N,+3V3*%
X141888500Y-128520200D03*
%TD*%
D25*
%TO.P,J5,1,In*%
%TO.N,Net-(J5-In)*%
X136656500Y-152538200D03*
D26*
%TO.P,J5,2,Ext*%
%TO.N,Net-(J5-Ext)*%
X138156500Y-151063200D03*
D25*
X139656500Y-152538200D03*
D26*
X138156500Y-154013200D03*
%TD*%
D14*
%TO.P,R23,1*%
%TO.N,+3V3*%
X88904500Y-94896200D03*
%TO.P,R23,2*%
%TO.N,/EN{slash}RESET*%
X88904500Y-96896200D03*
%TD*%
D19*
%TO.P,R15,1*%
%TO.N,+V_BAT*%
X69606500Y-146696200D03*
%TO.P,R15,2*%
%TO.N,/GPIO4_ADC1_3_BAT\u0025*%
X71606500Y-146696200D03*
%TD*%
D28*
%TO.P,R52,1*%
%TO.N,Net-(C120-Pad1)*%
X133074500Y-102500200D03*
%TO.P,R52,2*%
%TO.N,Net-(U19A--)*%
X131074500Y-102500200D03*
%TD*%
D30*
%TO.P,C46,1*%
%TO.N,Net-(C46-Pad1)*%
X96100000Y-66394500D03*
%TO.P,C46,2*%
%TO.N,GND*%
X96100000Y-64319500D03*
%TD*%
D35*
%TO.P,D6,1,K*%
%TO.N,Net-(D6-K)*%
X138163500Y-110374200D03*
%TO.P,D6,2,A*%
%TO.N,Net-(D6-A)*%
X136113500Y-110374200D03*
%TD*%
D11*
%TO.P,TP2,1,1*%
%TO.N,GND*%
X136646500Y-158126200D03*
%TD*%
D62*
%TO.P,IC5,1,IN*%
%TO.N,/GPIO13_RDM630_CTRL*%
X132044500Y-121362200D03*
%TO.P,IC5,2,V+*%
%TO.N,+3V3*%
X132044500Y-122312200D03*
%TO.P,IC5,3,GND*%
%TO.N,GND*%
X132044500Y-123262200D03*
%TO.P,IC5,4,NC_(SOURCE2)*%
%TO.N,Net-(IC5-NC_(SOURCE2))*%
X134644500Y-123262200D03*
%TO.P,IC5,5,COM*%
%TO.N,Net-(IC5-COM)*%
X134644500Y-122312200D03*
%TO.P,IC5,6,NO_(SOURCE1)*%
%TO.N,Net-(IC5-NO_(SOURCE1))*%
X134644500Y-121362200D03*
%TD*%
D19*
%TO.P,R36,1*%
%TO.N,Net-(IC3-VMID)*%
X105414500Y-163675500D03*
%TO.P,R36,2*%
%TO.N,Net-(IC3-RX)*%
X107414500Y-163675500D03*
%TD*%
D32*
%TO.P,C57,1*%
%TO.N,Net-(C57-Pad1)*%
X112532000Y-163675500D03*
%TO.P,C57,2*%
%TO.N,Net-(IC3-RX)*%
X110457000Y-163675500D03*
%TD*%
D21*
%TO.P,C123,1*%
%TO.N,/CC1101B_ANT_OUT*%
X119358500Y-43933000D03*
%TO.P,C123,2*%
%TO.N,GND*%
X121433500Y-43933000D03*
%TD*%
D12*
%TO.P,H2,1,1*%
%TO.N,GND*%
X138552500Y-159142200D03*
X139035774Y-157975474D03*
X139035774Y-160308926D03*
X140202500Y-157492200D03*
D13*
X140202500Y-159142200D03*
D12*
X140202500Y-160792200D03*
X141369226Y-157975474D03*
X141369226Y-160308926D03*
X141852500Y-159142200D03*
%TD*%
D82*
%TO.P,JSTPH1,1,Pin_1*%
%TO.N,GND*%
X64987000Y-153273000D03*
D83*
%TO.P,JSTPH1,2,Pin_2*%
%TO.N,+V_BAT*%
X64987000Y-151273000D03*
%TD*%
D33*
%TO.P,C116,1*%
%TO.N,Net-(C116-Pad1)*%
X117215500Y-67299700D03*
%TO.P,C116,2*%
%TO.N,GND*%
X117215500Y-69374700D03*
%TD*%
D23*
%TO.P,C1,1*%
%TO.N,Net-(PWR_SW1-OUT)*%
X72788500Y-175239200D03*
%TO.P,C1,2*%
%TO.N,GND*%
X70838500Y-175239200D03*
%TD*%
D84*
%TO.P,L1,1,1*%
%TO.N,Net-(IC1-VIN)*%
X77583500Y-168889200D03*
%TO.P,L1,2,2*%
%TO.N,Net-(IC1-SW)*%
X81283500Y-168889200D03*
%TD*%
D28*
%TO.P,R55,1*%
%TO.N,+5V*%
X130026500Y-114184200D03*
%TO.P,R55,2*%
%TO.N,Net-(U19B--)*%
X128026500Y-114184200D03*
%TD*%
D33*
%TO.P,C118,1*%
%TO.N,GND*%
X117348000Y-46959500D03*
%TO.P,C118,2*%
%TO.N,Net-(U16-RFC)*%
X117348000Y-49034500D03*
%TD*%
D15*
%TO.P,L7,1,1*%
%TO.N,Net-(C45-Pad1)*%
X97996000Y-68278000D03*
%TO.P,L7,2,2*%
%TO.N,Net-(C53-Pad1)*%
X100046000Y-68278000D03*
%TD*%
D22*
%TO.P,C3,1*%
%TO.N,+5V*%
X77909500Y-156910200D03*
%TO.P,C3,2*%
%TO.N,GND*%
X77909500Y-154960200D03*
%TD*%
D58*
%TO.P,J1,1,Pin_1*%
%TO.N,Net-(D1-K)*%
X66542500Y-137826200D03*
D59*
%TO.P,J1,2,Pin_2*%
%TO.N,Net-(D1-A)*%
X66542500Y-140366200D03*
%TD*%
D56*
%TO.P,R1,1*%
%TO.N,Net-(U1-PROG)*%
X89085500Y-149045200D03*
%TO.P,R1,2*%
%TO.N,GND*%
X89085500Y-147045200D03*
%TD*%
D10*
%TO.P,C119,1*%
%TO.N,+5V*%
X126273500Y-103262200D03*
%TO.P,C119,2*%
%TO.N,GND*%
X128223500Y-103262200D03*
%TD*%
D40*
%TO.P,C86,1*%
%TO.N,+3V3*%
X113157000Y-123369200D03*
%TO.P,C86,2*%
%TO.N,GND*%
X113157000Y-125319200D03*
%TD*%
D30*
%TO.P,C62,1*%
%TO.N,Net-(IC2-RF_N)*%
X82290500Y-81693700D03*
%TO.P,C62,2*%
%TO.N,Net-(FL1-BAL_1)*%
X82290500Y-79618700D03*
%TD*%
D34*
%TO.P,U16,1,V2*%
%TO.N,+3V3*%
X113030000Y-52832000D03*
%TO.P,U16,2,V1*%
%TO.N,/GPIO12_CC1101B_CTRL*%
X113030000Y-52182000D03*
%TO.P,U16,3,RFC*%
%TO.N,Net-(U16-RFC)*%
X113030000Y-51532000D03*
%TO.P,U16,4,GND*%
%TO.N,GND*%
X113030000Y-50882000D03*
%TO.P,U16,5,RF1*%
%TO.N,Net-(U16-RF1)*%
X108630000Y-50882000D03*
%TO.P,U16,6,GND*%
%TO.N,GND*%
X108630000Y-51532000D03*
%TO.P,U16,7,GND*%
X108630000Y-52182000D03*
%TO.P,U16,8,RF2*%
%TO.N,Net-(U16-RF2)*%
X108630000Y-52832000D03*
D17*
%TO.P,U16,9,EP*%
%TO.N,GND*%
X110830000Y-51857000D03*
%TD*%
D85*
%TO.P,U10,1,CE*%
%TO.N,/GPIO5_NRF24_CE*%
X83862500Y-134061200D03*
%TO.P,U10,2,CSN*%
%TO.N,/GPIO6_NRF24_CSN*%
X84362500Y-134061200D03*
%TO.P,U10,3,SCK*%
%TO.N,/GPIO39_HSPI_SCK*%
X84862500Y-134061200D03*
%TO.P,U10,4,MOSI*%
%TO.N,/GPIO40_HSPI_MOSI*%
X85362500Y-134061200D03*
%TO.P,U10,5,MISO*%
%TO.N,/GPIO41_HSPI_MISO*%
X85862500Y-134061200D03*
D86*
%TO.P,U10,6,IRQ*%
%TO.N,/GPIO7_NRF24_IRQ*%
X86800000Y-133123700D03*
%TO.P,U10,7,VDD*%
%TO.N,+3V3*%
X86800000Y-132623700D03*
%TO.P,U10,8,VSS*%
%TO.N,GND*%
X86800000Y-132123700D03*
%TO.P,U10,9,XC2*%
%TO.N,Net-(U10-XC2)*%
X86800000Y-131623700D03*
%TO.P,U10,10,XC1*%
%TO.N,Net-(U10-XC1)*%
X86800000Y-131123700D03*
D85*
%TO.P,U10,11,VDD_PA*%
%TO.N,/NRF24_VDD_PA*%
X85862500Y-130186200D03*
%TO.P,U10,12,ANT1*%
%TO.N,Net-(U10-ANT1)*%
X85362500Y-130186200D03*
%TO.P,U10,13,ANT2*%
X84862500Y-130186200D03*
%TO.P,U10,14,VSS*%
%TO.N,GND*%
X84362500Y-130186200D03*
%TO.P,U10,15,VDD*%
%TO.N,+3V3*%
X83862500Y-130186200D03*
D86*
%TO.P,U10,16,IREF*%
%TO.N,Net-(U10-IREF)*%
X82925000Y-131123700D03*
%TO.P,U10,17,VSS*%
%TO.N,GND*%
X82925000Y-131623700D03*
%TO.P,U10,18,VDD*%
%TO.N,+3V3*%
X82925000Y-132123700D03*
%TO.P,U10,19,DVDD*%
%TO.N,Net-(U10-DVDD)*%
X82925000Y-132623700D03*
%TO.P,U10,20,VSS*%
%TO.N,GND*%
X82925000Y-133123700D03*
D38*
%TO.P,U10,21,GND*%
X84100500Y-132885700D03*
X84862500Y-132885700D03*
X85624500Y-132885700D03*
X84100500Y-132123700D03*
X84862500Y-132123700D03*
D87*
X84862500Y-132123700D03*
D38*
X85624500Y-132123700D03*
X84100500Y-131361700D03*
X84862500Y-131361700D03*
X85624500Y-131361700D03*
%TD*%
D18*
%TO.P,L20,1,1*%
%TO.N,Net-(C96-Pad1)*%
X117729000Y-57413000D03*
%TO.P,L20,2,2*%
%TO.N,Net-(C100-Pad1)*%
X117729000Y-55363000D03*
%TD*%
D23*
%TO.P,C88,1*%
%TO.N,+3V3*%
X112989000Y-61849000D03*
%TO.P,C88,2*%
%TO.N,GND*%
X111039000Y-61849000D03*
%TD*%
D30*
%TO.P,C33,1*%
%TO.N,Net-(C28-Pad1)*%
X122168500Y-151781700D03*
%TO.P,C33,2*%
%TO.N,Net-(C33-Pad2)*%
X122168500Y-149706700D03*
%TD*%
D77*
%TO.P,AE1,1,A*%
%TO.N,Net-(AE1-A)*%
X76123500Y-26557200D03*
D78*
%TO.P,AE1,2*%
%TO.N,N/C*%
X80503500Y-26557200D03*
X71743500Y-26557200D03*
D79*
X80503500Y-29547200D03*
X71743500Y-29547200D03*
D80*
X80503500Y-29997200D03*
X71743500Y-29997200D03*
%TD*%
D21*
%TO.P,C77,1*%
%TO.N,Net-(C77-Pad1)*%
X83158000Y-70369200D03*
%TO.P,C77,2*%
%TO.N,GND*%
X85233000Y-70369200D03*
%TD*%
D19*
%TO.P,R2,1*%
%TO.N,+V_USB*%
X69035500Y-157459200D03*
%TO.P,R2,2*%
%TO.N,GND*%
X71035500Y-157459200D03*
%TD*%
%TO.P,R14,1*%
%TO.N,Net-(D3-K)*%
X65304500Y-144410200D03*
%TO.P,R14,2*%
%TO.N,GND*%
X67304500Y-144410200D03*
%TD*%
%TO.P,R57,1*%
%TO.N,/RDM630_SIN*%
X128010500Y-109866200D03*
%TO.P,R57,2*%
%TO.N,Net-(U19B-+)*%
X130010500Y-109866200D03*
%TD*%
D75*
%TO.P,FB3,1*%
%TO.N,+3V3*%
X112344500Y-165961500D03*
%TO.P,FB3,2*%
%TO.N,Net-(IC3-AVDD)*%
X110644500Y-165961500D03*
%TD*%
D15*
%TO.P,L5,1,1*%
%TO.N,Net-(U11-RF1)*%
X94059000Y-68278000D03*
%TO.P,L5,2,2*%
%TO.N,Net-(C46-Pad1)*%
X96109000Y-68278000D03*
%TD*%
D88*
%TO.P,J3,1,DAT2*%
%TO.N,unconnected-(J3-DAT2-Pad1)*%
X133113500Y-178866000D03*
%TO.P,J3,2,CD/DAT3*%
%TO.N,Net-(J3-CD{slash}DAT3)*%
X132013500Y-178466000D03*
%TO.P,J3,3,CMD*%
%TO.N,Net-(J3-CMD)*%
X130913500Y-178866000D03*
%TO.P,J3,4,VDD*%
%TO.N,+3V3*%
X129813500Y-179066000D03*
%TO.P,J3,5,CLK*%
%TO.N,Net-(J3-CLK)*%
X128713500Y-178866000D03*
%TO.P,J3,6,VSS*%
%TO.N,GND*%
X127613500Y-179066000D03*
%TO.P,J3,7,DAT0*%
%TO.N,/GPIO41_HSPI_MISO*%
X126513500Y-178866000D03*
%TO.P,J3,8,DAT1*%
%TO.N,unconnected-(J3-DAT1-Pad8)*%
X125413500Y-178866000D03*
D89*
%TO.P,J3,9,CD1*%
%TO.N,unconnected-(J3-CD1-Pad9)*%
X126223500Y-168316000D03*
%TO.P,J3,10,CD2*%
%TO.N,unconnected-(J3-CD2-Pad10)*%
X131923500Y-168316000D03*
D90*
%TO.P,J3,11,GND*%
%TO.N,GND*%
X124623500Y-181466000D03*
%TO.P,J3,12,GND*%
X137773500Y-182466000D03*
%TD*%
D40*
%TO.P,C8,1*%
%TO.N,Net-(IC1-VIN)*%
X81719500Y-177312200D03*
%TO.P,C8,2*%
%TO.N,GND*%
X81719500Y-179262200D03*
%TD*%
D23*
%TO.P,C12,1*%
%TO.N,+3V3*%
X79900500Y-152633200D03*
%TO.P,C12,2*%
%TO.N,GND*%
X77950500Y-152633200D03*
%TD*%
D41*
%TO.P,BOOT1,1,COM*%
%TO.N,/IO0*%
X69082500Y-123741200D03*
%TO.P,BOOT1,2,NO*%
%TO.N,GND*%
X69082500Y-128241200D03*
D42*
%TO.P,BOOT1,MH1,MH1*%
X71572500Y-122486200D03*
%TO.P,BOOT1,MH2,MH2*%
X71572500Y-129496200D03*
%TD*%
D35*
%TO.P,L17,1,1*%
%TO.N,Net-(U13-RFC)*%
X93602500Y-55256200D03*
%TO.P,L17,2,2*%
%TO.N,Net-(C82-Pad1)*%
X91552500Y-55256200D03*
%TD*%
D18*
%TO.P,L10,1,1*%
%TO.N,Net-(C34-Pad1)*%
X115310500Y-155833200D03*
%TO.P,L10,2,2*%
%TO.N,Net-(IC3-TX2)*%
X115310500Y-153783200D03*
%TD*%
D91*
%TO.P,U1,1,STAT*%
%TO.N,Net-(U1-STAT)*%
X84646000Y-148127200D03*
%TO.P,U1,2,V_{SS}*%
%TO.N,GND*%
X84646000Y-149077200D03*
%TO.P,U1,3,V_{BAT}*%
%TO.N,+V_BAT*%
X84646000Y-150027200D03*
%TO.P,U1,4,V_{DD}*%
%TO.N,+V_USB*%
X86921000Y-150027200D03*
%TO.P,U1,5,PROG*%
%TO.N,Net-(U1-PROG)*%
X86921000Y-148127200D03*
%TD*%
D40*
%TO.P,C85,1*%
%TO.N,+3V3*%
X111246500Y-123369200D03*
%TO.P,C85,2*%
%TO.N,GND*%
X111246500Y-125319200D03*
%TD*%
D18*
%TO.P,L8,1,1*%
%TO.N,Net-(C46-Pad1)*%
X100164000Y-66382000D03*
%TO.P,L8,2,2*%
%TO.N,Net-(U13-RF1)*%
X100164000Y-64332000D03*
%TD*%
D11*
%TO.P,TP1,1,1*%
%TO.N,Net-(J5-In)*%
X133344500Y-149712200D03*
%TD*%
D21*
%TO.P,C75,1*%
%TO.N,GND*%
X93720500Y-157364200D03*
%TO.P,C75,2*%
%TO.N,Net-(IC3-SVDD)*%
X95795500Y-157364200D03*
%TD*%
D30*
%TO.P,C35,1*%
%TO.N,Net-(C28-Pad1)*%
X117596500Y-151781700D03*
%TO.P,C35,2*%
%TO.N,Net-(C33-Pad2)*%
X117596500Y-149706700D03*
%TD*%
D64*
%TO.P,Y3,1,1*%
%TO.N,Net-(IC3-OSCIN)*%
X109037000Y-154488500D03*
%TO.P,Y3,2,2*%
%TO.N,Net-(IC3-OSCOUT)*%
X109037000Y-152288500D03*
%TO.P,Y3,3*%
%TO.N,N/C*%
X107337000Y-152288500D03*
%TO.P,Y3,4*%
X107337000Y-154488500D03*
%TD*%
D23*
%TO.P,C111,1*%
%TO.N,+3V3*%
X110744000Y-39243000D03*
%TO.P,C111,2*%
%TO.N,GND*%
X108794000Y-39243000D03*
%TD*%
D77*
%TO.P,AE3,1,A*%
%TO.N,Net-(AE3-A)*%
X130123500Y-26557200D03*
D78*
%TO.P,AE3,2*%
%TO.N,N/C*%
X134503500Y-26557200D03*
X125743500Y-26557200D03*
D79*
X134503500Y-29547200D03*
X125743500Y-29547200D03*
D80*
X134503500Y-29997200D03*
X125743500Y-29997200D03*
%TD*%
D12*
%TO.P,H5,1,1*%
%TO.N,GND*%
X101473500Y-32487200D03*
X101956774Y-31320474D03*
X101956774Y-33653926D03*
X103123500Y-30837200D03*
D13*
X103123500Y-32487200D03*
D12*
X103123500Y-34137200D03*
X104290226Y-31320474D03*
X104290226Y-33653926D03*
X104773500Y-32487200D03*
%TD*%
D92*
%TO.P,U4,1,GND*%
%TO.N,GND*%
X82887500Y-152365200D03*
%TO.P,U4,2,VO*%
%TO.N,+3V3*%
X82887500Y-154665200D03*
D93*
X89187500Y-154665200D03*
D92*
%TO.P,U4,3,VI*%
%TO.N,+5V*%
X82887500Y-156965200D03*
%TD*%
D15*
%TO.P,D2,1,K*%
%TO.N,Net-(D2-K)*%
X73074500Y-157459200D03*
%TO.P,D2,2,A*%
%TO.N,+V_USB*%
X75124500Y-157459200D03*
%TD*%
D19*
%TO.P,R13,1*%
%TO.N,+3.3VA*%
X91387500Y-161777200D03*
%TO.P,R13,2*%
%TO.N,Net-(U6-~{RST})*%
X93387500Y-161777200D03*
%TD*%
D56*
%TO.P,R29,1*%
%TO.N,Net-(C29-Pad2)*%
X129026500Y-155824200D03*
%TO.P,R29,2*%
%TO.N,Net-(J5-Ext)*%
X129026500Y-153824200D03*
%TD*%
D33*
%TO.P,C51,1*%
%TO.N,Net-(U12-TXRX)*%
X82306500Y-122036700D03*
%TO.P,C51,2*%
%TO.N,GND*%
X82306500Y-124111700D03*
%TD*%
D23*
%TO.P,C40,1*%
%TO.N,+3V3*%
X80227500Y-129932200D03*
%TO.P,C40,2*%
%TO.N,GND*%
X78277500Y-129932200D03*
%TD*%
D33*
%TO.P,C101,1*%
%TO.N,Net-(U16-RF1)*%
X113157000Y-57636500D03*
%TO.P,C101,2*%
%TO.N,GND*%
X113157000Y-59711500D03*
%TD*%
D30*
%TO.P,C65,1*%
%TO.N,+3V3*%
X95752500Y-154591700D03*
%TO.P,C65,2*%
%TO.N,GND*%
X95752500Y-152516700D03*
%TD*%
D18*
%TO.P,L3,1,1*%
%TO.N,Net-(L2-Pad1)*%
X87640500Y-124099200D03*
%TO.P,L3,2,2*%
%TO.N,/NRF24_VDD_PA*%
X87640500Y-122049200D03*
%TD*%
D19*
%TO.P,R9,1*%
%TO.N,Net-(USB_OTG1-CC2)*%
X115707500Y-175017200D03*
%TO.P,R9,2*%
%TO.N,GND*%
X117707500Y-175017200D03*
%TD*%
D21*
%TO.P,C76,1*%
%TO.N,Net-(IC3-OSCOUT)*%
X111235000Y-152118500D03*
%TO.P,C76,2*%
%TO.N,GND*%
X113310000Y-152118500D03*
%TD*%
%TO.P,C74,1*%
%TO.N,Net-(U12-ANT)*%
X80237000Y-111136200D03*
%TO.P,C74,2*%
%TO.N,GND*%
X82312000Y-111136200D03*
%TD*%
D28*
%TO.P,R38,1*%
%TO.N,Net-(U11-RFC)*%
X85195500Y-68337200D03*
%TO.P,R38,2*%
%TO.N,Net-(C77-Pad1)*%
X83195500Y-68337200D03*
%TD*%
D22*
%TO.P,C21,1*%
%TO.N,+3V3*%
X99953500Y-91752500D03*
%TO.P,C21,2*%
%TO.N,GND*%
X99953500Y-89802500D03*
%TD*%
D25*
%TO.P,AE8,1,A*%
%TO.N,Net-(AE8-A)*%
X96123500Y-35012200D03*
D26*
%TO.P,AE8,2*%
%TO.N,N/C*%
X97623500Y-33537200D03*
D25*
X99123500Y-35012200D03*
D26*
X97623500Y-36487200D03*
%TD*%
D94*
%TO.P,ANT_SW1,1,NC*%
%TO.N,unconnected-(ANT_SW1-NC-Pad1)*%
X74653500Y-103392200D03*
D95*
%TO.P,ANT_SW1,2,IN*%
%TO.N,+3V3*%
X74653500Y-98692200D03*
%TO.P,ANT_SW1,3,OUT*%
%TO.N,/ANT_SWITCH_OUT*%
X74653500Y-93992200D03*
%TO.P,ANT_SW1,MH1,MH1*%
%TO.N,GND*%
X65123500Y-105297200D03*
%TO.P,ANT_SW1,MH2,MH2*%
X65123500Y-92087200D03*
%TD*%
D12*
%TO.P,H4,1,1*%
%TO.N,GND*%
X137473500Y-27487200D03*
X137956774Y-26320474D03*
X137956774Y-28653926D03*
X139123500Y-25837200D03*
D13*
X139123500Y-27487200D03*
D12*
X139123500Y-29137200D03*
X140290226Y-26320474D03*
X140290226Y-28653926D03*
X140773500Y-27487200D03*
%TD*%
D21*
%TO.P,C50,1*%
%TO.N,Net-(IC3-TVDD)*%
X101567000Y-161135500D03*
%TO.P,C50,2*%
%TO.N,GND*%
X103642000Y-161135500D03*
%TD*%
D14*
%TO.P,R6,1*%
%TO.N,+3V3*%
X69311500Y-135028200D03*
%TO.P,R6,2*%
%TO.N,Net-(D1-K)*%
X69311500Y-137028200D03*
%TD*%
%TO.P,R28,1*%
%TO.N,Net-(J5-In)*%
X129026500Y-149744200D03*
%TO.P,R28,2*%
%TO.N,Net-(C28-Pad1)*%
X129026500Y-151744200D03*
%TD*%
D40*
%TO.P,C20,1*%
%TO.N,/IO0*%
X116326500Y-113082200D03*
%TO.P,C20,2*%
%TO.N,GND*%
X116326500Y-115032200D03*
%TD*%
D19*
%TO.P,R41,1*%
%TO.N,Net-(Q5-B)*%
X117358500Y-133234200D03*
%TO.P,R41,2*%
%TO.N,Net-(IC4-P0.0)*%
X119358500Y-133234200D03*
%TD*%
%TO.P,R3,1*%
%TO.N,Net-(Q2-G)*%
X71121500Y-133996200D03*
%TO.P,R3,2*%
%TO.N,/GPIO18_VIBRO*%
X73121500Y-133996200D03*
%TD*%
D34*
%TO.P,U11,1,V2*%
%TO.N,+3V3*%
X87335000Y-68875000D03*
%TO.P,U11,2,V1*%
%TO.N,/GPIO10_CC1101A_CTRL*%
X87335000Y-69525000D03*
%TO.P,U11,3,RFC*%
%TO.N,Net-(U11-RFC)*%
X87335000Y-70175000D03*
%TO.P,U11,4,GND*%
%TO.N,GND*%
X87335000Y-70825000D03*
%TO.P,U11,5,RF1*%
%TO.N,Net-(U11-RF1)*%
X91735000Y-70825000D03*
%TO.P,U11,6,GND*%
%TO.N,GND*%
X91735000Y-70175000D03*
%TO.P,U11,7,GND*%
X91735000Y-69525000D03*
%TO.P,U11,8,RF2*%
%TO.N,Net-(U11-RF2)*%
X91735000Y-68875000D03*
D17*
%TO.P,U11,9,EP*%
%TO.N,GND*%
X89535000Y-69850000D03*
%TD*%
D10*
%TO.P,C52,1*%
%TO.N,Net-(IC3-AVDD)*%
X110519500Y-161389500D03*
%TO.P,C52,2*%
%TO.N,GND*%
X112469500Y-161389500D03*
%TD*%
D23*
%TO.P,C103,1*%
%TO.N,+3V3*%
X109351500Y-87895200D03*
%TO.P,C103,2*%
%TO.N,GND*%
X107401500Y-87895200D03*
%TD*%
D32*
%TO.P,C106,1*%
%TO.N,Net-(D6-K)*%
X138176000Y-103262200D03*
%TO.P,C106,2*%
%TO.N,Net-(D7-K)*%
X136101000Y-103262200D03*
%TD*%
D14*
%TO.P,R33,1*%
%TO.N,Net-(IC2-RBIAS)*%
X86989500Y-89412500D03*
%TO.P,R33,2*%
%TO.N,GND*%
X86989500Y-91412500D03*
%TD*%
D19*
%TO.P,R24,1*%
%TO.N,Net-(J3-CD{slash}DAT3)*%
X139964500Y-171334200D03*
%TO.P,R24,2*%
%TO.N,Net-(D5-K)*%
X141964500Y-171334200D03*
%TD*%
D14*
%TO.P,R42,1*%
%TO.N,Net-(IC6-GDO0_(ATEST))*%
X112135500Y-89816200D03*
%TO.P,R42,2*%
%TO.N,/GPIO11_CC1101B_GD0*%
X112135500Y-91816200D03*
%TD*%
D96*
%TO.P,U7,1*%
%TO.N,/D+*%
X112707500Y-171924200D03*
%TO.P,U7,2*%
%TO.N,/D-*%
X112207500Y-171924200D03*
D97*
%TO.P,U7,3,VSS*%
%TO.N,GND*%
X111707500Y-171961700D03*
D96*
%TO.P,U7,4*%
%TO.N,+V_USB*%
X111207500Y-171924200D03*
%TO.P,U7,5*%
%TO.N,unconnected-(U7-Pad5)*%
X110707500Y-171924200D03*
%TO.P,U7,6,NC*%
%TO.N,unconnected-(U7-NC-Pad6)*%
X110707500Y-172699200D03*
%TO.P,U7,7,NC*%
%TO.N,+V_USB*%
X111207500Y-172699200D03*
D98*
%TO.P,U7,8,VSS*%
%TO.N,GND*%
X111707500Y-172724200D03*
D96*
%TO.P,U7,9,NC*%
%TO.N,/D-*%
X112207500Y-172699200D03*
%TO.P,U7,10,NC*%
%TO.N,/D+*%
X112707500Y-172699200D03*
%TD*%
D33*
%TO.P,C34,1*%
%TO.N,Net-(C34-Pad1)*%
X122168500Y-153786700D03*
%TO.P,C34,2*%
%TO.N,Net-(C29-Pad2)*%
X122168500Y-155861700D03*
%TD*%
D58*
%TO.P,J2,1,Pin_1*%
%TO.N,/C2+*%
X108077000Y-122804000D03*
D59*
%TO.P,J2,2,Pin_2*%
%TO.N,/C2-*%
X108077000Y-125344000D03*
%TD*%
D16*
%TO.P,U18,1,V2*%
%TO.N,+3V3*%
X112776000Y-39157000D03*
%TO.P,U18,2,V1*%
%TO.N,/ANT_SWITCH_OUT*%
X113426000Y-39157000D03*
%TO.P,U18,3,RFC*%
%TO.N,/NRF24_ANT_OUT*%
X114076000Y-39157000D03*
%TO.P,U18,4,GND*%
%TO.N,GND*%
X114726000Y-39157000D03*
%TO.P,U18,5,RF1*%
%TO.N,Net-(AE6-A)*%
X114726000Y-34757000D03*
%TO.P,U18,6,GND*%
%TO.N,GND*%
X114076000Y-34757000D03*
%TO.P,U18,7,GND*%
X113426000Y-34757000D03*
%TO.P,U18,8,RF2*%
%TO.N,Net-(AE5-A)*%
X112776000Y-34757000D03*
D17*
%TO.P,U18,9,EP*%
%TO.N,GND*%
X113751000Y-36957000D03*
%TD*%
D15*
%TO.P,L14,1,1*%
%TO.N,Net-(U12-ANT)*%
X80249500Y-109104200D03*
%TO.P,L14,2,2*%
%TO.N,Net-(C78-Pad1)*%
X82299500Y-109104200D03*
%TD*%
D22*
%TO.P,C64,1*%
%TO.N,+3V3*%
X75940500Y-118969200D03*
%TO.P,C64,2*%
%TO.N,GND*%
X75940500Y-117019200D03*
%TD*%
D30*
%TO.P,C30,1*%
%TO.N,Net-(C28-Pad1)*%
X124454500Y-151781700D03*
%TO.P,C30,2*%
%TO.N,GND*%
X124454500Y-149706700D03*
%TD*%
D99*
%TO.P,U8,1,VCC*%
%TO.N,+3V3*%
X127381000Y-165989000D03*
%TO.P,U8,2*%
%TO.N,Net-(J3-CLK)*%
X128651000Y-165989000D03*
%TO.P,U8,3*%
%TO.N,/GPIO39_HSPI_SCK*%
X129921000Y-165989000D03*
%TO.P,U8,4*%
%TO.N,Net-(J3-CMD)*%
X131191000Y-165989000D03*
%TO.P,U8,5*%
%TO.N,/GPIO40_HSPI_MOSI*%
X132461000Y-165989000D03*
%TO.P,U8,6*%
%TO.N,Net-(J3-CD{slash}DAT3)*%
X133731000Y-165989000D03*
%TO.P,U8,7*%
%TO.N,/GPIO42_SD_CARD_CS*%
X135001000Y-165989000D03*
%TO.P,U8,8,VSS*%
%TO.N,GND*%
X136271000Y-165989000D03*
%TO.P,U8,9*%
%TO.N,/GPIO39_HSPI_SCK*%
X136271000Y-161039000D03*
%TO.P,U8,10*%
%TO.N,Net-(D5-A)*%
X135001000Y-161039000D03*
%TO.P,U8,11*%
%TO.N,GND*%
X133731000Y-161039000D03*
%TO.P,U8,12*%
%TO.N,unconnected-(U8-Pad12)*%
X132461000Y-161039000D03*
%TO.P,U8,13*%
%TO.N,N/C*%
X131191000Y-161039000D03*
%TO.P,U8,14*%
%TO.N,GND*%
X129921000Y-161039000D03*
%TO.P,U8,15*%
%TO.N,unconnected-(U8-Pad15)*%
X128651000Y-161039000D03*
%TO.P,U8,16*%
%TO.N,N/C*%
X127381000Y-161039000D03*
%TD*%
D23*
%TO.P,C109,1*%
%TO.N,+3V3*%
X109224500Y-83069200D03*
%TO.P,C109,2*%
%TO.N,GND*%
X107274500Y-83069200D03*
%TD*%
D32*
%TO.P,C79,1*%
%TO.N,Net-(C78-Pad1)*%
X82312000Y-105040200D03*
%TO.P,C79,2*%
%TO.N,GND*%
X80237000Y-105040200D03*
%TD*%
D30*
%TO.P,C107,1*%
%TO.N,Net-(IC6-RF_N)*%
X110611500Y-77629700D03*
%TO.P,C107,2*%
%TO.N,Net-(FL2-BAL_1)*%
X110611500Y-75554700D03*
%TD*%
D33*
%TO.P,C27,1*%
%TO.N,Net-(IC2-XOSC_Q2)*%
X98419500Y-78708200D03*
%TO.P,C27,2*%
%TO.N,GND*%
X98419500Y-80783200D03*
%TD*%
D19*
%TO.P,R37,1*%
%TO.N,Net-(U12-RXEN)*%
X85608500Y-115962200D03*
%TO.P,R37,2*%
%TO.N,GND*%
X87608500Y-115962200D03*
%TD*%
D33*
%TO.P,C96,1*%
%TO.N,Net-(C96-Pad1)*%
X122301000Y-59287500D03*
%TO.P,C96,2*%
%TO.N,GND*%
X122301000Y-61362500D03*
%TD*%
D91*
%TO.P,U3,1,IN*%
%TO.N,Net-(PWR_SW1-OUT)*%
X74861500Y-177271200D03*
%TO.P,U3,2,GND*%
%TO.N,GND*%
X74861500Y-178221200D03*
%TO.P,U3,3,EN*%
%TO.N,Net-(U3-EN)*%
X74861500Y-179171200D03*
%TO.P,U3,4,NC*%
%TO.N,unconnected-(U3-NC-Pad4)*%
X77136500Y-179171200D03*
%TO.P,U3,5,OUT*%
%TO.N,Net-(IC1-VIN)*%
X77136500Y-177271200D03*
%TD*%
D30*
%TO.P,C59,1*%
%TO.N,+3V3*%
X93720500Y-154591700D03*
%TO.P,C59,2*%
%TO.N,GND*%
X93720500Y-152516700D03*
%TD*%
D11*
%TO.P,TP4,1,1*%
%TO.N,Net-(C33-Pad2)*%
X122168500Y-146955700D03*
%TD*%
D40*
%TO.P,C122,1*%
%TO.N,+3V3*%
X91059000Y-42078000D03*
%TO.P,C122,2*%
%TO.N,GND*%
X91059000Y-44028000D03*
%TD*%
D22*
%TO.P,C18,1*%
%TO.N,+3V3*%
X121882500Y-181580200D03*
%TO.P,C18,2*%
%TO.N,GND*%
X121882500Y-179630200D03*
%TD*%
D100*
%TO.P,C95,1*%
%TO.N,Net-(IC5-NC_(SOURCE2))*%
X133344500Y-126337700D03*
%TO.P,C95,2*%
%TO.N,GND*%
X133344500Y-129462700D03*
%TD*%
D28*
%TO.P,R11,1*%
%TO.N,Net-(USB_OTG1-CC1)*%
X108198500Y-175017200D03*
%TO.P,R11,2*%
%TO.N,GND*%
X106198500Y-175017200D03*
%TD*%
D30*
%TO.P,C63,1*%
%TO.N,Net-(IC2-RF_P)*%
X84576500Y-81715200D03*
%TO.P,C63,2*%
%TO.N,Net-(FL1-BAL_2)*%
X84576500Y-79640200D03*
%TD*%
D19*
%TO.P,R56,1*%
%TO.N,Net-(U19B--)*%
X128026500Y-116470200D03*
%TO.P,R56,2*%
%TO.N,GND*%
X130026500Y-116470200D03*
%TD*%
D28*
%TO.P,R48,1*%
%TO.N,Net-(D6-K)*%
X138138500Y-108342200D03*
%TO.P,R48,2*%
%TO.N,GND*%
X136138500Y-108342200D03*
%TD*%
D58*
%TO.P,J6,1,Pin_1*%
%TO.N,Net-(IC5-COM)*%
X139440500Y-122063200D03*
D59*
%TO.P,J6,2,Pin_2*%
%TO.N,Net-(IC7-COM)*%
X139440500Y-119523200D03*
%TD*%
D33*
%TO.P,C31,1*%
%TO.N,GND*%
X124454500Y-153786700D03*
%TO.P,C31,2*%
%TO.N,Net-(C29-Pad2)*%
X124454500Y-155861700D03*
%TD*%
D43*
%TO.P,J8,1,Pin_1*%
%TO.N,GND*%
X92958500Y-94372200D03*
D44*
%TO.P,J8,2,Pin_2*%
%TO.N,+3V3*%
X92958500Y-95642200D03*
%TO.P,J8,3,Pin_3*%
%TO.N,/EN{slash}RESET*%
X92958500Y-96912200D03*
%TO.P,J8,4,Pin_4*%
%TO.N,/GPIO4_ADC1_3_BAT\u0025*%
X92958500Y-98182200D03*
%TO.P,J8,5,Pin_5*%
%TO.N,/GPIO5_NRF24_CE*%
X92958500Y-99452200D03*
%TO.P,J8,6,Pin_6*%
%TO.N,/GPIO6_NRF24_CSN*%
X92958500Y-100722200D03*
%TO.P,J8,7,Pin_7*%
%TO.N,/GPIO7_NRF24_IRQ*%
X92958500Y-101992200D03*
%TO.P,J8,8,Pin_8*%
%TO.N,/GPIO15_VSPI_MISO*%
X92958500Y-103262200D03*
%TO.P,J8,9,Pin_9*%
%TO.N,/GPIO16_VSPI_MOSI*%
X92958500Y-104532200D03*
%TO.P,J8,10,Pin_10*%
%TO.N,/GPIO17_VSPI_SCK*%
X92958500Y-105802200D03*
%TO.P,J8,11,Pin_11*%
%TO.N,/GPIO18_VIBRO*%
X92958500Y-107072200D03*
%TO.P,J8,12,Pin_12*%
%TO.N,/GPIO8_CC1101A_CS*%
X92958500Y-108342200D03*
%TO.P,J8,13,Pin_13*%
%TO.N,/D-*%
X92958500Y-109612200D03*
%TO.P,J8,14,Pin_14*%
%TO.N,/D+*%
X92958500Y-110882200D03*
%TD*%
D101*
%TO.P,FB4,1*%
%TO.N,Net-(Q5-C)*%
X125216500Y-128496200D03*
%TO.P,FB4,2*%
%TO.N,+5V*%
X125216500Y-126796200D03*
%TD*%
D36*
%TO.P,IC2,1,SCLK*%
%TO.N,/GPIO39_HSPI_SCK*%
X90413500Y-86482200D03*
%TO.P,IC2,2,SO_(GDO1)*%
%TO.N,/GPIO41_HSPI_MISO*%
X90413500Y-85982200D03*
%TO.P,IC2,3,GDO2*%
%TO.N,unconnected-(IC2-GDO2-Pad3)*%
X90413500Y-85482200D03*
%TO.P,IC2,4,DVDD*%
%TO.N,+3V3*%
X90413500Y-84982200D03*
%TO.P,IC2,5,DCOUPL*%
%TO.N,Net-(IC2-DCOUPL)*%
X90413500Y-84482200D03*
D37*
%TO.P,IC2,6,GDO0_(ATEST)*%
%TO.N,Net-(IC2-GDO0_(ATEST))*%
X89513500Y-83582200D03*
%TO.P,IC2,7,CSN*%
%TO.N,/GPIO8_CC1101A_CS*%
X89013500Y-83582200D03*
%TO.P,IC2,8,XOSC_Q1*%
%TO.N,Net-(IC2-XOSC_Q1)*%
X88513500Y-83582200D03*
%TO.P,IC2,9,AVDD_1*%
%TO.N,+3V3*%
X88013500Y-83582200D03*
%TO.P,IC2,10,XOSC_Q2*%
%TO.N,Net-(IC2-XOSC_Q2)*%
X87513500Y-83582200D03*
D36*
%TO.P,IC2,11,AVDD_2*%
%TO.N,+3V3*%
X86613500Y-84482200D03*
%TO.P,IC2,12,RF_P*%
%TO.N,Net-(IC2-RF_P)*%
X86613500Y-84982200D03*
%TO.P,IC2,13,RF_N*%
%TO.N,Net-(IC2-RF_N)*%
X86613500Y-85482200D03*
%TO.P,IC2,14,AVDD_3*%
%TO.N,+3V3*%
X86613500Y-85982200D03*
%TO.P,IC2,15,AVDD_4*%
X86613500Y-86482200D03*
D37*
%TO.P,IC2,16,GND_1*%
%TO.N,GND*%
X87513500Y-87382200D03*
%TO.P,IC2,17,RBIAS*%
%TO.N,Net-(IC2-RBIAS)*%
X88013500Y-87382200D03*
%TO.P,IC2,18,DGUARD*%
%TO.N,+3V3*%
X88513500Y-87382200D03*
%TO.P,IC2,19,GND_2*%
%TO.N,GND*%
X89013500Y-87382200D03*
%TO.P,IC2,20,SI*%
%TO.N,/GPIO40_HSPI_MOSI*%
X89513500Y-87382200D03*
D38*
%TO.P,IC2,21,GND_3(EPAD)*%
%TO.N,GND*%
X89275500Y-86244200D03*
X89275500Y-85482200D03*
X89275500Y-84720200D03*
X88513500Y-86244200D03*
X88513500Y-85482200D03*
D39*
X88513500Y-85482200D03*
D38*
X88513500Y-84720200D03*
X87751500Y-86244200D03*
X87751500Y-85482200D03*
X87751500Y-84720200D03*
%TD*%
D21*
%TO.P,C55,1*%
%TO.N,Net-(IC3-TVDD)*%
X101567000Y-158976500D03*
%TO.P,C55,2*%
%TO.N,GND*%
X103642000Y-158976500D03*
%TD*%
D34*
%TO.P,U15,1,V2*%
%TO.N,+3V3*%
X86147000Y-50886000D03*
%TO.P,U15,2,V1*%
%TO.N,/ANT_SWITCH_OUT*%
X86147000Y-50236000D03*
%TO.P,U15,3,RFC*%
%TO.N,/CC1101A_ANT_OUT*%
X86147000Y-49586000D03*
%TO.P,U15,4,GND*%
%TO.N,GND*%
X86147000Y-48936000D03*
%TO.P,U15,5,RF1*%
%TO.N,Net-(AE2-A)*%
X81747000Y-48936000D03*
%TO.P,U15,6,GND*%
%TO.N,GND*%
X81747000Y-49586000D03*
%TO.P,U15,7,GND*%
X81747000Y-50236000D03*
%TO.P,U15,8,RF2*%
%TO.N,Net-(AE1-A)*%
X81747000Y-50886000D03*
D17*
%TO.P,U15,9,EP*%
%TO.N,GND*%
X83947000Y-49911000D03*
%TD*%
D40*
%TO.P,C19,1*%
%TO.N,/EN{slash}RESET*%
X88904500Y-98709700D03*
%TO.P,C19,2*%
%TO.N,GND*%
X88904500Y-100659700D03*
%TD*%
D102*
%TO.P,U12,1,NC*%
%TO.N,unconnected-(U12-NC-Pad1)*%
X79266499Y-119365800D03*
%TO.P,U12,2,GND*%
%TO.N,GND*%
X79766500Y-119365800D03*
%TO.P,U12,3,GND*%
X80266500Y-119365800D03*
%TO.P,U12,4,TXRX*%
%TO.N,Net-(U12-TXRX)*%
X80766501Y-119365800D03*
D103*
%TO.P,U12,5,TXEN*%
%TO.N,Net-(U12-TXEN)*%
X81464300Y-118668001D03*
%TO.P,U12,6,RXEN*%
%TO.N,Net-(U12-RXEN)*%
X81464300Y-118168000D03*
%TO.P,U12,7,NC*%
%TO.N,unconnected-(U12-NC-Pad7)*%
X81464300Y-117668000D03*
%TO.P,U12,8,GND*%
%TO.N,GND*%
X81464300Y-117167999D03*
D102*
%TO.P,U12,9,GND*%
X80766501Y-116470200D03*
%TO.P,U12,10,ANT*%
%TO.N,Net-(U12-ANT)*%
X80266500Y-116470200D03*
%TO.P,U12,11,GND*%
%TO.N,GND*%
X79766500Y-116470200D03*
%TO.P,U12,12,NC*%
%TO.N,unconnected-(U12-NC-Pad12)*%
X79266499Y-116470200D03*
D103*
%TO.P,U12,13,DNC*%
%TO.N,unconnected-(U12-DNC-Pad13)*%
X78568700Y-117167999D03*
%TO.P,U12,14,VDD*%
%TO.N,+3V3*%
X78568700Y-117668000D03*
%TO.P,U12,15,NC*%
%TO.N,unconnected-(U12-NC-Pad15)*%
X78568700Y-118168000D03*
%TO.P,U12,16,VDD*%
%TO.N,+3V3*%
X78568700Y-118668001D03*
D38*
%TO.P,U12,17,GND*%
%TO.N,GND*%
X79508500Y-118426000D03*
X80524500Y-118426000D03*
X80016500Y-117918000D03*
D104*
X80016500Y-117918000D03*
D38*
X79508500Y-117410000D03*
X80524500Y-117410000D03*
%TD*%
D33*
%TO.P,C113,1*%
%TO.N,Net-(C113-Pad1)*%
X117215500Y-71236700D03*
%TO.P,C113,2*%
%TO.N,GND*%
X117215500Y-73311700D03*
%TD*%
D14*
%TO.P,R32,1*%
%TO.N,Net-(C34-Pad1)*%
X115310500Y-158650200D03*
%TO.P,R32,2*%
%TO.N,Net-(C57-Pad1)*%
X115310500Y-160650200D03*
%TD*%
%TO.P,R22,1*%
%TO.N,Net-(D4-K)*%
X136900500Y-128543200D03*
%TO.P,R22,2*%
%TO.N,Net-(Q4-C-Pad2)*%
X136900500Y-130543200D03*
%TD*%
D19*
%TO.P,R46,1*%
%TO.N,Net-(D6-A)*%
X136138500Y-112406200D03*
%TO.P,R46,2*%
%TO.N,Net-(IC7-NO_(SOURCE1))*%
X138138500Y-112406200D03*
%TD*%
D10*
%TO.P,C114,1*%
%TO.N,+3V3*%
X115103000Y-51435000D03*
%TO.P,C114,2*%
%TO.N,GND*%
X117053000Y-51435000D03*
%TD*%
D19*
%TO.P,R30,1*%
%TO.N,Net-(IC2-GDO0_(ATEST))*%
X92990500Y-86498200D03*
%TO.P,R30,2*%
%TO.N,/GPIO9_CC1101A_GD0*%
X94990500Y-86498200D03*
%TD*%
D28*
%TO.P,R25,1*%
%TO.N,Net-(U10-IREF)*%
X80252500Y-131964200D03*
%TO.P,R25,2*%
%TO.N,GND*%
X78252500Y-131964200D03*
%TD*%
D23*
%TO.P,C41,1*%
%TO.N,+3V3*%
X80227500Y-127900200D03*
%TO.P,C41,2*%
%TO.N,GND*%
X78277500Y-127900200D03*
%TD*%
D19*
%TO.P,R5,1*%
%TO.N,Net-(USB_UART1-CC2)*%
X98054500Y-175017200D03*
%TO.P,R5,2*%
%TO.N,GND*%
X100054500Y-175017200D03*
%TD*%
D16*
%TO.P,U20,1,V2*%
%TO.N,+3V3*%
X91100000Y-39919000D03*
%TO.P,U20,2,V1*%
%TO.N,/ANT_SWITCH_OUT*%
X91750000Y-39919000D03*
%TO.P,U20,3,RFC*%
%TO.N,Net-(J7-In)*%
X92400000Y-39919000D03*
%TO.P,U20,4,GND*%
%TO.N,GND*%
X93050000Y-39919000D03*
%TO.P,U20,5,RF1*%
%TO.N,Net-(AE8-A)*%
X93050000Y-35519000D03*
%TO.P,U20,6,GND*%
%TO.N,GND*%
X92400000Y-35519000D03*
%TO.P,U20,7,GND*%
X91750000Y-35519000D03*
%TO.P,U20,8,RF2*%
%TO.N,Net-(AE7-A)*%
X91100000Y-35519000D03*
D17*
%TO.P,U20,9,EP*%
%TO.N,GND*%
X92075000Y-37719000D03*
%TD*%
D15*
%TO.P,L23,1,1*%
%TO.N,Net-(FL2-UNBAL)*%
X113142500Y-71258200D03*
%TO.P,L23,2,2*%
%TO.N,Net-(C113-Pad1)*%
X115192500Y-71258200D03*
%TD*%
D14*
%TO.P,R10,1*%
%TO.N,Net-(U1-STAT)*%
X75178500Y-152316200D03*
%TO.P,R10,2*%
%TO.N,Net-(D2-K)*%
X75178500Y-154316200D03*
%TD*%
D35*
%TO.P,D9,1,K*%
%TO.N,Net-(D9-K)*%
X70488500Y-107707200D03*
%TO.P,D9,2,A*%
%TO.N,/ANT_SWITCH_OUT*%
X68438500Y-107707200D03*
%TD*%
D10*
%TO.P,C105,1*%
%TO.N,+3V3*%
X123485000Y-37338000D03*
%TO.P,C105,2*%
%TO.N,GND*%
X125435000Y-37338000D03*
%TD*%
D105*
%TO.P,Q2,1,G*%
%TO.N,Net-(Q2-G)*%
X71155500Y-137903200D03*
%TO.P,Q2,2,S*%
%TO.N,GND*%
X73055500Y-137903200D03*
%TO.P,Q2,3,D*%
%TO.N,Net-(D1-A)*%
X72105500Y-136028200D03*
%TD*%
D15*
%TO.P,L12,1,1*%
%TO.N,Net-(FL1-UNBAL)*%
X83179500Y-74433200D03*
%TO.P,L12,2,2*%
%TO.N,Net-(C71-Pad1)*%
X85229500Y-74433200D03*
%TD*%
D21*
%TO.P,C83,1*%
%TO.N,+3V3*%
X102843000Y-147966200D03*
%TO.P,C83,2*%
%TO.N,GND*%
X104918000Y-147966200D03*
%TD*%
D106*
%TO.P,U9,1,GND*%
%TO.N,GND*%
X95897500Y-94315200D03*
%TO.P,U9,2,3V3*%
%TO.N,+3V3*%
X95897500Y-95585200D03*
%TO.P,U9,3,EN*%
%TO.N,/EN{slash}RESET*%
X95897500Y-96855200D03*
%TO.P,U9,4,IO4*%
%TO.N,/GPIO4_ADC1_3_BAT\u0025*%
X95897500Y-98125200D03*
%TO.P,U9,5,IO5*%
%TO.N,/GPIO5_NRF24_CE*%
X95897500Y-99395200D03*
%TO.P,U9,6,IO6*%
%TO.N,/GPIO6_NRF24_CSN*%
X95897500Y-100665200D03*
%TO.P,U9,7,IO7*%
%TO.N,/GPIO7_NRF24_IRQ*%
X95897500Y-101935200D03*
%TO.P,U9,8,IO15*%
%TO.N,/GPIO15_VSPI_MISO*%
X95897500Y-103205200D03*
%TO.P,U9,9,IO16*%
%TO.N,/GPIO16_VSPI_MOSI*%
X95897500Y-104475200D03*
%TO.P,U9,10,IO17*%
%TO.N,/GPIO17_VSPI_SCK*%
X95897500Y-105745200D03*
%TO.P,U9,11,IO18*%
%TO.N,/GPIO18_VIBRO*%
X95897500Y-107015200D03*
%TO.P,U9,12,IO8*%
%TO.N,/GPIO8_CC1101A_CS*%
X95897500Y-108285200D03*
%TO.P,U9,13,IO19*%
%TO.N,/D-*%
X95897500Y-109555200D03*
%TO.P,U9,14,IO20*%
%TO.N,/D+*%
X95897500Y-110825200D03*
D107*
%TO.P,U9,15,IO3*%
%TO.N,/GPIO3_CC1101B_CS*%
X97662500Y-112075202D03*
%TO.P,U9,16,IO46*%
%TO.N,/ESP32_PIN16_DNC*%
X98932500Y-112075202D03*
%TO.P,U9,17,IO9*%
%TO.N,/GPIO9_CC1101A_GD0*%
X100202500Y-112075202D03*
%TO.P,U9,18,IO10*%
%TO.N,/GPIO10_CC1101A_CTRL*%
X101472500Y-112075202D03*
%TO.P,U9,19,IO11*%
%TO.N,/GPIO11_CC1101B_GD0*%
X102742500Y-112075202D03*
%TO.P,U9,20,IO12*%
%TO.N,/GPIO12_CC1101B_CTRL*%
X104012500Y-112075202D03*
%TO.P,U9,21,IO13*%
%TO.N,/GPIO13_RDM630_CTRL*%
X105282500Y-112075202D03*
%TO.P,U9,22,IO14*%
%TO.N,/GPIO14_RDM630_TX*%
X106552500Y-112075202D03*
%TO.P,U9,23,IO21*%
%TO.N,/GPIO21_RDM630_RX*%
X107822500Y-112075202D03*
%TO.P,U9,24,IO47*%
%TO.N,/GPIO47_RDM630_EMULATION*%
X109092500Y-112075202D03*
%TO.P,U9,25,IO48*%
%TO.N,/GPIO48_PN532_CS*%
X110362500Y-112075202D03*
%TO.P,U9,26,IO45*%
%TO.N,/ESP32_PIN26_DNC*%
X111632500Y-112075202D03*
D106*
%TO.P,U9,27,IO0*%
%TO.N,/IO0*%
X113397500Y-110825200D03*
%TO.P,U9,28,IO35*%
%TO.N,/GPIO35_SCREEN_T_IRQ*%
X113397500Y-109555200D03*
%TO.P,U9,29,IO36*%
%TO.N,/GPIO36_SCREEN_T_CS*%
X113397500Y-108285200D03*
%TO.P,U9,30,IO37*%
%TO.N,/GPIO37_IR_RECEIVER*%
X113397500Y-107015200D03*
%TO.P,U9,31,IO38*%
%TO.N,/GPIO38_IR_LED*%
X113397500Y-105745200D03*
%TO.P,U9,32,IO39*%
%TO.N,/GPIO39_HSPI_SCK*%
X113397500Y-104475200D03*
%TO.P,U9,33,IO40*%
%TO.N,/GPIO40_HSPI_MOSI*%
X113397500Y-103205200D03*
%TO.P,U9,34,IO41*%
%TO.N,/GPIO41_HSPI_MISO*%
X113397500Y-101935200D03*
%TO.P,U9,35,IO42*%
%TO.N,/GPIO42_SD_CARD_CS*%
X113397500Y-100665200D03*
%TO.P,U9,36,RXD0*%
%TO.N,/RX*%
X113397500Y-99395200D03*
%TO.P,U9,37,TXD0*%
%TO.N,/TX*%
X113397500Y-98125200D03*
%TO.P,U9,38,IO2*%
%TO.N,/GPIO2_SCREEN_D{slash}C*%
X113397500Y-96855200D03*
%TO.P,U9,39,IO1*%
%TO.N,/GPIO1_SCREEN_CS*%
X113397500Y-95585200D03*
%TO.P,U9,40,GND*%
%TO.N,GND*%
X113397500Y-94315200D03*
D38*
%TO.P,U9,41,GND*%
X103147500Y-102035200D03*
D108*
X103147500Y-102035200D03*
D38*
%TO.P,U9,42,GND*%
X101747500Y-100635200D03*
D108*
X101747500Y-100635200D03*
D38*
%TO.P,U9,43,GND*%
X101747500Y-102035200D03*
D108*
X101747500Y-102035200D03*
D38*
%TO.P,U9,44,GND*%
X101747500Y-103435200D03*
D108*
X101747500Y-103435200D03*
D38*
%TO.P,U9,45,GND*%
X103147500Y-103435200D03*
D108*
X103147500Y-103435200D03*
D38*
%TO.P,U9,46,GND*%
X104547500Y-103435200D03*
D108*
X104547500Y-103435200D03*
D38*
%TO.P,U9,47,GND*%
X104547500Y-102035200D03*
D108*
X104547500Y-102035200D03*
D38*
%TO.P,U9,48,GND*%
X104547500Y-100635200D03*
D108*
X104547500Y-100635200D03*
D38*
%TO.P,U9,49,GND*%
X103147500Y-100635200D03*
D108*
X103147500Y-100635200D03*
%TD*%
D30*
%TO.P,C37,1*%
%TO.N,GND*%
X119882500Y-155861700D03*
%TO.P,C37,2*%
%TO.N,Net-(C34-Pad1)*%
X119882500Y-153786700D03*
%TD*%
D10*
%TO.P,C112,1*%
%TO.N,+3V3*%
X116209500Y-82180200D03*
%TO.P,C112,2*%
%TO.N,GND*%
X118159500Y-82180200D03*
%TD*%
D15*
%TO.P,D7,1,K*%
%TO.N,Net-(D7-K)*%
X136113500Y-100976200D03*
%TO.P,D7,2,A*%
%TO.N,GND*%
X138163500Y-100976200D03*
%TD*%
D94*
%TO.P,PWR_SW1,1,NC*%
%TO.N,unconnected-(PWR_SW1-NC-Pad1)*%
X74623500Y-169987200D03*
D95*
%TO.P,PWR_SW1,2,IN*%
%TO.N,+V_BAT*%
X74623500Y-165287200D03*
%TO.P,PWR_SW1,3,OUT*%
%TO.N,Net-(PWR_SW1-OUT)*%
X74623500Y-160587200D03*
%TO.P,PWR_SW1,MH1,MH1*%
%TO.N,GND*%
X65093500Y-171892200D03*
%TO.P,PWR_SW1,MH2,MH2*%
X65093500Y-158682200D03*
%TD*%
D32*
%TO.P,C73,1*%
%TO.N,GND*%
X113288500Y-154404500D03*
%TO.P,C73,2*%
%TO.N,Net-(IC3-OSCIN)*%
X111213500Y-154404500D03*
%TD*%
D28*
%TO.P,R8,1*%
%TO.N,Net-(USB_UART1-CC1)*%
X90656500Y-175017200D03*
%TO.P,R8,2*%
%TO.N,GND*%
X88656500Y-175017200D03*
%TD*%
D43*
%TO.P,J9,1,Pin_1*%
%TO.N,/GPIO3_CC1101B_CS*%
X97784500Y-114692200D03*
D44*
%TO.P,J9,2,Pin_2*%
%TO.N,/ESP32_PIN16_DNC*%
X99054500Y-114692200D03*
%TO.P,J9,3,Pin_3*%
%TO.N,/GPIO9_CC1101A_GD0*%
X100324500Y-114692200D03*
%TO.P,J9,4,Pin_4*%
%TO.N,/GPIO10_CC1101A_CTRL*%
X101594500Y-114692200D03*
%TO.P,J9,5,Pin_5*%
%TO.N,/GPIO11_CC1101B_GD0*%
X102864500Y-114692200D03*
%TO.P,J9,6,Pin_6*%
%TO.N,/GPIO12_CC1101B_CTRL*%
X104134500Y-114692200D03*
%TO.P,J9,7,Pin_7*%
%TO.N,/GPIO13_RDM630_CTRL*%
X105404500Y-114692200D03*
%TO.P,J9,8,Pin_8*%
%TO.N,/GPIO14_RDM630_TX*%
X106674500Y-114692200D03*
%TO.P,J9,9,Pin_9*%
%TO.N,/GPIO21_RDM630_RX*%
X107944500Y-114692200D03*
%TO.P,J9,10,Pin_10*%
%TO.N,/GPIO47_RDM630_EMULATION*%
X109214500Y-114692200D03*
%TO.P,J9,11,Pin_11*%
%TO.N,/GPIO48_PN532_CS*%
X110484500Y-114692200D03*
%TO.P,J9,12,Pin_12*%
%TO.N,/ESP32_PIN26_DNC*%
X111754500Y-114692200D03*
%TD*%
D22*
%TO.P,C10,1*%
%TO.N,+V_BAT*%
X82481500Y-149819700D03*
%TO.P,C10,2*%
%TO.N,GND*%
X82481500Y-147869700D03*
%TD*%
D56*
%TO.P,R7,1*%
%TO.N,Net-(U3-EN)*%
X72697000Y-179221200D03*
%TO.P,R7,2*%
%TO.N,Net-(PWR_SW1-OUT)*%
X72697000Y-177221200D03*
%TD*%
D33*
%TO.P,C71,1*%
%TO.N,Net-(C71-Pad1)*%
X87116500Y-74433200D03*
%TO.P,C71,2*%
%TO.N,GND*%
X87116500Y-76508200D03*
%TD*%
D92*
%TO.P,Q4,1,B*%
%TO.N,Net-(Q4-B)*%
X130448500Y-133728200D03*
%TO.P,Q4,2,C*%
%TO.N,Net-(Q4-C-Pad2)*%
X130448500Y-136028200D03*
D93*
X136748500Y-136028200D03*
D92*
%TO.P,Q4,3,E*%
%TO.N,GND*%
X130448500Y-138328200D03*
%TD*%
D19*
%TO.P,R58,1*%
%TO.N,/RDM630_SIN*%
X128010500Y-111952200D03*
%TO.P,R58,2*%
%TO.N,GND*%
X130010500Y-111952200D03*
%TD*%
D109*
%TO.P,CR1,1*%
%TO.N,+5V*%
X80690800Y-160253200D03*
%TO.P,CR1,2*%
%TO.N,+V_USB*%
X83764200Y-160253200D03*
%TD*%
D67*
%TO.P,FL1,1,UNBAL*%
%TO.N,Net-(FL1-UNBAL)*%
X83179500Y-76313200D03*
%TO.P,FL1,2,GND*%
%TO.N,GND*%
X83179500Y-76973200D03*
%TO.P,FL1,3,BAL_1*%
%TO.N,Net-(FL1-BAL_1)*%
X83179500Y-77633200D03*
%TO.P,FL1,4,BAL_2*%
%TO.N,Net-(FL1-BAL_2)*%
X84169500Y-77633200D03*
%TO.P,FL1,5,DNC*%
%TO.N,unconnected-(FL1-DNC-Pad5)*%
X84169500Y-76973200D03*
%TO.P,FL1,6,NC*%
%TO.N,unconnected-(FL1-NC-Pad6)*%
X84169500Y-76313200D03*
%TD*%
D21*
%TO.P,C61,1*%
%TO.N,Net-(IC2-RF_N)*%
X82396000Y-83704200D03*
%TO.P,C61,2*%
%TO.N,Net-(IC2-RF_P)*%
X84471000Y-83704200D03*
%TD*%
D29*
%TO.P,L2,1,1*%
%TO.N,Net-(L2-Pad1)*%
X87640500Y-125859200D03*
%TO.P,L2,2,2*%
%TO.N,Net-(U10-ANT1)*%
X87640500Y-127909200D03*
%TD*%
D77*
%TO.P,AE5,1,A*%
%TO.N,Net-(AE5-A)*%
X112123500Y-26557200D03*
D78*
%TO.P,AE5,2*%
%TO.N,N/C*%
X116503500Y-26557200D03*
X107743500Y-26557200D03*
D79*
X116503500Y-29547200D03*
X107743500Y-29547200D03*
D80*
X116503500Y-29997200D03*
X107743500Y-29997200D03*
%TD*%
D110*
%TO.N,GND*%
X79941500Y-154897500D03*
X121047500Y-92340200D03*
X91974000Y-129932500D03*
X87761500Y-79261500D03*
X78215000Y-133996500D03*
X69606500Y-144410500D03*
X117707500Y-175017500D03*
X108794000Y-39243000D03*
X112531500Y-161389500D03*
X105647500Y-161135500D03*
X87116500Y-76508200D03*
X83697500Y-128623500D03*
X107401500Y-87895200D03*
X74654500Y-107707500D03*
X136138500Y-96912500D03*
X137773500Y-182466000D03*
X128223500Y-103262500D03*
X80237000Y-107072500D03*
X113665000Y-32766000D03*
X82173500Y-134465500D03*
X113030000Y-49034500D03*
X100054500Y-175017500D03*
X113751000Y-36957000D03*
X81719500Y-179324500D03*
X90805000Y-67437000D03*
X87540000Y-169905500D03*
X87540000Y-161777500D03*
X133344500Y-111605500D03*
X73105500Y-140092500D03*
X86233000Y-54696000D03*
X86989500Y-91412500D03*
X131312500Y-151728500D03*
X87540000Y-163809500D03*
X78215000Y-129932500D03*
X104917500Y-147966500D03*
X82341500Y-90015500D03*
X124835500Y-89567700D03*
X119882500Y-151781500D03*
X107389500Y-165707500D03*
X124454500Y-153786500D03*
X82312000Y-100976500D03*
X84513500Y-165565500D03*
X122301000Y-61362500D03*
X124454500Y-149749500D03*
X85233000Y-70369200D03*
X83947000Y-49911000D03*
X75940500Y-123095500D03*
X77909500Y-154897500D03*
X84513500Y-179287500D03*
X113157000Y-59711500D03*
X97921500Y-89802500D03*
X116326500Y-115032500D03*
X83189500Y-174724500D03*
X124079000Y-40259000D03*
X133731000Y-161039000D03*
X119761000Y-57425500D03*
X136101500Y-94372200D03*
X129921000Y-161039000D03*
X94492500Y-174089500D03*
X111246500Y-125319200D03*
X125435000Y-37338000D03*
X89402500Y-91498500D03*
X126740500Y-149749500D03*
X90418500Y-79261500D03*
X84513500Y-169375500D03*
X129301500Y-126630500D03*
X98419500Y-80783200D03*
X95805500Y-80917200D03*
X117053000Y-51435000D03*
X87116500Y-64910500D03*
X98578000Y-134250500D03*
X113397500Y-94315200D03*
X82887500Y-152365500D03*
X91053500Y-177342500D03*
X113157000Y-125319200D03*
X89085500Y-147045500D03*
X73055500Y-137903500D03*
X103641500Y-161135500D03*
X138175500Y-114692500D03*
X111039000Y-61849000D03*
X97553500Y-177342500D03*
X119882500Y-146955500D03*
X82312000Y-113168500D03*
X93615000Y-51319200D03*
X118159500Y-82180200D03*
X81665500Y-131417500D03*
X119882500Y-179630500D03*
X124623500Y-181466000D03*
X127613500Y-179066000D03*
X87608500Y-115962500D03*
X128285500Y-100468500D03*
X107274500Y-83069200D03*
X115193500Y-177342500D03*
X111627500Y-79896500D03*
X92075000Y-37719000D03*
X82306500Y-124111500D03*
X117006500Y-90015500D03*
X122274500Y-90068200D03*
X132044500Y-123262500D03*
X91552500Y-57288200D03*
X88513500Y-57288200D03*
X88904500Y-100659500D03*
X131312500Y-155808500D03*
X87540000Y-165841500D03*
X117475000Y-62484000D03*
X108693500Y-177342500D03*
X84646000Y-149077500D03*
X138163500Y-100976500D03*
X130026500Y-116470500D03*
X67304500Y-144410500D03*
X102196000Y-66394500D03*
X136113500Y-98944500D03*
X106198500Y-175017500D03*
X87376000Y-71755000D03*
X82481500Y-147807500D03*
X70776000Y-175239500D03*
X82341500Y-86205500D03*
X130448500Y-138328500D03*
X78252500Y-131964500D03*
X111510500Y-174216500D03*
X71114500Y-157364500D03*
X75940500Y-116956500D03*
X133090500Y-100468500D03*
X109220000Y-57552500D03*
X121421000Y-49013000D03*
X91974000Y-131964500D03*
X87540000Y-167873500D03*
X107249500Y-85482200D03*
X74861500Y-178221500D03*
X95752500Y-152516500D03*
X115316000Y-64135000D03*
X93720500Y-157364500D03*
X98546500Y-83323200D03*
X117047500Y-91920500D03*
X80237000Y-105040500D03*
X82341500Y-88110500D03*
X133344500Y-129462500D03*
X132044500Y-119452500D03*
X103641500Y-158976500D03*
X91059000Y-63754000D03*
X136079500Y-106056500D03*
X117215500Y-73311700D03*
X94578500Y-84339200D03*
X132245500Y-94245200D03*
X110766500Y-51793500D03*
X96100000Y-64319500D03*
X121882500Y-179630500D03*
X82312000Y-111136500D03*
X121433000Y-43933000D03*
X117215500Y-69374700D03*
X127405500Y-123770500D03*
X117358500Y-129170500D03*
X136138500Y-108342500D03*
X88656500Y-175017500D03*
X136271000Y-165989000D03*
X98578000Y-136536500D03*
X119810500Y-85482200D03*
X126740500Y-153786500D03*
X113288500Y-154404500D03*
X93720500Y-152516500D03*
X91540000Y-59320200D03*
X113309500Y-152118500D03*
X98132000Y-72258000D03*
X117348000Y-46959500D03*
X96438000Y-61468000D03*
X125148500Y-134758500D03*
X91059000Y-44028000D03*
X111383500Y-73886500D03*
X100164000Y-72258000D03*
X99953500Y-89802500D03*
X77888000Y-152633500D03*
X119882500Y-155861500D03*
X89535000Y-69850000D03*
X130010500Y-111952500D03*
X77888000Y-150601500D03*
X134644500Y-119452500D03*
X95897500Y-94315200D03*
X80264000Y-50165000D03*
X112531500Y-159230500D03*
X79433500Y-179324500D03*
X78215000Y-127900500D03*
%TO.N,+3V3*%
X87761500Y-81211500D03*
X84291500Y-86205500D03*
X90418500Y-81211500D03*
X94488000Y-61468000D03*
X115097500Y-91920500D03*
X132044500Y-122312500D03*
X115103000Y-51435000D03*
X102843500Y-147966500D03*
X121162500Y-125194500D03*
X110744000Y-39243000D03*
X79900500Y-150601500D03*
X93720500Y-154591500D03*
X86233000Y-52746000D03*
X80227500Y-127900500D03*
X117358500Y-127138500D03*
X119882500Y-181580500D03*
X88904500Y-94896200D03*
X67304500Y-146696500D03*
X107721500Y-161135500D03*
X111627500Y-81846500D03*
X80227500Y-129932500D03*
X84291500Y-90015500D03*
X111246500Y-123369200D03*
X82887500Y-154665500D03*
X87116500Y-66860500D03*
X75940500Y-121083500D03*
X95752500Y-154591500D03*
X109351500Y-87895200D03*
X109224500Y-83069200D03*
X79900500Y-152633500D03*
X89187500Y-154665500D03*
X91059000Y-42078000D03*
X107430500Y-159103500D03*
X69311500Y-135028500D03*
X97921500Y-91752500D03*
X117860500Y-85482200D03*
X116209500Y-82180200D03*
X123485000Y-37338000D03*
X112344500Y-165961500D03*
X99953500Y-91752500D03*
X112989000Y-61849000D03*
X75940500Y-118969500D03*
X132044500Y-118502500D03*
X89402500Y-89548500D03*
%TO.N,+5V*%
X130026500Y-114184500D03*
X80690800Y-160253500D03*
X82887500Y-156965500D03*
X83062500Y-171676500D03*
X125216500Y-126796500D03*
X93095500Y-171676500D03*
%TO.N,+3.3VA*%
X89552500Y-161777500D03*
X91387500Y-161777500D03*
X89552500Y-163809500D03*
%TO.N,/IO0*%
X91902200Y-120405700D03*
X95616600Y-158900500D03*
%TO.N,/EN{slash}RESET*%
X93928000Y-115249100D03*
X97533400Y-156560000D03*
%TO.N,/GPIO48_PN532_CS*%
X101223500Y-148435500D03*
X105033500Y-127099500D03*
%TO.N,/GPIO40_HSPI_MOSI*%
X87559200Y-134981900D03*
X112125400Y-103231600D03*
X114913200Y-164419500D03*
X90128200Y-88151700D03*
X88012400Y-143282200D03*
X132461000Y-166116000D03*
%TO.N,/GPIO41_HSPI_MISO*%
X125656800Y-175841200D03*
X91446500Y-86104000D03*
X99699500Y-148232700D03*
X116944300Y-147389800D03*
X86414500Y-134773500D03*
%TO.N,/GPIO39_HSPI_SCK*%
X85161200Y-135416000D03*
X90886200Y-87764900D03*
X117663700Y-135983000D03*
%TO.N,/GPIO8_CC1101A_CS*%
X90428500Y-104366500D03*
X90936500Y-98016500D03*
X91444500Y-82903500D03*
%TO.N,/GPIO17_VSPI_SCK*%
X110933800Y-105479700D03*
%TO.N,/GPIO15_VSPI_MISO*%
X111562700Y-100345300D03*
%TO.N,/GPIO16_VSPI_MOSI*%
X110292000Y-102494500D03*
%TO.N,/GPIO3_CC1101B_CS*%
X100498100Y-86529100D03*
X117091800Y-87355700D03*
%TO.N,/GPIO21_RDM630_RX*%
X118922500Y-119455700D03*
%TO.N,/GPIO14_RDM630_TX*%
X118061000Y-119874000D03*
%TO.N,/GPIO13_RDM630_CTRL*%
X129965300Y-118042100D03*
%TO.N,/GPIO18_VIBRO*%
X76568500Y-108464900D03*
%TO.N,/GPIO4_ADC1_3_BAT\u0025*%
X73239300Y-141605000D03*
X82338900Y-138316900D03*
%TO.N,/GPIO5_NRF24_CE*%
X89920500Y-121384500D03*
X83443500Y-135481500D03*
%TO.N,/GPIO11_CC1101B_GD0*%
X111927500Y-94030800D03*
%TO.N,/GPIO6_NRF24_CSN*%
X84332500Y-135541500D03*
%TO.N,/GPIO9_CC1101A_GD0*%
X97196900Y-88478000D03*
%TO.N,/GPIO7_NRF24_IRQ*%
X87754600Y-134078300D03*
%TO.N,/GPIO1_SCREEN_CS*%
X113538000Y-120399000D03*
X92904900Y-126376100D03*
%TO.N,/GPIO47_RDM630_EMULATION*%
X125213900Y-123821300D03*
%TO.N,/GPIO42_SD_CARD_CS*%
X135467400Y-159512000D03*
X131435100Y-106322700D03*
%TO.N,/GPIO36_SCREEN_T_CS*%
X111713000Y-146745000D03*
X118340000Y-147443300D03*
%TO.N,/GPIO2_SCREEN_D{slash}C*%
X113973300Y-129363400D03*
X97196900Y-132189000D03*
%TO.N,/GPIO38_IR_LED*%
X128997100Y-128559800D03*
%TO.N,Net-(U6-~{RST})*%
X93387500Y-161777500D03*
X96016500Y-170025500D03*
%TO.N,/RX*%
X102614500Y-166684500D03*
X115767300Y-163000100D03*
%TO.N,/TX*%
X102604500Y-164564500D03*
X107097500Y-150025900D03*
%TO.N,Net-(U6-D-)*%
X94365500Y-169898500D03*
X92460500Y-163929500D03*
%TO.N,/D+*%
X112882500Y-170688500D03*
%TO.N,/D-*%
X112032500Y-170688500D03*
%TO.N,Net-(IC1-VIN)*%
X77583500Y-168889200D03*
%TO.N,Net-(IC3-TVDD)*%
X101567000Y-159103500D03*
X105795500Y-159103500D03*
%TO.N,Net-(IC1-SW)*%
X81283500Y-168889200D03*
%TO.N,/ANT_SWITCH_OUT*%
X82935500Y-52649900D03*
X87693500Y-38290500D03*
X85090000Y-42037000D03*
X118110000Y-41275000D03*
X111887000Y-41275000D03*
%TD*%
D111*
%TO.N,Net-(AE1-A)*%
X82847000Y-50636000D02*
X82847000Y-34675700D01*
X81747000Y-50886000D02*
X82597000Y-50886000D01*
X82847000Y-34675700D02*
X76123500Y-27952200D01*
X82597000Y-50886000D02*
X82847000Y-50636000D01*
X76123500Y-27952200D02*
X76123500Y-26557200D01*
%TO.N,Net-(AE2-A)*%
X81228200Y-48417200D02*
X81747000Y-48936000D01*
X75623500Y-48417200D02*
X81228200Y-48417200D01*
%TO.N,Net-(AE3-A)*%
X126279000Y-39284000D02*
X130123500Y-35439500D01*
X130123500Y-35439500D02*
X130123500Y-26557200D01*
%TO.N,Net-(AE4-A)*%
X130623500Y-45578500D02*
X126279000Y-41234000D01*
X130623500Y-48887200D02*
X130623500Y-45578500D01*
%TO.N,Net-(AE5-A)*%
X112776000Y-33907000D02*
X112123500Y-33254500D01*
X112123500Y-33254500D02*
X112123500Y-26557200D01*
X112776000Y-34757000D02*
X112776000Y-33907000D01*
%TO.N,Net-(AE6-A)*%
X110950300Y-35814000D02*
X114394000Y-35814000D01*
X114394000Y-35814000D02*
X114726000Y-35482000D01*
X110623500Y-35487200D02*
X110950300Y-35814000D01*
X114726000Y-35482000D02*
X114726000Y-34757000D01*
%TO.N,GND*%
X111505500Y-86490200D02*
X112905500Y-86490200D01*
X83947000Y-49911000D02*
X84922000Y-48936000D01*
D112*
X82811500Y-174215500D02*
X82811500Y-174346500D01*
D111*
X93050000Y-38694000D02*
X92075000Y-37719000D01*
X110766500Y-51793500D02*
X110830000Y-51857000D01*
X100182500Y-155474500D02*
X100832500Y-154824500D01*
D113*
X83366300Y-76973200D02*
X83697500Y-76642000D01*
D111*
X90084000Y-60776200D02*
X91540000Y-59320200D01*
D114*
X113397500Y-94315200D02*
X116269500Y-94315200D01*
D111*
X90084000Y-61554000D02*
X90084000Y-60776200D01*
X113426000Y-34757000D02*
X113426000Y-33005000D01*
X103482500Y-154824500D02*
X103232500Y-154824500D01*
X81463800Y-117168500D02*
X80766500Y-117168500D01*
X91384000Y-66858000D02*
X91384000Y-65954000D01*
D112*
X82925000Y-133123500D02*
X82173500Y-133875500D01*
D111*
X79766500Y-119365500D02*
X79766500Y-118168500D01*
D112*
X137536500Y-158126500D02*
X138552400Y-159142300D01*
X81871700Y-131623500D02*
X82924800Y-131623500D01*
D111*
X87376000Y-70866000D02*
X87335000Y-70825000D01*
D112*
X94898000Y-173684500D02*
X94492500Y-174089500D01*
D111*
X99182500Y-155961500D02*
X99182500Y-155524500D01*
X90734000Y-65954000D02*
X90734000Y-67366000D01*
D112*
X84362500Y-130186200D02*
X84362500Y-129288500D01*
D111*
X80843000Y-49586000D02*
X81747000Y-49586000D01*
X115316000Y-63500000D02*
X115275000Y-63459000D01*
X113751000Y-36957000D02*
X114726000Y-37932000D01*
D113*
X83862500Y-133123500D02*
X82925200Y-133123500D01*
D111*
X84922000Y-48936000D02*
X86147000Y-48936000D01*
D113*
X83946600Y-75664500D02*
X86872500Y-75664500D01*
D111*
X89535000Y-69850000D02*
X91410000Y-69850000D01*
X114726000Y-37932000D02*
X114726000Y-39157000D01*
X94892200Y-165345500D02*
X94992200Y-165445500D01*
X124404000Y-39934000D02*
X124079000Y-40259000D01*
D113*
X87513500Y-87382200D02*
X87513500Y-86482200D01*
X83179500Y-76973200D02*
X83366300Y-76973200D01*
D115*
X93015500Y-94315200D02*
X92958500Y-94372200D01*
D111*
X111505500Y-84990200D02*
X112405500Y-84990200D01*
X123104000Y-41234000D02*
X124079000Y-40259000D01*
X92400000Y-35519000D02*
X92400000Y-37394000D01*
X89860000Y-70175000D02*
X89535000Y-69850000D01*
D113*
X111397500Y-73900200D02*
X111383500Y-73886500D01*
D111*
X99182500Y-155524500D02*
X99632500Y-155074500D01*
X91750000Y-37394000D02*
X92075000Y-37719000D01*
D113*
X83697500Y-76642000D02*
X83697500Y-75913600D01*
D111*
X87376000Y-71755000D02*
X87376000Y-70866000D01*
X114076000Y-34757000D02*
X113426000Y-34757000D01*
X91750000Y-35519000D02*
X91750000Y-37394000D01*
D112*
X82173500Y-133875500D02*
X82173500Y-134465500D01*
D111*
X91735000Y-70175000D02*
X89860000Y-70175000D01*
X126279000Y-40584000D02*
X124404000Y-40584000D01*
X79766500Y-116470500D02*
X79766500Y-117668500D01*
X92400000Y-37394000D02*
X92075000Y-37719000D01*
X103232500Y-151774500D02*
X104369500Y-151774500D01*
X119350000Y-62484000D02*
X119675000Y-62159000D01*
X93050000Y-39919000D02*
X93050000Y-38694000D01*
X113426000Y-33005000D02*
X113665000Y-32766000D01*
X113030000Y-50882000D02*
X113030000Y-49034500D01*
X103932500Y-155274500D02*
X103482500Y-154824500D01*
X91410000Y-69850000D02*
X91735000Y-69525000D01*
D113*
X85624500Y-132123500D02*
X86799800Y-132123500D01*
X86872500Y-75664500D02*
X87116500Y-75908500D01*
D111*
X115316000Y-64135000D02*
X115316000Y-63500000D01*
D112*
X84362500Y-129288500D02*
X83697500Y-128623500D01*
D111*
X104369500Y-152774500D02*
X102757400Y-152774500D01*
X80335000Y-50236000D02*
X81747000Y-50236000D01*
D112*
X81665500Y-131417500D02*
X81871700Y-131623500D01*
X82811500Y-174346500D02*
X83189500Y-174724500D01*
X111707500Y-172724500D02*
X111707500Y-174019500D01*
D111*
X108630000Y-51532000D02*
X108630000Y-52182000D01*
X80264000Y-50165000D02*
X80335000Y-50236000D01*
X102182500Y-155961500D02*
X102182500Y-154974500D01*
D112*
X111707500Y-174019500D02*
X111510500Y-174216500D01*
D111*
X108630000Y-51532000D02*
X110505000Y-51532000D01*
D113*
X113151500Y-73900200D02*
X111397500Y-73900200D01*
D111*
X115696800Y-122574500D02*
X117096500Y-122574500D01*
X110505000Y-51532000D02*
X110766500Y-51793500D01*
D112*
X94898000Y-172774500D02*
X94898000Y-173684500D01*
X136646500Y-158126500D02*
X137536500Y-158126500D01*
D114*
X111707500Y-171961700D02*
X111707500Y-172724200D01*
D111*
X117475000Y-62484000D02*
X119350000Y-62484000D01*
X80264000Y-50165000D02*
X80843000Y-49586000D01*
D113*
X83697500Y-75913600D02*
X83946600Y-75664500D01*
D111*
X90734000Y-67366000D02*
X90805000Y-67437000D01*
X124404000Y-40584000D02*
X124079000Y-40259000D01*
D115*
X95897500Y-94315200D02*
X93015500Y-94315200D01*
D111*
X100182500Y-155961500D02*
X100182500Y-155474500D01*
X94514300Y-165345500D02*
X94892200Y-165345500D01*
X126279000Y-39934000D02*
X124404000Y-39934000D01*
X80266500Y-119365500D02*
X80266500Y-118168500D01*
X104369500Y-155274500D02*
X103932500Y-155274500D01*
X89013500Y-87382200D02*
X89013500Y-86506200D01*
D113*
X87116500Y-75908500D02*
X87116500Y-76508200D01*
D111*
X99632500Y-155074500D02*
X99632500Y-154824500D01*
X90805000Y-67437000D02*
X91384000Y-66858000D01*
X119675000Y-62809000D02*
X117800000Y-62809000D01*
X121879000Y-41234000D02*
X123104000Y-41234000D01*
X94992200Y-165445500D02*
X95801500Y-165445500D01*
X117800000Y-62809000D02*
X117475000Y-62484000D01*
X80766500Y-116470500D02*
X80766500Y-117168500D01*
%TO.N,+3V3*%
X111384500Y-83069200D02*
X112405500Y-84090200D01*
X88006700Y-132623500D02*
X88861500Y-133478500D01*
X109351500Y-87469200D02*
X110830500Y-85990200D01*
X87116500Y-68656500D02*
X87335000Y-68875000D01*
X121162500Y-122800810D02*
X121162500Y-125194500D01*
X113905500Y-90728500D02*
X115097500Y-91920500D01*
X86233000Y-50972000D02*
X86147000Y-50886000D01*
X121879000Y-39284000D02*
X121879000Y-38944000D01*
X115305500Y-85490200D02*
X117852500Y-85490200D01*
X93720500Y-154591500D02*
X94295300Y-155166500D01*
X89709200Y-81211500D02*
X90418500Y-81211500D01*
X109224500Y-83069200D02*
X111384500Y-83069200D01*
X102843500Y-147966500D02*
X104522400Y-146287600D01*
D115*
X89402500Y-89548500D02*
X88513500Y-88659500D01*
X95840500Y-95642200D02*
X95897500Y-95585200D01*
D111*
X92034000Y-61554000D02*
X94402000Y-61554000D01*
X88013500Y-82907200D02*
X89709200Y-81211500D01*
X126788500Y-182641000D02*
X129813500Y-179616000D01*
X129813500Y-179616000D02*
X129813500Y-179066000D01*
X94295300Y-155166500D02*
X94912100Y-155166500D01*
X114405500Y-83984200D02*
X114514500Y-83875400D01*
D115*
X88513500Y-88659500D02*
X88513500Y-87382200D01*
D111*
X114514500Y-83875400D02*
X116209500Y-82180200D01*
D114*
X119882500Y-181580500D02*
X121882500Y-181580500D01*
D111*
X104522400Y-146287600D02*
X104522400Y-144619700D01*
D115*
X85965650Y-85982200D02*
X86613500Y-85982200D01*
D111*
X91784500Y-89548500D02*
X92079500Y-89253500D01*
X80826900Y-132939500D02*
X79678100Y-132939500D01*
D115*
X97921500Y-91752500D02*
X97921500Y-94666100D01*
D111*
X114234322Y-52832000D02*
X115103000Y-51963322D01*
X77241700Y-117668500D02*
X78568200Y-117668500D01*
X122632500Y-169857000D02*
X126500500Y-165989000D01*
X81642400Y-132123500D02*
X80826900Y-132939500D01*
D115*
X97921500Y-94666100D02*
X99953500Y-92634100D01*
D111*
X122632500Y-180830200D02*
X122632500Y-169857000D01*
X132044500Y-122312500D02*
X130821500Y-122312500D01*
D115*
X97002400Y-95585200D02*
X99953500Y-92634100D01*
D111*
X113631200Y-123074200D02*
X115696500Y-123074200D01*
X91059000Y-39960000D02*
X91100000Y-39919000D01*
X103886500Y-149374500D02*
X102978500Y-149374500D01*
X79377500Y-132638500D02*
X79377500Y-130782500D01*
X92079500Y-89253500D02*
X92079500Y-85316500D01*
D115*
X84291500Y-87656350D02*
X85965650Y-85982200D01*
D111*
X87116500Y-66860500D02*
X87116500Y-68656500D01*
X104370300Y-152274500D02*
X104807500Y-152274500D01*
X76153500Y-121083500D02*
X78568700Y-118668500D01*
X113329000Y-61509000D02*
X115275000Y-61509000D01*
X88523500Y-136116500D02*
X80848400Y-136116500D01*
D115*
X84291500Y-88110500D02*
X84291500Y-87656350D01*
D111*
X123229810Y-120733500D02*
X121162500Y-122800810D01*
X129242500Y-120733500D02*
X123229810Y-120733500D01*
X130821500Y-122312500D02*
X129242500Y-120733500D01*
X94912100Y-155166500D02*
X95019800Y-155274500D01*
X89402500Y-89548500D02*
X91784500Y-89548500D01*
X126500500Y-165989000D02*
X127381000Y-165989000D01*
X95019800Y-155274500D02*
X98494700Y-155274500D01*
X112905500Y-82651500D02*
X112907500Y-82649500D01*
X115103000Y-51963322D02*
X115103000Y-51435000D01*
X112905500Y-84090200D02*
X112905500Y-82651500D01*
X121882500Y-181580200D02*
X122632500Y-180830200D01*
X110744000Y-39243000D02*
X111125000Y-39243000D01*
X88861500Y-133478500D02*
X88861500Y-135778500D01*
X113157000Y-123369200D02*
X113336200Y-123369200D01*
X113905500Y-87890200D02*
X113905500Y-90728500D01*
X113030000Y-52832000D02*
X114234322Y-52832000D01*
X92079500Y-85316500D02*
X91745200Y-84982200D01*
X111125000Y-39243000D02*
X111211000Y-39157000D01*
X80227800Y-127900500D02*
X81576500Y-127900500D01*
X95935000Y-154774500D02*
X98494700Y-154774500D01*
D115*
X84291500Y-86205500D02*
X84291500Y-88110500D01*
D111*
X122943300Y-182641000D02*
X126788500Y-182641000D01*
X88861500Y-135778500D02*
X88523500Y-136116500D01*
X102978500Y-149374500D02*
X102682500Y-149670500D01*
X82924800Y-132123500D02*
X81642400Y-132123500D01*
D115*
X86613500Y-82359500D02*
X86613500Y-84482200D01*
X84291500Y-90015500D02*
X86613500Y-87693500D01*
D111*
X81576500Y-127900500D02*
X83862500Y-130186500D01*
X86233000Y-52746000D02*
X86233000Y-50972000D01*
X94402000Y-61554000D02*
X94488000Y-61468000D01*
X104807500Y-152274500D02*
X105082500Y-151999500D01*
X79377500Y-134645500D02*
X79377500Y-132638500D01*
X121879000Y-38944000D02*
X123485000Y-37338000D01*
X75940500Y-118969500D02*
X77241700Y-117668500D01*
X79377500Y-130782500D02*
X80227500Y-129932500D01*
X91059000Y-42078000D02*
X91059000Y-39960000D01*
X121882500Y-181580200D02*
X122943300Y-182641000D01*
X105082500Y-150570500D02*
X103886500Y-149374500D01*
X86800200Y-132623500D02*
X88006700Y-132623500D01*
X112907500Y-82649500D02*
X112104500Y-81846500D01*
X80848400Y-136116500D02*
X79377500Y-134645500D01*
D115*
X97921500Y-94666100D02*
X97002400Y-95585200D01*
D111*
X111211000Y-39157000D02*
X112776000Y-39157000D01*
X79678100Y-132939500D02*
X79377500Y-132638500D01*
X110830500Y-85990200D02*
X111505500Y-85990200D01*
D115*
X86613500Y-87693500D02*
X86613500Y-86482200D01*
D111*
X112989000Y-61849000D02*
X113329000Y-61509000D01*
X112104500Y-81846500D02*
X111627500Y-81846500D01*
D115*
X97002400Y-95585200D02*
X95897500Y-95585200D01*
D111*
X111246500Y-123369200D02*
X113157000Y-123369200D01*
X105082500Y-151999500D02*
X105082500Y-150570500D01*
X91745200Y-84982200D02*
X90413500Y-84982200D01*
X102682500Y-149670500D02*
X102682500Y-148310500D01*
X88013500Y-83582200D02*
X88013500Y-82907200D01*
X113336200Y-123369200D02*
X113631200Y-123074200D01*
D115*
X99953500Y-92634100D02*
X99953500Y-91752500D01*
X87761500Y-81211500D02*
X86613500Y-82359500D01*
D112*
%TO.N,+5V*%
X126273500Y-103262200D02*
X126273500Y-100530500D01*
X93095500Y-171676500D02*
X93495000Y-171676500D01*
X81516300Y-165649500D02*
X83062500Y-167196500D01*
X93495000Y-171676500D02*
X94518900Y-171676500D01*
X126273500Y-116328500D02*
X126273500Y-103262200D01*
X80690800Y-160253500D02*
X80690800Y-161713500D01*
X130026500Y-114184500D02*
X128945500Y-115265500D01*
X80690800Y-161713500D02*
X81213100Y-162236100D01*
X79941800Y-156910500D02*
X82832500Y-156910500D01*
X94518900Y-171676500D02*
X94898000Y-171297500D01*
X83062500Y-167196500D02*
X83062500Y-171676500D01*
X81516300Y-162539500D02*
X81516300Y-165649500D01*
D111*
X81516200Y-162539200D02*
X81213100Y-162236100D01*
D112*
X128741500Y-117488500D02*
X127434500Y-117488500D01*
X126211500Y-100468500D02*
X126823500Y-99855500D01*
X126823500Y-99855500D02*
X126823500Y-98055500D01*
X94898000Y-171297500D02*
X94898000Y-170924500D01*
X81213100Y-162236100D02*
X81516300Y-162539500D01*
X128945500Y-115265500D02*
X128945500Y-117284500D01*
X128945500Y-117284500D02*
X128741500Y-117488500D01*
X127434500Y-117488500D02*
X126273500Y-116328500D01*
X77909500Y-156910500D02*
X79941800Y-156910500D01*
%TO.N,Net-(U6-REGIN)*%
X89552500Y-166857300D02*
X89552500Y-165841500D01*
D111*
X95201300Y-168032500D02*
X95701500Y-168032500D01*
X89552500Y-166857300D02*
X89552500Y-165841200D01*
D112*
X89552500Y-169905200D02*
X89552500Y-167873200D01*
D111*
X94034500Y-168032500D02*
X95201300Y-168032500D01*
D112*
X89552500Y-167873200D02*
X89552500Y-166857300D01*
X89552500Y-165841500D02*
X91843000Y-165841500D01*
D111*
X91879500Y-165877500D02*
X94034500Y-168032500D01*
D115*
%TO.N,+V_BAT*%
X74623500Y-165287500D02*
X68057700Y-158721500D01*
X75862300Y-149698500D02*
X82360200Y-149698500D01*
X74287800Y-151273000D02*
X64987000Y-151273000D01*
X68057700Y-154343700D02*
X64987000Y-151273000D01*
D112*
X83707700Y-150027500D02*
X82689000Y-150027500D01*
D115*
X69606500Y-146696200D02*
X69563800Y-146696200D01*
D111*
X84645700Y-150027500D02*
X83707700Y-150027500D01*
D115*
X68057700Y-158721500D02*
X68057700Y-154343700D01*
D112*
X84646000Y-150027500D02*
X83707700Y-150027500D01*
D115*
X75862300Y-149698500D02*
X74287800Y-151273000D01*
X69563800Y-146696200D02*
X64987000Y-151273000D01*
D111*
%TO.N,+3.3VA*%
X93722900Y-166845500D02*
X94514000Y-166845500D01*
X93029500Y-166151500D02*
X93722900Y-166845500D01*
X93029500Y-165190500D02*
X93029500Y-166151500D01*
X92728900Y-164890500D02*
X93029500Y-165190500D01*
X91197200Y-163809500D02*
X92278200Y-164890500D01*
X89552500Y-163809500D02*
X91197200Y-163809500D01*
X92278200Y-164890500D02*
X92728900Y-164890500D01*
X94514000Y-166845500D02*
X94514000Y-167345200D01*
D114*
%TO.N,/IO0*%
X113397800Y-110825500D02*
X116269500Y-110825500D01*
D111*
X116326500Y-110882500D02*
X116326500Y-113082200D01*
X95616600Y-158900500D02*
X95722500Y-159006400D01*
X95722500Y-159006400D02*
X95722500Y-160036200D01*
%TO.N,/EN{slash}RESET*%
X89031500Y-96896200D02*
X89148500Y-96896200D01*
X88904500Y-96896200D02*
X88904500Y-98709700D01*
D113*
X89148500Y-98709500D02*
X89031300Y-98709500D01*
D114*
X92958500Y-96912500D02*
X95840500Y-96912500D01*
D111*
X92942500Y-96896200D02*
X92958500Y-96912200D01*
D113*
X88904800Y-96896500D02*
X92942500Y-96896500D01*
D111*
X92958500Y-96912200D02*
X95840500Y-96912200D01*
X95840500Y-96912200D02*
X95897500Y-96855200D01*
D113*
X89031500Y-96896200D02*
X88904500Y-96896200D01*
D111*
X97533400Y-159525300D02*
X97022500Y-160036200D01*
X97533400Y-156560000D02*
X97533400Y-159525300D01*
X88904500Y-96896200D02*
X92942500Y-96896200D01*
D113*
X88904500Y-96896200D02*
X88904800Y-96896500D01*
D111*
%TO.N,Net-(U10-XC1)*%
X90688800Y-133068500D02*
X91786500Y-134166500D01*
X92007200Y-134266500D02*
X94492800Y-134266500D01*
X89441400Y-133068500D02*
X90688800Y-133068500D01*
X94492800Y-134266500D02*
X96487000Y-134266500D01*
X87496600Y-131123500D02*
X89441400Y-133068500D01*
X86800200Y-131123500D02*
X87496600Y-131123500D01*
%TO.N,Net-(U10-XC2)*%
X89211500Y-137185500D02*
X89451500Y-137425500D01*
X91786500Y-136366500D02*
X94392500Y-136366500D01*
X89451500Y-137425500D02*
X91571500Y-137425500D01*
X91786500Y-137210500D02*
X91786500Y-136788500D01*
X86800200Y-131623500D02*
X87501600Y-131623500D01*
X87501600Y-131623500D02*
X89211500Y-133333500D01*
X94492500Y-136266500D02*
X96233000Y-136266500D01*
X89211500Y-133333500D02*
X89211500Y-137185500D01*
X91571500Y-137425500D02*
X91786500Y-137210500D01*
%TO.N,Net-(U10-DVDD)*%
X81113500Y-133172700D02*
X81662500Y-132623500D01*
X80290000Y-133996200D02*
X81113500Y-133172700D01*
X81662500Y-132623500D02*
X82924800Y-132623500D01*
X80290000Y-133996500D02*
X81113500Y-133172700D01*
%TO.N,/NRF24_VDD_PA*%
X89899000Y-129932500D02*
X89899000Y-131964200D01*
X89899000Y-124307500D02*
X89899000Y-129932200D01*
X87640500Y-122049500D02*
X89899000Y-124307500D01*
X86116500Y-129932500D02*
X89899000Y-129932500D01*
X85862700Y-130186300D02*
X86116500Y-129932500D01*
X87608500Y-120026500D02*
X87608500Y-122017500D01*
%TO.N,Net-(J7-In)*%
X92400000Y-40769000D02*
X94766200Y-43135200D01*
X94766200Y-43135200D02*
X103055500Y-43135200D01*
X92400000Y-39919000D02*
X92400000Y-40769000D01*
D115*
%TO.N,Net-(PWR_SW1-OUT)*%
X76388800Y-162352500D02*
X76286200Y-162249900D01*
X76286200Y-162249900D02*
X74623500Y-160587500D01*
D111*
X74623500Y-160587200D02*
X76286200Y-162249900D01*
D115*
X72697000Y-177221500D02*
X76388800Y-173529500D01*
X72788500Y-175239500D02*
X72788500Y-177129500D01*
X76388800Y-173529500D02*
X76388800Y-162352500D01*
X74861200Y-177271500D02*
X72747000Y-177271500D01*
D112*
%TO.N,+V_BAT_5V*%
X83669900Y-168421500D02*
X84091700Y-168000000D01*
D111*
X84513500Y-172432800D02*
X84513500Y-171388200D01*
D112*
X84513500Y-172432800D02*
X84513500Y-171388500D01*
X84513500Y-171388500D02*
X83669900Y-170544500D01*
D115*
X82481500Y-165546500D02*
X84513500Y-167578500D01*
D112*
X84513500Y-173477200D02*
X84513500Y-172432800D01*
D115*
X82481500Y-164571500D02*
X82481500Y-165546500D01*
D112*
X82811800Y-173215500D02*
X84251500Y-173215500D01*
X83669900Y-170544500D02*
X83669900Y-168421500D01*
X84091700Y-168000000D02*
X84513500Y-167578500D01*
D113*
%TO.N,Net-(FL1-BAL_1)*%
X83179500Y-78729700D02*
X82290500Y-79618700D01*
X83179500Y-77633200D02*
X83179500Y-78729700D01*
%TO.N,Net-(FL1-BAL_2)*%
X84169500Y-77633200D02*
X84169500Y-79233200D01*
D111*
%TO.N,Net-(C82-Pad1)*%
X88513500Y-53335200D02*
X88513500Y-55213200D01*
X91552500Y-55256200D02*
X88556500Y-55256200D01*
D113*
%TO.N,Net-(FL2-BAL_1)*%
X113151500Y-74560200D02*
X111605500Y-74560200D01*
X111605500Y-74560200D02*
X110611500Y-75554700D01*
D111*
%TO.N,Net-(FL2-BAL_2)*%
X115585500Y-74560200D02*
X116580500Y-75554700D01*
X114141500Y-74560200D02*
X115585500Y-74560200D01*
%TO.N,Net-(IC7-NO_(SOURCE1))*%
X134644500Y-116030500D02*
X133344600Y-114730600D01*
X136101500Y-114443500D02*
X138138500Y-112406500D01*
X134644500Y-117552200D02*
X134644500Y-116030500D01*
X134644500Y-117552500D02*
X136101500Y-116095500D01*
X136101500Y-116095500D02*
X136101500Y-115269500D01*
%TO.N,Net-(D7-K)*%
X138163500Y-98944500D02*
X136131500Y-100976500D01*
X138138500Y-97264200D02*
X138138500Y-98919500D01*
X138175500Y-94372200D02*
X138175500Y-96874500D01*
X136101500Y-100988500D02*
X136101500Y-103262200D01*
X132245500Y-95515200D02*
X137033500Y-95515200D01*
X137033500Y-95515200D02*
X138175500Y-94372200D01*
D112*
%TO.N,+V_USB*%
X88769500Y-172558500D02*
X85357100Y-169145500D01*
D115*
X95737500Y-179169500D02*
X96753500Y-178153500D01*
X76889800Y-159224500D02*
X83310500Y-159224500D01*
X83764200Y-159678500D02*
X83764200Y-160253200D01*
D112*
X91879500Y-172558500D02*
X91404500Y-172558500D01*
X86921000Y-150027500D02*
X86921000Y-157096500D01*
D114*
X109493500Y-178267500D02*
X109806500Y-178580100D01*
D115*
X69035500Y-157459500D02*
X70113300Y-158537500D01*
X109806500Y-178475500D02*
X109493500Y-178162500D01*
D114*
X109493500Y-178162500D02*
X109493500Y-178267500D01*
D115*
X109806500Y-178580100D02*
X109806500Y-178475500D01*
D111*
X111207500Y-173186500D02*
X110685500Y-173708500D01*
X74585600Y-157998500D02*
X75124500Y-157459600D01*
D114*
X90071800Y-176017500D02*
X89756500Y-175701500D01*
D112*
X85357100Y-169145500D02*
X85357100Y-164449500D01*
D115*
X75124500Y-157459500D02*
X76889800Y-159224500D01*
X96753500Y-178153500D02*
X96753500Y-178162500D01*
D114*
X91241200Y-176017500D02*
X90071800Y-176017500D01*
D112*
X91404500Y-172558500D02*
X88769500Y-172558500D01*
D111*
X107921500Y-176342500D02*
X109368500Y-176342500D01*
X111207500Y-171924500D02*
X111207500Y-172699200D01*
D115*
X70113800Y-158537500D02*
X74046700Y-158537500D01*
D114*
X113599500Y-179066500D02*
X114393500Y-178272500D01*
D115*
X109220500Y-179685500D02*
X109806500Y-179099500D01*
X83764200Y-160253500D02*
X83764200Y-162221500D01*
D114*
X110293500Y-179066500D02*
X113599500Y-179066500D01*
X91404500Y-172558500D02*
X91879500Y-172558500D01*
D112*
X86921000Y-157096500D02*
X83764200Y-160253500D01*
D111*
X109368500Y-176342500D02*
X109493500Y-176467500D01*
D115*
X109806500Y-179099500D02*
X109806500Y-178580100D01*
X96440700Y-179099500D02*
X97026700Y-179685500D01*
D114*
X114393500Y-178272500D02*
X114393500Y-177342500D01*
D115*
X97026700Y-179685500D02*
X109220500Y-179685500D01*
D114*
X91853500Y-177342200D02*
X91853500Y-176629500D01*
D115*
X91853500Y-178162500D02*
X92860400Y-179169500D01*
X83310500Y-159224500D02*
X83764200Y-159678500D01*
D112*
X85357100Y-164449500D02*
X83446700Y-162539500D01*
D111*
X111207500Y-172699200D02*
X111207500Y-173186500D01*
D114*
X91853500Y-176629500D02*
X91241200Y-176017500D01*
D115*
X96753500Y-178162500D02*
X96440700Y-178475500D01*
D111*
X107323500Y-175744500D02*
X107921500Y-176342500D01*
D115*
X83764200Y-162221500D02*
X83446800Y-162539300D01*
D114*
X89756500Y-174206500D02*
X91404500Y-172558500D01*
X109806500Y-178580100D02*
X110293500Y-179066500D01*
D111*
X107323500Y-174212500D02*
X107323500Y-175744500D01*
D115*
X96440700Y-178475500D02*
X96440700Y-179099500D01*
X74046700Y-158537500D02*
X74585600Y-157998500D01*
D111*
X107827500Y-173708500D02*
X107323500Y-174212500D01*
D115*
X92860400Y-179169500D02*
X95737500Y-179169500D01*
D111*
X109493500Y-176467500D02*
X109493500Y-177342200D01*
D114*
X109493500Y-177342500D02*
X109493500Y-178162500D01*
X89756500Y-175701500D02*
X89756500Y-174206500D01*
D115*
X109493500Y-178162500D02*
X109493500Y-177342500D01*
X91853500Y-177342500D02*
X91853500Y-178162500D01*
X74585600Y-157998500D02*
X75124500Y-157459500D01*
X70113300Y-158537500D02*
X70113800Y-158537500D01*
D111*
X110685500Y-173708500D02*
X107827500Y-173708500D01*
X69035500Y-157459200D02*
X70113800Y-158537500D01*
D113*
%TO.N,Net-(D1-K)*%
X68513500Y-137826500D02*
X69311500Y-137028500D01*
X69311500Y-137028500D02*
X69311500Y-138630200D01*
X66542800Y-137826500D02*
X68513500Y-137826500D01*
D115*
%TO.N,Net-(D2-K)*%
X73074500Y-157459200D02*
X73074500Y-156420500D01*
X73074500Y-156420500D02*
X75178500Y-154316500D01*
D111*
%TO.N,Net-(D4-K)*%
X136900800Y-128543500D02*
X139325500Y-128543500D01*
%TO.N,Net-(D5-K)*%
X141989500Y-169048500D02*
X141989500Y-171309500D01*
%TO.N,Net-(D6-A)*%
X136138500Y-112406200D02*
X136138500Y-110399500D01*
%TO.N,Net-(D6-K)*%
X138154500Y-108245500D02*
X138154500Y-107151000D01*
X138176000Y-104648000D02*
X138176000Y-103262200D01*
X138154500Y-107151000D02*
X138154500Y-106056500D01*
X138163500Y-110374200D02*
X138163500Y-108367500D01*
X138154500Y-107151000D02*
X138154500Y-106056200D01*
X138175500Y-104648500D02*
X138175500Y-103262500D01*
X138175500Y-106034500D02*
X138175500Y-104648500D01*
X138175500Y-104648500D02*
X138176000Y-104648000D01*
D112*
%TO.N,Net-(F1-Pad1)*%
X91879500Y-170808200D02*
X91879500Y-168852700D01*
D113*
%TO.N,Net-(FL1-UNBAL)*%
X83179500Y-76313200D02*
X83179500Y-74433200D01*
%TO.N,Net-(FL2-UNBAL)*%
X113151500Y-73240200D02*
X113151500Y-71267200D01*
D111*
%TO.N,/GPIO48_PN532_CS*%
X105033500Y-127099500D02*
X105033500Y-120264500D01*
X100682500Y-148976500D02*
X101223500Y-148435500D01*
X110484500Y-114813500D02*
X110484500Y-114692200D01*
X100682500Y-150086700D02*
X100682500Y-148976500D01*
D114*
X110484500Y-114692200D02*
X110484500Y-112197500D01*
D111*
X105033500Y-120264500D02*
X110484500Y-114813500D01*
%TO.N,/GPIO40_HSPI_MOSI*%
X103107500Y-144153500D02*
X102436500Y-143482500D01*
X100579600Y-143482500D02*
X100011000Y-144051000D01*
X100011000Y-144051000D02*
X99442400Y-144619600D01*
X102436500Y-143482500D02*
X100579600Y-143482500D01*
X89513500Y-88133900D02*
X90110400Y-88133900D01*
X86159100Y-135356800D02*
X85362500Y-134560200D01*
X87184300Y-135356800D02*
X86159100Y-135356800D01*
D114*
X113397800Y-103205500D02*
X116269500Y-103205500D01*
D111*
X87559200Y-134981900D02*
X87184300Y-135356800D01*
X113397500Y-103205200D02*
X112371500Y-103205200D01*
X100011000Y-144051000D02*
X99442400Y-144619500D01*
X85362500Y-134560200D02*
X85362500Y-134061200D01*
X90110400Y-88133900D02*
X90128200Y-88151700D01*
X112371500Y-103205200D02*
X112151800Y-103205200D01*
X103107500Y-145637873D02*
X103107500Y-144153500D01*
X89513500Y-87382200D02*
X89513500Y-88133900D01*
X100182500Y-148562873D02*
X103107500Y-145637873D01*
X100182500Y-150086700D02*
X100182500Y-148562873D01*
X112151800Y-103205200D02*
X112125400Y-103231600D01*
%TO.N,/GPIO41_HSPI_MISO*%
X125656800Y-175841200D02*
X126513500Y-176697900D01*
D114*
X113397800Y-101935500D02*
X116269500Y-101935500D01*
D111*
X85862500Y-134061200D02*
X86414500Y-134613200D01*
X99695700Y-148236500D02*
X99695700Y-148388500D01*
X99682500Y-148401500D02*
X99695700Y-148388500D01*
X99682500Y-150086500D02*
X99682500Y-148401500D01*
X91324700Y-85982200D02*
X90413500Y-85982200D01*
X99699500Y-148232700D02*
X99695700Y-148236500D01*
X126513500Y-176697900D02*
X126513500Y-178866000D01*
X86414500Y-134613200D02*
X86414500Y-134773500D01*
X91446500Y-86104000D02*
X91324700Y-85982200D01*
%TO.N,/GPIO39_HSPI_SCK*%
X138863500Y-154813500D02*
X139409500Y-154813500D01*
X135027500Y-158649500D02*
X138863500Y-154813500D01*
X84862500Y-135117300D02*
X84862500Y-134061200D01*
X132986000Y-160274514D02*
X132986000Y-162035000D01*
X116040000Y-143494500D02*
X110727500Y-143494500D01*
X90413500Y-87292200D02*
X90886200Y-87764900D01*
X101187600Y-145414500D02*
X101982400Y-144619700D01*
X126476500Y-143494500D02*
X116040000Y-143494500D01*
X110727500Y-143494500D02*
X109602500Y-144619500D01*
D114*
X113397800Y-104475500D02*
X116269500Y-104475500D01*
D111*
X99182500Y-150086500D02*
X98937500Y-149841500D01*
X90413500Y-86482200D02*
X90413500Y-87292200D01*
X116040000Y-143494500D02*
X117663700Y-141870800D01*
X135027500Y-158649500D02*
X135347363Y-158649500D01*
X140431500Y-153791500D02*
X140431500Y-149670500D01*
X139409500Y-154813500D02*
X140431500Y-153791500D01*
X101187400Y-145414500D02*
X101982400Y-144619500D01*
X134116500Y-159560500D02*
X135027500Y-158649500D01*
X140431500Y-149670500D02*
X137293500Y-146532500D01*
X132986000Y-162035000D02*
X129921000Y-165100000D01*
X137293500Y-146532500D02*
X129514500Y-146532500D01*
X135347363Y-158649500D02*
X136271000Y-159573137D01*
X136271000Y-159573137D02*
X136271000Y-161039000D01*
X129514500Y-146532500D02*
X126476500Y-143494500D01*
X133700014Y-159560500D02*
X132986000Y-160274514D01*
X129921000Y-165100000D02*
X129921000Y-165989000D01*
X85161200Y-135416000D02*
X84862500Y-135117300D01*
X134116500Y-159560500D02*
X133700014Y-159560500D01*
X101187400Y-145414500D02*
X101187600Y-145414500D01*
X98937500Y-149841500D02*
X98937500Y-147664500D01*
X98937500Y-147664500D02*
X101187400Y-145414500D01*
X117663700Y-141870800D02*
X117663700Y-135983000D01*
%TO.N,/GPIO8_CC1101A_CS*%
X89013500Y-83582200D02*
X89013500Y-82907200D01*
X91063500Y-82522500D02*
X91444500Y-82903500D01*
X89013500Y-82907200D02*
X89398200Y-82522500D01*
X89398200Y-82522500D02*
X91063500Y-82522500D01*
D114*
X95897200Y-108285500D02*
X93015500Y-108285500D01*
D111*
X90428500Y-105812200D02*
X90428500Y-104366500D01*
X92958500Y-108342200D02*
X90428500Y-105812200D01*
%TO.N,/GPIO17_VSPI_SCK*%
X111962700Y-87890200D02*
X110753800Y-89099100D01*
D114*
X95897200Y-105745500D02*
X93015500Y-105745500D01*
D111*
X110753800Y-89099100D02*
X110753800Y-101039700D01*
X112405500Y-87890200D02*
X111962700Y-87890200D01*
X110753800Y-101039700D02*
X110933800Y-101219700D01*
X110933800Y-101219700D02*
X110933800Y-105479700D01*
%TO.N,/GPIO15_VSPI_MISO*%
X111758400Y-88641900D02*
X111131700Y-89268600D01*
D114*
X92958800Y-103262500D02*
X95840500Y-103262500D01*
D111*
X112905500Y-87890200D02*
X112905500Y-88641900D01*
X112905500Y-88641900D02*
X111758400Y-88641900D01*
X111131700Y-89268600D02*
X111131700Y-99914300D01*
X111131700Y-99914300D02*
X111562700Y-100345300D01*
%TO.N,/GPIO16_VSPI_MOSI*%
X110292100Y-87451900D02*
X110292100Y-102494500D01*
X111505500Y-86990200D02*
X110753800Y-86990200D01*
X110292100Y-102494500D02*
X110292000Y-102494500D01*
D114*
X93269500Y-104475500D02*
X95897200Y-104475500D01*
D111*
X110753800Y-86990200D02*
X110292100Y-87451900D01*
%TO.N,/GPIO3_CC1101B_CS*%
X97662500Y-112075200D02*
X97662500Y-96145100D01*
X100763600Y-86794600D02*
X100498100Y-86529100D01*
X115305500Y-86490200D02*
X116226300Y-86490200D01*
X116226300Y-86490200D02*
X117091800Y-87355700D01*
X100763600Y-93044000D02*
X100763600Y-86794600D01*
X97662500Y-96145100D02*
X100763600Y-93044000D01*
D114*
X97662500Y-112075500D02*
X97662500Y-114570500D01*
D111*
%TO.N,/RDM630_SIN*%
X128010500Y-109866500D02*
X128010500Y-110909300D01*
X128010500Y-110909300D02*
X128010500Y-109866200D01*
X127258500Y-109114500D02*
X128010500Y-109866500D01*
X128010500Y-110909300D02*
X128010500Y-111952200D01*
X116596500Y-121174200D02*
X116596500Y-120499500D01*
X127192500Y-96785500D02*
X127862500Y-97455500D01*
X127862500Y-99329500D02*
X127258500Y-99933500D01*
X127862500Y-97455500D02*
X127862500Y-99329500D01*
X116596500Y-120499500D02*
X125348500Y-111747500D01*
X125348500Y-97891500D02*
X126454500Y-96785500D01*
X127258500Y-99933500D02*
X127258500Y-109114500D01*
X125348500Y-111747500D02*
X125348500Y-97891500D01*
%TO.N,/GPIO21_RDM630_RX*%
X118596500Y-121174200D02*
X118596500Y-120422500D01*
X118922500Y-119455700D02*
X118922500Y-120096500D01*
D114*
X107944500Y-114692200D02*
X107944500Y-112197500D01*
D111*
X118922500Y-120096500D02*
X118596500Y-120422500D01*
%TO.N,/GPIO14_RDM630_TX*%
X118096500Y-119909500D02*
X118061000Y-119874000D01*
D114*
X106552500Y-112075500D02*
X106552500Y-114570500D01*
D111*
X118096500Y-121174200D02*
X118096500Y-119909500D01*
D114*
%TO.N,/GPIO13_RDM630_CTRL*%
X105404500Y-114692200D02*
X105404500Y-112197500D01*
D111*
X132319500Y-117552500D02*
X132869500Y-118102500D01*
X130454900Y-117552500D02*
X129965300Y-118042100D01*
X132869500Y-118102500D02*
X132869500Y-120537500D01*
X132044500Y-117552500D02*
X130454900Y-117552500D01*
X132869500Y-120537500D02*
X132044700Y-121362300D01*
%TO.N,Net-(IC7-COM)*%
X134644800Y-118502500D02*
X138419500Y-118502500D01*
X138419500Y-118502500D02*
X138930000Y-119013000D01*
%TO.N,/GPIO18_VIBRO*%
X73121500Y-111911900D02*
X73121500Y-133996200D01*
D114*
X92958800Y-107072500D02*
X95840500Y-107072500D01*
D111*
X76568500Y-108464900D02*
X73121500Y-111911900D01*
%TO.N,/GPIO4_ADC1_3_BAT\u0025*%
X71606500Y-144410500D02*
X71606500Y-146696200D01*
D114*
X93269500Y-98125500D02*
X95897200Y-98125500D01*
D111*
X71606500Y-143237800D02*
X71606500Y-144410200D01*
X73239300Y-141605000D02*
X71606500Y-143237800D01*
%TO.N,/GPIO5_NRF24_CE*%
X83862500Y-134061200D02*
X83862500Y-135062500D01*
X89920500Y-121384500D02*
X89920500Y-120306200D01*
X88664300Y-116938400D02*
X87608500Y-117994200D01*
X88664300Y-103746700D02*
X88664300Y-116938400D01*
X83862500Y-135062500D02*
X83443500Y-135481500D01*
X92958500Y-99452500D02*
X88664300Y-103746700D01*
D114*
X92958800Y-99452500D02*
X95840500Y-99452500D01*
D111*
X89920500Y-120306200D02*
X87608500Y-117994200D01*
D114*
%TO.N,/GPIO11_CC1101B_GD0*%
X102864500Y-114692200D02*
X102864500Y-112197500D01*
D111*
X111927500Y-94030800D02*
X111927500Y-92024200D01*
%TO.N,/GPIO10_CC1101A_CTRL*%
X101026300Y-93453900D02*
X101026300Y-110603000D01*
X88435000Y-75989000D02*
X89027000Y-76581000D01*
X89281000Y-76581000D02*
X89334400Y-76634400D01*
X88260000Y-68585000D02*
X88260000Y-69325000D01*
X89027000Y-76581000D02*
X89281000Y-76581000D01*
X88773000Y-63840000D02*
X88773000Y-68072000D01*
X101172000Y-93308200D02*
X101026300Y-93453900D01*
X91384000Y-62279000D02*
X91009000Y-62654000D01*
X88060000Y-69525000D02*
X87335000Y-69525000D01*
X88260000Y-69325000D02*
X88060000Y-69525000D01*
X91009000Y-62654000D02*
X89959000Y-62654000D01*
X89959000Y-62654000D02*
X88773000Y-63840000D01*
X89334400Y-76634400D02*
X97953700Y-76634400D01*
X101026300Y-110603000D02*
X101472500Y-111049200D01*
X88773000Y-68072000D02*
X88260000Y-68585000D01*
D114*
X101472500Y-112075500D02*
X101472500Y-114570500D01*
D111*
X97953700Y-76634400D02*
X101172000Y-79852700D01*
X91384000Y-61554000D02*
X91384000Y-62279000D01*
X101472500Y-111049200D02*
X101472500Y-112075200D01*
X88060000Y-69525000D02*
X88435000Y-69900000D01*
X88435000Y-69900000D02*
X88435000Y-75989000D01*
X101172000Y-79852700D02*
X101172000Y-93308200D01*
D114*
%TO.N,/GPIO12_CC1101B_CTRL*%
X104012500Y-112075500D02*
X104012500Y-114570500D01*
D111*
X107805736Y-50432000D02*
X106680000Y-51557736D01*
X111930000Y-50843000D02*
X111519000Y-50432000D01*
X108376500Y-86155400D02*
X108376500Y-104478700D01*
X114425000Y-62159000D02*
X112830000Y-63754000D01*
X112380000Y-52182000D02*
X111930000Y-51732000D01*
X104012500Y-108842700D02*
X104012500Y-112075200D01*
X112830000Y-63754000D02*
X110236000Y-63754000D01*
X115275000Y-62159000D02*
X114425000Y-62159000D01*
X110236000Y-63754000D02*
X108249500Y-65740500D01*
X108249500Y-63104600D02*
X108249500Y-66040000D01*
X106680000Y-61535100D02*
X108249500Y-63104600D01*
X106680000Y-51557736D02*
X106680000Y-61535100D01*
X111519000Y-50432000D02*
X107805736Y-50432000D01*
X108249500Y-65740500D02*
X108249500Y-66040000D01*
X108249500Y-86028400D02*
X108376500Y-86155400D01*
X113030000Y-52182000D02*
X112380000Y-52182000D01*
X108249500Y-66040000D02*
X108249500Y-86028400D01*
X111930000Y-51732000D02*
X111930000Y-50843000D01*
X108376500Y-104478700D02*
X104012500Y-108842700D01*
%TO.N,/GPIO6_NRF24_CSN*%
X84459500Y-135414500D02*
X84459500Y-134609700D01*
X84332500Y-135541500D02*
X84459500Y-135414500D01*
X84362500Y-134512700D02*
X84362500Y-134061200D01*
X84459500Y-134609700D02*
X84362500Y-134512700D01*
D114*
X92958800Y-100722500D02*
X95840500Y-100722500D01*
D111*
%TO.N,/GPIO9_CC1101A_GD0*%
X96970300Y-88478000D02*
X94990500Y-86498200D01*
X97196900Y-88478000D02*
X96970300Y-88478000D01*
D114*
X100324500Y-114692200D02*
X100324500Y-112197500D01*
D111*
%TO.N,/GPIO7_NRF24_IRQ*%
X86800000Y-133123700D02*
X87754600Y-134078300D01*
D114*
X93269500Y-101935500D02*
X95897200Y-101935500D01*
%TO.N,/GPIO1_SCREEN_CS*%
X113397500Y-95585200D02*
X116269500Y-95585200D01*
%TO.N,/GPIO35_SCREEN_T_IRQ*%
X116326200Y-109612500D02*
X113454500Y-109612500D01*
D111*
%TO.N,/GPIO47_RDM630_EMULATION*%
X125454500Y-122058200D02*
X125454500Y-123580700D01*
D114*
X109092500Y-112075500D02*
X109092500Y-114570500D01*
D111*
X125454500Y-123580700D02*
X125213900Y-123821300D01*
D114*
%TO.N,/GPIO42_SD_CARD_CS*%
X113397800Y-100665500D02*
X116269500Y-100665500D01*
D111*
X135526000Y-159570600D02*
X135526000Y-165464000D01*
X135467400Y-159512000D02*
X135526000Y-159570600D01*
X135526000Y-165464000D02*
X135001000Y-165989000D01*
D114*
%TO.N,/GPIO36_SCREEN_T_CS*%
X113397800Y-108285500D02*
X116269500Y-108285500D01*
D111*
X112142400Y-144619700D02*
X112142400Y-146315600D01*
X112142400Y-146315600D02*
X111713000Y-146745000D01*
%TO.N,/GPIO2_SCREEN_D{slash}C*%
X97368700Y-143026700D02*
X96902400Y-143493000D01*
X97368700Y-132360800D02*
X97368700Y-143026700D01*
X96902400Y-144619700D02*
X96902400Y-143493000D01*
X97196900Y-132189000D02*
X97368700Y-132360800D01*
D114*
X113397800Y-96855500D02*
X116269500Y-96855500D01*
D111*
%TO.N,/GPIO38_IR_LED*%
X128997100Y-128559800D02*
X130059100Y-128559800D01*
D114*
X113397800Y-105745500D02*
X116269500Y-105745500D01*
%TO.N,/GPIO37_IR_RECEIVER*%
X116326200Y-107072500D02*
X113454500Y-107072500D01*
D111*
%TO.N,Net-(U10-ANT1)*%
X84862500Y-128401500D02*
X85354500Y-127909500D01*
X84862500Y-130186200D02*
X84862500Y-129293800D01*
X85362500Y-130186200D02*
X85362500Y-129773500D01*
X84862500Y-129293800D02*
X84862500Y-128401500D01*
X85354500Y-129785800D02*
X85354500Y-130178500D01*
X84862500Y-129293800D02*
X85354500Y-129785800D01*
X85362500Y-129773500D02*
X87227000Y-127909500D01*
%TO.N,Net-(U13-RF2)*%
X97232000Y-65232000D02*
X98132000Y-64332000D01*
X92756000Y-65232000D02*
X97232000Y-65232000D01*
X92034000Y-65954000D02*
X92756000Y-65232000D01*
%TO.N,Net-(U13-RF1)*%
X99339000Y-63507000D02*
X100164000Y-64332000D01*
X90084000Y-65954000D02*
X90084000Y-65104000D01*
X95421322Y-63507000D02*
X99339000Y-63507000D01*
X100164000Y-64332000D02*
X102183500Y-64332000D01*
X94074322Y-64854000D02*
X95421322Y-63507000D01*
X90334000Y-64854000D02*
X94074322Y-64854000D01*
X90084000Y-65104000D02*
X90334000Y-64854000D01*
%TO.N,/RTS*%
X103188500Y-167659500D02*
X100040100Y-167659500D01*
X102269300Y-162604500D02*
X103489500Y-163824500D01*
X96372500Y-161936500D02*
X97022500Y-161936500D01*
X103489500Y-167359500D02*
X103188500Y-167659500D01*
X103489500Y-163824500D02*
X103489500Y-167359500D01*
X97690600Y-162604500D02*
X102269300Y-162604500D01*
X97022500Y-161936500D02*
X97690600Y-162604500D01*
X100040100Y-167659500D02*
X99699500Y-167319500D01*
X99546700Y-164157500D02*
X97701700Y-164157500D01*
X99699500Y-164310500D02*
X99546700Y-164157500D01*
X99699500Y-167319500D02*
X99699500Y-164310500D01*
%TO.N,/DTR*%
X96372500Y-160036500D02*
X96372500Y-161078500D01*
X96372500Y-161078500D02*
X95722500Y-161728500D01*
X95701500Y-164157500D02*
X95701500Y-161957500D01*
%TO.N,Net-(Q5-B)*%
X120453500Y-131527500D02*
X121728500Y-130252500D01*
X121327500Y-134209500D02*
X121728500Y-133808500D01*
X121728500Y-133808500D02*
X120453500Y-132533500D01*
X117358500Y-133234500D02*
X118333500Y-134209500D01*
X118333500Y-134209500D02*
X121327500Y-134209500D01*
X120453500Y-132533500D02*
X120453500Y-131527500D01*
%TO.N,Net-(Q7-B)*%
X127012000Y-121477000D02*
X126618500Y-121083500D01*
X127012000Y-121477000D02*
X127012300Y-121477000D01*
X126618500Y-121083500D02*
X124429500Y-121083500D01*
X124429500Y-121083500D02*
X123942000Y-121571000D01*
X127012300Y-121477000D02*
X127405500Y-121870200D01*
X127405500Y-121870500D02*
X127012000Y-121477000D01*
D112*
%TO.N,Net-(U1-PROG)*%
X88167500Y-148127500D02*
X88626500Y-148586500D01*
X86921300Y-148127500D02*
X88167500Y-148127500D01*
D114*
%TO.N,Net-(USB_OTG1-CC2)*%
X115093500Y-175017500D02*
X113693500Y-176417500D01*
X115707200Y-175017500D02*
X115093500Y-175017500D01*
X113693500Y-176417500D02*
X113693500Y-177342200D01*
%TO.N,Net-(USB_UART1-CC2)*%
X97453500Y-175017500D02*
X96053500Y-176417500D01*
X96053500Y-176417500D02*
X96053500Y-177342200D01*
X98054200Y-175017500D02*
X97453500Y-175017500D01*
%TO.N,Net-(USB_OTG1-CC1)*%
X110693500Y-176367500D02*
X110693500Y-177342200D01*
X109343500Y-175017500D02*
X110693500Y-176367500D01*
X108198800Y-175017500D02*
X109343500Y-175017500D01*
%TO.N,Net-(USB_UART1-CC1)*%
X91703500Y-175017500D02*
X93053500Y-176367500D01*
X90656800Y-175017500D02*
X91703500Y-175017500D01*
X93053500Y-176367500D02*
X93053500Y-177342200D01*
D112*
%TO.N,Net-(U1-STAT)*%
X84646300Y-148127500D02*
X85308500Y-148127500D01*
X80200900Y-151786500D02*
X75707900Y-151786500D01*
X85627100Y-148445500D02*
X85627100Y-150375500D01*
X80758200Y-151229500D02*
X80200900Y-151786500D01*
X84773000Y-151229500D02*
X80758200Y-151229500D01*
X85627100Y-150375500D02*
X84773000Y-151229500D01*
X75707900Y-151786500D02*
X75443200Y-152051500D01*
X85308500Y-148127500D02*
X85627100Y-148445500D01*
D111*
%TO.N,Net-(U6-~{RST})*%
X96201500Y-169840500D02*
X96016500Y-170025500D01*
X96201500Y-168032700D02*
X96201500Y-169840500D01*
D114*
%TO.N,/RX*%
X113397800Y-99395500D02*
X116269500Y-99395500D01*
D111*
%TO.N,Net-(U6-TXD)*%
X101479500Y-163806500D02*
X101479500Y-165819500D01*
X96701500Y-163638500D02*
X97219800Y-163120500D01*
X101479500Y-165819500D02*
X100614500Y-166684500D01*
X100793200Y-163120500D02*
X101479500Y-163806500D01*
X96701500Y-164157500D02*
X96701500Y-163638500D01*
X97219800Y-163120500D02*
X100793200Y-163120500D01*
%TO.N,/TX*%
X111518700Y-103878000D02*
X111518700Y-102919100D01*
D114*
X113397800Y-98125500D02*
X116269500Y-98125500D01*
D111*
X105987400Y-121850600D02*
X112531200Y-115306800D01*
X105987400Y-148915800D02*
X105987400Y-121850600D01*
X111518700Y-102919100D02*
X112371500Y-102066300D01*
X107097500Y-150025900D02*
X105987400Y-148915800D01*
X112371500Y-113002100D02*
X112371500Y-104730800D01*
X112531200Y-113161800D02*
X112371500Y-113002100D01*
X112371500Y-98125200D02*
X113397500Y-98125200D01*
X112371500Y-102066300D02*
X112371500Y-98125200D01*
X112531200Y-115306800D02*
X112531200Y-113161800D01*
X112371500Y-104730800D02*
X111518700Y-103878000D01*
%TO.N,Net-(U6-RXD)*%
X97201500Y-163633500D02*
X97201500Y-164157500D01*
X100604500Y-164564500D02*
X99510200Y-163470500D01*
X97364800Y-163470500D02*
X97201500Y-163633500D01*
X99510200Y-163470500D02*
X97364800Y-163470500D01*
%TO.N,Net-(U10-IREF)*%
X82808500Y-130655500D02*
X82925000Y-130772500D01*
X82925000Y-130772500D02*
X82925000Y-131123500D01*
X80252500Y-131560500D02*
X81157500Y-130655500D01*
X81157500Y-130655500D02*
X82808500Y-130655500D01*
%TO.N,Net-(U13-RFC)*%
X92665000Y-60270200D02*
X93615000Y-59320200D01*
D113*
X93602500Y-55256200D02*
X93602500Y-57288200D01*
D111*
X93602500Y-57288200D02*
X93602500Y-59307700D01*
D113*
X93602500Y-57288200D02*
X93602500Y-59307700D01*
D111*
X91167800Y-60270200D02*
X92665000Y-60270200D01*
X90734000Y-60704000D02*
X91167800Y-60270200D01*
X93602500Y-55256200D02*
X93602500Y-57288200D01*
X90734000Y-61554000D02*
X90734000Y-60704000D01*
%TO.N,Net-(U6-D+)*%
X93333700Y-172251500D02*
X93515100Y-172070500D01*
X93730500Y-165718500D02*
X93730500Y-164310500D01*
X88527500Y-163409500D02*
X88527500Y-170304500D01*
X90720400Y-162659500D02*
X89277800Y-162659500D01*
X92857300Y-172251500D02*
X93333700Y-172251500D01*
X92054600Y-162659500D02*
X91961900Y-162752500D01*
X92282300Y-171676500D02*
X92857300Y-172251500D01*
X95435500Y-171316500D02*
X95435500Y-170999500D01*
X91961900Y-162752500D02*
X90813100Y-162752500D01*
X93730500Y-164310500D02*
X92079500Y-162659500D01*
X94681900Y-172070500D02*
X95435500Y-171316500D01*
X92079500Y-162659500D02*
X92054600Y-162659500D01*
X94513700Y-165845500D02*
X93857500Y-165845500D01*
X90813100Y-162752500D02*
X90720400Y-162659500D01*
X93515100Y-172070500D02*
X94681900Y-172070500D01*
X89899400Y-171676500D02*
X92282300Y-171676500D01*
X88527500Y-170304500D02*
X89899400Y-171676500D01*
X89277800Y-162659500D02*
X88527500Y-163409500D01*
X93857500Y-165845500D02*
X93730500Y-165718500D01*
%TO.N,Net-(U6-D-)*%
X93862500Y-166345500D02*
X94513700Y-166345500D01*
X93380500Y-164849500D02*
X93380500Y-165863500D01*
X94360500Y-169903500D02*
X94365500Y-169898500D01*
X94360500Y-170999200D02*
X94360500Y-169903500D01*
X93380500Y-165863500D02*
X93862500Y-166345500D01*
X92460500Y-163929500D02*
X93380500Y-164849500D01*
D114*
%TO.N,Net-(U2-I{slash}O2-Pad3)*%
X95053500Y-177342200D02*
X95053500Y-176367500D01*
X95435500Y-175985500D02*
X95435500Y-172699500D01*
D111*
X94938800Y-178342500D02*
X95053500Y-178227500D01*
X95053500Y-178227500D02*
X95053500Y-177342500D01*
D114*
X95053500Y-176367500D02*
X95435500Y-175985500D01*
D111*
X94128500Y-178342500D02*
X94938800Y-178342500D01*
X94053500Y-178267500D02*
X94128500Y-178342500D01*
X94053500Y-177342500D02*
X94053500Y-178267500D01*
%TO.N,Net-(U2-I{slash}O1-Pad1)*%
X93628500Y-176342500D02*
X94478500Y-176342500D01*
X94478500Y-176342500D02*
X94553500Y-176417500D01*
D114*
X93553500Y-176417500D02*
X93553500Y-177342200D01*
X94360500Y-172699500D02*
X93553500Y-173506500D01*
D111*
X93553500Y-177342200D02*
X93553500Y-176417500D01*
X94553500Y-176417500D02*
X94553500Y-177342200D01*
D114*
X93553500Y-173506500D02*
X93553500Y-176417500D01*
D111*
X93553500Y-176417500D02*
X93628500Y-176342500D01*
D113*
%TO.N,/D+*%
X112707500Y-173167500D02*
X112633500Y-173242500D01*
X112633500Y-176596500D02*
X112619500Y-176610500D01*
D111*
X112591500Y-178342500D02*
X112693500Y-178240500D01*
X111818500Y-178342500D02*
X112591500Y-178342500D01*
X111693500Y-178217500D02*
X111818500Y-178342500D01*
D113*
X112633500Y-173242500D02*
X112633500Y-176596500D01*
D111*
X112707500Y-171924500D02*
X112707500Y-172699200D01*
D113*
X112619500Y-176610500D02*
X112619500Y-176693500D01*
X112707500Y-171455500D02*
X112633500Y-171381500D01*
X94773500Y-110825500D02*
X94314300Y-110366500D01*
X112707500Y-172699500D02*
X112707500Y-173167500D01*
X93400000Y-110366500D02*
X92958500Y-110807500D01*
D111*
X111693500Y-177342500D02*
X111693500Y-178217500D01*
D113*
X112633500Y-170938500D02*
X112882500Y-170688500D01*
X95897200Y-110825500D02*
X94773500Y-110825500D01*
X94314300Y-110366500D02*
X93400000Y-110366500D01*
D111*
X112693500Y-178240500D02*
X112693500Y-177342500D01*
D113*
X112707500Y-171924200D02*
X112707500Y-171455500D01*
X112633500Y-171381500D02*
X112633500Y-170938500D01*
%TO.N,/D-*%
X112281500Y-171381500D02*
X112281500Y-170938500D01*
X112281500Y-176461500D02*
X112267500Y-176475500D01*
D111*
X112207500Y-171924500D02*
X112207500Y-172699200D01*
D113*
X112207500Y-171924200D02*
X112207500Y-171455500D01*
X94773500Y-109555500D02*
X94314300Y-110014500D01*
D111*
X111193500Y-177342200D02*
X111193500Y-176417500D01*
X111268500Y-176342500D02*
X112134500Y-176342500D01*
D113*
X93360700Y-110014500D02*
X93159600Y-109813500D01*
D111*
X112193500Y-176401500D02*
X112193500Y-177342200D01*
X111193500Y-176417500D02*
X111268500Y-176342500D01*
D113*
X112281500Y-173242500D02*
X112281500Y-176461500D01*
X112207500Y-173167500D02*
X112281500Y-173242500D01*
X94314300Y-110014500D02*
X93360700Y-110014500D01*
X95897200Y-109555500D02*
X94773500Y-109555500D01*
D111*
X112134500Y-176342500D02*
X112193500Y-176401500D01*
D113*
X112267500Y-176475500D02*
X112267500Y-176693500D01*
X112281500Y-170938500D02*
X112032500Y-170688500D01*
X112207500Y-172699500D02*
X112207500Y-173167500D01*
X112207500Y-171455500D02*
X112281500Y-171381500D01*
D111*
%TO.N,Net-(AE7-A)*%
X91100000Y-34669000D02*
X94123500Y-31645500D01*
X94123500Y-31645500D02*
X94123500Y-26557200D01*
X91100000Y-35519000D02*
X91100000Y-34669000D01*
%TO.N,Net-(AE8-A)*%
X95616700Y-35519000D02*
X96123500Y-35012200D01*
X93050000Y-35519000D02*
X95616700Y-35519000D01*
D112*
%TO.N,Net-(IC1-VIN)*%
X80695500Y-174215500D02*
X79433500Y-175477500D01*
X77583500Y-168889200D02*
X77583500Y-173627500D01*
X77583500Y-173627500D02*
X79433500Y-175477500D01*
D115*
X79433500Y-175477500D02*
X79433500Y-177312200D01*
X81719200Y-177312500D02*
X79433500Y-177312500D01*
D112*
X77583500Y-168889500D02*
X77583500Y-168889200D01*
D115*
X77136800Y-177271500D02*
X79392500Y-177271500D01*
D112*
X81135200Y-174215500D02*
X80695500Y-174215500D01*
D113*
%TO.N,Net-(IC2-DCOUPL)*%
X90556500Y-84339200D02*
X90413500Y-84482200D01*
X92628500Y-84339200D02*
X90556500Y-84339200D01*
D111*
%TO.N,Net-(IC2-XOSC_Q1)*%
X92905500Y-80917200D02*
X91681200Y-82141500D01*
X89279200Y-82141500D02*
X88513500Y-82907200D01*
X88513500Y-82907200D02*
X88513500Y-83582200D01*
D113*
X95311500Y-83323200D02*
X96471500Y-83323200D01*
X92905500Y-80917200D02*
X95311500Y-83323200D01*
D111*
X91681200Y-82141500D02*
X89279200Y-82141500D01*
%TO.N,Net-(IC2-XOSC_Q2)*%
X94630500Y-77442200D02*
X95805500Y-78617200D01*
D113*
X98419500Y-78708200D02*
X95896500Y-78708200D01*
D111*
X89618500Y-78637100D02*
X90813400Y-77442200D01*
X87513500Y-82912200D02*
X89618500Y-80807200D01*
X87513500Y-83582200D02*
X87513500Y-82912200D01*
X90813400Y-77442200D02*
X94630500Y-77442200D01*
X89618500Y-80807200D02*
X89618500Y-78637100D01*
D114*
%TO.N,Net-(C28-Pad1)*%
X122168500Y-151781500D02*
X124454500Y-151781500D01*
X124454500Y-151781500D02*
X126740500Y-151781500D01*
X118483500Y-150894500D02*
X121281500Y-150894500D01*
X117596500Y-151781500D02*
X118483500Y-150894500D01*
X126740500Y-151781500D02*
X128989500Y-151781500D01*
X121281500Y-150894500D02*
X122168500Y-151781500D01*
%TO.N,Net-(C29-Pad2)*%
X118467500Y-154974500D02*
X121281500Y-154974500D01*
X121281500Y-154974500D02*
X122168500Y-155861500D01*
X117596500Y-155845500D02*
X118467500Y-154974500D01*
X126777500Y-155824500D02*
X129026500Y-155824500D01*
X124454400Y-155861500D02*
X126740300Y-155861500D01*
X122168500Y-155861500D02*
X124454400Y-155861500D01*
D111*
%TO.N,Net-(C33-Pad2)*%
X122168500Y-149706500D02*
X122168500Y-146955700D01*
D114*
X119882700Y-149706500D02*
X122168500Y-149706500D01*
X115369500Y-149719500D02*
X117583500Y-149719500D01*
X117596500Y-149706500D02*
X119882700Y-149706500D01*
D112*
%TO.N,Net-(C34-Pad1)*%
X115310500Y-158650500D02*
X119871500Y-158650500D01*
D114*
X117596700Y-153770500D02*
X119866500Y-153770500D01*
D112*
X119882500Y-158639500D02*
X122168300Y-158639500D01*
D114*
X119882500Y-153786500D02*
X122168300Y-153786500D01*
X115533500Y-155833500D02*
X117596500Y-153770500D01*
X115310500Y-158650200D02*
X115310500Y-155833500D01*
D111*
%TO.N,Net-(C45-Pad1)*%
X97996000Y-68278000D02*
X97996000Y-70047000D01*
X96109000Y-70310000D02*
X98005000Y-70310000D01*
%TO.N,Net-(C46-Pad1)*%
X96109000Y-68278000D02*
X96109000Y-66403500D01*
X99314000Y-65532000D02*
X100164000Y-66382000D01*
X96100000Y-66394500D02*
X96962500Y-65532000D01*
X96962500Y-65532000D02*
X99314000Y-65532000D01*
%TO.N,Net-(U12-TXRX)*%
X82306500Y-122036500D02*
X85354300Y-122036500D01*
X80766500Y-119365800D02*
X80766500Y-120496500D01*
X80766500Y-120496500D02*
X82306500Y-122036500D01*
%TO.N,Net-(C49-Pad1)*%
X85354500Y-125859200D02*
X85354500Y-124111700D01*
D113*
%TO.N,Net-(IC3-TVDD)*%
X101567000Y-161135500D02*
X101567000Y-159103500D01*
X101182500Y-155961700D02*
X101182500Y-158592500D01*
D111*
%TO.N,Net-(IC3-AVDD)*%
X111319500Y-165161500D02*
X111319500Y-162189500D01*
X110644500Y-165836500D02*
X111319500Y-165161500D01*
D113*
X110055500Y-166550500D02*
X104892500Y-166550500D01*
X104892500Y-166550500D02*
X104418500Y-166076500D01*
X110519500Y-159230500D02*
X110519500Y-161389500D01*
X102747500Y-161768500D02*
X102747500Y-156026500D01*
X110644500Y-165961500D02*
X110055500Y-166550500D01*
X104418500Y-166076500D02*
X104418500Y-163187500D01*
X103342500Y-162111500D02*
X103090500Y-162111500D01*
X103090500Y-162111500D02*
X102747500Y-161768500D01*
X104418500Y-163187500D02*
X103342500Y-162111500D01*
D111*
X111319500Y-162189500D02*
X110519500Y-161389500D01*
%TO.N,Net-(C53-Pad1)*%
X100046000Y-68278000D02*
X100046000Y-70065000D01*
X98150000Y-66382000D02*
X100046000Y-68278000D01*
%TO.N,Net-(C57-Pad1)*%
X113220500Y-162739700D02*
X114663700Y-161297100D01*
X113220600Y-162739800D02*
X113220500Y-162739700D01*
X115310500Y-160650200D02*
X114663700Y-161297000D01*
X114663700Y-161297100D02*
X115310500Y-160650500D01*
X114663700Y-161297000D02*
X114663700Y-161297100D01*
X112532000Y-163675500D02*
X113220600Y-162986900D01*
X112531500Y-163428500D02*
X113220500Y-162739700D01*
X113220600Y-162986900D02*
X113220600Y-162739800D01*
%TO.N,Net-(IC3-RX)*%
X110457000Y-163675500D02*
X107414500Y-163675500D01*
D113*
X107414500Y-163675500D02*
X109097500Y-161992500D01*
X108241500Y-155961500D02*
X103682700Y-155961500D01*
X109097500Y-161992500D02*
X109097500Y-156817500D01*
X109097500Y-156817500D02*
X108241500Y-155961500D01*
%TO.N,Net-(IC3-VMID)*%
X104808500Y-158116500D02*
X103182500Y-156490500D01*
D111*
X105414500Y-163675500D02*
X105414500Y-165682500D01*
D113*
X104808500Y-163069500D02*
X104808500Y-158116500D01*
X105414500Y-163675500D02*
X104808500Y-163069500D01*
X103182500Y-156490500D02*
X103182500Y-155961700D01*
D111*
%TO.N,Net-(IC2-RF_P)*%
X84576500Y-81715200D02*
X84576500Y-83598700D01*
X85749000Y-84982200D02*
X86613500Y-84982200D01*
X84471000Y-83704200D02*
X85749000Y-84982200D01*
%TO.N,Net-(IC2-RF_N)*%
X84097300Y-85405500D02*
X85571500Y-85405500D01*
X85648200Y-85482200D02*
X86613500Y-85482200D01*
X82290500Y-81693700D02*
X82290500Y-83598700D01*
X85571500Y-85405500D02*
X85648200Y-85482200D01*
X82396000Y-83704200D02*
X84097300Y-85405500D01*
%TO.N,Net-(U12-ANT)*%
X80249500Y-109104500D02*
X80249500Y-111123500D01*
X80237000Y-112152300D02*
X80237000Y-111136200D01*
X80266500Y-116470200D02*
X80266500Y-115843500D01*
X80237000Y-115814000D02*
X80237000Y-116440500D01*
X80266500Y-115843500D02*
X80237000Y-115814000D01*
X80237000Y-113168200D02*
X80237000Y-115814000D01*
X80237000Y-112152300D02*
X80237000Y-113168200D01*
X80237000Y-111136500D02*
X80237000Y-112152300D01*
%TO.N,Net-(C71-Pad1)*%
X85229500Y-74433200D02*
X87116500Y-74433200D01*
X85220500Y-72401200D02*
X85220500Y-74424200D01*
D113*
%TO.N,Net-(IC3-OSCIN)*%
X108086500Y-153537500D02*
X109037500Y-154488500D01*
X104370300Y-153774500D02*
X106249500Y-153774500D01*
D111*
X111213500Y-154404500D02*
X109121500Y-154404500D01*
D113*
X106249500Y-153774500D02*
X106486500Y-153537500D01*
X106486500Y-153537500D02*
X108086500Y-153537500D01*
D111*
%TO.N,Net-(IC3-SVDD)*%
X93021100Y-153729500D02*
X98450000Y-153729500D01*
X92720500Y-155153500D02*
X92720500Y-154029500D01*
X92720500Y-154029500D02*
X93021100Y-153729500D01*
X95795400Y-157364300D02*
X93885500Y-155454500D01*
X93885500Y-155454500D02*
X93021100Y-155454500D01*
X93021100Y-155454500D02*
X92720500Y-155153500D01*
D113*
%TO.N,Net-(IC3-OSCOUT)*%
X104807500Y-153274500D02*
X105795500Y-152286500D01*
D111*
X109037500Y-152288500D02*
X111065500Y-152288500D01*
D113*
X105795500Y-152118500D02*
X106576500Y-151337500D01*
X106576500Y-151337500D02*
X108086500Y-151337500D01*
X104370300Y-153274500D02*
X104807500Y-153274500D01*
X108086500Y-151337500D02*
X109037000Y-152288000D01*
X105795500Y-152286500D02*
X105795500Y-152118500D01*
D111*
%TO.N,Net-(C77-Pad1)*%
X83158000Y-70369200D02*
X83158000Y-68374700D01*
X83170500Y-72401200D02*
X83170500Y-70381700D01*
%TO.N,Net-(C78-Pad1)*%
X82299500Y-107084500D02*
X82299500Y-109104200D01*
X82312000Y-106056300D02*
X82312000Y-105040200D01*
X82299500Y-103008500D02*
X82299500Y-105027500D01*
X82312000Y-106056300D02*
X82312000Y-107072200D01*
X82312000Y-105040500D02*
X82312000Y-106056300D01*
%TO.N,Net-(IC6-DCOUPL)*%
X114405500Y-87890200D02*
X114405500Y-89364500D01*
X114405500Y-89364500D02*
X115056500Y-90015500D01*
%TO.N,Net-(IC6-XOSC_Q1)*%
X116883500Y-85990200D02*
X117860500Y-86967500D01*
X118972000Y-92340200D02*
X118972000Y-90152700D01*
X117860500Y-86967500D02*
X117860500Y-88872500D01*
X117860500Y-88872500D02*
X119056500Y-90068200D01*
X115305500Y-85990200D02*
X116883500Y-85990200D01*
X119374500Y-90068200D02*
X119374500Y-91937700D01*
%TO.N,Net-(IC6-XOSC_Q2)*%
X120434500Y-84682200D02*
X122274500Y-86521800D01*
X122274500Y-87768200D02*
X124559500Y-87768200D01*
X122274500Y-86521800D02*
X122274500Y-87768200D01*
X115305500Y-84990200D02*
X115613500Y-84682200D01*
X115613500Y-84682200D02*
X120434500Y-84682200D01*
%TO.N,Net-(Q5-C)*%
X123873500Y-132477500D02*
X125148500Y-131202500D01*
X118876500Y-136370500D02*
X122689500Y-136370500D01*
X123873500Y-135186500D02*
X123873500Y-132477500D01*
X117358500Y-131202500D02*
X116483500Y-132077500D01*
X116483500Y-133977500D02*
X118876500Y-136370500D01*
X122689500Y-136370500D02*
X123873500Y-135186500D01*
X116483500Y-132077500D02*
X116483500Y-133977500D01*
X125148500Y-131202200D02*
X125148500Y-128564500D01*
X125423500Y-128496500D02*
X127289500Y-126630500D01*
%TO.N,Net-(IC5-NC_(SOURCE2))*%
X134644500Y-123262500D02*
X134644500Y-125037500D01*
X132797500Y-126337500D02*
X129280500Y-122820500D01*
X134644500Y-125037500D02*
X133344500Y-126337500D01*
%TO.N,Net-(C96-Pad1)*%
X117865000Y-57628300D02*
X117865000Y-59309000D01*
X122279500Y-59309000D02*
X122301000Y-59287500D01*
X117865000Y-59309000D02*
X122279500Y-59309000D01*
%TO.N,Net-(IC6-RF_P)*%
X113905500Y-78272700D02*
X114697500Y-77481200D01*
X114845500Y-77629700D02*
X116580500Y-77629700D01*
X113905500Y-84090200D02*
X113905500Y-78272700D01*
%TO.N,Net-(IC6-RF_N)*%
X113405500Y-78264700D02*
X113405500Y-84090200D01*
X110611500Y-77629700D02*
X112473500Y-77629700D01*
X112621500Y-77481200D02*
X113405500Y-78264700D01*
%TO.N,Net-(C113-Pad1)*%
X115192500Y-71258200D02*
X117193500Y-71258200D01*
X115183500Y-69362200D02*
X115183500Y-71249200D01*
D113*
%TO.N,Net-(D1-A)*%
X71720800Y-136028500D02*
X72105200Y-136028500D01*
X66878500Y-140030500D02*
X69311200Y-140030500D01*
X69311500Y-140030500D02*
X70604700Y-138737500D01*
X70604700Y-137144500D02*
X71720800Y-136028500D01*
X70604700Y-138737500D02*
X70604700Y-137144500D01*
D111*
%TO.N,Net-(D3-K)*%
X65304500Y-144410500D02*
X65304500Y-146646500D01*
%TO.N,Net-(D5-A)*%
X135001000Y-161039000D02*
X134476000Y-161564000D01*
X134476000Y-161564000D02*
X134476000Y-166988000D01*
X136536200Y-169048200D02*
X139939500Y-169048200D01*
X134476000Y-166988000D02*
X136536200Y-169048200D01*
D112*
%TO.N,Net-(IC1-FB)*%
X81135800Y-173215500D02*
X81660100Y-173215500D01*
X81792500Y-174597500D02*
X82672200Y-175477500D01*
X81660100Y-173215500D02*
X81792500Y-173347500D01*
X81792500Y-173347500D02*
X81792500Y-174597500D01*
X82672200Y-175477500D02*
X84513200Y-175477500D01*
X84513500Y-175477500D02*
X84513500Y-177287200D01*
%TO.N,Net-(IC1-EN)*%
X81135200Y-173715500D02*
X79671500Y-173715500D01*
%TO.N,Net-(IC1-SW)*%
X82229600Y-169835500D02*
X81283500Y-168889200D01*
X82811200Y-173715500D02*
X82336900Y-173715500D01*
X82229600Y-173607500D02*
X82229600Y-169835500D01*
X81283500Y-168889200D02*
X81283500Y-168889500D01*
X82336900Y-173715500D02*
X82229600Y-173607500D01*
D111*
%TO.N,Net-(IC2-RBIAS)*%
X86989500Y-89412500D02*
X88013500Y-88388500D01*
X88013500Y-88388500D02*
X88013500Y-87382200D01*
D113*
%TO.N,Net-(IC2-GDO0_(ATEST))*%
X93529300Y-83849900D02*
X93529300Y-85959400D01*
X93242900Y-83563400D02*
X93529300Y-83849900D01*
X89532300Y-83563400D02*
X93242900Y-83563400D01*
X93529300Y-85959400D02*
X92990500Y-86498200D01*
%TO.N,Net-(IC3-TX2)*%
X114359500Y-154734500D02*
X115310500Y-153783500D01*
X104571500Y-166977500D02*
X113155500Y-166977500D01*
X116336500Y-159862500D02*
X115974500Y-159501500D01*
X101682500Y-157333500D02*
X102445500Y-158096500D01*
X103217500Y-162412500D02*
X104116500Y-163312500D01*
X116336500Y-163796500D02*
X116336500Y-159862500D01*
X114646500Y-159501500D02*
X114359500Y-159214500D01*
X102445500Y-158096500D02*
X102445500Y-161893500D01*
X115974500Y-159501500D02*
X114646500Y-159501500D01*
X114359500Y-159214500D02*
X114359500Y-154734500D01*
X104116500Y-166523500D02*
X104571500Y-166977500D01*
X102965500Y-162412500D02*
X103217500Y-162412500D01*
X101682500Y-155961700D02*
X101682500Y-157333500D01*
X113155500Y-166977500D02*
X116336500Y-163796500D01*
X102445500Y-161893500D02*
X102965500Y-162412500D01*
X104116500Y-163312500D02*
X104116500Y-166523500D01*
%TO.N,Net-(IC3-TX1)*%
X129977500Y-155234500D02*
X129417500Y-154675500D01*
X119086500Y-167279500D02*
X129977500Y-156388500D01*
X116161500Y-152620500D02*
X115310500Y-151769500D01*
X122529500Y-152620500D02*
X116161500Y-152620500D01*
X100715500Y-156432500D02*
X100715500Y-162151500D01*
X123815500Y-154675500D02*
X123144500Y-154004500D01*
X123144500Y-154004500D02*
X123144500Y-153234500D01*
X103815500Y-163437500D02*
X103815500Y-166648500D01*
X103092500Y-162714500D02*
X103815500Y-163437500D01*
X100682500Y-155961700D02*
X100682500Y-156399500D01*
X100715500Y-162151500D02*
X100842500Y-162278500D01*
X129417500Y-154675500D02*
X123815500Y-154675500D01*
X100842500Y-162278500D02*
X102404300Y-162278500D01*
X102840500Y-162714500D02*
X103092500Y-162714500D01*
X103815500Y-166648500D02*
X104446500Y-167279500D01*
X100682500Y-156399500D02*
X100715500Y-156432500D01*
X102404300Y-162278500D02*
X102840500Y-162714500D01*
X123144500Y-153234500D02*
X122529500Y-152620500D01*
X129977500Y-156388500D02*
X129977500Y-155234500D01*
X104446500Y-167279500D02*
X119086500Y-167279500D01*
D111*
%TO.N,Net-(IC4-P0.0)*%
X115351300Y-121729000D02*
X107002000Y-121729000D01*
X119358500Y-133234200D02*
X119358500Y-131202200D01*
X107002000Y-121729000D02*
X107002000Y-125798000D01*
X111481200Y-130277200D02*
X118433500Y-130277200D01*
X115696500Y-122074200D02*
X115351300Y-121729000D01*
X118433500Y-130277200D02*
X119358500Y-131202200D01*
X107002000Y-125798000D02*
X111481200Y-130277200D01*
%TO.N,Net-(IC4-P1.2)*%
X119358500Y-127138500D02*
X119358500Y-128154300D01*
X119358500Y-128154300D02*
X119358500Y-129170200D01*
X119358500Y-128154300D02*
X119358500Y-127138200D01*
X119496500Y-124074500D02*
X119496500Y-127000500D01*
%TO.N,Net-(U16-RFC)*%
X113030000Y-51532000D02*
X113652322Y-51532000D01*
X115062000Y-49022000D02*
X117335000Y-49022000D01*
X115062000Y-50122322D02*
X115062000Y-49022000D01*
X117348000Y-49034500D02*
X119349000Y-49034500D01*
X113652322Y-51532000D02*
X115062000Y-50122322D01*
%TO.N,Net-(IC5-NO_(SOURCE1))*%
X134369500Y-121362500D02*
X133223000Y-122509000D01*
X130246500Y-122245500D02*
X128512500Y-122245500D01*
X128173500Y-123195500D02*
X128417500Y-123440500D01*
X130556000Y-122555000D02*
X130246500Y-122245500D01*
X130556000Y-123045000D02*
X130556000Y-122555000D01*
X133223000Y-123459000D02*
X132844500Y-123837500D01*
X131348500Y-123837500D02*
X130556000Y-123045000D01*
X126877500Y-125830500D02*
X124329500Y-125830500D01*
X128417500Y-123440500D02*
X128417500Y-124289500D01*
X128417500Y-124289500D02*
X126877500Y-125830500D01*
X123003500Y-133427500D02*
X123003500Y-134433500D01*
X128173500Y-122584500D02*
X128173500Y-123195500D01*
X128512500Y-122245500D02*
X128173500Y-122584500D01*
X124329500Y-125830500D02*
X123003500Y-127156500D01*
X123003500Y-130877500D02*
X121728500Y-132152500D01*
X121728500Y-132152500D02*
X123003500Y-133427500D01*
X133223000Y-122509000D02*
X133223000Y-123459000D01*
X123003500Y-134433500D02*
X121728700Y-135708300D01*
X123003500Y-127156500D02*
X123003500Y-130877500D01*
X132844500Y-123837500D02*
X131348500Y-123837500D01*
%TO.N,Net-(IC5-COM)*%
X139440200Y-122063500D02*
X134893500Y-122063500D01*
X134893500Y-122063500D02*
X134644700Y-122312300D01*
%TO.N,Net-(IC6-RBIAS)*%
X109249500Y-85482200D02*
X111497500Y-85482200D01*
%TO.N,Net-(IC6-GDO0_(ATEST))*%
X115305500Y-86990200D02*
X115981500Y-87666200D01*
X115981500Y-87666200D02*
X115981500Y-90514900D01*
X113542500Y-91223200D02*
X112135500Y-89816200D01*
X115981500Y-90514900D02*
X116022500Y-90555900D01*
X113542500Y-92555500D02*
X113542500Y-91223200D01*
X116022500Y-92419900D02*
X115632500Y-92809500D01*
X113796500Y-92809500D02*
X113542500Y-92555500D01*
X115632500Y-92809500D02*
X113796500Y-92809500D01*
X116022500Y-90555900D02*
X116022500Y-92419900D01*
%TO.N,Net-(J3-CLK)*%
X123952000Y-172593000D02*
X123952000Y-170570904D01*
X125231904Y-169291000D02*
X127254000Y-169291000D01*
X128651000Y-167894000D02*
X128651000Y-165989000D01*
X123952000Y-170570904D02*
X125231904Y-169291000D01*
X128713500Y-178866000D02*
X128713500Y-177354500D01*
X128713500Y-177354500D02*
X123952000Y-172593000D01*
X127254000Y-169291000D02*
X128651000Y-167894000D01*
%TO.N,Net-(J3-CMD)*%
X131191000Y-165989000D02*
X131191000Y-166963999D01*
X130429000Y-168871500D02*
X131356500Y-169799000D01*
X133982566Y-169799000D02*
X134618500Y-170434934D01*
X130429000Y-167725999D02*
X130429000Y-168871500D01*
X134618500Y-173737500D02*
X130913500Y-177442500D01*
X131356500Y-169799000D02*
X133982566Y-169799000D01*
X131191000Y-166963999D02*
X130429000Y-167725999D01*
X134618500Y-170434934D02*
X134618500Y-173737500D01*
X130913500Y-177442500D02*
X130913500Y-178866000D01*
%TO.N,Net-(J3-CD{slash}DAT3)*%
X139964200Y-171334500D02*
X137076500Y-171334500D01*
X138795300Y-171334200D02*
X139964500Y-171334200D01*
X132013500Y-178116000D02*
X138795300Y-171334200D01*
X132013500Y-178466000D02*
X132013500Y-178116000D01*
X137076500Y-171334500D02*
X133731000Y-167989000D01*
X133731000Y-167989000D02*
X133731000Y-165989000D01*
D114*
%TO.N,Net-(J5-In)*%
X136170500Y-152538500D02*
X136656200Y-152538500D01*
X131312500Y-149728500D02*
X133328500Y-149728500D01*
X129026800Y-149744500D02*
X131296500Y-149744500D01*
X133344500Y-149712500D02*
X136170500Y-152538500D01*
D111*
%TO.N,Net-(J5-Ext)*%
X139656500Y-152538500D02*
X138678500Y-153516500D01*
X138678500Y-154013500D02*
X138678500Y-153516500D01*
D114*
X131344500Y-153808500D02*
X133344500Y-155808500D01*
X129027400Y-153824500D02*
X131296500Y-153824500D01*
D111*
X138181500Y-151063500D02*
X139656500Y-152538500D01*
X138678500Y-153516500D02*
X138181500Y-154013500D01*
D114*
X133344800Y-155808500D02*
X136361500Y-155808500D01*
X136361500Y-155808500D02*
X138156500Y-154013500D01*
D111*
%TO.N,Net-(L2-Pad1)*%
X87640500Y-124099500D02*
X87640500Y-125859200D01*
%TO.N,Net-(U11-RF2)*%
X94869000Y-69500000D02*
X94059000Y-70310000D01*
X94869000Y-67634322D02*
X94869000Y-69500000D01*
X93257000Y-67353000D02*
X94587678Y-67353000D01*
X91735000Y-68875000D02*
X93257000Y-67353000D01*
X94587678Y-67353000D02*
X94869000Y-67634322D01*
%TO.N,Net-(U11-RF1)*%
X93259000Y-70151000D02*
X93259000Y-69078000D01*
X91735000Y-70825000D02*
X92585000Y-70825000D01*
X93259000Y-69078000D02*
X94059000Y-68278000D01*
X92585000Y-70825000D02*
X93259000Y-70151000D01*
%TO.N,Net-(U14-RF2)*%
X118590000Y-61509000D02*
X119675000Y-61509000D01*
X116390000Y-59309000D02*
X118590000Y-61509000D01*
X115815000Y-59309000D02*
X116390000Y-59309000D01*
%TO.N,Net-(U14-RF1)*%
X115720000Y-60579000D02*
X112386000Y-60579000D01*
X116672000Y-63881000D02*
X116332000Y-63541000D01*
X112386000Y-60579000D02*
X111252000Y-59445000D01*
X118575000Y-63459000D02*
X118153000Y-63881000D01*
X116332000Y-61191000D02*
X115720000Y-60579000D01*
X118153000Y-63881000D02*
X116672000Y-63881000D01*
X119675000Y-63459000D02*
X118575000Y-63459000D01*
X116332000Y-63541000D02*
X116332000Y-61191000D01*
D113*
%TO.N,Net-(Q2-G)*%
X72656300Y-135270500D02*
X72656300Y-136785500D01*
X71155500Y-137903500D02*
X71155500Y-140042500D01*
X71539000Y-137903500D02*
X71155800Y-137903500D01*
X72656300Y-136785500D02*
X71539000Y-137903500D01*
X71382000Y-133996500D02*
X72656300Y-135270500D01*
D111*
%TO.N,Net-(Q4-B)*%
X130448500Y-133728200D02*
X130448500Y-130949500D01*
%TO.N,Net-(Q4-C-Pad2)*%
X136900500Y-130543500D02*
X136900500Y-135876500D01*
X136748200Y-136028500D02*
X130448800Y-136028500D01*
D115*
%TO.N,Net-(U3-EN)*%
X72697300Y-179221500D02*
X74811500Y-179221500D01*
D111*
%TO.N,Net-(U12-TXEN)*%
X81464800Y-118668500D02*
X84250300Y-118668500D01*
X84250300Y-118668500D02*
X85608400Y-120026400D01*
%TO.N,Net-(U12-RXEN)*%
X85608500Y-117994200D02*
X85608500Y-115962500D01*
X81464300Y-118168000D02*
X83077200Y-118168000D01*
X81468000Y-118266500D02*
X83175700Y-118266500D01*
X81464300Y-118262500D02*
X81468000Y-118266500D01*
X81464300Y-118168500D02*
X81464300Y-118262500D01*
X83077200Y-118168000D02*
X83175700Y-118266500D01*
X83175700Y-118266500D02*
X85336700Y-118266500D01*
D113*
%TO.N,/ANT_SWITCH_OUT*%
X91750000Y-39919000D02*
X91750000Y-39242400D01*
X91369600Y-38862000D02*
X87122000Y-38862000D01*
X118110000Y-41275000D02*
X119451000Y-39934000D01*
D111*
X87693500Y-38290500D02*
X86550500Y-39433500D01*
D113*
X113426000Y-40498000D02*
X113426000Y-39157000D01*
X112649000Y-41275000D02*
X113426000Y-40498000D01*
D111*
X85090000Y-40894000D02*
X85090000Y-42037000D01*
X86550500Y-39433500D02*
X85090000Y-40894000D01*
D113*
X111887000Y-41275000D02*
X112649000Y-41275000D01*
X87122000Y-38862000D02*
X86550500Y-39433500D01*
D112*
X68438500Y-107707200D02*
X68438500Y-100207500D01*
D113*
X85527000Y-50236000D02*
X86147000Y-50236000D01*
X91750000Y-39242400D02*
X91369600Y-38862000D01*
D112*
X68438500Y-100207500D02*
X74653500Y-93992200D01*
D113*
X82935500Y-52649900D02*
X83359700Y-52649900D01*
X85246200Y-50763400D02*
X85246200Y-50516800D01*
X85246200Y-50516800D02*
X85527000Y-50236000D01*
X83359700Y-52649900D02*
X85246200Y-50763400D01*
X119451000Y-39934000D02*
X121879000Y-39934000D01*
D111*
%TO.N,/NRF24_ANT_OUT*%
X87376000Y-52994022D02*
X87946522Y-52423500D01*
X79887500Y-100626500D02*
X79887500Y-63999206D01*
X95939700Y-44295500D02*
X111660500Y-44295500D01*
X87946522Y-52423500D02*
X94642500Y-52423500D01*
X111660500Y-44295500D02*
X114076000Y-41880000D01*
X87376000Y-56510706D02*
X87376000Y-52994022D01*
X80249500Y-103008200D02*
X80249500Y-100988500D01*
X114076000Y-41880000D02*
X114076000Y-39157000D01*
X95123000Y-45112200D02*
X95939700Y-44295500D01*
X94642500Y-52423500D02*
X95123000Y-51943000D01*
X95123000Y-51943000D02*
X95123000Y-45112200D01*
X79887500Y-63999206D02*
X87376000Y-56510706D01*
%TO.N,/CC1101A_ANT_OUT*%
X91540000Y-51319200D02*
X88529500Y-51319200D01*
X86147000Y-49586000D02*
X86997000Y-49586000D01*
X86997000Y-49586000D02*
X88513500Y-51102500D01*
X88513500Y-51102500D02*
X88513500Y-51335200D01*
%TO.N,Net-(C97-Pad1)*%
X111116000Y-55499000D02*
X111116000Y-57259000D01*
X109220000Y-55477500D02*
X111095000Y-55477500D01*
%TO.N,Net-(C100-Pad1)*%
X117729000Y-55363000D02*
X117729000Y-54093000D01*
X117729000Y-54093000D02*
X117103000Y-53467000D01*
X117729000Y-55363000D02*
X119749000Y-55363000D01*
%TO.N,Net-(U16-RF1)*%
X108630000Y-50882000D02*
X107780000Y-50882000D01*
X107061000Y-51601000D02*
X107061000Y-52638000D01*
X107061000Y-52638000D02*
X108997000Y-54574000D01*
X108997000Y-54574000D02*
X112241000Y-54574000D01*
X113157000Y-57636500D02*
X113157000Y-55508000D01*
X107780000Y-50882000D02*
X107061000Y-51601000D01*
X112241000Y-54574000D02*
X113166000Y-55499000D01*
%TO.N,Net-(C116-Pad1)*%
X115183500Y-67312200D02*
X117203500Y-67312200D01*
X117199500Y-65416200D02*
X117199500Y-67283700D01*
%TO.N,Net-(C120-Pad2)*%
X133074500Y-107580200D02*
X133074500Y-105099500D01*
%TO.N,Net-(C120-Pad1)*%
X133074700Y-102500300D02*
X131058500Y-104516500D01*
X133965500Y-99775500D02*
X133965500Y-101609500D01*
X132245500Y-98055500D02*
X133965500Y-99775500D01*
X133965500Y-101609500D02*
X133074700Y-102500300D01*
%TO.N,Net-(C121-Pad1)*%
X115078000Y-43933000D02*
X115078000Y-46956000D01*
X113030000Y-46959500D02*
X115049000Y-46959500D01*
%TO.N,/CC1101B_ANT_OUT*%
X117078000Y-43933000D02*
X119358500Y-43933000D01*
X119358500Y-42254500D02*
X121029000Y-40584000D01*
X119358500Y-43933000D02*
X119358500Y-42254500D01*
X121029000Y-40584000D02*
X121879000Y-40584000D01*
%TO.N,Net-(U16-RF2)*%
X108630000Y-52832000D02*
X109265000Y-53467000D01*
X109265000Y-53467000D02*
X115053000Y-53467000D01*
%TO.N,Net-(U19A--)*%
X131090500Y-100468200D02*
X131090500Y-102484500D01*
X131090500Y-97571500D02*
X131090500Y-100468200D01*
X131876500Y-96785500D02*
X131090500Y-97571500D01*
%TO.N,Net-(U19B-+)*%
X131074500Y-108802500D02*
X130010500Y-109866500D01*
X130195500Y-106701500D02*
X131074500Y-107580500D01*
X130195500Y-97178500D02*
X130195500Y-106701500D01*
X131074500Y-108191500D02*
X131074500Y-108802500D01*
X127262500Y-94245200D02*
X130195500Y-97178500D01*
%TO.N,Net-(U19B--)*%
X128885500Y-113325500D02*
X128026500Y-114184500D01*
X127262500Y-95515200D02*
X129845500Y-98098500D01*
X128026500Y-114184500D02*
X128026500Y-115029900D01*
X128026500Y-115029900D02*
X128026500Y-116470200D01*
X129845500Y-98098500D02*
X129845500Y-108481500D01*
X128885500Y-109441500D02*
X128885500Y-113325500D01*
X128026500Y-115029900D02*
X128026500Y-114184200D01*
X129845500Y-108481500D02*
X128885500Y-109441500D01*
D114*
%TO.N,/ESP32_PIN16_DNC*%
X99054500Y-114692200D02*
X99054500Y-112197500D01*
%TO.N,/ESP32_PIN26_DNC*%
X111632500Y-112075500D02*
X111632500Y-114570500D01*
D112*
%TO.N,Net-(D9-K)*%
X70488800Y-107707500D02*
X72654200Y-107707500D01*
D111*
%TO.N,Net-(U11-RFC)*%
X86045500Y-69187200D02*
X86045500Y-69789500D01*
X86431000Y-70175000D02*
X87335000Y-70175000D01*
X85195500Y-68337200D02*
X86045500Y-69187200D01*
X86045500Y-69789500D02*
X86431000Y-70175000D01*
%TO.N,Net-(U14-RFC)*%
X115275000Y-62809000D02*
X114425000Y-62809000D01*
X114425000Y-62809000D02*
X113919000Y-63315000D01*
X113919000Y-63315000D02*
X113919000Y-64135700D01*
X113919000Y-64135700D02*
X115199500Y-65416200D01*
D113*
%TO.N,/C2+*%
X112431200Y-124725546D02*
X112431200Y-124992400D01*
X113882800Y-124725546D02*
X113625654Y-124468400D01*
X113882800Y-124882580D02*
X113882800Y-124725546D01*
X115297300Y-123648400D02*
X115116980Y-123648400D01*
X111972300Y-124992400D02*
X111972300Y-124725546D01*
X110114000Y-124841000D02*
X108077000Y-122804000D01*
X110777846Y-124468400D02*
X110405246Y-124841000D01*
X115371500Y-123574200D02*
X115297300Y-123648400D01*
X111972300Y-124725546D02*
X111715154Y-124468400D01*
X113625654Y-124468400D02*
X112688346Y-124468400D01*
X115116980Y-123648400D02*
X113882800Y-124882580D01*
X115696500Y-123574200D02*
X115371500Y-123574200D01*
X112688346Y-124468400D02*
X112431200Y-124725546D01*
X110405246Y-124841000D02*
X110114000Y-124841000D01*
X111715154Y-124468400D02*
X110777846Y-124468400D01*
X112431200Y-124992400D02*
X111972300Y-124992400D01*
%TO.N,/C2-*%
X109977000Y-125344000D02*
X108077000Y-125344000D01*
X111972300Y-125344000D02*
X111972300Y-125912854D01*
X110109000Y-125476000D02*
X109977000Y-125344000D01*
X115696500Y-124074200D02*
X115371500Y-124074200D01*
X112688346Y-126170000D02*
X112431200Y-125912854D01*
X110777846Y-126170000D02*
X110109000Y-125501154D01*
X113918620Y-125877034D02*
X113625654Y-126170000D01*
X115262620Y-124000000D02*
X113918620Y-125344000D01*
X115297300Y-124000000D02*
X115262620Y-124000000D01*
X113918620Y-125344000D02*
X113918620Y-125877034D01*
X113625654Y-126170000D02*
X112688346Y-126170000D01*
X115371500Y-124074200D02*
X115297300Y-124000000D01*
X111972300Y-125912854D02*
X111715154Y-126170000D01*
X111715154Y-126170000D02*
X110777846Y-126170000D01*
X112431200Y-125912854D02*
X112431200Y-125344000D01*
X112431200Y-125344000D02*
X111972300Y-125344000D01*
X110109000Y-125501154D02*
X110109000Y-125476000D01*
%TD*%
M02*
